  0
SECTION
  2
HEADER
  9
$ACADVER
  1
AC1009
  9
$EXTMAX
 10
203.807846069336
 20
177.613861083984
 30
0.0
  9
$EXTMIN
 10
1.2270509004593
 20
0.7771021127701
 30
0.0
  9
$INSUNITS
 70
     4
  9
$LUNITS
 70
     2
  9
$LUPREC
 70
     4
  9
$MEASUREMENT
 70
     1
  0
ENDSEC
  0
SECTION
  2
TABLES
  0
TABLE
  2
LAYER
 70
     1
  0
LAYER
  2
0
 70
     0
 62
     7
  6
Continuous
  0
LAYER
  2
Switch
 70
     0
 62
    70
  6
Continuous
  0
LAYER
  2
Out
 70
     0
 62
    70
  6
Continuous
  0
LAYER
  2
In
 70
     0
 62
    70
  6
Continuous
  0
ENDTAB
  0
TABLE
  2
APPID
 70
     1
  0
APPID
  2
ACAD
 70
     0
  0
ENDTAB
  0
ENDSEC
  0
SECTION
  2
ENTITIES
  0
CIRCLE
  8
0
 10
102.4745
 20
173.1688
 30
0.0
 40
1.5
  0
CIRCLE
  8
0
 10
48.9912262658472
 20
171.349923734153
 30
0.0
 40
1.5
  0
CIRCLE
  8
0
 10
7.2492652711352
 20
63.8142851224433
 30
0.0
 40
1.5
  0
CIRCLE
  8
0
 10
33.8357032850941
 20
6.79820519727
 30
0.0
 40
1.5
  0
CIRCLE
  8
0
 10
117.13792
 20
43.6287999999993
 30
0.0
 40
1.5
  0
CIRCLE
  8
0
 10
197.543924
 20
47.035176265848
 30
0.0
 40
1.5
  0
CIRCLE
  8
0
 10
197.543923734153
 20
171.349923734153
 30
0.0
 40
1.5
  0
POLYLINE
  8
Switch
 66
     1
 10
0.0
 20
0.0
 30
0.0
 70
     1
  0
VERTEX
  8
Switch
 10
130.605
 20
86.0087
 42
0.0
  0
VERTEX
  8
Switch
 10
130.605
 20
86.98914
 42
0.0
  0
VERTEX
  8
Switch
 10
144.575
 20
86.98914
 42
0.0
  0
VERTEX
  8
Switch
 10
144.575
 20
86.0087
 42
0.0
  0
VERTEX
  8
Switch
 10
145.3878
 20
86.0087
 42
0.0
  0
VERTEX
  8
Switch
 10
145.3878
 20
82.50858
 42
0.0
  0
VERTEX
  8
Switch
 10
144.575
 20
82.50858
 42
0.0
  0
VERTEX
  8
Switch
 10
144.575
 20
77.4997
 42
0.0
  0
VERTEX
  8
Switch
 10
145.3878
 20
77.4997
 42
0.0
  0
VERTEX
  8
Switch
 10
145.3878
 20
73.99958
 42
0.0
  0
VERTEX
  8
Switch
 10
144.575
 20
73.99958
 42
0.0
  0
VERTEX
  8
Switch
 10
144.575
 20
73.01914
 42
0.0
  0
VERTEX
  8
Switch
 10
130.605
 20
73.01914
 42
0.0
  0
VERTEX
  8
Switch
 10
130.605
 20
73.99958
 42
0.0
  0
VERTEX
  8
Switch
 10
129.7922
 20
73.99958
 42
0.0
  0
VERTEX
  8
Switch
 10
129.7922
 20
77.4997
 42
0.0
  0
VERTEX
  8
Switch
 10
130.605
 20
77.4997
 42
0.0
  0
VERTEX
  8
Switch
 10
130.605
 20
82.50858
 42
0.0
  0
VERTEX
  8
Switch
 10
129.7922
 20
82.50858
 42
0.0
  0
VERTEX
  8
Switch
 10
129.7922
 20
86.0087
 42
0.0
  0
SEQEND
  0
POLYLINE
  8
Switch
 66
     1
 10
0.0
 20
0.0
 30
0.0
 70
     1
  0
VERTEX
  8
Switch
 10
125.525
 20
75.59724
 42
0.0
  0
VERTEX
  8
Switch
 10
125.525
 20
74.6168
 42
0.0
  0
VERTEX
  8
Switch
 10
111.555
 20
74.6168
 42
0.0
  0
VERTEX
  8
Switch
 10
111.555
 20
75.59724
 42
0.0
  0
VERTEX
  8
Switch
 10
110.7422
 20
75.59724
 42
0.0
  0
VERTEX
  8
Switch
 10
110.7422
 20
79.09736
 42
0.0
  0
VERTEX
  8
Switch
 10
111.555
 20
79.09736
 42
0.0
  0
VERTEX
  8
Switch
 10
111.555
 20
84.10624
 42
0.0
  0
VERTEX
  8
Switch
 10
110.7422
 20
84.10624
 42
0.0
  0
VERTEX
  8
Switch
 10
110.7422
 20
87.60636
 42
0.0
  0
VERTEX
  8
Switch
 10
111.555
 20
87.60636
 42
0.0
  0
VERTEX
  8
Switch
 10
111.555
 20
88.5868
 42
0.0
  0
VERTEX
  8
Switch
 10
125.525
 20
88.5868
 42
0.0
  0
VERTEX
  8
Switch
 10
125.525
 20
87.60636
 42
0.0
  0
VERTEX
  8
Switch
 10
126.3378
 20
87.60636
 42
0.0
  0
VERTEX
  8
Switch
 10
126.3378
 20
84.10624
 42
0.0
  0
VERTEX
  8
Switch
 10
125.525
 20
84.10624
 42
0.0
  0
VERTEX
  8
Switch
 10
125.525
 20
79.09736
 42
0.0
  0
VERTEX
  8
Switch
 10
126.3378
 20
79.09736
 42
0.0
  0
VERTEX
  8
Switch
 10
126.3378
 20
75.59724
 42
0.0
  0
SEQEND
  0
POLYLINE
  8
Switch
 66
     1
 10
0.0
 20
0.0
 30
0.0
 70
     1
  0
VERTEX
  8
Switch
 10
54.405
 20
129.87704
 42
0.0
  0
VERTEX
  8
Switch
 10
53.5922
 20
129.87704
 42
0.0
  0
VERTEX
  8
Switch
 10
53.5922
 20
133.37716
 42
0.0
  0
VERTEX
  8
Switch
 10
54.405
 20
133.37716
 42
0.0
  0
VERTEX
  8
Switch
 10
54.405
 20
138.38604
 42
0.0
  0
VERTEX
  8
Switch
 10
53.5922
 20
138.38604
 42
0.0
  0
VERTEX
  8
Switch
 10
53.5922
 20
141.88616
 42
0.0
  0
VERTEX
  8
Switch
 10
54.405
 20
141.88616
 42
0.0
  0
VERTEX
  8
Switch
 10
54.405
 20
142.8666
 42
0.0
  0
VERTEX
  8
Switch
 10
68.375
 20
142.8666
 42
0.0
  0
VERTEX
  8
Switch
 10
68.375
 20
141.88616
 42
0.0
  0
VERTEX
  8
Switch
 10
69.1878
 20
141.88616
 42
0.0
  0
VERTEX
  8
Switch
 10
69.1878
 20
138.38604
 42
0.0
  0
VERTEX
  8
Switch
 10
68.375
 20
138.38604
 42
0.0
  0
VERTEX
  8
Switch
 10
68.375
 20
133.37716
 42
0.0
  0
VERTEX
  8
Switch
 10
69.1878
 20
133.37716
 42
0.0
  0
VERTEX
  8
Switch
 10
69.1878
 20
129.87704
 42
0.0
  0
VERTEX
  8
Switch
 10
68.375
 20
129.87704
 42
0.0
  0
VERTEX
  8
Switch
 10
68.375
 20
128.8966
 42
0.0
  0
VERTEX
  8
Switch
 10
54.405
 20
128.8966
 42
0.0
  0
SEQEND
  0
POLYLINE
  8
Switch
 66
     1
 10
0.0
 20
0.0
 30
0.0
 70
     1
  0
VERTEX
  8
Switch
 10
92.505
 20
143.1587
 42
0.0
  0
VERTEX
  8
Switch
 10
92.505
 20
144.13914
 42
0.0
  0
VERTEX
  8
Switch
 10
106.475
 20
144.13914
 42
0.0
  0
VERTEX
  8
Switch
 10
106.475
 20
143.1587
 42
0.0
  0
VERTEX
  8
Switch
 10
107.2878
 20
143.1587
 42
0.0
  0
VERTEX
  8
Switch
 10
107.2878
 20
139.65858
 42
0.0
  0
VERTEX
  8
Switch
 10
106.475
 20
139.65858
 42
0.0
  0
VERTEX
  8
Switch
 10
106.475
 20
134.6497
 42
0.0
  0
VERTEX
  8
Switch
 10
107.2878
 20
134.6497
 42
0.0
  0
VERTEX
  8
Switch
 10
107.2878
 20
131.14958
 42
0.0
  0
VERTEX
  8
Switch
 10
106.475
 20
131.14958
 42
0.0
  0
VERTEX
  8
Switch
 10
106.475
 20
130.16914
 42
0.0
  0
VERTEX
  8
Switch
 10
92.505
 20
130.16914
 42
0.0
  0
VERTEX
  8
Switch
 10
92.505
 20
131.14958
 42
0.0
  0
VERTEX
  8
Switch
 10
91.6922
 20
131.14958
 42
0.0
  0
VERTEX
  8
Switch
 10
91.6922
 20
134.6497
 42
0.0
  0
VERTEX
  8
Switch
 10
92.505
 20
134.6497
 42
0.0
  0
VERTEX
  8
Switch
 10
92.505
 20
139.65858
 42
0.0
  0
VERTEX
  8
Switch
 10
91.6922
 20
139.65858
 42
0.0
  0
VERTEX
  8
Switch
 10
91.6922
 20
143.1587
 42
0.0
  0
SEQEND
  0
POLYLINE
  8
Switch
 66
     1
 10
0.0
 20
0.0
 30
0.0
 70
     1
  0
VERTEX
  8
Switch
 10
173.4675
 20
101.8837
 42
0.0
  0
VERTEX
  8
Switch
 10
173.4675
 20
102.86414
 42
0.0
  0
VERTEX
  8
Switch
 10
187.4375
 20
102.86414
 42
0.0
  0
VERTEX
  8
Switch
 10
187.4375
 20
101.8837
 42
0.0
  0
VERTEX
  8
Switch
 10
188.2503
 20
101.8837
 42
0.0
  0
VERTEX
  8
Switch
 10
188.2503
 20
98.38358
 42
0.0
  0
VERTEX
  8
Switch
 10
187.4375
 20
98.38358
 42
0.0
  0
VERTEX
  8
Switch
 10
187.4375
 20
93.3747
 42
0.0
  0
VERTEX
  8
Switch
 10
188.2503
 20
93.3747
 42
0.0
  0
VERTEX
  8
Switch
 10
188.2503
 20
89.87458
 42
0.0
  0
VERTEX
  8
Switch
 10
187.4375
 20
89.87458
 42
0.0
  0
VERTEX
  8
Switch
 10
187.4375
 20
88.89414
 42
0.0
  0
VERTEX
  8
Switch
 10
173.4675
 20
88.89414
 42
0.0
  0
VERTEX
  8
Switch
 10
173.4675
 20
89.87458
 42
0.0
  0
VERTEX
  8
Switch
 10
172.6547
 20
89.87458
 42
0.0
  0
VERTEX
  8
Switch
 10
172.6547
 20
93.3747
 42
0.0
  0
VERTEX
  8
Switch
 10
173.4675
 20
93.3747
 42
0.0
  0
VERTEX
  8
Switch
 10
173.4675
 20
98.38358
 42
0.0
  0
VERTEX
  8
Switch
 10
172.6547
 20
98.38358
 42
0.0
  0
VERTEX
  8
Switch
 10
172.6547
 20
101.8837
 42
0.0
  0
SEQEND
  0
POLYLINE
  8
Switch
 66
     1
 10
0.0
 20
0.0
 30
0.0
 70
     1
  0
VERTEX
  8
Switch
 10
130.605
 20
54.94958
 42
0.0
  0
VERTEX
  8
Switch
 10
129.7922
 20
54.94958
 42
0.0
  0
VERTEX
  8
Switch
 10
129.7922
 20
58.4497
 42
0.0
  0
VERTEX
  8
Switch
 10
130.605
 20
58.4497
 42
0.0
  0
VERTEX
  8
Switch
 10
130.605
 20
63.45858
 42
0.0
  0
VERTEX
  8
Switch
 10
129.7922
 20
63.45858
 42
0.0
  0
VERTEX
  8
Switch
 10
129.7922
 20
66.9587
 42
0.0
  0
VERTEX
  8
Switch
 10
130.605
 20
66.9587
 42
0.0
  0
VERTEX
  8
Switch
 10
130.605
 20
67.93914
 42
0.0
  0
VERTEX
  8
Switch
 10
144.575
 20
67.93914
 42
0.0
  0
VERTEX
  8
Switch
 10
144.575
 20
66.9587
 42
0.0
  0
VERTEX
  8
Switch
 10
145.3878
 20
66.9587
 42
0.0
  0
VERTEX
  8
Switch
 10
145.3878
 20
63.45858
 42
0.0
  0
VERTEX
  8
Switch
 10
144.575
 20
63.45858
 42
0.0
  0
VERTEX
  8
Switch
 10
144.575
 20
58.4497
 42
0.0
  0
VERTEX
  8
Switch
 10
145.3878
 20
58.4497
 42
0.0
  0
VERTEX
  8
Switch
 10
145.3878
 20
54.94958
 42
0.0
  0
VERTEX
  8
Switch
 10
144.575
 20
54.94958
 42
0.0
  0
VERTEX
  8
Switch
 10
144.575
 20
53.96914
 42
0.0
  0
VERTEX
  8
Switch
 10
130.605
 20
53.96914
 42
0.0
  0
SEQEND
  0
POLYLINE
  8
Switch
 66
     1
 10
0.0
 20
0.0
 30
0.0
 70
     1
  0
VERTEX
  8
Switch
 10
55.38544
 20
105.08664
 42
0.0
  0
VERTEX
  8
Switch
 10
54.405
 20
105.08664
 42
0.0
  0
VERTEX
  8
Switch
 10
54.405
 20
119.05664
 42
0.0
  0
VERTEX
  8
Switch
 10
55.38544
 20
119.05664
 42
0.0
  0
VERTEX
  8
Switch
 10
55.38544
 20
119.86944
 42
0.0
  0
VERTEX
  8
Switch
 10
58.88556
 20
119.86944
 42
0.0
  0
VERTEX
  8
Switch
 10
58.88556
 20
119.05664
 42
0.0
  0
VERTEX
  8
Switch
 10
63.89444
 20
119.05664
 42
0.0
  0
VERTEX
  8
Switch
 10
63.89444
 20
119.86944
 42
0.0
  0
VERTEX
  8
Switch
 10
67.39456
 20
119.86944
 42
0.0
  0
VERTEX
  8
Switch
 10
67.39456
 20
119.05664
 42
0.0
  0
VERTEX
  8
Switch
 10
68.375
 20
119.05664
 42
0.0
  0
VERTEX
  8
Switch
 10
68.375
 20
105.08664
 42
0.0
  0
VERTEX
  8
Switch
 10
67.39456
 20
105.08664
 42
0.0
  0
VERTEX
  8
Switch
 10
67.39456
 20
104.27384
 42
0.0
  0
VERTEX
  8
Switch
 10
63.89444
 20
104.27384
 42
0.0
  0
VERTEX
  8
Switch
 10
63.89444
 20
105.08664
 42
0.0
  0
VERTEX
  8
Switch
 10
58.88556
 20
105.08664
 42
0.0
  0
VERTEX
  8
Switch
 10
58.88556
 20
104.27384
 42
0.0
  0
VERTEX
  8
Switch
 10
55.38544
 20
104.27384
 42
0.0
  0
SEQEND
  0
POLYLINE
  8
Switch
 66
     1
 10
0.0
 20
0.0
 30
0.0
 70
     1
  0
VERTEX
  8
Switch
 10
92.505
 20
86.0087
 42
0.0
  0
VERTEX
  8
Switch
 10
92.505
 20
86.98914
 42
0.0
  0
VERTEX
  8
Switch
 10
106.475
 20
86.98914
 42
0.0
  0
VERTEX
  8
Switch
 10
106.475
 20
86.0087
 42
0.0
  0
VERTEX
  8
Switch
 10
107.2878
 20
86.0087
 42
0.0
  0
VERTEX
  8
Switch
 10
107.2878
 20
82.50858
 42
0.0
  0
VERTEX
  8
Switch
 10
106.475
 20
82.50858
 42
0.0
  0
VERTEX
  8
Switch
 10
106.475
 20
77.4997
 42
0.0
  0
VERTEX
  8
Switch
 10
107.2878
 20
77.4997
 42
0.0
  0
VERTEX
  8
Switch
 10
107.2878
 20
73.99958
 42
0.0
  0
VERTEX
  8
Switch
 10
106.475
 20
73.99958
 42
0.0
  0
VERTEX
  8
Switch
 10
106.475
 20
73.01914
 42
0.0
  0
VERTEX
  8
Switch
 10
92.505
 20
73.01914
 42
0.0
  0
VERTEX
  8
Switch
 10
92.505
 20
73.99958
 42
0.0
  0
VERTEX
  8
Switch
 10
91.6922
 20
73.99958
 42
0.0
  0
VERTEX
  8
Switch
 10
91.6922
 20
77.4997
 42
0.0
  0
VERTEX
  8
Switch
 10
92.505
 20
77.4997
 42
0.0
  0
VERTEX
  8
Switch
 10
92.505
 20
82.50858
 42
0.0
  0
VERTEX
  8
Switch
 10
91.6922
 20
82.50858
 42
0.0
  0
VERTEX
  8
Switch
 10
91.6922
 20
86.0087
 42
0.0
  0
SEQEND
  0
POLYLINE
  8
Switch
 66
     1
 10
0.0
 20
0.0
 30
0.0
 70
     1
  0
VERTEX
  8
Switch
 10
173.4675
 20
82.8337
 42
0.0
  0
VERTEX
  8
Switch
 10
173.4675
 20
83.81414
 42
0.0
  0
VERTEX
  8
Switch
 10
187.4375
 20
83.81414
 42
0.0
  0
VERTEX
  8
Switch
 10
187.4375
 20
82.8337
 42
0.0
  0
VERTEX
  8
Switch
 10
188.2503
 20
82.8337
 42
0.0
  0
VERTEX
  8
Switch
 10
188.2503
 20
79.33358
 42
0.0
  0
VERTEX
  8
Switch
 10
187.4375
 20
79.33358
 42
0.0
  0
VERTEX
  8
Switch
 10
187.4375
 20
74.3247
 42
0.0
  0
VERTEX
  8
Switch
 10
188.2503
 20
74.3247
 42
0.0
  0
VERTEX
  8
Switch
 10
188.2503
 20
70.82458
 42
0.0
  0
VERTEX
  8
Switch
 10
187.4375
 20
70.82458
 42
0.0
  0
VERTEX
  8
Switch
 10
187.4375
 20
69.84414
 42
0.0
  0
VERTEX
  8
Switch
 10
173.4675
 20
69.84414
 42
0.0
  0
VERTEX
  8
Switch
 10
173.4675
 20
70.82458
 42
0.0
  0
VERTEX
  8
Switch
 10
172.6547
 20
70.82458
 42
0.0
  0
VERTEX
  8
Switch
 10
172.6547
 20
74.3247
 42
0.0
  0
VERTEX
  8
Switch
 10
173.4675
 20
74.3247
 42
0.0
  0
VERTEX
  8
Switch
 10
173.4675
 20
79.33358
 42
0.0
  0
VERTEX
  8
Switch
 10
172.6547
 20
79.33358
 42
0.0
  0
VERTEX
  8
Switch
 10
172.6547
 20
82.8337
 42
0.0
  0
SEQEND
  0
POLYLINE
  8
Switch
 66
     1
 10
0.0
 20
0.0
 30
0.0
 70
     1
  0
VERTEX
  8
Switch
 10
173.4675
 20
108.92458
 42
0.0
  0
VERTEX
  8
Switch
 10
172.6547
 20
108.92458
 42
0.0
  0
VERTEX
  8
Switch
 10
172.6547
 20
112.4247
 42
0.0
  0
VERTEX
  8
Switch
 10
173.4675
 20
112.4247
 42
0.0
  0
VERTEX
  8
Switch
 10
173.4675
 20
117.43358
 42
0.0
  0
VERTEX
  8
Switch
 10
172.6547
 20
117.43358
 42
0.0
  0
VERTEX
  8
Switch
 10
172.6547
 20
120.9337
 42
0.0
  0
VERTEX
  8
Switch
 10
173.4675
 20
120.9337
 42
0.0
  0
VERTEX
  8
Switch
 10
173.4675
 20
121.91414
 42
0.0
  0
VERTEX
  8
Switch
 10
187.4375
 20
121.91414
 42
0.0
  0
VERTEX
  8
Switch
 10
187.4375
 20
120.9337
 42
0.0
  0
VERTEX
  8
Switch
 10
188.2503
 20
120.9337
 42
0.0
  0
VERTEX
  8
Switch
 10
188.2503
 20
117.43358
 42
0.0
  0
VERTEX
  8
Switch
 10
187.4375
 20
117.43358
 42
0.0
  0
VERTEX
  8
Switch
 10
187.4375
 20
112.4247
 42
0.0
  0
VERTEX
  8
Switch
 10
188.2503
 20
112.4247
 42
0.0
  0
VERTEX
  8
Switch
 10
188.2503
 20
108.92458
 42
0.0
  0
VERTEX
  8
Switch
 10
187.4375
 20
108.92458
 42
0.0
  0
VERTEX
  8
Switch
 10
187.4375
 20
107.94414
 42
0.0
  0
VERTEX
  8
Switch
 10
173.4675
 20
107.94414
 42
0.0
  0
SEQEND
  0
POLYLINE
  8
Switch
 66
     1
 10
0.0
 20
0.0
 30
0.0
 70
     1
  0
VERTEX
  8
Switch
 10
57.53936
 20
56.95872
 42
0.0
  0
VERTEX
  8
Switch
 10
70.19872
 20
62.86168
 42
0.0
  0
VERTEX
  8
Switch
 10
71.59572
 20
59.86956
 42
0.0
  0
VERTEX
  8
Switch
 10
58.93382
 20
53.9666
 42
0.0
  0
SEQEND
  0
POLYLINE
  8
Switch
 66
     1
 10
0.0
 20
0.0
 30
0.0
 70
     1
  0
VERTEX
  8
Switch
 10
81.6846
 20
38.2313
 42
0.0
  0
VERTEX
  8
Switch
 10
69.02524
 20
32.3258
 42
0.0
  0
VERTEX
  8
Switch
 10
67.62824
 20
35.31792
 42
0.0
  0
VERTEX
  8
Switch
 10
80.29014
 20
41.22342
 42
0.0
  0
SEQEND
  0
POLYLINE
  8
Switch
 66
     1
 10
0.0
 20
0.0
 30
0.0
 70
     1
  0
VERTEX
  8
Switch
 10
67.39456
 20
90.48164
 42
0.0
  0
VERTEX
  8
Switch
 10
68.375
 20
90.48164
 42
0.0
  0
VERTEX
  8
Switch
 10
68.375
 20
76.51164
 42
0.0
  0
VERTEX
  8
Switch
 10
67.39456
 20
76.51164
 42
0.0
  0
VERTEX
  8
Switch
 10
67.39456
 20
75.69884
 42
0.0
  0
VERTEX
  8
Switch
 10
63.89444
 20
75.69884
 42
0.0
  0
VERTEX
  8
Switch
 10
63.89444
 20
76.51164
 42
0.0
  0
VERTEX
  8
Switch
 10
58.88556
 20
76.51164
 42
0.0
  0
VERTEX
  8
Switch
 10
58.88556
 20
75.69884
 42
0.0
  0
VERTEX
  8
Switch
 10
55.38544
 20
75.69884
 42
0.0
  0
VERTEX
  8
Switch
 10
55.38544
 20
76.51164
 42
0.0
  0
VERTEX
  8
Switch
 10
54.405
 20
76.51164
 42
0.0
  0
VERTEX
  8
Switch
 10
54.405
 20
90.48164
 42
0.0
  0
VERTEX
  8
Switch
 10
55.38544
 20
90.48164
 42
0.0
  0
VERTEX
  8
Switch
 10
55.38544
 20
91.29444
 42
0.0
  0
VERTEX
  8
Switch
 10
58.88556
 20
91.29444
 42
0.0
  0
VERTEX
  8
Switch
 10
58.88556
 20
90.48164
 42
0.0
  0
VERTEX
  8
Switch
 10
63.89444
 20
90.48164
 42
0.0
  0
VERTEX
  8
Switch
 10
63.89444
 20
91.29444
 42
0.0
  0
VERTEX
  8
Switch
 10
67.39456
 20
91.29444
 42
0.0
  0
SEQEND
  0
POLYLINE
  8
Switch
 66
     1
 10
0.0
 20
0.0
 30
0.0
 70
     1
  0
VERTEX
  8
Switch
 10
149.655
 20
108.92458
 42
0.0
  0
VERTEX
  8
Switch
 10
148.8422
 20
108.92458
 42
0.0
  0
VERTEX
  8
Switch
 10
148.8422
 20
112.4247
 42
0.0
  0
VERTEX
  8
Switch
 10
149.655
 20
112.4247
 42
0.0
  0
VERTEX
  8
Switch
 10
149.655
 20
117.43358
 42
0.0
  0
VERTEX
  8
Switch
 10
148.8422
 20
117.43358
 42
0.0
  0
VERTEX
  8
Switch
 10
148.8422
 20
120.9337
 42
0.0
  0
VERTEX
  8
Switch
 10
149.655
 20
120.9337
 42
0.0
  0
VERTEX
  8
Switch
 10
149.655
 20
121.91414
 42
0.0
  0
VERTEX
  8
Switch
 10
163.625
 20
121.91414
 42
0.0
  0
VERTEX
  8
Switch
 10
163.625
 20
120.9337
 42
0.0
  0
VERTEX
  8
Switch
 10
164.4378
 20
120.9337
 42
0.0
  0
VERTEX
  8
Switch
 10
164.4378
 20
117.43358
 42
0.0
  0
VERTEX
  8
Switch
 10
163.625
 20
117.43358
 42
0.0
  0
VERTEX
  8
Switch
 10
163.625
 20
112.4247
 42
0.0
  0
VERTEX
  8
Switch
 10
164.4378
 20
112.4247
 42
0.0
  0
VERTEX
  8
Switch
 10
164.4378
 20
108.92458
 42
0.0
  0
VERTEX
  8
Switch
 10
163.625
 20
108.92458
 42
0.0
  0
VERTEX
  8
Switch
 10
163.625
 20
107.94414
 42
0.0
  0
VERTEX
  8
Switch
 10
149.655
 20
107.94414
 42
0.0
  0
SEQEND
  0
POLYLINE
  8
Switch
 66
     1
 10
0.0
 20
0.0
 30
0.0
 70
     1
  0
VERTEX
  8
Switch
 10
65.80198
 20
30.82212
 42
0.0
  0
VERTEX
  8
Switch
 10
53.14262
 20
24.91916
 42
0.0
  0
VERTEX
  8
Switch
 10
51.74562
 20
27.91128
 42
0.0
  0
VERTEX
  8
Switch
 10
64.40752
 20
33.81424
 42
0.0
  0
SEQEND
  0
POLYLINE
  8
Switch
 66
     1
 10
0.0
 20
0.0
 30
0.0
 70
     1
  0
VERTEX
  8
Switch
 10
41.65674
 20
49.54954
 42
0.0
  0
VERTEX
  8
Switch
 10
54.3161
 20
55.45504
 42
0.0
  0
VERTEX
  8
Switch
 10
55.7131
 20
52.46292
 42
0.0
  0
VERTEX
  8
Switch
 10
43.0512
 20
46.55742
 42
0.0
  0
SEQEND
  0
POLYLINE
  8
Switch
 66
     1
 10
0.0
 20
0.0
 30
0.0
 70
     1
  0
VERTEX
  8
Switch
 10
182.675
 20
51.77458
 42
0.0
  0
VERTEX
  8
Switch
 10
182.675
 20
50.79414
 42
0.0
  0
VERTEX
  8
Switch
 10
168.705
 20
50.79414
 42
0.0
  0
VERTEX
  8
Switch
 10
168.705
 20
51.77458
 42
0.0
  0
VERTEX
  8
Switch
 10
167.8922
 20
51.77458
 42
0.0
  0
VERTEX
  8
Switch
 10
167.8922
 20
55.2747
 42
0.0
  0
VERTEX
  8
Switch
 10
168.705
 20
55.2747
 42
0.0
  0
VERTEX
  8
Switch
 10
168.705
 20
60.28358
 42
0.0
  0
VERTEX
  8
Switch
 10
167.8922
 20
60.28358
 42
0.0
  0
VERTEX
  8
Switch
 10
167.8922
 20
63.7837
 42
0.0
  0
VERTEX
  8
Switch
 10
168.705
 20
63.7837
 42
0.0
  0
VERTEX
  8
Switch
 10
168.705
 20
64.76414
 42
0.0
  0
VERTEX
  8
Switch
 10
182.675
 20
64.76414
 42
0.0
  0
VERTEX
  8
Switch
 10
182.675
 20
63.7837
 42
0.0
  0
VERTEX
  8
Switch
 10
183.4878
 20
63.7837
 42
0.0
  0
VERTEX
  8
Switch
 10
183.4878
 20
60.28358
 42
0.0
  0
VERTEX
  8
Switch
 10
182.675
 20
60.28358
 42
0.0
  0
VERTEX
  8
Switch
 10
182.675
 20
55.2747
 42
0.0
  0
VERTEX
  8
Switch
 10
183.4878
 20
55.2747
 42
0.0
  0
VERTEX
  8
Switch
 10
183.4878
 20
51.77458
 42
0.0
  0
SEQEND
  0
POLYLINE
  8
Switch
 66
     1
 10
0.0
 20
0.0
 30
0.0
 70
     1
  0
VERTEX
  8
Switch
 10
125.525
 20
113.69724
 42
0.0
  0
VERTEX
  8
Switch
 10
125.525
 20
112.7168
 42
0.0
  0
VERTEX
  8
Switch
 10
111.555
 20
112.7168
 42
0.0
  0
VERTEX
  8
Switch
 10
111.555
 20
113.69724
 42
0.0
  0
VERTEX
  8
Switch
 10
110.7422
 20
113.69724
 42
0.0
  0
VERTEX
  8
Switch
 10
110.7422
 20
117.19736
 42
0.0
  0
VERTEX
  8
Switch
 10
111.555
 20
117.19736
 42
0.0
  0
VERTEX
  8
Switch
 10
111.555
 20
122.20624
 42
0.0
  0
VERTEX
  8
Switch
 10
110.7422
 20
122.20624
 42
0.0
  0
VERTEX
  8
Switch
 10
110.7422
 20
125.70636
 42
0.0
  0
VERTEX
  8
Switch
 10
111.555
 20
125.70636
 42
0.0
  0
VERTEX
  8
Switch
 10
111.555
 20
126.6868
 42
0.0
  0
VERTEX
  8
Switch
 10
125.525
 20
126.6868
 42
0.0
  0
VERTEX
  8
Switch
 10
125.525
 20
125.70636
 42
0.0
  0
VERTEX
  8
Switch
 10
126.3378
 20
125.70636
 42
0.0
  0
VERTEX
  8
Switch
 10
126.3378
 20
122.20624
 42
0.0
  0
VERTEX
  8
Switch
 10
125.525
 20
122.20624
 42
0.0
  0
VERTEX
  8
Switch
 10
125.525
 20
117.19736
 42
0.0
  0
VERTEX
  8
Switch
 10
126.3378
 20
117.19736
 42
0.0
  0
VERTEX
  8
Switch
 10
126.3378
 20
113.69724
 42
0.0
  0
SEQEND
  0
POLYLINE
  8
Switch
 66
     1
 10
0.0
 20
0.0
 30
0.0
 70
     1
  0
VERTEX
  8
Switch
 10
149.655
 20
63.7837
 42
0.0
  0
VERTEX
  8
Switch
 10
149.655
 20
64.76414
 42
0.0
  0
VERTEX
  8
Switch
 10
163.625
 20
64.76414
 42
0.0
  0
VERTEX
  8
Switch
 10
163.625
 20
63.7837
 42
0.0
  0
VERTEX
  8
Switch
 10
164.4378
 20
63.7837
 42
0.0
  0
VERTEX
  8
Switch
 10
164.4378
 20
60.28358
 42
0.0
  0
VERTEX
  8
Switch
 10
163.625
 20
60.28358
 42
0.0
  0
VERTEX
  8
Switch
 10
163.625
 20
55.2747
 42
0.0
  0
VERTEX
  8
Switch
 10
164.4378
 20
55.2747
 42
0.0
  0
VERTEX
  8
Switch
 10
164.4378
 20
51.77458
 42
0.0
  0
VERTEX
  8
Switch
 10
163.625
 20
51.77458
 42
0.0
  0
VERTEX
  8
Switch
 10
163.625
 20
50.79414
 42
0.0
  0
VERTEX
  8
Switch
 10
149.655
 20
50.79414
 42
0.0
  0
VERTEX
  8
Switch
 10
149.655
 20
51.77458
 42
0.0
  0
VERTEX
  8
Switch
 10
148.8422
 20
51.77458
 42
0.0
  0
VERTEX
  8
Switch
 10
148.8422
 20
55.2747
 42
0.0
  0
VERTEX
  8
Switch
 10
149.655
 20
55.2747
 42
0.0
  0
VERTEX
  8
Switch
 10
149.655
 20
60.28358
 42
0.0
  0
VERTEX
  8
Switch
 10
148.8422
 20
60.28358
 42
0.0
  0
VERTEX
  8
Switch
 10
148.8422
 20
63.7837
 42
0.0
  0
SEQEND
  0
POLYLINE
  8
Switch
 66
     1
 10
0.0
 20
0.0
 30
0.0
 70
     1
  0
VERTEX
  8
Switch
 10
125.525
 20
56.54724
 42
0.0
  0
VERTEX
  8
Switch
 10
125.525
 20
55.5668
 42
0.0
  0
VERTEX
  8
Switch
 10
111.555
 20
55.5668
 42
0.0
  0
VERTEX
  8
Switch
 10
111.555
 20
56.54724
 42
0.0
  0
VERTEX
  8
Switch
 10
110.7422
 20
56.54724
 42
0.0
  0
VERTEX
  8
Switch
 10
110.7422
 20
60.04736
 42
0.0
  0
VERTEX
  8
Switch
 10
111.555
 20
60.04736
 42
0.0
  0
VERTEX
  8
Switch
 10
111.555
 20
65.05624
 42
0.0
  0
VERTEX
  8
Switch
 10
110.7422
 20
65.05624
 42
0.0
  0
VERTEX
  8
Switch
 10
110.7422
 20
68.55636
 42
0.0
  0
VERTEX
  8
Switch
 10
111.555
 20
68.55636
 42
0.0
  0
VERTEX
  8
Switch
 10
111.555
 20
69.5368
 42
0.0
  0
VERTEX
  8
Switch
 10
125.525
 20
69.5368
 42
0.0
  0
VERTEX
  8
Switch
 10
125.525
 20
68.55636
 42
0.0
  0
VERTEX
  8
Switch
 10
126.3378
 20
68.55636
 42
0.0
  0
VERTEX
  8
Switch
 10
126.3378
 20
65.05624
 42
0.0
  0
VERTEX
  8
Switch
 10
125.525
 20
65.05624
 42
0.0
  0
VERTEX
  8
Switch
 10
125.525
 20
60.04736
 42
0.0
  0
VERTEX
  8
Switch
 10
126.3378
 20
60.04736
 42
0.0
  0
VERTEX
  8
Switch
 10
126.3378
 20
56.54724
 42
0.0
  0
SEQEND
  0
POLYLINE
  8
Switch
 66
     1
 10
0.0
 20
0.0
 30
0.0
 70
     1
  0
VERTEX
  8
Switch
 10
73.455
 20
110.82958
 42
0.0
  0
VERTEX
  8
Switch
 10
72.6422
 20
110.82958
 42
0.0
  0
VERTEX
  8
Switch
 10
72.6422
 20
114.3297
 42
0.0
  0
VERTEX
  8
Switch
 10
73.455
 20
114.3297
 42
0.0
  0
VERTEX
  8
Switch
 10
73.455
 20
119.33858
 42
0.0
  0
VERTEX
  8
Switch
 10
72.6422
 20
119.33858
 42
0.0
  0
VERTEX
  8
Switch
 10
72.6422
 20
122.8387
 42
0.0
  0
VERTEX
  8
Switch
 10
73.455
 20
122.8387
 42
0.0
  0
VERTEX
  8
Switch
 10
73.455
 20
123.81914
 42
0.0
  0
VERTEX
  8
Switch
 10
87.425
 20
123.81914
 42
0.0
  0
VERTEX
  8
Switch
 10
87.425
 20
122.8387
 42
0.0
  0
VERTEX
  8
Switch
 10
88.2378
 20
122.8387
 42
0.0
  0
VERTEX
  8
Switch
 10
88.2378
 20
119.33858
 42
0.0
  0
VERTEX
  8
Switch
 10
87.425
 20
119.33858
 42
0.0
  0
VERTEX
  8
Switch
 10
87.425
 20
114.3297
 42
0.0
  0
VERTEX
  8
Switch
 10
88.2378
 20
114.3297
 42
0.0
  0
VERTEX
  8
Switch
 10
88.2378
 20
110.82958
 42
0.0
  0
VERTEX
  8
Switch
 10
87.425
 20
110.82958
 42
0.0
  0
VERTEX
  8
Switch
 10
87.425
 20
109.84914
 42
0.0
  0
VERTEX
  8
Switch
 10
73.455
 20
109.84914
 42
0.0
  0
SEQEND
  0
POLYLINE
  8
Switch
 66
     1
 10
0.0
 20
0.0
 30
0.0
 70
     1
  0
VERTEX
  8
Switch
 10
92.505
 20
124.1087
 42
0.0
  0
VERTEX
  8
Switch
 10
92.505
 20
125.08914
 42
0.0
  0
VERTEX
  8
Switch
 10
106.475
 20
125.08914
 42
0.0
  0
VERTEX
  8
Switch
 10
106.475
 20
124.1087
 42
0.0
  0
VERTEX
  8
Switch
 10
107.2878
 20
124.1087
 42
0.0
  0
VERTEX
  8
Switch
 10
107.2878
 20
120.60858
 42
0.0
  0
VERTEX
  8
Switch
 10
106.475
 20
120.60858
 42
0.0
  0
VERTEX
  8
Switch
 10
106.475
 20
115.5997
 42
0.0
  0
VERTEX
  8
Switch
 10
107.2878
 20
115.5997
 42
0.0
  0
VERTEX
  8
Switch
 10
107.2878
 20
112.09958
 42
0.0
  0
VERTEX
  8
Switch
 10
106.475
 20
112.09958
 42
0.0
  0
VERTEX
  8
Switch
 10
106.475
 20
111.11914
 42
0.0
  0
VERTEX
  8
Switch
 10
92.505
 20
111.11914
 42
0.0
  0
VERTEX
  8
Switch
 10
92.505
 20
112.09958
 42
0.0
  0
VERTEX
  8
Switch
 10
91.6922
 20
112.09958
 42
0.0
  0
VERTEX
  8
Switch
 10
91.6922
 20
115.5997
 42
0.0
  0
VERTEX
  8
Switch
 10
92.505
 20
115.5997
 42
0.0
  0
VERTEX
  8
Switch
 10
92.505
 20
120.60858
 42
0.0
  0
VERTEX
  8
Switch
 10
91.6922
 20
120.60858
 42
0.0
  0
VERTEX
  8
Switch
 10
91.6922
 20
124.1087
 42
0.0
  0
SEQEND
  0
POLYLINE
  8
Switch
 66
     1
 10
0.0
 20
0.0
 30
0.0
 70
     1
  0
VERTEX
  8
Switch
 10
73.455
 20
72.72958
 42
0.0
  0
VERTEX
  8
Switch
 10
72.6422
 20
72.72958
 42
0.0
  0
VERTEX
  8
Switch
 10
72.6422
 20
76.2297
 42
0.0
  0
VERTEX
  8
Switch
 10
73.455
 20
76.2297
 42
0.0
  0
VERTEX
  8
Switch
 10
73.455
 20
81.23858
 42
0.0
  0
VERTEX
  8
Switch
 10
72.6422
 20
81.23858
 42
0.0
  0
VERTEX
  8
Switch
 10
72.6422
 20
84.7387
 42
0.0
  0
VERTEX
  8
Switch
 10
73.455
 20
84.7387
 42
0.0
  0
VERTEX
  8
Switch
 10
73.455
 20
85.71914
 42
0.0
  0
VERTEX
  8
Switch
 10
87.425
 20
85.71914
 42
0.0
  0
VERTEX
  8
Switch
 10
87.425
 20
84.7387
 42
0.0
  0
VERTEX
  8
Switch
 10
88.2378
 20
84.7387
 42
0.0
  0
VERTEX
  8
Switch
 10
88.2378
 20
81.23858
 42
0.0
  0
VERTEX
  8
Switch
 10
87.425
 20
81.23858
 42
0.0
  0
VERTEX
  8
Switch
 10
87.425
 20
76.2297
 42
0.0
  0
VERTEX
  8
Switch
 10
88.2378
 20
76.2297
 42
0.0
  0
VERTEX
  8
Switch
 10
88.2378
 20
72.72958
 42
0.0
  0
VERTEX
  8
Switch
 10
87.425
 20
72.72958
 42
0.0
  0
VERTEX
  8
Switch
 10
87.425
 20
71.74914
 42
0.0
  0
VERTEX
  8
Switch
 10
73.455
 20
71.74914
 42
0.0
  0
SEQEND
  0
POLYLINE
  8
Switch
 66
     1
 10
0.0
 20
0.0
 30
0.0
 70
     1
  0
VERTEX
  8
Switch
 10
27.95598
 20
32.05402
 42
0.0
  0
VERTEX
  8
Switch
 10
27.21938
 20
31.71112
 42
0.0
  0
VERTEX
  8
Switch
 10
25.73856
 20
34.88358
 42
0.0
  0
VERTEX
  8
Switch
 10
26.47516
 20
35.22648
 42
0.0
  0
VERTEX
  8
Switch
 10
24.35934
 20
39.76546
 42
0.0
  0
VERTEX
  8
Switch
 10
23.62274
 20
39.42256
 42
0.0
  0
VERTEX
  8
Switch
 10
22.14446
 20
42.59502
 42
0.0
  0
VERTEX
  8
Switch
 10
22.88106
 20
42.93792
 42
0.0
  0
VERTEX
  8
Switch
 10
22.4645
 20
43.82692
 42
0.0
  0
VERTEX
  8
Switch
 10
35.1264
 20
49.73242
 42
0.0
  0
VERTEX
  8
Switch
 10
35.54042
 20
48.84342
 42
0.0
  0
VERTEX
  8
Switch
 10
36.27702
 20
49.18632
 42
0.0
  0
VERTEX
  8
Switch
 10
37.75784
 20
46.01386
 42
0.0
  0
VERTEX
  8
Switch
 10
37.02124
 20
45.67096
 42
0.0
  0
VERTEX
  8
Switch
 10
39.13706
 20
41.13198
 42
0.0
  0
VERTEX
  8
Switch
 10
39.87366
 20
41.47488
 42
0.0
  0
VERTEX
  8
Switch
 10
41.35194
 20
38.30242
 42
0.0
  0
VERTEX
  8
Switch
 10
40.61534
 20
37.95952
 42
0.0
  0
VERTEX
  8
Switch
 10
41.0319
 20
37.07052
 42
0.0
  0
VERTEX
  8
Switch
 10
28.37
 20
31.16502
 42
0.0
  0
SEQEND
  0
POLYLINE
  8
Switch
 66
     1
 10
0.0
 20
0.0
 30
0.0
 70
     1
  0
VERTEX
  8
Switch
 10
92.505
 20
54.94958
 42
0.0
  0
VERTEX
  8
Switch
 10
91.6922
 20
54.94958
 42
0.0
  0
VERTEX
  8
Switch
 10
91.6922
 20
58.4497
 42
0.0
  0
VERTEX
  8
Switch
 10
92.505
 20
58.4497
 42
0.0
  0
VERTEX
  8
Switch
 10
92.505
 20
63.45858
 42
0.0
  0
VERTEX
  8
Switch
 10
91.6922
 20
63.45858
 42
0.0
  0
VERTEX
  8
Switch
 10
91.6922
 20
66.9587
 42
0.0
  0
VERTEX
  8
Switch
 10
92.505
 20
66.9587
 42
0.0
  0
VERTEX
  8
Switch
 10
92.505
 20
67.93914
 42
0.0
  0
VERTEX
  8
Switch
 10
106.475
 20
67.93914
 42
0.0
  0
VERTEX
  8
Switch
 10
106.475
 20
66.9587
 42
0.0
  0
VERTEX
  8
Switch
 10
107.2878
 20
66.9587
 42
0.0
  0
VERTEX
  8
Switch
 10
107.2878
 20
63.45858
 42
0.0
  0
VERTEX
  8
Switch
 10
106.475
 20
63.45858
 42
0.0
  0
VERTEX
  8
Switch
 10
106.475
 20
58.4497
 42
0.0
  0
VERTEX
  8
Switch
 10
107.2878
 20
58.4497
 42
0.0
  0
VERTEX
  8
Switch
 10
107.2878
 20
54.94958
 42
0.0
  0
VERTEX
  8
Switch
 10
106.475
 20
54.94958
 42
0.0
  0
VERTEX
  8
Switch
 10
106.475
 20
53.96914
 42
0.0
  0
VERTEX
  8
Switch
 10
92.505
 20
53.96914
 42
0.0
  0
SEQEND
  0
POLYLINE
  8
Switch
 66
     1
 10
0.0
 20
0.0
 30
0.0
 70
     1
  0
VERTEX
  8
Switch
 10
149.655
 20
101.8837
 42
0.0
  0
VERTEX
  8
Switch
 10
149.655
 20
102.86414
 42
0.0
  0
VERTEX
  8
Switch
 10
163.625
 20
102.86414
 42
0.0
  0
VERTEX
  8
Switch
 10
163.625
 20
101.8837
 42
0.0
  0
VERTEX
  8
Switch
 10
164.4378
 20
101.8837
 42
0.0
  0
VERTEX
  8
Switch
 10
164.4378
 20
98.38358
 42
0.0
  0
VERTEX
  8
Switch
 10
163.625
 20
98.38358
 42
0.0
  0
VERTEX
  8
Switch
 10
163.625
 20
93.3747
 42
0.0
  0
VERTEX
  8
Switch
 10
164.4378
 20
93.3747
 42
0.0
  0
VERTEX
  8
Switch
 10
164.4378
 20
89.87458
 42
0.0
  0
VERTEX
  8
Switch
 10
163.625
 20
89.87458
 42
0.0
  0
VERTEX
  8
Switch
 10
163.625
 20
88.89414
 42
0.0
  0
VERTEX
  8
Switch
 10
149.655
 20
88.89414
 42
0.0
  0
VERTEX
  8
Switch
 10
149.655
 20
89.87458
 42
0.0
  0
VERTEX
  8
Switch
 10
148.8422
 20
89.87458
 42
0.0
  0
VERTEX
  8
Switch
 10
148.8422
 20
93.3747
 42
0.0
  0
VERTEX
  8
Switch
 10
149.655
 20
93.3747
 42
0.0
  0
VERTEX
  8
Switch
 10
149.655
 20
98.38358
 42
0.0
  0
VERTEX
  8
Switch
 10
148.8422
 20
98.38358
 42
0.0
  0
VERTEX
  8
Switch
 10
148.8422
 20
101.8837
 42
0.0
  0
SEQEND
  0
POLYLINE
  8
Switch
 66
     1
 10
0.0
 20
0.0
 30
0.0
 70
     1
  0
VERTEX
  8
Switch
 10
61.90816
 20
51.70854
 42
0.0
  0
VERTEX
  8
Switch
 10
61.56526
 20
52.44514
 42
0.0
  0
VERTEX
  8
Switch
 10
64.73772
 20
53.92596
 42
0.0
  0
VERTEX
  8
Switch
 10
65.08062
 20
53.18936
 42
0.0
  0
VERTEX
  8
Switch
 10
69.6196
 20
55.30518
 42
0.0
  0
VERTEX
  8
Switch
 10
69.2767
 20
56.04178
 42
0.0
  0
VERTEX
  8
Switch
 10
72.44916
 20
57.52006
 42
0.0
  0
VERTEX
  8
Switch
 10
72.79206
 20
56.78346
 42
0.0
  0
VERTEX
  8
Switch
 10
73.68106
 20
57.20002
 42
0.0
  0
VERTEX
  8
Switch
 10
79.58656
 20
44.53812
 42
0.0
  0
VERTEX
  8
Switch
 10
78.69756
 20
44.1241
 42
0.0
  0
VERTEX
  8
Switch
 10
79.04046
 20
43.3875
 42
0.0
  0
VERTEX
  8
Switch
 10
75.868
 20
41.90668
 42
0.0
  0
VERTEX
  8
Switch
 10
75.5251
 20
42.64328
 42
0.0
  0
VERTEX
  8
Switch
 10
70.98612
 20
40.52746
 42
0.0
  0
VERTEX
  8
Switch
 10
71.32902
 20
39.79086
 42
0.0
  0
VERTEX
  8
Switch
 10
68.15656
 20
38.31258
 42
0.0
  0
VERTEX
  8
Switch
 10
67.81366
 20
39.04918
 42
0.0
  0
VERTEX
  8
Switch
 10
66.92466
 20
38.63262
 42
0.0
  0
VERTEX
  8
Switch
 10
61.01916
 20
51.29452
 42
0.0
  0
SEQEND
  0
POLYLINE
  8
Switch
 66
     1
 10
0.0
 20
0.0
 30
0.0
 70
     1
  0
VERTEX
  8
Switch
 10
36.00778
 20
14.7871
 42
0.0
  0
VERTEX
  8
Switch
 10
35.27118
 20
14.4442
 42
0.0
  0
VERTEX
  8
Switch
 10
33.79036
 20
17.61666
 42
0.0
  0
VERTEX
  8
Switch
 10
34.52696
 20
17.95956
 42
0.0
  0
VERTEX
  8
Switch
 10
32.41114
 20
22.49854
 42
0.0
  0
VERTEX
  8
Switch
 10
31.67454
 20
22.15564
 42
0.0
  0
VERTEX
  8
Switch
 10
30.19626
 20
25.3281
 42
0.0
  0
VERTEX
  8
Switch
 10
30.93286
 20
25.671
 42
0.0
  0
VERTEX
  8
Switch
 10
30.5163
 20
26.56
 42
0.0
  0
VERTEX
  8
Switch
 10
43.1782
 20
32.4655
 42
0.0
  0
VERTEX
  8
Switch
 10
43.59222
 20
31.5765
 42
0.0
  0
VERTEX
  8
Switch
 10
44.32882
 20
31.9194
 42
0.0
  0
VERTEX
  8
Switch
 10
45.80964
 20
28.74694
 42
0.0
  0
VERTEX
  8
Switch
 10
45.07304
 20
28.40404
 42
0.0
  0
VERTEX
  8
Switch
 10
47.18886
 20
23.86506
 42
0.0
  0
VERTEX
  8
Switch
 10
47.92546
 20
24.20796
 42
0.0
  0
VERTEX
  8
Switch
 10
49.40374
 20
21.0355
 42
0.0
  0
VERTEX
  8
Switch
 10
48.66714
 20
20.6926
 42
0.0
  0
VERTEX
  8
Switch
 10
49.0837
 20
19.8036
 42
0.0
  0
VERTEX
  8
Switch
 10
36.4218
 20
13.8981
 42
0.0
  0
SEQEND
  0
POLYLINE
  8
Switch
 66
     1
 10
0.0
 20
0.0
 30
0.0
 70
     1
  0
VERTEX
  8
Switch
 10
130.605
 20
105.0587
 42
0.0
  0
VERTEX
  8
Switch
 10
130.605
 20
106.03914
 42
0.0
  0
VERTEX
  8
Switch
 10
144.575
 20
106.03914
 42
0.0
  0
VERTEX
  8
Switch
 10
144.575
 20
105.0587
 42
0.0
  0
VERTEX
  8
Switch
 10
145.3878
 20
105.0587
 42
0.0
  0
VERTEX
  8
Switch
 10
145.3878
 20
101.55858
 42
0.0
  0
VERTEX
  8
Switch
 10
144.575
 20
101.55858
 42
0.0
  0
VERTEX
  8
Switch
 10
144.575
 20
96.5497
 42
0.0
  0
VERTEX
  8
Switch
 10
145.3878
 20
96.5497
 42
0.0
  0
VERTEX
  8
Switch
 10
145.3878
 20
93.04958
 42
0.0
  0
VERTEX
  8
Switch
 10
144.575
 20
93.04958
 42
0.0
  0
VERTEX
  8
Switch
 10
144.575
 20
92.06914
 42
0.0
  0
VERTEX
  8
Switch
 10
130.605
 20
92.06914
 42
0.0
  0
VERTEX
  8
Switch
 10
130.605
 20
93.04958
 42
0.0
  0
VERTEX
  8
Switch
 10
129.7922
 20
93.04958
 42
0.0
  0
VERTEX
  8
Switch
 10
129.7922
 20
96.5497
 42
0.0
  0
VERTEX
  8
Switch
 10
130.605
 20
96.5497
 42
0.0
  0
VERTEX
  8
Switch
 10
130.605
 20
101.55858
 42
0.0
  0
VERTEX
  8
Switch
 10
129.7922
 20
101.55858
 42
0.0
  0
VERTEX
  8
Switch
 10
129.7922
 20
105.0587
 42
0.0
  0
SEQEND
  0
POLYLINE
  8
Switch
 66
     1
 10
0.0
 20
0.0
 30
0.0
 70
     1
  0
VERTEX
  8
Switch
 10
27.49116
 20
66.1078
 42
0.0
  0
VERTEX
  8
Switch
 10
28.22776
 20
66.4507
 42
0.0
  0
VERTEX
  8
Switch
 10
29.70858
 20
63.27824
 42
0.0
  0
VERTEX
  8
Switch
 10
28.97198
 20
62.93534
 42
0.0
  0
VERTEX
  8
Switch
 10
31.0878
 20
58.39636
 42
0.0
  0
VERTEX
  8
Switch
 10
31.8244
 20
58.73926
 42
0.0
  0
VERTEX
  8
Switch
 10
33.30268
 20
55.5668
 42
0.0
  0
VERTEX
  8
Switch
 10
32.56608
 20
55.2239
 42
0.0
  0
VERTEX
  8
Switch
 10
32.98264
 20
54.3349
 42
0.0
  0
VERTEX
  8
Switch
 10
20.32074
 20
48.4294
 42
0.0
  0
VERTEX
  8
Switch
 10
19.90672
 20
49.3184
 42
0.0
  0
VERTEX
  8
Switch
 10
19.17012
 20
48.9755
 42
0.0
  0
VERTEX
  8
Switch
 10
17.6893
 20
52.14796
 42
0.0
  0
VERTEX
  8
Switch
 10
18.4259
 20
52.49086
 42
0.0
  0
VERTEX
  8
Switch
 10
16.31008
 20
57.02984
 42
0.0
  0
VERTEX
  8
Switch
 10
15.57348
 20
56.68694
 42
0.0
  0
VERTEX
  8
Switch
 10
14.0952
 20
59.8594
 42
0.0
  0
VERTEX
  8
Switch
 10
14.8318
 20
60.2023
 42
0.0
  0
VERTEX
  8
Switch
 10
14.41524
 20
61.0913
 42
0.0
  0
VERTEX
  8
Switch
 10
27.07714
 20
66.9968
 42
0.0
  0
SEQEND
  0
POLYLINE
  8
Switch
 66
     1
 10
0.0
 20
0.0
 30
0.0
 70
     1
  0
VERTEX
  8
Switch
 10
125.525
 20
106.65636
 42
0.0
  0
VERTEX
  8
Switch
 10
126.3378
 20
106.65636
 42
0.0
  0
VERTEX
  8
Switch
 10
126.3378
 20
103.15624
 42
0.0
  0
VERTEX
  8
Switch
 10
125.525
 20
103.15624
 42
0.0
  0
VERTEX
  8
Switch
 10
125.525
 20
98.14736
 42
0.0
  0
VERTEX
  8
Switch
 10
126.3378
 20
98.14736
 42
0.0
  0
VERTEX
  8
Switch
 10
126.3378
 20
94.64724
 42
0.0
  0
VERTEX
  8
Switch
 10
125.525
 20
94.64724
 42
0.0
  0
VERTEX
  8
Switch
 10
125.525
 20
93.6668
 42
0.0
  0
VERTEX
  8
Switch
 10
111.555
 20
93.6668
 42
0.0
  0
VERTEX
  8
Switch
 10
111.555
 20
94.64724
 42
0.0
  0
VERTEX
  8
Switch
 10
110.7422
 20
94.64724
 42
0.0
  0
VERTEX
  8
Switch
 10
110.7422
 20
98.14736
 42
0.0
  0
VERTEX
  8
Switch
 10
111.555
 20
98.14736
 42
0.0
  0
VERTEX
  8
Switch
 10
111.555
 20
103.15624
 42
0.0
  0
VERTEX
  8
Switch
 10
110.7422
 20
103.15624
 42
0.0
  0
VERTEX
  8
Switch
 10
110.7422
 20
106.65636
 42
0.0
  0
VERTEX
  8
Switch
 10
111.555
 20
106.65636
 42
0.0
  0
VERTEX
  8
Switch
 10
111.555
 20
107.6368
 42
0.0
  0
VERTEX
  8
Switch
 10
125.525
 20
107.6368
 42
0.0
  0
SEQEND
  0
POLYLINE
  8
Switch
 66
     1
 10
0.0
 20
0.0
 30
0.0
 70
     1
  0
VERTEX
  8
Switch
 10
92.505
 20
105.0587
 42
0.0
  0
VERTEX
  8
Switch
 10
92.505
 20
106.03914
 42
0.0
  0
VERTEX
  8
Switch
 10
106.475
 20
106.03914
 42
0.0
  0
VERTEX
  8
Switch
 10
106.475
 20
105.0587
 42
0.0
  0
VERTEX
  8
Switch
 10
107.2878
 20
105.0587
 42
0.0
  0
VERTEX
  8
Switch
 10
107.2878
 20
101.55858
 42
0.0
  0
VERTEX
  8
Switch
 10
106.475
 20
101.55858
 42
0.0
  0
VERTEX
  8
Switch
 10
106.475
 20
96.5497
 42
0.0
  0
VERTEX
  8
Switch
 10
107.2878
 20
96.5497
 42
0.0
  0
VERTEX
  8
Switch
 10
107.2878
 20
93.04958
 42
0.0
  0
VERTEX
  8
Switch
 10
106.475
 20
93.04958
 42
0.0
  0
VERTEX
  8
Switch
 10
106.475
 20
92.06914
 42
0.0
  0
VERTEX
  8
Switch
 10
92.505
 20
92.06914
 42
0.0
  0
VERTEX
  8
Switch
 10
92.505
 20
93.04958
 42
0.0
  0
VERTEX
  8
Switch
 10
91.6922
 20
93.04958
 42
0.0
  0
VERTEX
  8
Switch
 10
91.6922
 20
96.5497
 42
0.0
  0
VERTEX
  8
Switch
 10
92.505
 20
96.5497
 42
0.0
  0
VERTEX
  8
Switch
 10
92.505
 20
101.55858
 42
0.0
  0
VERTEX
  8
Switch
 10
91.6922
 20
101.55858
 42
0.0
  0
VERTEX
  8
Switch
 10
91.6922
 20
105.0587
 42
0.0
  0
SEQEND
  0
POLYLINE
  8
Switch
 66
     1
 10
0.0
 20
0.0
 30
0.0
 70
     1
  0
VERTEX
  8
Switch
 10
130.605
 20
124.1087
 42
0.0
  0
VERTEX
  8
Switch
 10
130.605
 20
125.08914
 42
0.0
  0
VERTEX
  8
Switch
 10
144.575
 20
125.08914
 42
0.0
  0
VERTEX
  8
Switch
 10
144.575
 20
124.1087
 42
0.0
  0
VERTEX
  8
Switch
 10
145.3878
 20
124.1087
 42
0.0
  0
VERTEX
  8
Switch
 10
145.3878
 20
120.60858
 42
0.0
  0
VERTEX
  8
Switch
 10
144.575
 20
120.60858
 42
0.0
  0
VERTEX
  8
Switch
 10
144.575
 20
115.5997
 42
0.0
  0
VERTEX
  8
Switch
 10
145.3878
 20
115.5997
 42
0.0
  0
VERTEX
  8
Switch
 10
145.3878
 20
112.09958
 42
0.0
  0
VERTEX
  8
Switch
 10
144.575
 20
112.09958
 42
0.0
  0
VERTEX
  8
Switch
 10
144.575
 20
111.11914
 42
0.0
  0
VERTEX
  8
Switch
 10
130.605
 20
111.11914
 42
0.0
  0
VERTEX
  8
Switch
 10
130.605
 20
112.09958
 42
0.0
  0
VERTEX
  8
Switch
 10
129.7922
 20
112.09958
 42
0.0
  0
VERTEX
  8
Switch
 10
129.7922
 20
115.5997
 42
0.0
  0
VERTEX
  8
Switch
 10
130.605
 20
115.5997
 42
0.0
  0
VERTEX
  8
Switch
 10
130.605
 20
120.60858
 42
0.0
  0
VERTEX
  8
Switch
 10
129.7922
 20
120.60858
 42
0.0
  0
VERTEX
  8
Switch
 10
129.7922
 20
124.1087
 42
0.0
  0
SEQEND
  0
POLYLINE
  8
Switch
 66
     1
 10
0.0
 20
0.0
 30
0.0
 70
     1
  0
VERTEX
  8
Switch
 10
149.655
 20
127.97204
 42
0.0
  0
VERTEX
  8
Switch
 10
148.8422
 20
127.97204
 42
0.0
  0
VERTEX
  8
Switch
 10
148.8422
 20
131.47216
 42
0.0
  0
VERTEX
  8
Switch
 10
149.655
 20
131.47216
 42
0.0
  0
VERTEX
  8
Switch
 10
149.655
 20
136.48104
 42
0.0
  0
VERTEX
  8
Switch
 10
148.8422
 20
136.48104
 42
0.0
  0
VERTEX
  8
Switch
 10
148.8422
 20
139.98116
 42
0.0
  0
VERTEX
  8
Switch
 10
149.655
 20
139.98116
 42
0.0
  0
VERTEX
  8
Switch
 10
149.655
 20
140.9616
 42
0.0
  0
VERTEX
  8
Switch
 10
163.625
 20
140.9616
 42
0.0
  0
VERTEX
  8
Switch
 10
163.625
 20
139.98116
 42
0.0
  0
VERTEX
  8
Switch
 10
164.4378
 20
139.98116
 42
0.0
  0
VERTEX
  8
Switch
 10
164.4378
 20
136.48104
 42
0.0
  0
VERTEX
  8
Switch
 10
163.625
 20
136.48104
 42
0.0
  0
VERTEX
  8
Switch
 10
163.625
 20
131.47216
 42
0.0
  0
VERTEX
  8
Switch
 10
164.4378
 20
131.47216
 42
0.0
  0
VERTEX
  8
Switch
 10
164.4378
 20
127.97204
 42
0.0
  0
VERTEX
  8
Switch
 10
163.625
 20
127.97204
 42
0.0
  0
VERTEX
  8
Switch
 10
163.625
 20
126.9916
 42
0.0
  0
VERTEX
  8
Switch
 10
149.655
 20
126.9916
 42
0.0
  0
SEQEND
  0
POLYLINE
  8
Switch
 66
     1
 10
0.0
 20
0.0
 30
0.0
 70
     1
  0
VERTEX
  8
Switch
 10
37.1711
 20
57.36766
 42
0.0
  0
VERTEX
  8
Switch
 10
36.4345
 20
57.02476
 42
0.0
  0
VERTEX
  8
Switch
 10
34.95368
 20
60.19722
 42
0.0
  0
VERTEX
  8
Switch
 10
35.69028
 20
60.54012
 42
0.0
  0
VERTEX
  8
Switch
 10
33.57446
 20
65.0791
 42
0.0
  0
VERTEX
  8
Switch
 10
32.83786
 20
64.7362
 42
0.0
  0
VERTEX
  8
Switch
 10
31.35958
 20
67.90866
 42
0.0
  0
VERTEX
  8
Switch
 10
32.09618
 20
68.25156
 42
0.0
  0
VERTEX
  8
Switch
 10
31.67962
 20
69.14056
 42
0.0
  0
VERTEX
  8
Switch
 10
44.34152
 20
75.04606
 42
0.0
  0
VERTEX
  8
Switch
 10
44.75554
 20
74.15706
 42
0.0
  0
VERTEX
  8
Switch
 10
45.49214
 20
74.49996
 42
0.0
  0
VERTEX
  8
Switch
 10
46.97296
 20
71.3275
 42
0.0
  0
VERTEX
  8
Switch
 10
46.23636
 20
70.9846
 42
0.0
  0
VERTEX
  8
Switch
 10
48.35218
 20
66.44562
 42
0.0
  0
VERTEX
  8
Switch
 10
49.08878
 20
66.78852
 42
0.0
  0
VERTEX
  8
Switch
 10
50.56706
 20
63.61606
 42
0.0
  0
VERTEX
  8
Switch
 10
49.83046
 20
63.27316
 42
0.0
  0
VERTEX
  8
Switch
 10
50.24702
 20
62.38416
 42
0.0
  0
VERTEX
  8
Switch
 10
37.58512
 20
56.47866
 42
0.0
  0
SEQEND
  0
POLYLINE
  8
Switch
 66
     1
 10
0.0
 20
0.0
 30
0.0
 70
     1
  0
VERTEX
  8
Switch
 10
73.455
 20
129.87704
 42
0.0
  0
VERTEX
  8
Switch
 10
72.6422
 20
129.87704
 42
0.0
  0
VERTEX
  8
Switch
 10
72.6422
 20
133.37716
 42
0.0
  0
VERTEX
  8
Switch
 10
73.455
 20
133.37716
 42
0.0
  0
VERTEX
  8
Switch
 10
73.455
 20
138.38604
 42
0.0
  0
VERTEX
  8
Switch
 10
72.6422
 20
138.38604
 42
0.0
  0
VERTEX
  8
Switch
 10
72.6422
 20
141.88616
 42
0.0
  0
VERTEX
  8
Switch
 10
73.455
 20
141.88616
 42
0.0
  0
VERTEX
  8
Switch
 10
73.455
 20
142.8666
 42
0.0
  0
VERTEX
  8
Switch
 10
87.425
 20
142.8666
 42
0.0
  0
VERTEX
  8
Switch
 10
87.425
 20
141.88616
 42
0.0
  0
VERTEX
  8
Switch
 10
88.2378
 20
141.88616
 42
0.0
  0
VERTEX
  8
Switch
 10
88.2378
 20
138.38604
 42
0.0
  0
VERTEX
  8
Switch
 10
87.425
 20
138.38604
 42
0.0
  0
VERTEX
  8
Switch
 10
87.425
 20
133.37716
 42
0.0
  0
VERTEX
  8
Switch
 10
88.2378
 20
133.37716
 42
0.0
  0
VERTEX
  8
Switch
 10
88.2378
 20
129.87704
 42
0.0
  0
VERTEX
  8
Switch
 10
87.425
 20
129.87704
 42
0.0
  0
VERTEX
  8
Switch
 10
87.425
 20
128.8966
 42
0.0
  0
VERTEX
  8
Switch
 10
73.455
 20
128.8966
 42
0.0
  0
SEQEND
  0
POLYLINE
  8
Switch
 66
     1
 10
0.0
 20
0.0
 30
0.0
 70
     1
  0
VERTEX
  8
Switch
 10
73.455
 20
103.7887
 42
0.0
  0
VERTEX
  8
Switch
 10
73.455
 20
104.76914
 42
0.0
  0
VERTEX
  8
Switch
 10
87.425
 20
104.76914
 42
0.0
  0
VERTEX
  8
Switch
 10
87.425
 20
103.7887
 42
0.0
  0
VERTEX
  8
Switch
 10
88.2378
 20
103.7887
 42
0.0
  0
VERTEX
  8
Switch
 10
88.2378
 20
100.28858
 42
0.0
  0
VERTEX
  8
Switch
 10
87.425
 20
100.28858
 42
0.0
  0
VERTEX
  8
Switch
 10
87.425
 20
95.2797
 42
0.0
  0
VERTEX
  8
Switch
 10
88.2378
 20
95.2797
 42
0.0
  0
VERTEX
  8
Switch
 10
88.2378
 20
91.77958
 42
0.0
  0
VERTEX
  8
Switch
 10
87.425
 20
91.77958
 42
0.0
  0
VERTEX
  8
Switch
 10
87.425
 20
90.79914
 42
0.0
  0
VERTEX
  8
Switch
 10
73.455
 20
90.79914
 42
0.0
  0
VERTEX
  8
Switch
 10
73.455
 20
91.77958
 42
0.0
  0
VERTEX
  8
Switch
 10
72.6422
 20
91.77958
 42
0.0
  0
VERTEX
  8
Switch
 10
72.6422
 20
95.2797
 42
0.0
  0
VERTEX
  8
Switch
 10
73.455
 20
95.2797
 42
0.0
  0
VERTEX
  8
Switch
 10
73.455
 20
100.28858
 42
0.0
  0
VERTEX
  8
Switch
 10
72.6422
 20
100.28858
 42
0.0
  0
VERTEX
  8
Switch
 10
72.6422
 20
103.7887
 42
0.0
  0
SEQEND
  0
POLYLINE
  8
Switch
 66
     1
 10
0.0
 20
0.0
 30
0.0
 70
     1
  0
VERTEX
  8
Switch
 10
44.64378
 20
43.65674
 42
0.0
  0
VERTEX
  8
Switch
 10
44.30088
 20
44.39334
 42
0.0
  0
VERTEX
  8
Switch
 10
47.47334
 20
45.87416
 42
0.0
  0
VERTEX
  8
Switch
 10
47.81624
 20
45.13756
 42
0.0
  0
VERTEX
  8
Switch
 10
52.35522
 20
47.25338
 42
0.0
  0
VERTEX
  8
Switch
 10
52.01232
 20
47.98998
 42
0.0
  0
VERTEX
  8
Switch
 10
55.18478
 20
49.46826
 42
0.0
  0
VERTEX
  8
Switch
 10
55.52768
 20
48.73166
 42
0.0
  0
VERTEX
  8
Switch
 10
56.41668
 20
49.14822
 42
0.0
  0
VERTEX
  8
Switch
 10
62.32218
 20
36.48632
 42
0.0
  0
VERTEX
  8
Switch
 10
61.43318
 20
36.0723
 42
0.0
  0
VERTEX
  8
Switch
 10
61.77608
 20
35.3357
 42
0.0
  0
VERTEX
  8
Switch
 10
58.60362
 20
33.85488
 42
0.0
  0
VERTEX
  8
Switch
 10
58.26072
 20
34.59148
 42
0.0
  0
VERTEX
  8
Switch
 10
53.72174
 20
32.47566
 42
0.0
  0
VERTEX
  8
Switch
 10
54.06464
 20
31.73906
 42
0.0
  0
VERTEX
  8
Switch
 10
50.89218
 20
30.26078
 42
0.0
  0
VERTEX
  8
Switch
 10
50.54928
 20
30.99738
 42
0.0
  0
VERTEX
  8
Switch
 10
49.66028
 20
30.58082
 42
0.0
  0
VERTEX
  8
Switch
 10
43.75478
 20
43.24272
 42
0.0
  0
SEQEND
  0
POLYLINE
  8
Switch
 66
     1
 10
0.0
 20
0.0
 30
0.0
 70
     1
  0
VERTEX
  8
Switch
 10
130.605
 20
143.1587
 42
0.0
  0
VERTEX
  8
Switch
 10
130.605
 20
144.13914
 42
0.0
  0
VERTEX
  8
Switch
 10
144.575
 20
144.13914
 42
0.0
  0
VERTEX
  8
Switch
 10
144.575
 20
143.1587
 42
0.0
  0
VERTEX
  8
Switch
 10
145.3878
 20
143.1587
 42
0.0
  0
VERTEX
  8
Switch
 10
145.3878
 20
139.65858
 42
0.0
  0
VERTEX
  8
Switch
 10
144.575
 20
139.65858
 42
0.0
  0
VERTEX
  8
Switch
 10
144.575
 20
134.6497
 42
0.0
  0
VERTEX
  8
Switch
 10
145.3878
 20
134.6497
 42
0.0
  0
VERTEX
  8
Switch
 10
145.3878
 20
131.14958
 42
0.0
  0
VERTEX
  8
Switch
 10
144.575
 20
131.14958
 42
0.0
  0
VERTEX
  8
Switch
 10
144.575
 20
130.16914
 42
0.0
  0
VERTEX
  8
Switch
 10
130.605
 20
130.16914
 42
0.0
  0
VERTEX
  8
Switch
 10
130.605
 20
131.14958
 42
0.0
  0
VERTEX
  8
Switch
 10
129.7922
 20
131.14958
 42
0.0
  0
VERTEX
  8
Switch
 10
129.7922
 20
134.6497
 42
0.0
  0
VERTEX
  8
Switch
 10
130.605
 20
134.6497
 42
0.0
  0
VERTEX
  8
Switch
 10
130.605
 20
139.65858
 42
0.0
  0
VERTEX
  8
Switch
 10
129.7922
 20
139.65858
 42
0.0
  0
VERTEX
  8
Switch
 10
129.7922
 20
143.1587
 42
0.0
  0
SEQEND
  0
POLYLINE
  8
Switch
 66
     1
 10
0.0
 20
0.0
 30
0.0
 70
     1
  0
VERTEX
  8
Switch
 10
149.655
 20
82.8337
 42
0.0
  0
VERTEX
  8
Switch
 10
149.655
 20
83.81414
 42
0.0
  0
VERTEX
  8
Switch
 10
163.625
 20
83.81414
 42
0.0
  0
VERTEX
  8
Switch
 10
163.625
 20
82.8337
 42
0.0
  0
VERTEX
  8
Switch
 10
164.4378
 20
82.8337
 42
0.0
  0
VERTEX
  8
Switch
 10
164.4378
 20
79.33358
 42
0.0
  0
VERTEX
  8
Switch
 10
163.625
 20
79.33358
 42
0.0
  0
VERTEX
  8
Switch
 10
163.625
 20
74.3247
 42
0.0
  0
VERTEX
  8
Switch
 10
164.4378
 20
74.3247
 42
0.0
  0
VERTEX
  8
Switch
 10
164.4378
 20
70.82458
 42
0.0
  0
VERTEX
  8
Switch
 10
163.625
 20
70.82458
 42
0.0
  0
VERTEX
  8
Switch
 10
163.625
 20
69.84414
 42
0.0
  0
VERTEX
  8
Switch
 10
149.655
 20
69.84414
 42
0.0
  0
VERTEX
  8
Switch
 10
149.655
 20
70.82458
 42
0.0
  0
VERTEX
  8
Switch
 10
148.8422
 20
70.82458
 42
0.0
  0
VERTEX
  8
Switch
 10
148.8422
 20
74.3247
 42
0.0
  0
VERTEX
  8
Switch
 10
149.655
 20
74.3247
 42
0.0
  0
VERTEX
  8
Switch
 10
149.655
 20
79.33358
 42
0.0
  0
VERTEX
  8
Switch
 10
148.8422
 20
79.33358
 42
0.0
  0
VERTEX
  8
Switch
 10
148.8422
 20
82.8337
 42
0.0
  0
SEQEND
  0
POLYLINE
  8
Switch
 66
     1
 10
0.0
 20
0.0
 30
0.0
 70
     1
  0
VERTEX
  8
Switch
 10
125.525
 20
144.75636
 42
0.0
  0
VERTEX
  8
Switch
 10
126.3378
 20
144.75636
 42
0.0
  0
VERTEX
  8
Switch
 10
126.3378
 20
141.25624
 42
0.0
  0
VERTEX
  8
Switch
 10
125.525
 20
141.25624
 42
0.0
  0
VERTEX
  8
Switch
 10
125.525
 20
136.24736
 42
0.0
  0
VERTEX
  8
Switch
 10
126.3378
 20
136.24736
 42
0.0
  0
VERTEX
  8
Switch
 10
126.3378
 20
132.74724
 42
0.0
  0
VERTEX
  8
Switch
 10
125.525
 20
132.74724
 42
0.0
  0
VERTEX
  8
Switch
 10
125.525
 20
131.7668
 42
0.0
  0
VERTEX
  8
Switch
 10
111.555
 20
131.7668
 42
0.0
  0
VERTEX
  8
Switch
 10
111.555
 20
132.74724
 42
0.0
  0
VERTEX
  8
Switch
 10
110.7422
 20
132.74724
 42
0.0
  0
VERTEX
  8
Switch
 10
110.7422
 20
136.24736
 42
0.0
  0
VERTEX
  8
Switch
 10
111.555
 20
136.24736
 42
0.0
  0
VERTEX
  8
Switch
 10
111.555
 20
141.25624
 42
0.0
  0
VERTEX
  8
Switch
 10
110.7422
 20
141.25624
 42
0.0
  0
VERTEX
  8
Switch
 10
110.7422
 20
144.75636
 42
0.0
  0
VERTEX
  8
Switch
 10
111.555
 20
144.75636
 42
0.0
  0
VERTEX
  8
Switch
 10
111.555
 20
145.7368
 42
0.0
  0
VERTEX
  8
Switch
 10
125.525
 20
145.7368
 42
0.0
  0
SEQEND
  0
POLYLINE
  8
Switch
 66
     1
 10
0.0
 20
0.0
 30
0.0
 70
     1
  0
VERTEX
  8
Switch
 10
173.4675
 20
127.97204
 42
0.0
  0
VERTEX
  8
Switch
 10
172.6547
 20
127.97204
 42
0.0
  0
VERTEX
  8
Switch
 10
172.6547
 20
131.47216
 42
0.0
  0
VERTEX
  8
Switch
 10
173.4675
 20
131.47216
 42
0.0
  0
VERTEX
  8
Switch
 10
173.4675
 20
136.48104
 42
0.0
  0
VERTEX
  8
Switch
 10
172.6547
 20
136.48104
 42
0.0
  0
VERTEX
  8
Switch
 10
172.6547
 20
139.98116
 42
0.0
  0
VERTEX
  8
Switch
 10
173.4675
 20
139.98116
 42
0.0
  0
VERTEX
  8
Switch
 10
173.4675
 20
140.9616
 42
0.0
  0
VERTEX
  8
Switch
 10
187.4375
 20
140.9616
 42
0.0
  0
VERTEX
  8
Switch
 10
187.4375
 20
139.98116
 42
0.0
  0
VERTEX
  8
Switch
 10
188.2503
 20
139.98116
 42
0.0
  0
VERTEX
  8
Switch
 10
188.2503
 20
136.48104
 42
0.0
  0
VERTEX
  8
Switch
 10
187.4375
 20
136.48104
 42
0.0
  0
VERTEX
  8
Switch
 10
187.4375
 20
131.47216
 42
0.0
  0
VERTEX
  8
Switch
 10
188.2503
 20
131.47216
 42
0.0
  0
VERTEX
  8
Switch
 10
188.2503
 20
127.97204
 42
0.0
  0
VERTEX
  8
Switch
 10
187.4375
 20
127.97204
 42
0.0
  0
VERTEX
  8
Switch
 10
187.4375
 20
126.9916
 42
0.0
  0
VERTEX
  8
Switch
 10
173.4675
 20
126.9916
 42
0.0
  0
SEQEND
  0
POLYLINE
  8
Out
 66
     1
 10
0.0
 20
0.0
 30
0.0
 70
     1
  0
VERTEX
  8
Out
 10
81.7708000000004
 20
171.0
 42
0.0
  0
VERTEX
  8
Out
 10
78.5
 20
171.0
 42
0.0
  0
VERTEX
  8
Out
 10
78.4999999999999
 20
172.50078
 42
0.0
  0
VERTEX
  8
Out
 10
79.0571000000002
 20
172.500780000001
 42
0.0
  0
VERTEX
  8
Out
 10
92.9368
 20
177.6138
 42
0.0
  0
VERTEX
  8
Out
 10
112.01223035308
 20
177.613855239421
 42
0.0
  0
VERTEX
  8
Out
 10
121.297805424873
 20
172.511596809304
 42
0.0
  0
VERTEX
  8
Out
 10
121.317314911625
 20
172.500876693161
 42
0.0
  0
VERTEX
  8
Out
 10
122.79196
 20
172.50078
 42
0.0
  0
VERTEX
  8
Out
 10
122.79196
 20
170.501800000001
 42
0.0
  0
VERTEX
  8
Out
 10
120.9022
 20
170.5018
 42
0.0
  0
VERTEX
  8
Out
 10
120.902200000001
 20
168.7238
 42
0.0
  0
VERTEX
  8
Out
 10
120.0
 20
168.7238
 42
0.0
  0
VERTEX
  8
Out
 10
120.0
 20
163.847
 42
0.0
  0
VERTEX
  8
Out
 10
108.0
 20
163.847
 42
0.0
  0
VERTEX
  8
Out
 10
108.0
 20
151.0
 42
0.0
  0
VERTEX
  8
Out
 10
148.21912
 20
151.0
 42
0.0
  0
VERTEX
  8
Out
 10
148.21912
 20
149.0
 42
0.0
  0
VERTEX
  8
Out
 10
181.0
 20
149.0
 42
0.0
  0
VERTEX
  8
Out
 10
181.0
 20
167.7238
 42
0.0
  0
VERTEX
  8
Out
 10
181.0
 20
168.7238
 42
0.0
  0
VERTEX
  8
Out
 10
132.4084
 20
168.7238
 42
0.0
  0
VERTEX
  8
Out
 10
132.4084
 20
170.5018
 42
0.0
  0
VERTEX
  8
Out
 10
130.49324
 20
170.501800000001
 42
0.0
  0
VERTEX
  8
Out
 10
130.49324
 20
172.50078
 42
0.0
  0
VERTEX
  8
Out
 10
131.993194911625
 20
172.500876693159
 42
0.0
  0
VERTEX
  8
Out
 10
131.993415997344
 20
172.500876707412
 42
0.0
  0
VERTEX
  8
Out
 10
141.2984
 20
177.6138
 42
0.0
  0
VERTEX
  8
Out
 10
196.807845088375
 20
177.613703306842
 42
-0.2914712965981
  0
VERTEX
  8
Out
 10
203.151986749065
 20
173.57205869271
 42
-0.1095189104978
  0
VERTEX
  8
Out
 10
203.807845088375
 20
170.613703306842
 42
0.0
  0
VERTEX
  8
Out
 10
203.807845088375
 20
46.1837033068432
 42
-0.4142135623731
  0
VERTEX
  8
Out
 10
196.807845088374
 20
39.1837033068432
 42
0.0
  0
VERTEX
  8
Out
 10
119.675053082764
 20
39.1837033068491
 42
0.1094975108592
  0
VERTEX
  8
Out
 10
116.71723462432
 20
38.5280953160875
 42
0.0
  0
VERTEX
  8
Out
 10
37.1492560936493
 20
1.4327102002354
 42
-0.4141910192641
  0
VERTEX
  8
Out
 10
27.8472731394562
 20
4.8187950035032
 42
0.0
  0
VERTEX
  8
Out
 10
1.8828867336194
 20
60.5000772096902
 42
-0.4142221777008
  0
VERTEX
  8
Out
 10
5.2689304734423
 20
69.8026354820658
 42
0.0
  0
VERTEX
  8
Out
 10
38.6791655417108
 20
85.3807543922626
 42
0.2914822858544
  0
VERTEX
  8
Out
 10
42.7210450883747
 20
91.725005599738
 42
0.0
  0
VERTEX
  8
Out
 10
42.7210450883747
 20
170.613703306842
 42
-0.4142065807752
  0
VERTEX
  8
Out
 10
49.7208782312985
 20
177.613703304853
 42
0.0
  0
VERTEX
  8
Out
 10
49.7210450883749
 20
177.613703306842
 42
0.0
  0
VERTEX
  8
Out
 10
57.834
 20
177.6138
 42
0.0
  0
VERTEX
  8
Out
 10
71.7137
 20
172.50078
 42
0.0
  0
VERTEX
  8
Out
 10
72.5
 20
172.50078
 42
0.0
  0
VERTEX
  8
Out
 10
72.5
 20
171.0
 42
0.0
  0
VERTEX
  8
Out
 10
69.0
 20
171.0
 42
0.0
  0
VERTEX
  8
Out
 10
68.9999999999999
 20
170.5018
 42
0.0
  0
VERTEX
  8
Out
 10
66.8764
 20
170.5018
 42
0.0
  0
VERTEX
  8
Out
 10
66.8764000000002
 20
168.7238
 42
0.0
  0
VERTEX
  8
Out
 10
66.0006548682319
 20
168.7238
 42
0.0
  0
VERTEX
  8
Out
 10
66.003658
 20
167.457186422174
 42
0.0
  0
VERTEX
  8
Out
 10
66.0044480413807
 20
159.498073513029
 42
0.0
  0
VERTEX
  8
Out
 10
69.0
 20
159.5
 42
0.0
  0
VERTEX
  8
Out
 10
69.0
 20
157.5
 42
0.0
  0
VERTEX
  8
Out
 10
81.7708
 20
157.5
 42
0.0
  0
VERTEX
  8
Out
 10
81.7708
 20
160.542813577826
 42
0.0
  0
VERTEX
  8
Out
 10
84.7663519586193
 20
160.540887090855
 42
0.0
  0
VERTEX
  8
Out
 10
84.7671642149457
 20
168.7238
 42
0.0
  0
VERTEX
  8
Out
 10
84.0468000000001
 20
168.7238
 42
0.0
  0
VERTEX
  8
Out
 10
84.0468000000001
 20
170.5018
 42
0.0
  0
VERTEX
  8
Out
 10
81.7708
 20
170.5018
 42
0.0
  0
SEQEND
  0
POLYLINE
  8
In
 66
     1
 10
0.0
 20
0.0
 30
0.0
 70
     1
  0
VERTEX
  8
In
 10
181.0
 20
168.7238
 42
0.0
  0
VERTEX
  8
In
 10
181.0
 20
149.0
 42
0.0
  0
VERTEX
  8
In
 10
148.21912
 20
149.0
 42
0.0
  0
VERTEX
  8
In
 10
148.21912
 20
151.0
 42
0.0
  0
VERTEX
  8
In
 10
108.0
 20
151.0
 42
0.0
  0
VERTEX
  8
In
 10
108.0
 20
163.847
 42
0.0
  0
VERTEX
  8
In
 10
120.0
 20
163.847
 42
0.0
  0
VERTEX
  8
In
 10
120.0
 20
168.7238
 42
0.0
  0
VERTEX
  8
In
 10
84.7671642149457
 20
168.7238
 42
0.0
  0
VERTEX
  8
In
 10
84.7663519586193
 20
160.540887090855
 42
0.0
  0
VERTEX
  8
In
 10
81.7708
 20
160.542813577826
 42
0.0
  0
VERTEX
  8
In
 10
81.7708
 20
157.5
 42
0.0
  0
VERTEX
  8
In
 10
69.0
 20
157.5
 42
0.0
  0
VERTEX
  8
In
 10
69.0
 20
159.5
 42
0.0
  0
VERTEX
  8
In
 10
66.0044480413807
 20
159.498073513029
 42
0.0
  0
VERTEX
  8
In
 10
66.003658
 20
167.457186422174
 42
0.0
  0
VERTEX
  8
In
 10
66.0006548682319
 20
168.7238
 42
0.0
  0
VERTEX
  8
In
 10
54.8114000000001
 20
168.7238
 42
0.0
  0
VERTEX
  8
In
 10
51.6110000000002
 20
165.548800000001
 42
0.0
  0
VERTEX
  8
In
 10
51.6110000000002
 20
79.3158000000006
 42
0.0
  0
VERTEX
  8
In
 10
46.7088000000002
 20
79.3158000000002
 42
0.0
  0
VERTEX
  8
In
 10
13.6176800000001
 20
63.8853000000005
 42
0.0
  0
VERTEX
  8
In
 10
12.08098
 20
59.66636
 42
0.0
  0
VERTEX
  8
In
 10
33.76496
 20
13.1640400000006
 42
0.0
  0
VERTEX
  8
In
 10
37.9839
 20
11.62988
 42
0.0
  0
VERTEX
  8
In
 10
116.1524
 20
48.0738000000005
 42
0.0
  0
VERTEX
  8
In
 10
185.3928
 20
48.0738000000001
 42
0.0
  0
VERTEX
  8
In
 10
194.9178
 20
57.5988000000004
 42
0.0
  0
VERTEX
  8
In
 10
194.9178
 20
165.5488
 42
0.0
  0
VERTEX
  8
In
 10
191.7428
 20
168.7238
 42
0.0
  0
SEQEND
  0
POLYLINE
  8
In
 66
     1
 10
0.0
 20
0.0
 30
0.0
 70
     1
  0
VERTEX
  8
In
 10
86.0
 20
163.501587925705
 42
0.0
  0
VERTEX
  8
In
 10
86.0
 20
161.504849024761
 42
0.0
  0
VERTEX
  8
In
 10
94.901125485208
 20
152.603723539553
 42
0.0
  0
VERTEX
  8
In
 10
100.64883677876
 20
158.351434831242
 42
0.0
  0
VERTEX
  8
In
 10
90.749341842148
 20
168.250929767853
 42
0.0
  0
SEQEND
  0
ENDSEC
  0
EOF
