  0
SECTION
  2
HEADER
  9
$ACADVER
  1
AC1009
  9
$EXTMAX
 10
360.0
 20
420.0
 30
0.0
  9
$EXTMIN
 10
0.0
 20
0.0
 30
0.0
  9
$INSUNITS
 70
     4
  9
$LUNITS
 70
     2
  9
$LUPREC
 70
     4
  9
$MEASUREMENT
 70
     1
  0
ENDSEC
  0
SECTION
  2
TABLES
  0
TABLE
  2
LAYER
 70
     1
  0
LAYER
  2
0
 70
     0
 62
     7
  6
Continuous
  0
LAYER
  2
Switch
 70
     0
 62
    70
  6
Continuous
  0
LAYER
  2
Out
 70
     0
 62
    70
  6
Continuous
  0
LAYER
  2
In
 70
     0
 62
    70
  6
Continuous
  0
ENDTAB
  0
TABLE
  2
APPID
 70
     1
  0
APPID
  2
ACAD
 70
     0
  0
ENDTAB
  0
ENDSEC
  0
SECTION
  2
ENTITIES
  0
CIRCLE
  8
0
 10
174.1688
 20
103.5255
 30
0.0
 40
1.5
  0
CIRCLE
  8
0
 10
172.349923734153
 20
157.008773734153
 30
0.0
 40
1.5
  0
CIRCLE
  8
0
 10
64.8142851224433
 20
198.750734728865
 30
0.0
 40
1.5
  0
CIRCLE
  8
0
 10
7.79820519727
 20
172.164296714906
 30
0.0
 40
1.5
  0
CIRCLE
  8
0
 10
44.6287999999993
 20
88.86208
 30
0.0
 40
1.5
  0
CIRCLE
  8
0
 10
48.035176265848
 20
8.456076
 30
0.0
 40
1.5
  0
CIRCLE
  8
0
 10
172.349923734153
 20
8.456076265847
 30
0.0
 40
1.5
  0
CIRCLE
  8
0
 10
174.1688
 20
312.4745
 30
0.0
 40
1.5
  0
CIRCLE
  8
0
 10
172.349923734153
 20
258.991226265847
 30
0.0
 40
1.5
  0
CIRCLE
  8
0
 10
64.8142851224433
 20
217.249265271135
 30
0.0
 40
1.5
  0
CIRCLE
  8
0
 10
7.79820519727
 20
243.835703285094
 30
0.0
 40
1.5
  0
CIRCLE
  8
0
 10
44.6287999999993
 20
327.13792
 30
0.0
 40
1.5
  0
CIRCLE
  8
0
 10
48.0351762658481
 20
407.543924
 30
0.0
 40
1.5
  0
CIRCLE
  8
0
 10
172.349923734153
 20
407.543923734153
 30
0.0
 40
1.5
  0
CIRCLE
  8
0
 10
348.714470043145
 20
104.373661337982
 30
0.0
 40
1.5
  0
CIRCLE
  8
0
 10
346.895593777298
 20
157.856935072135
 30
0.0
 40
1.5
  0
CIRCLE
  8
0
 10
239.359955165588
 20
199.598896066847
 30
0.0
 40
1.5
  0
CIRCLE
  8
0
 10
182.343875240415
 20
173.012458052888
 30
0.0
 40
1.5
  0
CIRCLE
  8
0
 10
219.174373043145
 20
89.7101963379822
 30
0.0
 40
1.5
  0
CIRCLE
  8
0
 10
222.580846308993
 20
9.3042373379822
 30
0.0
 40
1.5
  0
CIRCLE
  8
0
 10
346.895593777298
 20
9.3042376038292
 30
0.0
 40
1.5
  0
CIRCLE
  8
0
 10
349.046617136107
 20
312.969161918326
 30
0.0
 40
1.5
  0
CIRCLE
  8
0
 10
347.22774087026
 20
259.485888184173
 30
0.0
 40
1.5
  0
CIRCLE
  8
0
 10
239.69210225855
 20
217.743927189461
 30
0.0
 40
1.5
  0
CIRCLE
  8
0
 10
182.676022333377
 20
244.33036520342
 30
0.0
 40
1.5
  0
CIRCLE
  8
0
 10
219.506520136107
 20
327.632626918326
 30
0.0
 40
1.5
  0
CIRCLE
  8
0
 10
222.912993401955
 20
408.038585918326
 30
0.0
 40
1.5
  0
CIRCLE
  8
0
 10
347.22774087026
 20
408.038585652479
 30
0.0
 40
1.5
  0
POLYLINE
  8
Switch
 66
     1
 10
0.0
 20
0.0
 30
0.0
 70
     1
  0
VERTEX
  8
Switch
 10
87.0087
 20
75.395
 42
0.0
  0
VERTEX
  8
Switch
 10
87.98914
 20
75.395
 42
0.0
  0
VERTEX
  8
Switch
 10
87.98914
 20
61.425
 42
0.0
  0
VERTEX
  8
Switch
 10
87.0087
 20
61.425
 42
0.0
  0
VERTEX
  8
Switch
 10
87.0087
 20
60.6122
 42
0.0
  0
VERTEX
  8
Switch
 10
83.50858
 20
60.6122
 42
0.0
  0
VERTEX
  8
Switch
 10
83.50858
 20
61.425
 42
0.0
  0
VERTEX
  8
Switch
 10
78.4997
 20
61.425
 42
0.0
  0
VERTEX
  8
Switch
 10
78.4997
 20
60.6122
 42
0.0
  0
VERTEX
  8
Switch
 10
74.99958
 20
60.6122
 42
0.0
  0
VERTEX
  8
Switch
 10
74.99958
 20
61.425
 42
0.0
  0
VERTEX
  8
Switch
 10
74.01914
 20
61.425
 42
0.0
  0
VERTEX
  8
Switch
 10
74.01914
 20
75.395
 42
0.0
  0
VERTEX
  8
Switch
 10
74.99958
 20
75.395
 42
0.0
  0
VERTEX
  8
Switch
 10
74.99958
 20
76.2078
 42
0.0
  0
VERTEX
  8
Switch
 10
78.4997
 20
76.2078
 42
0.0
  0
VERTEX
  8
Switch
 10
78.4997
 20
75.395
 42
0.0
  0
VERTEX
  8
Switch
 10
83.50858
 20
75.395
 42
0.0
  0
VERTEX
  8
Switch
 10
83.50858
 20
76.2078
 42
0.0
  0
VERTEX
  8
Switch
 10
87.0087
 20
76.2078
 42
0.0
  0
SEQEND
  0
POLYLINE
  8
Switch
 66
     1
 10
0.0
 20
0.0
 30
0.0
 70
     1
  0
VERTEX
  8
Switch
 10
76.59724
 20
80.475
 42
0.0
  0
VERTEX
  8
Switch
 10
75.6168
 20
80.475
 42
0.0
  0
VERTEX
  8
Switch
 10
75.6168
 20
94.445
 42
0.0
  0
VERTEX
  8
Switch
 10
76.59724
 20
94.445
 42
0.0
  0
VERTEX
  8
Switch
 10
76.59724
 20
95.2578
 42
0.0
  0
VERTEX
  8
Switch
 10
80.09736
 20
95.2578
 42
0.0
  0
VERTEX
  8
Switch
 10
80.09736
 20
94.445
 42
0.0
  0
VERTEX
  8
Switch
 10
85.10624
 20
94.445
 42
0.0
  0
VERTEX
  8
Switch
 10
85.10624
 20
95.2578
 42
0.0
  0
VERTEX
  8
Switch
 10
88.60636
 20
95.2578
 42
0.0
  0
VERTEX
  8
Switch
 10
88.60636
 20
94.445
 42
0.0
  0
VERTEX
  8
Switch
 10
89.5868
 20
94.445
 42
0.0
  0
VERTEX
  8
Switch
 10
89.5868
 20
80.475
 42
0.0
  0
VERTEX
  8
Switch
 10
88.60636
 20
80.475
 42
0.0
  0
VERTEX
  8
Switch
 10
88.60636
 20
79.6622
 42
0.0
  0
VERTEX
  8
Switch
 10
85.10624
 20
79.6622
 42
0.0
  0
VERTEX
  8
Switch
 10
85.10624
 20
80.475
 42
0.0
  0
VERTEX
  8
Switch
 10
80.09736
 20
80.475
 42
0.0
  0
VERTEX
  8
Switch
 10
80.09736
 20
79.6622
 42
0.0
  0
VERTEX
  8
Switch
 10
76.59724
 20
79.6622
 42
0.0
  0
SEQEND
  0
POLYLINE
  8
Switch
 66
     1
 10
0.0
 20
0.0
 30
0.0
 70
     1
  0
VERTEX
  8
Switch
 10
130.87704
 20
151.595
 42
0.0
  0
VERTEX
  8
Switch
 10
130.87704
 20
152.4078
 42
0.0
  0
VERTEX
  8
Switch
 10
134.37716
 20
152.4078
 42
0.0
  0
VERTEX
  8
Switch
 10
134.37716
 20
151.595
 42
0.0
  0
VERTEX
  8
Switch
 10
139.38604
 20
151.595
 42
0.0
  0
VERTEX
  8
Switch
 10
139.38604
 20
152.4078
 42
0.0
  0
VERTEX
  8
Switch
 10
142.88616
 20
152.4078
 42
0.0
  0
VERTEX
  8
Switch
 10
142.88616
 20
151.595
 42
0.0
  0
VERTEX
  8
Switch
 10
143.8666
 20
151.595
 42
0.0
  0
VERTEX
  8
Switch
 10
143.8666
 20
137.625
 42
0.0
  0
VERTEX
  8
Switch
 10
142.88616
 20
137.625
 42
0.0
  0
VERTEX
  8
Switch
 10
142.88616
 20
136.8122
 42
0.0
  0
VERTEX
  8
Switch
 10
139.38604
 20
136.8122
 42
0.0
  0
VERTEX
  8
Switch
 10
139.38604
 20
137.625
 42
0.0
  0
VERTEX
  8
Switch
 10
134.37716
 20
137.625
 42
0.0
  0
VERTEX
  8
Switch
 10
134.37716
 20
136.8122
 42
0.0
  0
VERTEX
  8
Switch
 10
130.87704
 20
136.8122
 42
0.0
  0
VERTEX
  8
Switch
 10
130.87704
 20
137.625
 42
0.0
  0
VERTEX
  8
Switch
 10
129.8966
 20
137.625
 42
0.0
  0
VERTEX
  8
Switch
 10
129.8966
 20
151.595
 42
0.0
  0
SEQEND
  0
POLYLINE
  8
Switch
 66
     1
 10
0.0
 20
0.0
 30
0.0
 70
     1
  0
VERTEX
  8
Switch
 10
144.1587
 20
113.495
 42
0.0
  0
VERTEX
  8
Switch
 10
145.13914
 20
113.495
 42
0.0
  0
VERTEX
  8
Switch
 10
145.13914
 20
99.525
 42
0.0
  0
VERTEX
  8
Switch
 10
144.1587
 20
99.525
 42
0.0
  0
VERTEX
  8
Switch
 10
144.1587
 20
98.7122
 42
0.0
  0
VERTEX
  8
Switch
 10
140.65858
 20
98.7122
 42
0.0
  0
VERTEX
  8
Switch
 10
140.65858
 20
99.525
 42
0.0
  0
VERTEX
  8
Switch
 10
135.6497
 20
99.525
 42
0.0
  0
VERTEX
  8
Switch
 10
135.6497
 20
98.7122
 42
0.0
  0
VERTEX
  8
Switch
 10
132.14958
 20
98.7122
 42
0.0
  0
VERTEX
  8
Switch
 10
132.14958
 20
99.525
 42
0.0
  0
VERTEX
  8
Switch
 10
131.16914
 20
99.525
 42
0.0
  0
VERTEX
  8
Switch
 10
131.16914
 20
113.495
 42
0.0
  0
VERTEX
  8
Switch
 10
132.14958
 20
113.495
 42
0.0
  0
VERTEX
  8
Switch
 10
132.14958
 20
114.3078
 42
0.0
  0
VERTEX
  8
Switch
 10
135.6497
 20
114.3078
 42
0.0
  0
VERTEX
  8
Switch
 10
135.6497
 20
113.495
 42
0.0
  0
VERTEX
  8
Switch
 10
140.65858
 20
113.495
 42
0.0
  0
VERTEX
  8
Switch
 10
140.65858
 20
114.3078
 42
0.0
  0
VERTEX
  8
Switch
 10
144.1587
 20
114.3078
 42
0.0
  0
SEQEND
  0
POLYLINE
  8
Switch
 66
     1
 10
0.0
 20
0.0
 30
0.0
 70
     1
  0
VERTEX
  8
Switch
 10
102.8837
 20
32.5325
 42
0.0
  0
VERTEX
  8
Switch
 10
103.86414
 20
32.5325
 42
0.0
  0
VERTEX
  8
Switch
 10
103.86414
 20
18.5625
 42
0.0
  0
VERTEX
  8
Switch
 10
102.8837
 20
18.5625
 42
0.0
  0
VERTEX
  8
Switch
 10
102.8837
 20
17.7497
 42
0.0
  0
VERTEX
  8
Switch
 10
99.38358
 20
17.7497
 42
0.0
  0
VERTEX
  8
Switch
 10
99.38358
 20
18.5625
 42
0.0
  0
VERTEX
  8
Switch
 10
94.3747
 20
18.5625
 42
0.0
  0
VERTEX
  8
Switch
 10
94.3747
 20
17.7497
 42
0.0
  0
VERTEX
  8
Switch
 10
90.87458
 20
17.7497
 42
0.0
  0
VERTEX
  8
Switch
 10
90.87458
 20
18.5625
 42
0.0
  0
VERTEX
  8
Switch
 10
89.89414
 20
18.5625
 42
0.0
  0
VERTEX
  8
Switch
 10
89.89414
 20
32.5325
 42
0.0
  0
VERTEX
  8
Switch
 10
90.87458
 20
32.5325
 42
0.0
  0
VERTEX
  8
Switch
 10
90.87458
 20
33.3453
 42
0.0
  0
VERTEX
  8
Switch
 10
94.3747
 20
33.3453
 42
0.0
  0
VERTEX
  8
Switch
 10
94.3747
 20
32.5325
 42
0.0
  0
VERTEX
  8
Switch
 10
99.38358
 20
32.5325
 42
0.0
  0
VERTEX
  8
Switch
 10
99.38358
 20
33.3453
 42
0.0
  0
VERTEX
  8
Switch
 10
102.8837
 20
33.3453
 42
0.0
  0
SEQEND
  0
POLYLINE
  8
Switch
 66
     1
 10
0.0
 20
0.0
 30
0.0
 70
     1
  0
VERTEX
  8
Switch
 10
55.94958
 20
75.395
 42
0.0
  0
VERTEX
  8
Switch
 10
55.94958
 20
76.2078
 42
0.0
  0
VERTEX
  8
Switch
 10
59.4497
 20
76.2078
 42
0.0
  0
VERTEX
  8
Switch
 10
59.4497
 20
75.395
 42
0.0
  0
VERTEX
  8
Switch
 10
64.45858
 20
75.395
 42
0.0
  0
VERTEX
  8
Switch
 10
64.45858
 20
76.2078
 42
0.0
  0
VERTEX
  8
Switch
 10
67.9587
 20
76.2078
 42
0.0
  0
VERTEX
  8
Switch
 10
67.9587
 20
75.395
 42
0.0
  0
VERTEX
  8
Switch
 10
68.93914
 20
75.395
 42
0.0
  0
VERTEX
  8
Switch
 10
68.93914
 20
61.425
 42
0.0
  0
VERTEX
  8
Switch
 10
67.9587
 20
61.425
 42
0.0
  0
VERTEX
  8
Switch
 10
67.9587
 20
60.6122
 42
0.0
  0
VERTEX
  8
Switch
 10
64.45858
 20
60.6122
 42
0.0
  0
VERTEX
  8
Switch
 10
64.45858
 20
61.425
 42
0.0
  0
VERTEX
  8
Switch
 10
59.4497
 20
61.425
 42
0.0
  0
VERTEX
  8
Switch
 10
59.4497
 20
60.6122
 42
0.0
  0
VERTEX
  8
Switch
 10
55.94958
 20
60.6122
 42
0.0
  0
VERTEX
  8
Switch
 10
55.94958
 20
61.425
 42
0.0
  0
VERTEX
  8
Switch
 10
54.96914
 20
61.425
 42
0.0
  0
VERTEX
  8
Switch
 10
54.96914
 20
75.395
 42
0.0
  0
SEQEND
  0
POLYLINE
  8
Switch
 66
     1
 10
0.0
 20
0.0
 30
0.0
 70
     1
  0
VERTEX
  8
Switch
 10
106.08664
 20
150.61456
 42
0.0
  0
VERTEX
  8
Switch
 10
106.08664
 20
151.595
 42
0.0
  0
VERTEX
  8
Switch
 10
120.05664
 20
151.595
 42
0.0
  0
VERTEX
  8
Switch
 10
120.05664
 20
150.61456
 42
0.0
  0
VERTEX
  8
Switch
 10
120.86944
 20
150.61456
 42
0.0
  0
VERTEX
  8
Switch
 10
120.86944
 20
147.11444
 42
0.0
  0
VERTEX
  8
Switch
 10
120.05664
 20
147.11444
 42
0.0
  0
VERTEX
  8
Switch
 10
120.05664
 20
142.10556
 42
0.0
  0
VERTEX
  8
Switch
 10
120.86944
 20
142.10556
 42
0.0
  0
VERTEX
  8
Switch
 10
120.86944
 20
138.60544
 42
0.0
  0
VERTEX
  8
Switch
 10
120.05664
 20
138.60544
 42
0.0
  0
VERTEX
  8
Switch
 10
120.05664
 20
137.625
 42
0.0
  0
VERTEX
  8
Switch
 10
106.08664
 20
137.625
 42
0.0
  0
VERTEX
  8
Switch
 10
106.08664
 20
138.60544
 42
0.0
  0
VERTEX
  8
Switch
 10
105.27384
 20
138.60544
 42
0.0
  0
VERTEX
  8
Switch
 10
105.27384
 20
142.10556
 42
0.0
  0
VERTEX
  8
Switch
 10
106.08664
 20
142.10556
 42
0.0
  0
VERTEX
  8
Switch
 10
106.08664
 20
147.11444
 42
0.0
  0
VERTEX
  8
Switch
 10
105.27384
 20
147.11444
 42
0.0
  0
VERTEX
  8
Switch
 10
105.27384
 20
150.61456
 42
0.0
  0
SEQEND
  0
POLYLINE
  8
Switch
 66
     1
 10
0.0
 20
0.0
 30
0.0
 70
     1
  0
VERTEX
  8
Switch
 10
87.0087
 20
113.495
 42
0.0
  0
VERTEX
  8
Switch
 10
87.98914
 20
113.495
 42
0.0
  0
VERTEX
  8
Switch
 10
87.98914
 20
99.525
 42
0.0
  0
VERTEX
  8
Switch
 10
87.0087
 20
99.525
 42
0.0
  0
VERTEX
  8
Switch
 10
87.0087
 20
98.7122
 42
0.0
  0
VERTEX
  8
Switch
 10
83.50858
 20
98.7122
 42
0.0
  0
VERTEX
  8
Switch
 10
83.50858
 20
99.525
 42
0.0
  0
VERTEX
  8
Switch
 10
78.4997
 20
99.525
 42
0.0
  0
VERTEX
  8
Switch
 10
78.4997
 20
98.7122
 42
0.0
  0
VERTEX
  8
Switch
 10
74.99958
 20
98.7122
 42
0.0
  0
VERTEX
  8
Switch
 10
74.99958
 20
99.525
 42
0.0
  0
VERTEX
  8
Switch
 10
74.01914
 20
99.525
 42
0.0
  0
VERTEX
  8
Switch
 10
74.01914
 20
113.495
 42
0.0
  0
VERTEX
  8
Switch
 10
74.99958
 20
113.495
 42
0.0
  0
VERTEX
  8
Switch
 10
74.99958
 20
114.3078
 42
0.0
  0
VERTEX
  8
Switch
 10
78.4997
 20
114.3078
 42
0.0
  0
VERTEX
  8
Switch
 10
78.4997
 20
113.495
 42
0.0
  0
VERTEX
  8
Switch
 10
83.50858
 20
113.495
 42
0.0
  0
VERTEX
  8
Switch
 10
83.50858
 20
114.3078
 42
0.0
  0
VERTEX
  8
Switch
 10
87.0087
 20
114.3078
 42
0.0
  0
SEQEND
  0
POLYLINE
  8
Switch
 66
     1
 10
0.0
 20
0.0
 30
0.0
 70
     1
  0
VERTEX
  8
Switch
 10
83.8337
 20
32.5325
 42
0.0
  0
VERTEX
  8
Switch
 10
84.81414
 20
32.5325
 42
0.0
  0
VERTEX
  8
Switch
 10
84.81414
 20
18.5625
 42
0.0
  0
VERTEX
  8
Switch
 10
83.8337
 20
18.5625
 42
0.0
  0
VERTEX
  8
Switch
 10
83.8337
 20
17.7497
 42
0.0
  0
VERTEX
  8
Switch
 10
80.33358
 20
17.7497
 42
0.0
  0
VERTEX
  8
Switch
 10
80.33358
 20
18.5625
 42
0.0
  0
VERTEX
  8
Switch
 10
75.3247
 20
18.5625
 42
0.0
  0
VERTEX
  8
Switch
 10
75.3247
 20
17.7497
 42
0.0
  0
VERTEX
  8
Switch
 10
71.82458
 20
17.7497
 42
0.0
  0
VERTEX
  8
Switch
 10
71.82458
 20
18.5625
 42
0.0
  0
VERTEX
  8
Switch
 10
70.84414
 20
18.5625
 42
0.0
  0
VERTEX
  8
Switch
 10
70.84414
 20
32.5325
 42
0.0
  0
VERTEX
  8
Switch
 10
71.82458
 20
32.5325
 42
0.0
  0
VERTEX
  8
Switch
 10
71.82458
 20
33.3453
 42
0.0
  0
VERTEX
  8
Switch
 10
75.3247
 20
33.3453
 42
0.0
  0
VERTEX
  8
Switch
 10
75.3247
 20
32.5325
 42
0.0
  0
VERTEX
  8
Switch
 10
80.33358
 20
32.5325
 42
0.0
  0
VERTEX
  8
Switch
 10
80.33358
 20
33.3453
 42
0.0
  0
VERTEX
  8
Switch
 10
83.8337
 20
33.3453
 42
0.0
  0
SEQEND
  0
POLYLINE
  8
Switch
 66
     1
 10
0.0
 20
0.0
 30
0.0
 70
     1
  0
VERTEX
  8
Switch
 10
109.92458
 20
32.5325
 42
0.0
  0
VERTEX
  8
Switch
 10
109.92458
 20
33.3453
 42
0.0
  0
VERTEX
  8
Switch
 10
113.4247
 20
33.3453
 42
0.0
  0
VERTEX
  8
Switch
 10
113.4247
 20
32.5325
 42
0.0
  0
VERTEX
  8
Switch
 10
118.43358
 20
32.5325
 42
0.0
  0
VERTEX
  8
Switch
 10
118.43358
 20
33.3453
 42
0.0
  0
VERTEX
  8
Switch
 10
121.9337
 20
33.3453
 42
0.0
  0
VERTEX
  8
Switch
 10
121.9337
 20
32.5325
 42
0.0
  0
VERTEX
  8
Switch
 10
122.91414
 20
32.5325
 42
0.0
  0
VERTEX
  8
Switch
 10
122.91414
 20
18.5625
 42
0.0
  0
VERTEX
  8
Switch
 10
121.9337
 20
18.5625
 42
0.0
  0
VERTEX
  8
Switch
 10
121.9337
 20
17.7497
 42
0.0
  0
VERTEX
  8
Switch
 10
118.43358
 20
17.7497
 42
0.0
  0
VERTEX
  8
Switch
 10
118.43358
 20
18.5625
 42
0.0
  0
VERTEX
  8
Switch
 10
113.4247
 20
18.5625
 42
0.0
  0
VERTEX
  8
Switch
 10
113.4247
 20
17.7497
 42
0.0
  0
VERTEX
  8
Switch
 10
109.92458
 20
17.7497
 42
0.0
  0
VERTEX
  8
Switch
 10
109.92458
 20
18.5625
 42
0.0
  0
VERTEX
  8
Switch
 10
108.94414
 20
18.5625
 42
0.0
  0
VERTEX
  8
Switch
 10
108.94414
 20
32.5325
 42
0.0
  0
SEQEND
  0
POLYLINE
  8
Switch
 66
     1
 10
0.0
 20
0.0
 30
0.0
 70
     1
  0
VERTEX
  8
Switch
 10
57.95872
 20
148.46064
 42
0.0
  0
VERTEX
  8
Switch
 10
63.86168
 20
135.80128
 42
0.0
  0
VERTEX
  8
Switch
 10
60.86956
 20
134.40428
 42
0.0
  0
VERTEX
  8
Switch
 10
54.9666
 20
147.06618
 42
0.0
  0
SEQEND
  0
POLYLINE
  8
Switch
 66
     1
 10
0.0
 20
0.0
 30
0.0
 70
     1
  0
VERTEX
  8
Switch
 10
39.2313
 20
124.3154
 42
0.0
  0
VERTEX
  8
Switch
 10
33.3258
 20
136.97476
 42
0.0
  0
VERTEX
  8
Switch
 10
36.31792
 20
138.37176
 42
0.0
  0
VERTEX
  8
Switch
 10
42.22342
 20
125.70986
 42
0.0
  0
SEQEND
  0
POLYLINE
  8
Switch
 66
     1
 10
0.0
 20
0.0
 30
0.0
 70
     1
  0
VERTEX
  8
Switch
 10
91.48164
 20
138.60544
 42
0.0
  0
VERTEX
  8
Switch
 10
91.48164
 20
137.625
 42
0.0
  0
VERTEX
  8
Switch
 10
77.51164
 20
137.625
 42
0.0
  0
VERTEX
  8
Switch
 10
77.51164
 20
138.60544
 42
0.0
  0
VERTEX
  8
Switch
 10
76.69884
 20
138.60544
 42
0.0
  0
VERTEX
  8
Switch
 10
76.69884
 20
142.10556
 42
0.0
  0
VERTEX
  8
Switch
 10
77.51164
 20
142.10556
 42
0.0
  0
VERTEX
  8
Switch
 10
77.51164
 20
147.11444
 42
0.0
  0
VERTEX
  8
Switch
 10
76.69884
 20
147.11444
 42
0.0
  0
VERTEX
  8
Switch
 10
76.69884
 20
150.61456
 42
0.0
  0
VERTEX
  8
Switch
 10
77.51164
 20
150.61456
 42
0.0
  0
VERTEX
  8
Switch
 10
77.51164
 20
151.595
 42
0.0
  0
VERTEX
  8
Switch
 10
91.48164
 20
151.595
 42
0.0
  0
VERTEX
  8
Switch
 10
91.48164
 20
150.61456
 42
0.0
  0
VERTEX
  8
Switch
 10
92.29444
 20
150.61456
 42
0.0
  0
VERTEX
  8
Switch
 10
92.29444
 20
147.11444
 42
0.0
  0
VERTEX
  8
Switch
 10
91.48164
 20
147.11444
 42
0.0
  0
VERTEX
  8
Switch
 10
91.48164
 20
142.10556
 42
0.0
  0
VERTEX
  8
Switch
 10
92.29444
 20
142.10556
 42
0.0
  0
VERTEX
  8
Switch
 10
92.29444
 20
138.60544
 42
0.0
  0
SEQEND
  0
POLYLINE
  8
Switch
 66
     1
 10
0.0
 20
0.0
 30
0.0
 70
     1
  0
VERTEX
  8
Switch
 10
109.92458
 20
56.345
 42
0.0
  0
VERTEX
  8
Switch
 10
109.92458
 20
57.1578
 42
0.0
  0
VERTEX
  8
Switch
 10
113.4247
 20
57.1578
 42
0.0
  0
VERTEX
  8
Switch
 10
113.4247
 20
56.345
 42
0.0
  0
VERTEX
  8
Switch
 10
118.43358
 20
56.345
 42
0.0
  0
VERTEX
  8
Switch
 10
118.43358
 20
57.1578
 42
0.0
  0
VERTEX
  8
Switch
 10
121.9337
 20
57.1578
 42
0.0
  0
VERTEX
  8
Switch
 10
121.9337
 20
56.345
 42
0.0
  0
VERTEX
  8
Switch
 10
122.91414
 20
56.345
 42
0.0
  0
VERTEX
  8
Switch
 10
122.91414
 20
42.375
 42
0.0
  0
VERTEX
  8
Switch
 10
121.9337
 20
42.375
 42
0.0
  0
VERTEX
  8
Switch
 10
121.9337
 20
41.5622
 42
0.0
  0
VERTEX
  8
Switch
 10
118.43358
 20
41.5622
 42
0.0
  0
VERTEX
  8
Switch
 10
118.43358
 20
42.375
 42
0.0
  0
VERTEX
  8
Switch
 10
113.4247
 20
42.375
 42
0.0
  0
VERTEX
  8
Switch
 10
113.4247
 20
41.5622
 42
0.0
  0
VERTEX
  8
Switch
 10
109.92458
 20
41.5622
 42
0.0
  0
VERTEX
  8
Switch
 10
109.92458
 20
42.375
 42
0.0
  0
VERTEX
  8
Switch
 10
108.94414
 20
42.375
 42
0.0
  0
VERTEX
  8
Switch
 10
108.94414
 20
56.345
 42
0.0
  0
SEQEND
  0
POLYLINE
  8
Switch
 66
     1
 10
0.0
 20
0.0
 30
0.0
 70
     1
  0
VERTEX
  8
Switch
 10
31.82212
 20
140.19802
 42
0.0
  0
VERTEX
  8
Switch
 10
25.91916
 20
152.85738
 42
0.0
  0
VERTEX
  8
Switch
 10
28.91128
 20
154.25438
 42
0.0
  0
VERTEX
  8
Switch
 10
34.81424
 20
141.59248
 42
0.0
  0
SEQEND
  0
POLYLINE
  8
Switch
 66
     1
 10
0.0
 20
0.0
 30
0.0
 70
     1
  0
VERTEX
  8
Switch
 10
50.54954
 20
164.34326
 42
0.0
  0
VERTEX
  8
Switch
 10
56.45504
 20
151.6839
 42
0.0
  0
VERTEX
  8
Switch
 10
53.46292
 20
150.2869
 42
0.0
  0
VERTEX
  8
Switch
 10
47.55742
 20
162.9488
 42
0.0
  0
SEQEND
  0
POLYLINE
  8
Switch
 66
     1
 10
0.0
 20
0.0
 30
0.0
 70
     1
  0
VERTEX
  8
Switch
 10
52.77458
 20
23.325
 42
0.0
  0
VERTEX
  8
Switch
 10
51.79414
 20
23.325
 42
0.0
  0
VERTEX
  8
Switch
 10
51.79414
 20
37.295
 42
0.0
  0
VERTEX
  8
Switch
 10
52.77458
 20
37.295
 42
0.0
  0
VERTEX
  8
Switch
 10
52.77458
 20
38.1078
 42
0.0
  0
VERTEX
  8
Switch
 10
56.2747
 20
38.1078
 42
0.0
  0
VERTEX
  8
Switch
 10
56.2747
 20
37.295
 42
0.0
  0
VERTEX
  8
Switch
 10
61.28358
 20
37.295
 42
0.0
  0
VERTEX
  8
Switch
 10
61.28358
 20
38.1078
 42
0.0
  0
VERTEX
  8
Switch
 10
64.7837
 20
38.1078
 42
0.0
  0
VERTEX
  8
Switch
 10
64.7837
 20
37.295
 42
0.0
  0
VERTEX
  8
Switch
 10
65.76414
 20
37.295
 42
0.0
  0
VERTEX
  8
Switch
 10
65.76414
 20
23.325
 42
0.0
  0
VERTEX
  8
Switch
 10
64.7837
 20
23.325
 42
0.0
  0
VERTEX
  8
Switch
 10
64.7837
 20
22.5122
 42
0.0
  0
VERTEX
  8
Switch
 10
61.28358
 20
22.5122
 42
0.0
  0
VERTEX
  8
Switch
 10
61.28358
 20
23.325
 42
0.0
  0
VERTEX
  8
Switch
 10
56.2747
 20
23.325
 42
0.0
  0
VERTEX
  8
Switch
 10
56.2747
 20
22.5122
 42
0.0
  0
VERTEX
  8
Switch
 10
52.77458
 20
22.5122
 42
0.0
  0
SEQEND
  0
POLYLINE
  8
Switch
 66
     1
 10
0.0
 20
0.0
 30
0.0
 70
     1
  0
VERTEX
  8
Switch
 10
114.69724
 20
80.475
 42
0.0
  0
VERTEX
  8
Switch
 10
113.7168
 20
80.475
 42
0.0
  0
VERTEX
  8
Switch
 10
113.7168
 20
94.445
 42
0.0
  0
VERTEX
  8
Switch
 10
114.69724
 20
94.445
 42
0.0
  0
VERTEX
  8
Switch
 10
114.69724
 20
95.2578
 42
0.0
  0
VERTEX
  8
Switch
 10
118.19736
 20
95.2578
 42
0.0
  0
VERTEX
  8
Switch
 10
118.19736
 20
94.445
 42
0.0
  0
VERTEX
  8
Switch
 10
123.20624
 20
94.445
 42
0.0
  0
VERTEX
  8
Switch
 10
123.20624
 20
95.2578
 42
0.0
  0
VERTEX
  8
Switch
 10
126.70636
 20
95.2578
 42
0.0
  0
VERTEX
  8
Switch
 10
126.70636
 20
94.445
 42
0.0
  0
VERTEX
  8
Switch
 10
127.6868
 20
94.445
 42
0.0
  0
VERTEX
  8
Switch
 10
127.6868
 20
80.475
 42
0.0
  0
VERTEX
  8
Switch
 10
126.70636
 20
80.475
 42
0.0
  0
VERTEX
  8
Switch
 10
126.70636
 20
79.6622
 42
0.0
  0
VERTEX
  8
Switch
 10
123.20624
 20
79.6622
 42
0.0
  0
VERTEX
  8
Switch
 10
123.20624
 20
80.475
 42
0.0
  0
VERTEX
  8
Switch
 10
118.19736
 20
80.475
 42
0.0
  0
VERTEX
  8
Switch
 10
118.19736
 20
79.6622
 42
0.0
  0
VERTEX
  8
Switch
 10
114.69724
 20
79.6622
 42
0.0
  0
SEQEND
  0
POLYLINE
  8
Switch
 66
     1
 10
0.0
 20
0.0
 30
0.0
 70
     1
  0
VERTEX
  8
Switch
 10
64.7837
 20
56.345
 42
0.0
  0
VERTEX
  8
Switch
 10
65.76414
 20
56.345
 42
0.0
  0
VERTEX
  8
Switch
 10
65.76414
 20
42.375
 42
0.0
  0
VERTEX
  8
Switch
 10
64.7837
 20
42.375
 42
0.0
  0
VERTEX
  8
Switch
 10
64.7837
 20
41.5622
 42
0.0
  0
VERTEX
  8
Switch
 10
61.28358
 20
41.5622
 42
0.0
  0
VERTEX
  8
Switch
 10
61.28358
 20
42.375
 42
0.0
  0
VERTEX
  8
Switch
 10
56.2747
 20
42.375
 42
0.0
  0
VERTEX
  8
Switch
 10
56.2747
 20
41.5622
 42
0.0
  0
VERTEX
  8
Switch
 10
52.77458
 20
41.5622
 42
0.0
  0
VERTEX
  8
Switch
 10
52.77458
 20
42.375
 42
0.0
  0
VERTEX
  8
Switch
 10
51.79414
 20
42.375
 42
0.0
  0
VERTEX
  8
Switch
 10
51.79414
 20
56.345
 42
0.0
  0
VERTEX
  8
Switch
 10
52.77458
 20
56.345
 42
0.0
  0
VERTEX
  8
Switch
 10
52.77458
 20
57.1578
 42
0.0
  0
VERTEX
  8
Switch
 10
56.2747
 20
57.1578
 42
0.0
  0
VERTEX
  8
Switch
 10
56.2747
 20
56.345
 42
0.0
  0
VERTEX
  8
Switch
 10
61.28358
 20
56.345
 42
0.0
  0
VERTEX
  8
Switch
 10
61.28358
 20
57.1578
 42
0.0
  0
VERTEX
  8
Switch
 10
64.7837
 20
57.1578
 42
0.0
  0
SEQEND
  0
POLYLINE
  8
Switch
 66
     1
 10
0.0
 20
0.0
 30
0.0
 70
     1
  0
VERTEX
  8
Switch
 10
57.54724
 20
80.475
 42
0.0
  0
VERTEX
  8
Switch
 10
56.5668
 20
80.475
 42
0.0
  0
VERTEX
  8
Switch
 10
56.5668
 20
94.445
 42
0.0
  0
VERTEX
  8
Switch
 10
57.54724
 20
94.445
 42
0.0
  0
VERTEX
  8
Switch
 10
57.54724
 20
95.2578
 42
0.0
  0
VERTEX
  8
Switch
 10
61.04736
 20
95.2578
 42
0.0
  0
VERTEX
  8
Switch
 10
61.04736
 20
94.445
 42
0.0
  0
VERTEX
  8
Switch
 10
66.05624
 20
94.445
 42
0.0
  0
VERTEX
  8
Switch
 10
66.05624
 20
95.2578
 42
0.0
  0
VERTEX
  8
Switch
 10
69.55636
 20
95.2578
 42
0.0
  0
VERTEX
  8
Switch
 10
69.55636
 20
94.445
 42
0.0
  0
VERTEX
  8
Switch
 10
70.5368
 20
94.445
 42
0.0
  0
VERTEX
  8
Switch
 10
70.5368
 20
80.475
 42
0.0
  0
VERTEX
  8
Switch
 10
69.55636
 20
80.475
 42
0.0
  0
VERTEX
  8
Switch
 10
69.55636
 20
79.6622
 42
0.0
  0
VERTEX
  8
Switch
 10
66.05624
 20
79.6622
 42
0.0
  0
VERTEX
  8
Switch
 10
66.05624
 20
80.475
 42
0.0
  0
VERTEX
  8
Switch
 10
61.04736
 20
80.475
 42
0.0
  0
VERTEX
  8
Switch
 10
61.04736
 20
79.6622
 42
0.0
  0
VERTEX
  8
Switch
 10
57.54724
 20
79.6622
 42
0.0
  0
SEQEND
  0
POLYLINE
  8
Switch
 66
     1
 10
0.0
 20
0.0
 30
0.0
 70
     1
  0
VERTEX
  8
Switch
 10
111.82958
 20
132.545
 42
0.0
  0
VERTEX
  8
Switch
 10
111.82958
 20
133.3578
 42
0.0
  0
VERTEX
  8
Switch
 10
115.3297
 20
133.3578
 42
0.0
  0
VERTEX
  8
Switch
 10
115.3297
 20
132.545
 42
0.0
  0
VERTEX
  8
Switch
 10
120.33858
 20
132.545
 42
0.0
  0
VERTEX
  8
Switch
 10
120.33858
 20
133.3578
 42
0.0
  0
VERTEX
  8
Switch
 10
123.8387
 20
133.3578
 42
0.0
  0
VERTEX
  8
Switch
 10
123.8387
 20
132.545
 42
0.0
  0
VERTEX
  8
Switch
 10
124.81914
 20
132.545
 42
0.0
  0
VERTEX
  8
Switch
 10
124.81914
 20
118.575
 42
0.0
  0
VERTEX
  8
Switch
 10
123.8387
 20
118.575
 42
0.0
  0
VERTEX
  8
Switch
 10
123.8387
 20
117.7622
 42
0.0
  0
VERTEX
  8
Switch
 10
120.33858
 20
117.7622
 42
0.0
  0
VERTEX
  8
Switch
 10
120.33858
 20
118.575
 42
0.0
  0
VERTEX
  8
Switch
 10
115.3297
 20
118.575
 42
0.0
  0
VERTEX
  8
Switch
 10
115.3297
 20
117.7622
 42
0.0
  0
VERTEX
  8
Switch
 10
111.82958
 20
117.7622
 42
0.0
  0
VERTEX
  8
Switch
 10
111.82958
 20
118.575
 42
0.0
  0
VERTEX
  8
Switch
 10
110.84914
 20
118.575
 42
0.0
  0
VERTEX
  8
Switch
 10
110.84914
 20
132.545
 42
0.0
  0
SEQEND
  0
POLYLINE
  8
Switch
 66
     1
 10
0.0
 20
0.0
 30
0.0
 70
     1
  0
VERTEX
  8
Switch
 10
125.1087
 20
113.495
 42
0.0
  0
VERTEX
  8
Switch
 10
126.08914
 20
113.495
 42
0.0
  0
VERTEX
  8
Switch
 10
126.08914
 20
99.525
 42
0.0
  0
VERTEX
  8
Switch
 10
125.1087
 20
99.525
 42
0.0
  0
VERTEX
  8
Switch
 10
125.1087
 20
98.7122
 42
0.0
  0
VERTEX
  8
Switch
 10
121.60858
 20
98.7122
 42
0.0
  0
VERTEX
  8
Switch
 10
121.60858
 20
99.525
 42
0.0
  0
VERTEX
  8
Switch
 10
116.5997
 20
99.525
 42
0.0
  0
VERTEX
  8
Switch
 10
116.5997
 20
98.7122
 42
0.0
  0
VERTEX
  8
Switch
 10
113.09958
 20
98.7122
 42
0.0
  0
VERTEX
  8
Switch
 10
113.09958
 20
99.525
 42
0.0
  0
VERTEX
  8
Switch
 10
112.11914
 20
99.525
 42
0.0
  0
VERTEX
  8
Switch
 10
112.11914
 20
113.495
 42
0.0
  0
VERTEX
  8
Switch
 10
113.09958
 20
113.495
 42
0.0
  0
VERTEX
  8
Switch
 10
113.09958
 20
114.3078
 42
0.0
  0
VERTEX
  8
Switch
 10
116.5997
 20
114.3078
 42
0.0
  0
VERTEX
  8
Switch
 10
116.5997
 20
113.495
 42
0.0
  0
VERTEX
  8
Switch
 10
121.60858
 20
113.495
 42
0.0
  0
VERTEX
  8
Switch
 10
121.60858
 20
114.3078
 42
0.0
  0
VERTEX
  8
Switch
 10
125.1087
 20
114.3078
 42
0.0
  0
SEQEND
  0
POLYLINE
  8
Switch
 66
     1
 10
0.0
 20
0.0
 30
0.0
 70
     1
  0
VERTEX
  8
Switch
 10
73.72958
 20
132.545
 42
0.0
  0
VERTEX
  8
Switch
 10
73.72958
 20
133.3578
 42
0.0
  0
VERTEX
  8
Switch
 10
77.2297
 20
133.3578
 42
0.0
  0
VERTEX
  8
Switch
 10
77.2297
 20
132.545
 42
0.0
  0
VERTEX
  8
Switch
 10
82.23858
 20
132.545
 42
0.0
  0
VERTEX
  8
Switch
 10
82.23858
 20
133.3578
 42
0.0
  0
VERTEX
  8
Switch
 10
85.7387
 20
133.3578
 42
0.0
  0
VERTEX
  8
Switch
 10
85.7387
 20
132.545
 42
0.0
  0
VERTEX
  8
Switch
 10
86.71914
 20
132.545
 42
0.0
  0
VERTEX
  8
Switch
 10
86.71914
 20
118.575
 42
0.0
  0
VERTEX
  8
Switch
 10
85.7387
 20
118.575
 42
0.0
  0
VERTEX
  8
Switch
 10
85.7387
 20
117.7622
 42
0.0
  0
VERTEX
  8
Switch
 10
82.23858
 20
117.7622
 42
0.0
  0
VERTEX
  8
Switch
 10
82.23858
 20
118.575
 42
0.0
  0
VERTEX
  8
Switch
 10
77.2297
 20
118.575
 42
0.0
  0
VERTEX
  8
Switch
 10
77.2297
 20
117.7622
 42
0.0
  0
VERTEX
  8
Switch
 10
73.72958
 20
117.7622
 42
0.0
  0
VERTEX
  8
Switch
 10
73.72958
 20
118.575
 42
0.0
  0
VERTEX
  8
Switch
 10
72.74914
 20
118.575
 42
0.0
  0
VERTEX
  8
Switch
 10
72.74914
 20
132.545
 42
0.0
  0
SEQEND
  0
POLYLINE
  8
Switch
 66
     1
 10
0.0
 20
0.0
 30
0.0
 70
     1
  0
VERTEX
  8
Switch
 10
33.05402
 20
178.04402
 42
0.0
  0
VERTEX
  8
Switch
 10
32.71112
 20
178.78062
 42
0.0
  0
VERTEX
  8
Switch
 10
35.88358
 20
180.26144
 42
0.0
  0
VERTEX
  8
Switch
 10
36.22648
 20
179.52484
 42
0.0
  0
VERTEX
  8
Switch
 10
40.76546
 20
181.64066
 42
0.0
  0
VERTEX
  8
Switch
 10
40.42256
 20
182.37726
 42
0.0
  0
VERTEX
  8
Switch
 10
43.59502
 20
183.85554
 42
0.0
  0
VERTEX
  8
Switch
 10
43.93792
 20
183.11894
 42
0.0
  0
VERTEX
  8
Switch
 10
44.82692
 20
183.5355
 42
0.0
  0
VERTEX
  8
Switch
 10
50.73242
 20
170.8736
 42
0.0
  0
VERTEX
  8
Switch
 10
49.84342
 20
170.45958
 42
0.0
  0
VERTEX
  8
Switch
 10
50.18632
 20
169.72298
 42
0.0
  0
VERTEX
  8
Switch
 10
47.01386
 20
168.24216
 42
0.0
  0
VERTEX
  8
Switch
 10
46.67096
 20
168.97876
 42
0.0
  0
VERTEX
  8
Switch
 10
42.13198
 20
166.86294
 42
0.0
  0
VERTEX
  8
Switch
 10
42.47488
 20
166.12634
 42
0.0
  0
VERTEX
  8
Switch
 10
39.30242
 20
164.64806
 42
0.0
  0
VERTEX
  8
Switch
 10
38.95952
 20
165.38466
 42
0.0
  0
VERTEX
  8
Switch
 10
38.07052
 20
164.9681
 42
0.0
  0
VERTEX
  8
Switch
 10
32.16502
 20
177.63
 42
0.0
  0
SEQEND
  0
POLYLINE
  8
Switch
 66
     1
 10
0.0
 20
0.0
 30
0.0
 70
     1
  0
VERTEX
  8
Switch
 10
55.94958
 20
113.495
 42
0.0
  0
VERTEX
  8
Switch
 10
55.94958
 20
114.3078
 42
0.0
  0
VERTEX
  8
Switch
 10
59.4497
 20
114.3078
 42
0.0
  0
VERTEX
  8
Switch
 10
59.4497
 20
113.495
 42
0.0
  0
VERTEX
  8
Switch
 10
64.45858
 20
113.495
 42
0.0
  0
VERTEX
  8
Switch
 10
64.45858
 20
114.3078
 42
0.0
  0
VERTEX
  8
Switch
 10
67.9587
 20
114.3078
 42
0.0
  0
VERTEX
  8
Switch
 10
67.9587
 20
113.495
 42
0.0
  0
VERTEX
  8
Switch
 10
68.93914
 20
113.495
 42
0.0
  0
VERTEX
  8
Switch
 10
68.93914
 20
99.525
 42
0.0
  0
VERTEX
  8
Switch
 10
67.9587
 20
99.525
 42
0.0
  0
VERTEX
  8
Switch
 10
67.9587
 20
98.7122
 42
0.0
  0
VERTEX
  8
Switch
 10
64.45858
 20
98.7122
 42
0.0
  0
VERTEX
  8
Switch
 10
64.45858
 20
99.525
 42
0.0
  0
VERTEX
  8
Switch
 10
59.4497
 20
99.525
 42
0.0
  0
VERTEX
  8
Switch
 10
59.4497
 20
98.7122
 42
0.0
  0
VERTEX
  8
Switch
 10
55.94958
 20
98.7122
 42
0.0
  0
VERTEX
  8
Switch
 10
55.94958
 20
99.525
 42
0.0
  0
VERTEX
  8
Switch
 10
54.96914
 20
99.525
 42
0.0
  0
VERTEX
  8
Switch
 10
54.96914
 20
113.495
 42
0.0
  0
SEQEND
  0
POLYLINE
  8
Switch
 66
     1
 10
0.0
 20
0.0
 30
0.0
 70
     1
  0
VERTEX
  8
Switch
 10
102.8837
 20
56.345
 42
0.0
  0
VERTEX
  8
Switch
 10
103.86414
 20
56.345
 42
0.0
  0
VERTEX
  8
Switch
 10
103.86414
 20
42.375
 42
0.0
  0
VERTEX
  8
Switch
 10
102.8837
 20
42.375
 42
0.0
  0
VERTEX
  8
Switch
 10
102.8837
 20
41.5622
 42
0.0
  0
VERTEX
  8
Switch
 10
99.38358
 20
41.5622
 42
0.0
  0
VERTEX
  8
Switch
 10
99.38358
 20
42.375
 42
0.0
  0
VERTEX
  8
Switch
 10
94.3747
 20
42.375
 42
0.0
  0
VERTEX
  8
Switch
 10
94.3747
 20
41.5622
 42
0.0
  0
VERTEX
  8
Switch
 10
90.87458
 20
41.5622
 42
0.0
  0
VERTEX
  8
Switch
 10
90.87458
 20
42.375
 42
0.0
  0
VERTEX
  8
Switch
 10
89.89414
 20
42.375
 42
0.0
  0
VERTEX
  8
Switch
 10
89.89414
 20
56.345
 42
0.0
  0
VERTEX
  8
Switch
 10
90.87458
 20
56.345
 42
0.0
  0
VERTEX
  8
Switch
 10
90.87458
 20
57.1578
 42
0.0
  0
VERTEX
  8
Switch
 10
94.3747
 20
57.1578
 42
0.0
  0
VERTEX
  8
Switch
 10
94.3747
 20
56.345
 42
0.0
  0
VERTEX
  8
Switch
 10
99.38358
 20
56.345
 42
0.0
  0
VERTEX
  8
Switch
 10
99.38358
 20
57.1578
 42
0.0
  0
VERTEX
  8
Switch
 10
102.8837
 20
57.1578
 42
0.0
  0
SEQEND
  0
POLYLINE
  8
Switch
 66
     1
 10
0.0
 20
0.0
 30
0.0
 70
     1
  0
VERTEX
  8
Switch
 10
52.70854
 20
144.09184
 42
0.0
  0
VERTEX
  8
Switch
 10
53.44514
 20
144.43474
 42
0.0
  0
VERTEX
  8
Switch
 10
54.92596
 20
141.26228
 42
0.0
  0
VERTEX
  8
Switch
 10
54.18936
 20
140.91938
 42
0.0
  0
VERTEX
  8
Switch
 10
56.30518
 20
136.3804
 42
0.0
  0
VERTEX
  8
Switch
 10
57.04178
 20
136.7233
 42
0.0
  0
VERTEX
  8
Switch
 10
58.52006
 20
133.55084
 42
0.0
  0
VERTEX
  8
Switch
 10
57.78346
 20
133.20794
 42
0.0
  0
VERTEX
  8
Switch
 10
58.20002
 20
132.31894
 42
0.0
  0
VERTEX
  8
Switch
 10
45.53812
 20
126.41344
 42
0.0
  0
VERTEX
  8
Switch
 10
45.1241
 20
127.30244
 42
0.0
  0
VERTEX
  8
Switch
 10
44.3875
 20
126.95954
 42
0.0
  0
VERTEX
  8
Switch
 10
42.90668
 20
130.132
 42
0.0
  0
VERTEX
  8
Switch
 10
43.64328
 20
130.4749
 42
0.0
  0
VERTEX
  8
Switch
 10
41.52746
 20
135.01388
 42
0.0
  0
VERTEX
  8
Switch
 10
40.79086
 20
134.67098
 42
0.0
  0
VERTEX
  8
Switch
 10
39.31258
 20
137.84344
 42
0.0
  0
VERTEX
  8
Switch
 10
40.04918
 20
138.18634
 42
0.0
  0
VERTEX
  8
Switch
 10
39.63262
 20
139.07534
 42
0.0
  0
VERTEX
  8
Switch
 10
52.29452
 20
144.98084
 42
0.0
  0
SEQEND
  0
POLYLINE
  8
Switch
 66
     1
 10
0.0
 20
0.0
 30
0.0
 70
     1
  0
VERTEX
  8
Switch
 10
15.7871
 20
169.99222
 42
0.0
  0
VERTEX
  8
Switch
 10
15.4442
 20
170.72882
 42
0.0
  0
VERTEX
  8
Switch
 10
18.61666
 20
172.20964
 42
0.0
  0
VERTEX
  8
Switch
 10
18.95956
 20
171.47304
 42
0.0
  0
VERTEX
  8
Switch
 10
23.49854
 20
173.58886
 42
0.0
  0
VERTEX
  8
Switch
 10
23.15564
 20
174.32546
 42
0.0
  0
VERTEX
  8
Switch
 10
26.3281
 20
175.80374
 42
0.0
  0
VERTEX
  8
Switch
 10
26.671
 20
175.06714
 42
0.0
  0
VERTEX
  8
Switch
 10
27.56
 20
175.4837
 42
0.0
  0
VERTEX
  8
Switch
 10
33.4655
 20
162.8218
 42
0.0
  0
VERTEX
  8
Switch
 10
32.5765
 20
162.40778
 42
0.0
  0
VERTEX
  8
Switch
 10
32.9194
 20
161.67118
 42
0.0
  0
VERTEX
  8
Switch
 10
29.74694
 20
160.19036
 42
0.0
  0
VERTEX
  8
Switch
 10
29.40404
 20
160.92696
 42
0.0
  0
VERTEX
  8
Switch
 10
24.86506
 20
158.81114
 42
0.0
  0
VERTEX
  8
Switch
 10
25.20796
 20
158.07454
 42
0.0
  0
VERTEX
  8
Switch
 10
22.0355
 20
156.59626
 42
0.0
  0
VERTEX
  8
Switch
 10
21.6926
 20
157.33286
 42
0.0
  0
VERTEX
  8
Switch
 10
20.8036
 20
156.9163
 42
0.0
  0
VERTEX
  8
Switch
 10
14.8981
 20
169.5782
 42
0.0
  0
SEQEND
  0
POLYLINE
  8
Switch
 66
     1
 10
0.0
 20
0.0
 30
0.0
 70
     1
  0
VERTEX
  8
Switch
 10
106.0587
 20
75.395
 42
0.0
  0
VERTEX
  8
Switch
 10
107.03914
 20
75.395
 42
0.0
  0
VERTEX
  8
Switch
 10
107.03914
 20
61.425
 42
0.0
  0
VERTEX
  8
Switch
 10
106.0587
 20
61.425
 42
0.0
  0
VERTEX
  8
Switch
 10
106.0587
 20
60.6122
 42
0.0
  0
VERTEX
  8
Switch
 10
102.55858
 20
60.6122
 42
0.0
  0
VERTEX
  8
Switch
 10
102.55858
 20
61.425
 42
0.0
  0
VERTEX
  8
Switch
 10
97.5497
 20
61.425
 42
0.0
  0
VERTEX
  8
Switch
 10
97.5497
 20
60.6122
 42
0.0
  0
VERTEX
  8
Switch
 10
94.04958
 20
60.6122
 42
0.0
  0
VERTEX
  8
Switch
 10
94.04958
 20
61.425
 42
0.0
  0
VERTEX
  8
Switch
 10
93.06914
 20
61.425
 42
0.0
  0
VERTEX
  8
Switch
 10
93.06914
 20
75.395
 42
0.0
  0
VERTEX
  8
Switch
 10
94.04958
 20
75.395
 42
0.0
  0
VERTEX
  8
Switch
 10
94.04958
 20
76.2078
 42
0.0
  0
VERTEX
  8
Switch
 10
97.5497
 20
76.2078
 42
0.0
  0
VERTEX
  8
Switch
 10
97.5497
 20
75.395
 42
0.0
  0
VERTEX
  8
Switch
 10
102.55858
 20
75.395
 42
0.0
  0
VERTEX
  8
Switch
 10
102.55858
 20
76.2078
 42
0.0
  0
VERTEX
  8
Switch
 10
106.0587
 20
76.2078
 42
0.0
  0
SEQEND
  0
POLYLINE
  8
Switch
 66
     1
 10
0.0
 20
0.0
 30
0.0
 70
     1
  0
VERTEX
  8
Switch
 10
67.1078
 20
178.50884
 42
0.0
  0
VERTEX
  8
Switch
 10
67.4507
 20
177.77224
 42
0.0
  0
VERTEX
  8
Switch
 10
64.27824
 20
176.29142
 42
0.0
  0
VERTEX
  8
Switch
 10
63.93534
 20
177.02802
 42
0.0
  0
VERTEX
  8
Switch
 10
59.39636
 20
174.9122
 42
0.0
  0
VERTEX
  8
Switch
 10
59.73926
 20
174.1756
 42
0.0
  0
VERTEX
  8
Switch
 10
56.5668
 20
172.69732
 42
0.0
  0
VERTEX
  8
Switch
 10
56.2239
 20
173.43392
 42
0.0
  0
VERTEX
  8
Switch
 10
55.3349
 20
173.01736
 42
0.0
  0
VERTEX
  8
Switch
 10
49.4294
 20
185.67926
 42
0.0
  0
VERTEX
  8
Switch
 10
50.3184
 20
186.09328
 42
0.0
  0
VERTEX
  8
Switch
 10
49.9755
 20
186.82988
 42
0.0
  0
VERTEX
  8
Switch
 10
53.14796
 20
188.3107
 42
0.0
  0
VERTEX
  8
Switch
 10
53.49086
 20
187.5741
 42
0.0
  0
VERTEX
  8
Switch
 10
58.02984
 20
189.68992
 42
0.0
  0
VERTEX
  8
Switch
 10
57.68694
 20
190.42652
 42
0.0
  0
VERTEX
  8
Switch
 10
60.8594
 20
191.9048
 42
0.0
  0
VERTEX
  8
Switch
 10
61.2023
 20
191.1682
 42
0.0
  0
VERTEX
  8
Switch
 10
62.0913
 20
191.58476
 42
0.0
  0
VERTEX
  8
Switch
 10
67.9968
 20
178.92286
 42
0.0
  0
SEQEND
  0
POLYLINE
  8
Switch
 66
     1
 10
0.0
 20
0.0
 30
0.0
 70
     1
  0
VERTEX
  8
Switch
 10
107.65636
 20
80.475
 42
0.0
  0
VERTEX
  8
Switch
 10
107.65636
 20
79.6622
 42
0.0
  0
VERTEX
  8
Switch
 10
104.15624
 20
79.6622
 42
0.0
  0
VERTEX
  8
Switch
 10
104.15624
 20
80.475
 42
0.0
  0
VERTEX
  8
Switch
 10
99.14736
 20
80.475
 42
0.0
  0
VERTEX
  8
Switch
 10
99.14736
 20
79.6622
 42
0.0
  0
VERTEX
  8
Switch
 10
95.64724
 20
79.6622
 42
0.0
  0
VERTEX
  8
Switch
 10
95.64724
 20
80.475
 42
0.0
  0
VERTEX
  8
Switch
 10
94.6668
 20
80.475
 42
0.0
  0
VERTEX
  8
Switch
 10
94.6668
 20
94.445
 42
0.0
  0
VERTEX
  8
Switch
 10
95.64724
 20
94.445
 42
0.0
  0
VERTEX
  8
Switch
 10
95.64724
 20
95.2578
 42
0.0
  0
VERTEX
  8
Switch
 10
99.14736
 20
95.2578
 42
0.0
  0
VERTEX
  8
Switch
 10
99.14736
 20
94.445
 42
0.0
  0
VERTEX
  8
Switch
 10
104.15624
 20
94.445
 42
0.0
  0
VERTEX
  8
Switch
 10
104.15624
 20
95.2578
 42
0.0
  0
VERTEX
  8
Switch
 10
107.65636
 20
95.2578
 42
0.0
  0
VERTEX
  8
Switch
 10
107.65636
 20
94.445
 42
0.0
  0
VERTEX
  8
Switch
 10
108.6368
 20
94.445
 42
0.0
  0
VERTEX
  8
Switch
 10
108.6368
 20
80.475
 42
0.0
  0
SEQEND
  0
POLYLINE
  8
Switch
 66
     1
 10
0.0
 20
0.0
 30
0.0
 70
     1
  0
VERTEX
  8
Switch
 10
106.0587
 20
113.495
 42
0.0
  0
VERTEX
  8
Switch
 10
107.03914
 20
113.495
 42
0.0
  0
VERTEX
  8
Switch
 10
107.03914
 20
99.525
 42
0.0
  0
VERTEX
  8
Switch
 10
106.0587
 20
99.525
 42
0.0
  0
VERTEX
  8
Switch
 10
106.0587
 20
98.7122
 42
0.0
  0
VERTEX
  8
Switch
 10
102.55858
 20
98.7122
 42
0.0
  0
VERTEX
  8
Switch
 10
102.55858
 20
99.525
 42
0.0
  0
VERTEX
  8
Switch
 10
97.5497
 20
99.525
 42
0.0
  0
VERTEX
  8
Switch
 10
97.5497
 20
98.7122
 42
0.0
  0
VERTEX
  8
Switch
 10
94.04958
 20
98.7122
 42
0.0
  0
VERTEX
  8
Switch
 10
94.04958
 20
99.525
 42
0.0
  0
VERTEX
  8
Switch
 10
93.06914
 20
99.525
 42
0.0
  0
VERTEX
  8
Switch
 10
93.06914
 20
113.495
 42
0.0
  0
VERTEX
  8
Switch
 10
94.04958
 20
113.495
 42
0.0
  0
VERTEX
  8
Switch
 10
94.04958
 20
114.3078
 42
0.0
  0
VERTEX
  8
Switch
 10
97.5497
 20
114.3078
 42
0.0
  0
VERTEX
  8
Switch
 10
97.5497
 20
113.495
 42
0.0
  0
VERTEX
  8
Switch
 10
102.55858
 20
113.495
 42
0.0
  0
VERTEX
  8
Switch
 10
102.55858
 20
114.3078
 42
0.0
  0
VERTEX
  8
Switch
 10
106.0587
 20
114.3078
 42
0.0
  0
SEQEND
  0
POLYLINE
  8
Switch
 66
     1
 10
0.0
 20
0.0
 30
0.0
 70
     1
  0
VERTEX
  8
Switch
 10
125.1087
 20
75.395
 42
0.0
  0
VERTEX
  8
Switch
 10
126.08914
 20
75.395
 42
0.0
  0
VERTEX
  8
Switch
 10
126.08914
 20
61.425
 42
0.0
  0
VERTEX
  8
Switch
 10
125.1087
 20
61.425
 42
0.0
  0
VERTEX
  8
Switch
 10
125.1087
 20
60.6122
 42
0.0
  0
VERTEX
  8
Switch
 10
121.60858
 20
60.6122
 42
0.0
  0
VERTEX
  8
Switch
 10
121.60858
 20
61.425
 42
0.0
  0
VERTEX
  8
Switch
 10
116.5997
 20
61.425
 42
0.0
  0
VERTEX
  8
Switch
 10
116.5997
 20
60.6122
 42
0.0
  0
VERTEX
  8
Switch
 10
113.09958
 20
60.6122
 42
0.0
  0
VERTEX
  8
Switch
 10
113.09958
 20
61.425
 42
0.0
  0
VERTEX
  8
Switch
 10
112.11914
 20
61.425
 42
0.0
  0
VERTEX
  8
Switch
 10
112.11914
 20
75.395
 42
0.0
  0
VERTEX
  8
Switch
 10
113.09958
 20
75.395
 42
0.0
  0
VERTEX
  8
Switch
 10
113.09958
 20
76.2078
 42
0.0
  0
VERTEX
  8
Switch
 10
116.5997
 20
76.2078
 42
0.0
  0
VERTEX
  8
Switch
 10
116.5997
 20
75.395
 42
0.0
  0
VERTEX
  8
Switch
 10
121.60858
 20
75.395
 42
0.0
  0
VERTEX
  8
Switch
 10
121.60858
 20
76.2078
 42
0.0
  0
VERTEX
  8
Switch
 10
125.1087
 20
76.2078
 42
0.0
  0
SEQEND
  0
POLYLINE
  8
Switch
 66
     1
 10
0.0
 20
0.0
 30
0.0
 70
     1
  0
VERTEX
  8
Switch
 10
128.97204
 20
56.345
 42
0.0
  0
VERTEX
  8
Switch
 10
128.97204
 20
57.1578
 42
0.0
  0
VERTEX
  8
Switch
 10
132.47216
 20
57.1578
 42
0.0
  0
VERTEX
  8
Switch
 10
132.47216
 20
56.345
 42
0.0
  0
VERTEX
  8
Switch
 10
137.48104
 20
56.345
 42
0.0
  0
VERTEX
  8
Switch
 10
137.48104
 20
57.1578
 42
0.0
  0
VERTEX
  8
Switch
 10
140.98116
 20
57.1578
 42
0.0
  0
VERTEX
  8
Switch
 10
140.98116
 20
56.345
 42
0.0
  0
VERTEX
  8
Switch
 10
141.9616
 20
56.345
 42
0.0
  0
VERTEX
  8
Switch
 10
141.9616
 20
42.375
 42
0.0
  0
VERTEX
  8
Switch
 10
140.98116
 20
42.375
 42
0.0
  0
VERTEX
  8
Switch
 10
140.98116
 20
41.5622
 42
0.0
  0
VERTEX
  8
Switch
 10
137.48104
 20
41.5622
 42
0.0
  0
VERTEX
  8
Switch
 10
137.48104
 20
42.375
 42
0.0
  0
VERTEX
  8
Switch
 10
132.47216
 20
42.375
 42
0.0
  0
VERTEX
  8
Switch
 10
132.47216
 20
41.5622
 42
0.0
  0
VERTEX
  8
Switch
 10
128.97204
 20
41.5622
 42
0.0
  0
VERTEX
  8
Switch
 10
128.97204
 20
42.375
 42
0.0
  0
VERTEX
  8
Switch
 10
127.9916
 20
42.375
 42
0.0
  0
VERTEX
  8
Switch
 10
127.9916
 20
56.345
 42
0.0
  0
SEQEND
  0
POLYLINE
  8
Switch
 66
     1
 10
0.0
 20
0.0
 30
0.0
 70
     1
  0
VERTEX
  8
Switch
 10
58.36766
 20
168.8289
 42
0.0
  0
VERTEX
  8
Switch
 10
58.02476
 20
169.5655
 42
0.0
  0
VERTEX
  8
Switch
 10
61.19722
 20
171.04632
 42
0.0
  0
VERTEX
  8
Switch
 10
61.54012
 20
170.30972
 42
0.0
  0
VERTEX
  8
Switch
 10
66.0791
 20
172.42554
 42
0.0
  0
VERTEX
  8
Switch
 10
65.7362
 20
173.16214
 42
0.0
  0
VERTEX
  8
Switch
 10
68.90866
 20
174.64042
 42
0.0
  0
VERTEX
  8
Switch
 10
69.25156
 20
173.90382
 42
0.0
  0
VERTEX
  8
Switch
 10
70.14056
 20
174.32038
 42
0.0
  0
VERTEX
  8
Switch
 10
76.04606
 20
161.65848
 42
0.0
  0
VERTEX
  8
Switch
 10
75.15706
 20
161.24446
 42
0.0
  0
VERTEX
  8
Switch
 10
75.49996
 20
160.50786
 42
0.0
  0
VERTEX
  8
Switch
 10
72.3275
 20
159.02704
 42
0.0
  0
VERTEX
  8
Switch
 10
71.9846
 20
159.76364
 42
0.0
  0
VERTEX
  8
Switch
 10
67.44562
 20
157.64782
 42
0.0
  0
VERTEX
  8
Switch
 10
67.78852
 20
156.91122
 42
0.0
  0
VERTEX
  8
Switch
 10
64.61606
 20
155.43294
 42
0.0
  0
VERTEX
  8
Switch
 10
64.27316
 20
156.16954
 42
0.0
  0
VERTEX
  8
Switch
 10
63.38416
 20
155.75298
 42
0.0
  0
VERTEX
  8
Switch
 10
57.47866
 20
168.41488
 42
0.0
  0
SEQEND
  0
POLYLINE
  8
Switch
 66
     1
 10
0.0
 20
0.0
 30
0.0
 70
     1
  0
VERTEX
  8
Switch
 10
130.87704
 20
132.545
 42
0.0
  0
VERTEX
  8
Switch
 10
130.87704
 20
133.3578
 42
0.0
  0
VERTEX
  8
Switch
 10
134.37716
 20
133.3578
 42
0.0
  0
VERTEX
  8
Switch
 10
134.37716
 20
132.545
 42
0.0
  0
VERTEX
  8
Switch
 10
139.38604
 20
132.545
 42
0.0
  0
VERTEX
  8
Switch
 10
139.38604
 20
133.3578
 42
0.0
  0
VERTEX
  8
Switch
 10
142.88616
 20
133.3578
 42
0.0
  0
VERTEX
  8
Switch
 10
142.88616
 20
132.545
 42
0.0
  0
VERTEX
  8
Switch
 10
143.8666
 20
132.545
 42
0.0
  0
VERTEX
  8
Switch
 10
143.8666
 20
118.575
 42
0.0
  0
VERTEX
  8
Switch
 10
142.88616
 20
118.575
 42
0.0
  0
VERTEX
  8
Switch
 10
142.88616
 20
117.7622
 42
0.0
  0
VERTEX
  8
Switch
 10
139.38604
 20
117.7622
 42
0.0
  0
VERTEX
  8
Switch
 10
139.38604
 20
118.575
 42
0.0
  0
VERTEX
  8
Switch
 10
134.37716
 20
118.575
 42
0.0
  0
VERTEX
  8
Switch
 10
134.37716
 20
117.7622
 42
0.0
  0
VERTEX
  8
Switch
 10
130.87704
 20
117.7622
 42
0.0
  0
VERTEX
  8
Switch
 10
130.87704
 20
118.575
 42
0.0
  0
VERTEX
  8
Switch
 10
129.8966
 20
118.575
 42
0.0
  0
VERTEX
  8
Switch
 10
129.8966
 20
132.545
 42
0.0
  0
SEQEND
  0
POLYLINE
  8
Switch
 66
     1
 10
0.0
 20
0.0
 30
0.0
 70
     1
  0
VERTEX
  8
Switch
 10
104.7887
 20
132.545
 42
0.0
  0
VERTEX
  8
Switch
 10
105.76914
 20
132.545
 42
0.0
  0
VERTEX
  8
Switch
 10
105.76914
 20
118.575
 42
0.0
  0
VERTEX
  8
Switch
 10
104.7887
 20
118.575
 42
0.0
  0
VERTEX
  8
Switch
 10
104.7887
 20
117.7622
 42
0.0
  0
VERTEX
  8
Switch
 10
101.28858
 20
117.7622
 42
0.0
  0
VERTEX
  8
Switch
 10
101.28858
 20
118.575
 42
0.0
  0
VERTEX
  8
Switch
 10
96.2797
 20
118.575
 42
0.0
  0
VERTEX
  8
Switch
 10
96.2797
 20
117.7622
 42
0.0
  0
VERTEX
  8
Switch
 10
92.77958
 20
117.7622
 42
0.0
  0
VERTEX
  8
Switch
 10
92.77958
 20
118.575
 42
0.0
  0
VERTEX
  8
Switch
 10
91.79914
 20
118.575
 42
0.0
  0
VERTEX
  8
Switch
 10
91.79914
 20
132.545
 42
0.0
  0
VERTEX
  8
Switch
 10
92.77958
 20
132.545
 42
0.0
  0
VERTEX
  8
Switch
 10
92.77958
 20
133.3578
 42
0.0
  0
VERTEX
  8
Switch
 10
96.2797
 20
133.3578
 42
0.0
  0
VERTEX
  8
Switch
 10
96.2797
 20
132.545
 42
0.0
  0
VERTEX
  8
Switch
 10
101.28858
 20
132.545
 42
0.0
  0
VERTEX
  8
Switch
 10
101.28858
 20
133.3578
 42
0.0
  0
VERTEX
  8
Switch
 10
104.7887
 20
133.3578
 42
0.0
  0
SEQEND
  0
POLYLINE
  8
Switch
 66
     1
 10
0.0
 20
0.0
 30
0.0
 70
     1
  0
VERTEX
  8
Switch
 10
44.65674
 20
161.35622
 42
0.0
  0
VERTEX
  8
Switch
 10
45.39334
 20
161.69912
 42
0.0
  0
VERTEX
  8
Switch
 10
46.87416
 20
158.52666
 42
0.0
  0
VERTEX
  8
Switch
 10
46.13756
 20
158.18376
 42
0.0
  0
VERTEX
  8
Switch
 10
48.25338
 20
153.64478
 42
0.0
  0
VERTEX
  8
Switch
 10
48.98998
 20
153.98768
 42
0.0
  0
VERTEX
  8
Switch
 10
50.46826
 20
150.81522
 42
0.0
  0
VERTEX
  8
Switch
 10
49.73166
 20
150.47232
 42
0.0
  0
VERTEX
  8
Switch
 10
50.14822
 20
149.58332
 42
0.0
  0
VERTEX
  8
Switch
 10
37.48632
 20
143.67782
 42
0.0
  0
VERTEX
  8
Switch
 10
37.0723
 20
144.56682
 42
0.0
  0
VERTEX
  8
Switch
 10
36.3357
 20
144.22392
 42
0.0
  0
VERTEX
  8
Switch
 10
34.85488
 20
147.39638
 42
0.0
  0
VERTEX
  8
Switch
 10
35.59148
 20
147.73928
 42
0.0
  0
VERTEX
  8
Switch
 10
33.47566
 20
152.27826
 42
0.0
  0
VERTEX
  8
Switch
 10
32.73906
 20
151.93536
 42
0.0
  0
VERTEX
  8
Switch
 10
31.26078
 20
155.10782
 42
0.0
  0
VERTEX
  8
Switch
 10
31.99738
 20
155.45072
 42
0.0
  0
VERTEX
  8
Switch
 10
31.58082
 20
156.33972
 42
0.0
  0
VERTEX
  8
Switch
 10
44.24272
 20
162.24522
 42
0.0
  0
SEQEND
  0
POLYLINE
  8
Switch
 66
     1
 10
0.0
 20
0.0
 30
0.0
 70
     1
  0
VERTEX
  8
Switch
 10
144.1587
 20
75.395
 42
0.0
  0
VERTEX
  8
Switch
 10
145.13914
 20
75.395
 42
0.0
  0
VERTEX
  8
Switch
 10
145.13914
 20
61.425
 42
0.0
  0
VERTEX
  8
Switch
 10
144.1587
 20
61.425
 42
0.0
  0
VERTEX
  8
Switch
 10
144.1587
 20
60.6122
 42
0.0
  0
VERTEX
  8
Switch
 10
140.65858
 20
60.6122
 42
0.0
  0
VERTEX
  8
Switch
 10
140.65858
 20
61.425
 42
0.0
  0
VERTEX
  8
Switch
 10
135.6497
 20
61.425
 42
0.0
  0
VERTEX
  8
Switch
 10
135.6497
 20
60.6122
 42
0.0
  0
VERTEX
  8
Switch
 10
132.14958
 20
60.6122
 42
0.0
  0
VERTEX
  8
Switch
 10
132.14958
 20
61.425
 42
0.0
  0
VERTEX
  8
Switch
 10
131.16914
 20
61.425
 42
0.0
  0
VERTEX
  8
Switch
 10
131.16914
 20
75.395
 42
0.0
  0
VERTEX
  8
Switch
 10
132.14958
 20
75.395
 42
0.0
  0
VERTEX
  8
Switch
 10
132.14958
 20
76.2078
 42
0.0
  0
VERTEX
  8
Switch
 10
135.6497
 20
76.2078
 42
0.0
  0
VERTEX
  8
Switch
 10
135.6497
 20
75.395
 42
0.0
  0
VERTEX
  8
Switch
 10
140.65858
 20
75.395
 42
0.0
  0
VERTEX
  8
Switch
 10
140.65858
 20
76.2078
 42
0.0
  0
VERTEX
  8
Switch
 10
144.1587
 20
76.2078
 42
0.0
  0
SEQEND
  0
POLYLINE
  8
Switch
 66
     1
 10
0.0
 20
0.0
 30
0.0
 70
     1
  0
VERTEX
  8
Switch
 10
83.8337
 20
56.345
 42
0.0
  0
VERTEX
  8
Switch
 10
84.81414
 20
56.345
 42
0.0
  0
VERTEX
  8
Switch
 10
84.81414
 20
42.375
 42
0.0
  0
VERTEX
  8
Switch
 10
83.8337
 20
42.375
 42
0.0
  0
VERTEX
  8
Switch
 10
83.8337
 20
41.5622
 42
0.0
  0
VERTEX
  8
Switch
 10
80.33358
 20
41.5622
 42
0.0
  0
VERTEX
  8
Switch
 10
80.33358
 20
42.375
 42
0.0
  0
VERTEX
  8
Switch
 10
75.3247
 20
42.375
 42
0.0
  0
VERTEX
  8
Switch
 10
75.3247
 20
41.5622
 42
0.0
  0
VERTEX
  8
Switch
 10
71.82458
 20
41.5622
 42
0.0
  0
VERTEX
  8
Switch
 10
71.82458
 20
42.375
 42
0.0
  0
VERTEX
  8
Switch
 10
70.84414
 20
42.375
 42
0.0
  0
VERTEX
  8
Switch
 10
70.84414
 20
56.345
 42
0.0
  0
VERTEX
  8
Switch
 10
71.82458
 20
56.345
 42
0.0
  0
VERTEX
  8
Switch
 10
71.82458
 20
57.1578
 42
0.0
  0
VERTEX
  8
Switch
 10
75.3247
 20
57.1578
 42
0.0
  0
VERTEX
  8
Switch
 10
75.3247
 20
56.345
 42
0.0
  0
VERTEX
  8
Switch
 10
80.33358
 20
56.345
 42
0.0
  0
VERTEX
  8
Switch
 10
80.33358
 20
57.1578
 42
0.0
  0
VERTEX
  8
Switch
 10
83.8337
 20
57.1578
 42
0.0
  0
SEQEND
  0
POLYLINE
  8
Switch
 66
     1
 10
0.0
 20
0.0
 30
0.0
 70
     1
  0
VERTEX
  8
Switch
 10
145.75636
 20
80.475
 42
0.0
  0
VERTEX
  8
Switch
 10
145.75636
 20
79.6622
 42
0.0
  0
VERTEX
  8
Switch
 10
142.25624
 20
79.6622
 42
0.0
  0
VERTEX
  8
Switch
 10
142.25624
 20
80.475
 42
0.0
  0
VERTEX
  8
Switch
 10
137.24736
 20
80.475
 42
0.0
  0
VERTEX
  8
Switch
 10
137.24736
 20
79.6622
 42
0.0
  0
VERTEX
  8
Switch
 10
133.74724
 20
79.6622
 42
0.0
  0
VERTEX
  8
Switch
 10
133.74724
 20
80.475
 42
0.0
  0
VERTEX
  8
Switch
 10
132.7668
 20
80.475
 42
0.0
  0
VERTEX
  8
Switch
 10
132.7668
 20
94.445
 42
0.0
  0
VERTEX
  8
Switch
 10
133.74724
 20
94.445
 42
0.0
  0
VERTEX
  8
Switch
 10
133.74724
 20
95.2578
 42
0.0
  0
VERTEX
  8
Switch
 10
137.24736
 20
95.2578
 42
0.0
  0
VERTEX
  8
Switch
 10
137.24736
 20
94.445
 42
0.0
  0
VERTEX
  8
Switch
 10
142.25624
 20
94.445
 42
0.0
  0
VERTEX
  8
Switch
 10
142.25624
 20
95.2578
 42
0.0
  0
VERTEX
  8
Switch
 10
145.75636
 20
95.2578
 42
0.0
  0
VERTEX
  8
Switch
 10
145.75636
 20
94.445
 42
0.0
  0
VERTEX
  8
Switch
 10
146.7368
 20
94.445
 42
0.0
  0
VERTEX
  8
Switch
 10
146.7368
 20
80.475
 42
0.0
  0
SEQEND
  0
POLYLINE
  8
Switch
 66
     1
 10
0.0
 20
0.0
 30
0.0
 70
     1
  0
VERTEX
  8
Switch
 10
128.97204
 20
32.5325
 42
0.0
  0
VERTEX
  8
Switch
 10
128.97204
 20
33.3453
 42
0.0
  0
VERTEX
  8
Switch
 10
132.47216
 20
33.3453
 42
0.0
  0
VERTEX
  8
Switch
 10
132.47216
 20
32.5325
 42
0.0
  0
VERTEX
  8
Switch
 10
137.48104
 20
32.5325
 42
0.0
  0
VERTEX
  8
Switch
 10
137.48104
 20
33.3453
 42
0.0
  0
VERTEX
  8
Switch
 10
140.98116
 20
33.3453
 42
0.0
  0
VERTEX
  8
Switch
 10
140.98116
 20
32.5325
 42
0.0
  0
VERTEX
  8
Switch
 10
141.9616
 20
32.5325
 42
0.0
  0
VERTEX
  8
Switch
 10
141.9616
 20
18.5625
 42
0.0
  0
VERTEX
  8
Switch
 10
140.98116
 20
18.5625
 42
0.0
  0
VERTEX
  8
Switch
 10
140.98116
 20
17.7497
 42
0.0
  0
VERTEX
  8
Switch
 10
137.48104
 20
17.7497
 42
0.0
  0
VERTEX
  8
Switch
 10
137.48104
 20
18.5625
 42
0.0
  0
VERTEX
  8
Switch
 10
132.47216
 20
18.5625
 42
0.0
  0
VERTEX
  8
Switch
 10
132.47216
 20
17.7497
 42
0.0
  0
VERTEX
  8
Switch
 10
128.97204
 20
17.7497
 42
0.0
  0
VERTEX
  8
Switch
 10
128.97204
 20
18.5625
 42
0.0
  0
VERTEX
  8
Switch
 10
127.9916
 20
18.5625
 42
0.0
  0
VERTEX
  8
Switch
 10
127.9916
 20
32.5325
 42
0.0
  0
SEQEND
  0
POLYLINE
  8
Switch
 66
     1
 10
0.0
 20
0.0
 30
0.0
 70
     9
  0
VERTEX
  8
Switch
 10
87.0087
 20
340.605
 30
0.0
 42
0.0
  0
VERTEX
  8
Switch
 10
87.98914
 20
340.605
 30
0.0
 42
0.0
  0
VERTEX
  8
Switch
 10
87.98914
 20
354.575
 30
0.0
 42
0.0
  0
VERTEX
  8
Switch
 10
87.0087
 20
354.575
 30
0.0
 42
0.0
  0
VERTEX
  8
Switch
 10
87.0087
 20
355.3878
 30
0.0
 42
0.0
  0
VERTEX
  8
Switch
 10
83.50858
 20
355.3878
 30
0.0
 42
0.0
  0
VERTEX
  8
Switch
 10
83.50858
 20
354.575
 30
0.0
 42
0.0
  0
VERTEX
  8
Switch
 10
78.4997
 20
354.575
 30
0.0
 42
0.0
  0
VERTEX
  8
Switch
 10
78.4997
 20
355.3878
 30
0.0
 42
0.0
  0
VERTEX
  8
Switch
 10
74.99958
 20
355.3878
 30
0.0
 42
0.0
  0
VERTEX
  8
Switch
 10
74.99958
 20
354.575
 30
0.0
 42
0.0
  0
VERTEX
  8
Switch
 10
74.01914
 20
354.575
 30
0.0
 42
0.0
  0
VERTEX
  8
Switch
 10
74.01914
 20
340.605
 30
0.0
 42
0.0
  0
VERTEX
  8
Switch
 10
74.99958
 20
340.605
 30
0.0
 42
0.0
  0
VERTEX
  8
Switch
 10
74.99958
 20
339.7922
 30
0.0
 42
0.0
  0
VERTEX
  8
Switch
 10
78.4997
 20
339.7922
 30
0.0
 42
0.0
  0
VERTEX
  8
Switch
 10
78.4997
 20
340.605
 30
0.0
 42
0.0
  0
VERTEX
  8
Switch
 10
83.50858
 20
340.605
 30
0.0
 42
0.0
  0
VERTEX
  8
Switch
 10
83.50858
 20
339.7922
 30
0.0
 42
0.0
  0
VERTEX
  8
Switch
 10
87.0087
 20
339.7922
 30
0.0
 42
0.0
  0
SEQEND
  0
POLYLINE
  8
Switch
 66
     1
 10
0.0
 20
0.0
 30
0.0
 70
     9
  0
VERTEX
  8
Switch
 10
76.59724
 20
335.525
 30
0.0
 42
0.0
  0
VERTEX
  8
Switch
 10
75.6168
 20
335.525
 30
0.0
 42
0.0
  0
VERTEX
  8
Switch
 10
75.6168
 20
321.555
 30
0.0
 42
0.0
  0
VERTEX
  8
Switch
 10
76.59724
 20
321.555
 30
0.0
 42
0.0
  0
VERTEX
  8
Switch
 10
76.59724
 20
320.7422
 30
0.0
 42
0.0
  0
VERTEX
  8
Switch
 10
80.09736
 20
320.7422
 30
0.0
 42
0.0
  0
VERTEX
  8
Switch
 10
80.09736
 20
321.555
 30
0.0
 42
0.0
  0
VERTEX
  8
Switch
 10
85.10624
 20
321.555
 30
0.0
 42
0.0
  0
VERTEX
  8
Switch
 10
85.10624
 20
320.7422
 30
0.0
 42
0.0
  0
VERTEX
  8
Switch
 10
88.60636
 20
320.7422
 30
0.0
 42
0.0
  0
VERTEX
  8
Switch
 10
88.60636
 20
321.555
 30
0.0
 42
0.0
  0
VERTEX
  8
Switch
 10
89.5868
 20
321.555
 30
0.0
 42
0.0
  0
VERTEX
  8
Switch
 10
89.5868
 20
335.525
 30
0.0
 42
0.0
  0
VERTEX
  8
Switch
 10
88.60636
 20
335.525
 30
0.0
 42
0.0
  0
VERTEX
  8
Switch
 10
88.60636
 20
336.3378
 30
0.0
 42
0.0
  0
VERTEX
  8
Switch
 10
85.10624
 20
336.3378
 30
0.0
 42
0.0
  0
VERTEX
  8
Switch
 10
85.10624
 20
335.525
 30
0.0
 42
0.0
  0
VERTEX
  8
Switch
 10
80.09736
 20
335.525
 30
0.0
 42
0.0
  0
VERTEX
  8
Switch
 10
80.09736
 20
336.3378
 30
0.0
 42
0.0
  0
VERTEX
  8
Switch
 10
76.59724
 20
336.3378
 30
0.0
 42
0.0
  0
SEQEND
  0
POLYLINE
  8
Switch
 66
     1
 10
0.0
 20
0.0
 30
0.0
 70
     9
  0
VERTEX
  8
Switch
 10
130.87704
 20
264.405
 30
0.0
 42
0.0
  0
VERTEX
  8
Switch
 10
130.87704
 20
263.5922
 30
0.0
 42
0.0
  0
VERTEX
  8
Switch
 10
134.37716
 20
263.5922
 30
0.0
 42
0.0
  0
VERTEX
  8
Switch
 10
134.37716
 20
264.405
 30
0.0
 42
0.0
  0
VERTEX
  8
Switch
 10
139.38604
 20
264.405
 30
0.0
 42
0.0
  0
VERTEX
  8
Switch
 10
139.38604
 20
263.5922
 30
0.0
 42
0.0
  0
VERTEX
  8
Switch
 10
142.88616
 20
263.5922
 30
0.0
 42
0.0
  0
VERTEX
  8
Switch
 10
142.88616
 20
264.405
 30
0.0
 42
0.0
  0
VERTEX
  8
Switch
 10
143.8666
 20
264.405
 30
0.0
 42
0.0
  0
VERTEX
  8
Switch
 10
143.8666
 20
278.375
 30
0.0
 42
0.0
  0
VERTEX
  8
Switch
 10
142.88616
 20
278.375
 30
0.0
 42
0.0
  0
VERTEX
  8
Switch
 10
142.88616
 20
279.1878
 30
0.0
 42
0.0
  0
VERTEX
  8
Switch
 10
139.38604
 20
279.1878
 30
0.0
 42
0.0
  0
VERTEX
  8
Switch
 10
139.38604
 20
278.375
 30
0.0
 42
0.0
  0
VERTEX
  8
Switch
 10
134.37716
 20
278.375
 30
0.0
 42
0.0
  0
VERTEX
  8
Switch
 10
134.37716
 20
279.1878
 30
0.0
 42
0.0
  0
VERTEX
  8
Switch
 10
130.87704
 20
279.1878
 30
0.0
 42
0.0
  0
VERTEX
  8
Switch
 10
130.87704
 20
278.375
 30
0.0
 42
0.0
  0
VERTEX
  8
Switch
 10
129.8966
 20
278.375
 30
0.0
 42
0.0
  0
VERTEX
  8
Switch
 10
129.8966
 20
264.405
 30
0.0
 42
0.0
  0
SEQEND
  0
POLYLINE
  8
Switch
 66
     1
 10
0.0
 20
0.0
 30
0.0
 70
     9
  0
VERTEX
  8
Switch
 10
144.1587
 20
302.505
 30
0.0
 42
0.0
  0
VERTEX
  8
Switch
 10
145.13914
 20
302.505
 30
0.0
 42
0.0
  0
VERTEX
  8
Switch
 10
145.13914
 20
316.475
 30
0.0
 42
0.0
  0
VERTEX
  8
Switch
 10
144.1587
 20
316.475
 30
0.0
 42
0.0
  0
VERTEX
  8
Switch
 10
144.1587
 20
317.2878
 30
0.0
 42
0.0
  0
VERTEX
  8
Switch
 10
140.65858
 20
317.2878
 30
0.0
 42
0.0
  0
VERTEX
  8
Switch
 10
140.65858
 20
316.475
 30
0.0
 42
0.0
  0
VERTEX
  8
Switch
 10
135.6497
 20
316.475
 30
0.0
 42
0.0
  0
VERTEX
  8
Switch
 10
135.6497
 20
317.2878
 30
0.0
 42
0.0
  0
VERTEX
  8
Switch
 10
132.14958
 20
317.2878
 30
0.0
 42
0.0
  0
VERTEX
  8
Switch
 10
132.14958
 20
316.475
 30
0.0
 42
0.0
  0
VERTEX
  8
Switch
 10
131.16914
 20
316.475
 30
0.0
 42
0.0
  0
VERTEX
  8
Switch
 10
131.16914
 20
302.505
 30
0.0
 42
0.0
  0
VERTEX
  8
Switch
 10
132.14958
 20
302.505
 30
0.0
 42
0.0
  0
VERTEX
  8
Switch
 10
132.14958
 20
301.6922
 30
0.0
 42
0.0
  0
VERTEX
  8
Switch
 10
135.6497
 20
301.6922
 30
0.0
 42
0.0
  0
VERTEX
  8
Switch
 10
135.6497
 20
302.505
 30
0.0
 42
0.0
  0
VERTEX
  8
Switch
 10
140.65858
 20
302.505
 30
0.0
 42
0.0
  0
VERTEX
  8
Switch
 10
140.65858
 20
301.6922
 30
0.0
 42
0.0
  0
VERTEX
  8
Switch
 10
144.1587
 20
301.6922
 30
0.0
 42
0.0
  0
SEQEND
  0
POLYLINE
  8
Switch
 66
     1
 10
0.0
 20
0.0
 30
0.0
 70
     9
  0
VERTEX
  8
Switch
 10
102.8837
 20
383.4675
 30
0.0
 42
0.0
  0
VERTEX
  8
Switch
 10
103.86414
 20
383.4675
 30
0.0
 42
0.0
  0
VERTEX
  8
Switch
 10
103.86414
 20
397.4375
 30
0.0
 42
0.0
  0
VERTEX
  8
Switch
 10
102.8837
 20
397.4375
 30
0.0
 42
0.0
  0
VERTEX
  8
Switch
 10
102.8837
 20
398.2503
 30
0.0
 42
0.0
  0
VERTEX
  8
Switch
 10
99.3835800000001
 20
398.2503
 30
0.0
 42
0.0
  0
VERTEX
  8
Switch
 10
99.3835800000001
 20
397.4375
 30
0.0
 42
0.0
  0
VERTEX
  8
Switch
 10
94.3747000000001
 20
397.4375
 30
0.0
 42
0.0
  0
VERTEX
  8
Switch
 10
94.3747000000001
 20
398.2503
 30
0.0
 42
0.0
  0
VERTEX
  8
Switch
 10
90.8745800000001
 20
398.2503
 30
0.0
 42
0.0
  0
VERTEX
  8
Switch
 10
90.8745800000001
 20
397.4375
 30
0.0
 42
0.0
  0
VERTEX
  8
Switch
 10
89.8941400000001
 20
397.4375
 30
0.0
 42
0.0
  0
VERTEX
  8
Switch
 10
89.89414
 20
383.4675
 30
0.0
 42
0.0
  0
VERTEX
  8
Switch
 10
90.87458
 20
383.4675
 30
0.0
 42
0.0
  0
VERTEX
  8
Switch
 10
90.87458
 20
382.6547
 30
0.0
 42
0.0
  0
VERTEX
  8
Switch
 10
94.3747
 20
382.6547
 30
0.0
 42
0.0
  0
VERTEX
  8
Switch
 10
94.3747
 20
383.4675
 30
0.0
 42
0.0
  0
VERTEX
  8
Switch
 10
99.38358
 20
383.4675
 30
0.0
 42
0.0
  0
VERTEX
  8
Switch
 10
99.38358
 20
382.6547
 30
0.0
 42
0.0
  0
VERTEX
  8
Switch
 10
102.8837
 20
382.6547
 30
0.0
 42
0.0
  0
SEQEND
  0
POLYLINE
  8
Switch
 66
     1
 10
0.0
 20
0.0
 30
0.0
 70
     9
  0
VERTEX
  8
Switch
 10
55.94958
 20
340.605
 30
0.0
 42
0.0
  0
VERTEX
  8
Switch
 10
55.94958
 20
339.7922
 30
0.0
 42
0.0
  0
VERTEX
  8
Switch
 10
59.4497
 20
339.7922
 30
0.0
 42
0.0
  0
VERTEX
  8
Switch
 10
59.4497
 20
340.605
 30
0.0
 42
0.0
  0
VERTEX
  8
Switch
 10
64.45858
 20
340.605
 30
0.0
 42
0.0
  0
VERTEX
  8
Switch
 10
64.45858
 20
339.7922
 30
0.0
 42
0.0
  0
VERTEX
  8
Switch
 10
67.9587
 20
339.7922
 30
0.0
 42
0.0
  0
VERTEX
  8
Switch
 10
67.9587
 20
340.605
 30
0.0
 42
0.0
  0
VERTEX
  8
Switch
 10
68.93914
 20
340.605
 30
0.0
 42
0.0
  0
VERTEX
  8
Switch
 10
68.93914
 20
354.575
 30
0.0
 42
0.0
  0
VERTEX
  8
Switch
 10
67.9587
 20
354.575
 30
0.0
 42
0.0
  0
VERTEX
  8
Switch
 10
67.9587
 20
355.3878
 30
0.0
 42
0.0
  0
VERTEX
  8
Switch
 10
64.45858
 20
355.3878
 30
0.0
 42
0.0
  0
VERTEX
  8
Switch
 10
64.45858
 20
354.575
 30
0.0
 42
0.0
  0
VERTEX
  8
Switch
 10
59.4497
 20
354.575
 30
0.0
 42
0.0
  0
VERTEX
  8
Switch
 10
59.4497
 20
355.3878
 30
0.0
 42
0.0
  0
VERTEX
  8
Switch
 10
55.94958
 20
355.3878
 30
0.0
 42
0.0
  0
VERTEX
  8
Switch
 10
55.94958
 20
354.575
 30
0.0
 42
0.0
  0
VERTEX
  8
Switch
 10
54.96914
 20
354.575
 30
0.0
 42
0.0
  0
VERTEX
  8
Switch
 10
54.96914
 20
340.605
 30
0.0
 42
0.0
  0
SEQEND
  0
POLYLINE
  8
Switch
 66
     1
 10
0.0
 20
0.0
 30
0.0
 70
     9
  0
VERTEX
  8
Switch
 10
106.08664
 20
265.38544
 30
0.0
 42
0.0
  0
VERTEX
  8
Switch
 10
106.08664
 20
264.405
 30
0.0
 42
0.0
  0
VERTEX
  8
Switch
 10
120.05664
 20
264.405
 30
0.0
 42
0.0
  0
VERTEX
  8
Switch
 10
120.05664
 20
265.38544
 30
0.0
 42
0.0
  0
VERTEX
  8
Switch
 10
120.86944
 20
265.38544
 30
0.0
 42
0.0
  0
VERTEX
  8
Switch
 10
120.86944
 20
268.88556
 30
0.0
 42
0.0
  0
VERTEX
  8
Switch
 10
120.05664
 20
268.88556
 30
0.0
 42
0.0
  0
VERTEX
  8
Switch
 10
120.05664
 20
273.89444
 30
0.0
 42
0.0
  0
VERTEX
  8
Switch
 10
120.86944
 20
273.89444
 30
0.0
 42
0.0
  0
VERTEX
  8
Switch
 10
120.86944
 20
277.39456
 30
0.0
 42
0.0
  0
VERTEX
  8
Switch
 10
120.05664
 20
277.39456
 30
0.0
 42
0.0
  0
VERTEX
  8
Switch
 10
120.05664
 20
278.375
 30
0.0
 42
0.0
  0
VERTEX
  8
Switch
 10
106.08664
 20
278.375
 30
0.0
 42
0.0
  0
VERTEX
  8
Switch
 10
106.08664
 20
277.39456
 30
0.0
 42
0.0
  0
VERTEX
  8
Switch
 10
105.27384
 20
277.39456
 30
0.0
 42
0.0
  0
VERTEX
  8
Switch
 10
105.27384
 20
273.89444
 30
0.0
 42
0.0
  0
VERTEX
  8
Switch
 10
106.08664
 20
273.89444
 30
0.0
 42
0.0
  0
VERTEX
  8
Switch
 10
106.08664
 20
268.88556
 30
0.0
 42
0.0
  0
VERTEX
  8
Switch
 10
105.27384
 20
268.88556
 30
0.0
 42
0.0
  0
VERTEX
  8
Switch
 10
105.27384
 20
265.38544
 30
0.0
 42
0.0
  0
SEQEND
  0
POLYLINE
  8
Switch
 66
     1
 10
0.0
 20
0.0
 30
0.0
 70
     9
  0
VERTEX
  8
Switch
 10
87.0087
 20
302.505
 30
0.0
 42
0.0
  0
VERTEX
  8
Switch
 10
87.98914
 20
302.505
 30
0.0
 42
0.0
  0
VERTEX
  8
Switch
 10
87.98914
 20
316.475
 30
0.0
 42
0.0
  0
VERTEX
  8
Switch
 10
87.0087
 20
316.475
 30
0.0
 42
0.0
  0
VERTEX
  8
Switch
 10
87.0087
 20
317.2878
 30
0.0
 42
0.0
  0
VERTEX
  8
Switch
 10
83.50858
 20
317.2878
 30
0.0
 42
0.0
  0
VERTEX
  8
Switch
 10
83.50858
 20
316.475
 30
0.0
 42
0.0
  0
VERTEX
  8
Switch
 10
78.4997
 20
316.475
 30
0.0
 42
0.0
  0
VERTEX
  8
Switch
 10
78.4997
 20
317.2878
 30
0.0
 42
0.0
  0
VERTEX
  8
Switch
 10
74.99958
 20
317.2878
 30
0.0
 42
0.0
  0
VERTEX
  8
Switch
 10
74.99958
 20
316.475
 30
0.0
 42
0.0
  0
VERTEX
  8
Switch
 10
74.01914
 20
316.475
 30
0.0
 42
0.0
  0
VERTEX
  8
Switch
 10
74.01914
 20
302.505
 30
0.0
 42
0.0
  0
VERTEX
  8
Switch
 10
74.99958
 20
302.505
 30
0.0
 42
0.0
  0
VERTEX
  8
Switch
 10
74.99958
 20
301.6922
 30
0.0
 42
0.0
  0
VERTEX
  8
Switch
 10
78.4997
 20
301.6922
 30
0.0
 42
0.0
  0
VERTEX
  8
Switch
 10
78.4997
 20
302.505
 30
0.0
 42
0.0
  0
VERTEX
  8
Switch
 10
83.50858
 20
302.505
 30
0.0
 42
0.0
  0
VERTEX
  8
Switch
 10
83.50858
 20
301.6922
 30
0.0
 42
0.0
  0
VERTEX
  8
Switch
 10
87.0087
 20
301.6922
 30
0.0
 42
0.0
  0
SEQEND
  0
POLYLINE
  8
Switch
 66
     1
 10
0.0
 20
0.0
 30
0.0
 70
     9
  0
VERTEX
  8
Switch
 10
83.8337
 20
383.4675
 30
0.0
 42
0.0
  0
VERTEX
  8
Switch
 10
84.81414
 20
383.4675
 30
0.0
 42
0.0
  0
VERTEX
  8
Switch
 10
84.8141400000001
 20
397.4375
 30
0.0
 42
0.0
  0
VERTEX
  8
Switch
 10
83.8337000000001
 20
397.4375
 30
0.0
 42
0.0
  0
VERTEX
  8
Switch
 10
83.8337000000001
 20
398.2503
 30
0.0
 42
0.0
  0
VERTEX
  8
Switch
 10
80.3335800000001
 20
398.2503
 30
0.0
 42
0.0
  0
VERTEX
  8
Switch
 10
80.3335800000001
 20
397.4375
 30
0.0
 42
0.0
  0
VERTEX
  8
Switch
 10
75.3247000000001
 20
397.4375
 30
0.0
 42
0.0
  0
VERTEX
  8
Switch
 10
75.3247000000001
 20
398.2503
 30
0.0
 42
0.0
  0
VERTEX
  8
Switch
 10
71.8245800000001
 20
398.2503
 30
0.0
 42
0.0
  0
VERTEX
  8
Switch
 10
71.8245800000001
 20
397.4375
 30
0.0
 42
0.0
  0
VERTEX
  8
Switch
 10
70.8441400000001
 20
397.4375
 30
0.0
 42
0.0
  0
VERTEX
  8
Switch
 10
70.84414
 20
383.4675
 30
0.0
 42
0.0
  0
VERTEX
  8
Switch
 10
71.82458
 20
383.4675
 30
0.0
 42
0.0
  0
VERTEX
  8
Switch
 10
71.82458
 20
382.6547
 30
0.0
 42
0.0
  0
VERTEX
  8
Switch
 10
75.3247000000001
 20
382.6547
 30
0.0
 42
0.0
  0
VERTEX
  8
Switch
 10
75.3247000000001
 20
383.4675
 30
0.0
 42
0.0
  0
VERTEX
  8
Switch
 10
80.33358
 20
383.4675
 30
0.0
 42
0.0
  0
VERTEX
  8
Switch
 10
80.33358
 20
382.6547
 30
0.0
 42
0.0
  0
VERTEX
  8
Switch
 10
83.8337
 20
382.6547
 30
0.0
 42
0.0
  0
SEQEND
  0
POLYLINE
  8
Switch
 66
     1
 10
0.0
 20
0.0
 30
0.0
 70
     9
  0
VERTEX
  8
Switch
 10
109.92458
 20
383.4675
 30
0.0
 42
0.0
  0
VERTEX
  8
Switch
 10
109.92458
 20
382.6547
 30
0.0
 42
0.0
  0
VERTEX
  8
Switch
 10
113.4247
 20
382.6547
 30
0.0
 42
0.0
  0
VERTEX
  8
Switch
 10
113.4247
 20
383.4675
 30
0.0
 42
0.0
  0
VERTEX
  8
Switch
 10
118.43358
 20
383.4675
 30
0.0
 42
0.0
  0
VERTEX
  8
Switch
 10
118.43358
 20
382.6547
 30
0.0
 42
0.0
  0
VERTEX
  8
Switch
 10
121.9337
 20
382.6547
 30
0.0
 42
0.0
  0
VERTEX
  8
Switch
 10
121.9337
 20
383.4675
 30
0.0
 42
0.0
  0
VERTEX
  8
Switch
 10
122.91414
 20
383.4675
 30
0.0
 42
0.0
  0
VERTEX
  8
Switch
 10
122.91414
 20
397.4375
 30
0.0
 42
0.0
  0
VERTEX
  8
Switch
 10
121.9337
 20
397.4375
 30
0.0
 42
0.0
  0
VERTEX
  8
Switch
 10
121.9337
 20
398.2503
 30
0.0
 42
0.0
  0
VERTEX
  8
Switch
 10
118.43358
 20
398.2503
 30
0.0
 42
0.0
  0
VERTEX
  8
Switch
 10
118.43358
 20
397.4375
 30
0.0
 42
0.0
  0
VERTEX
  8
Switch
 10
113.4247
 20
397.4375
 30
0.0
 42
0.0
  0
VERTEX
  8
Switch
 10
113.4247
 20
398.2503
 30
0.0
 42
0.0
  0
VERTEX
  8
Switch
 10
109.92458
 20
398.2503
 30
0.0
 42
0.0
  0
VERTEX
  8
Switch
 10
109.92458
 20
397.4375
 30
0.0
 42
0.0
  0
VERTEX
  8
Switch
 10
108.94414
 20
397.4375
 30
0.0
 42
0.0
  0
VERTEX
  8
Switch
 10
108.94414
 20
383.4675
 30
0.0
 42
0.0
  0
SEQEND
  0
POLYLINE
  8
Switch
 66
     1
 10
0.0
 20
0.0
 30
0.0
 70
     9
  0
VERTEX
  8
Switch
 10
57.95872
 20
267.53936
 30
0.0
 42
0.0
  0
VERTEX
  8
Switch
 10
63.86168
 20
280.19872
 30
0.0
 42
0.0
  0
VERTEX
  8
Switch
 10
60.86956
 20
281.59572
 30
0.0
 42
0.0
  0
VERTEX
  8
Switch
 10
54.9666
 20
268.93382
 30
0.0
 42
0.0
  0
SEQEND
  0
POLYLINE
  8
Switch
 66
     1
 10
0.0
 20
0.0
 30
0.0
 70
     9
  0
VERTEX
  8
Switch
 10
39.2313
 20
291.6846
 30
0.0
 42
0.0
  0
VERTEX
  8
Switch
 10
33.3258
 20
279.02524
 30
0.0
 42
0.0
  0
VERTEX
  8
Switch
 10
36.31792
 20
277.62824
 30
0.0
 42
0.0
  0
VERTEX
  8
Switch
 10
42.22342
 20
290.29014
 30
0.0
 42
0.0
  0
SEQEND
  0
POLYLINE
  8
Switch
 66
     1
 10
0.0
 20
0.0
 30
0.0
 70
     9
  0
VERTEX
  8
Switch
 10
91.48164
 20
277.39456
 30
0.0
 42
0.0
  0
VERTEX
  8
Switch
 10
91.48164
 20
278.375
 30
0.0
 42
0.0
  0
VERTEX
  8
Switch
 10
77.51164
 20
278.375
 30
0.0
 42
0.0
  0
VERTEX
  8
Switch
 10
77.51164
 20
277.39456
 30
0.0
 42
0.0
  0
VERTEX
  8
Switch
 10
76.69884
 20
277.39456
 30
0.0
 42
0.0
  0
VERTEX
  8
Switch
 10
76.69884
 20
273.89444
 30
0.0
 42
0.0
  0
VERTEX
  8
Switch
 10
77.51164
 20
273.89444
 30
0.0
 42
0.0
  0
VERTEX
  8
Switch
 10
77.51164
 20
268.88556
 30
0.0
 42
0.0
  0
VERTEX
  8
Switch
 10
76.69884
 20
268.88556
 30
0.0
 42
0.0
  0
VERTEX
  8
Switch
 10
76.69884
 20
265.38544
 30
0.0
 42
0.0
  0
VERTEX
  8
Switch
 10
77.51164
 20
265.38544
 30
0.0
 42
0.0
  0
VERTEX
  8
Switch
 10
77.51164
 20
264.405
 30
0.0
 42
0.0
  0
VERTEX
  8
Switch
 10
91.48164
 20
264.405
 30
0.0
 42
0.0
  0
VERTEX
  8
Switch
 10
91.48164
 20
265.38544
 30
0.0
 42
0.0
  0
VERTEX
  8
Switch
 10
92.29444
 20
265.38544
 30
0.0
 42
0.0
  0
VERTEX
  8
Switch
 10
92.29444
 20
268.88556
 30
0.0
 42
0.0
  0
VERTEX
  8
Switch
 10
91.48164
 20
268.88556
 30
0.0
 42
0.0
  0
VERTEX
  8
Switch
 10
91.48164
 20
273.89444
 30
0.0
 42
0.0
  0
VERTEX
  8
Switch
 10
92.29444
 20
273.89444
 30
0.0
 42
0.0
  0
VERTEX
  8
Switch
 10
92.29444
 20
277.39456
 30
0.0
 42
0.0
  0
SEQEND
  0
POLYLINE
  8
Switch
 66
     1
 10
0.0
 20
0.0
 30
0.0
 70
     9
  0
VERTEX
  8
Switch
 10
109.92458
 20
359.655
 30
0.0
 42
0.0
  0
VERTEX
  8
Switch
 10
109.92458
 20
358.8422
 30
0.0
 42
0.0
  0
VERTEX
  8
Switch
 10
113.4247
 20
358.8422
 30
0.0
 42
0.0
  0
VERTEX
  8
Switch
 10
113.4247
 20
359.655
 30
0.0
 42
0.0
  0
VERTEX
  8
Switch
 10
118.43358
 20
359.655
 30
0.0
 42
0.0
  0
VERTEX
  8
Switch
 10
118.43358
 20
358.8422
 30
0.0
 42
0.0
  0
VERTEX
  8
Switch
 10
121.9337
 20
358.8422
 30
0.0
 42
0.0
  0
VERTEX
  8
Switch
 10
121.9337
 20
359.655
 30
0.0
 42
0.0
  0
VERTEX
  8
Switch
 10
122.91414
 20
359.655
 30
0.0
 42
0.0
  0
VERTEX
  8
Switch
 10
122.91414
 20
373.625
 30
0.0
 42
0.0
  0
VERTEX
  8
Switch
 10
121.9337
 20
373.625
 30
0.0
 42
0.0
  0
VERTEX
  8
Switch
 10
121.9337
 20
374.4378
 30
0.0
 42
0.0
  0
VERTEX
  8
Switch
 10
118.43358
 20
374.4378
 30
0.0
 42
0.0
  0
VERTEX
  8
Switch
 10
118.43358
 20
373.625
 30
0.0
 42
0.0
  0
VERTEX
  8
Switch
 10
113.4247
 20
373.625
 30
0.0
 42
0.0
  0
VERTEX
  8
Switch
 10
113.4247
 20
374.4378
 30
0.0
 42
0.0
  0
VERTEX
  8
Switch
 10
109.92458
 20
374.4378
 30
0.0
 42
0.0
  0
VERTEX
  8
Switch
 10
109.92458
 20
373.625
 30
0.0
 42
0.0
  0
VERTEX
  8
Switch
 10
108.94414
 20
373.625
 30
0.0
 42
0.0
  0
VERTEX
  8
Switch
 10
108.94414
 20
359.655
 30
0.0
 42
0.0
  0
SEQEND
  0
POLYLINE
  8
Switch
 66
     1
 10
0.0
 20
0.0
 30
0.0
 70
     9
  0
VERTEX
  8
Switch
 10
31.82212
 20
275.80198
 30
0.0
 42
0.0
  0
VERTEX
  8
Switch
 10
25.91916
 20
263.14262
 30
0.0
 42
0.0
  0
VERTEX
  8
Switch
 10
28.91128
 20
261.74562
 30
0.0
 42
0.0
  0
VERTEX
  8
Switch
 10
34.81424
 20
274.40752
 30
0.0
 42
0.0
  0
SEQEND
  0
POLYLINE
  8
Switch
 66
     1
 10
0.0
 20
0.0
 30
0.0
 70
     9
  0
VERTEX
  8
Switch
 10
50.54954
 20
251.65674
 30
0.0
 42
0.0
  0
VERTEX
  8
Switch
 10
56.45504
 20
264.3161
 30
0.0
 42
0.0
  0
VERTEX
  8
Switch
 10
53.46292
 20
265.7131
 30
0.0
 42
0.0
  0
VERTEX
  8
Switch
 10
47.55742
 20
253.0512
 30
0.0
 42
0.0
  0
SEQEND
  0
POLYLINE
  8
Switch
 66
     1
 10
0.0
 20
0.0
 30
0.0
 70
     9
  0
VERTEX
  8
Switch
 10
52.7745800000001
 20
392.675
 30
0.0
 42
0.0
  0
VERTEX
  8
Switch
 10
51.79414
 20
392.675
 30
0.0
 42
0.0
  0
VERTEX
  8
Switch
 10
51.79414
 20
378.705
 30
0.0
 42
0.0
  0
VERTEX
  8
Switch
 10
52.7745800000001
 20
378.705
 30
0.0
 42
0.0
  0
VERTEX
  8
Switch
 10
52.7745800000001
 20
377.8922
 30
0.0
 42
0.0
  0
VERTEX
  8
Switch
 10
56.2747000000001
 20
377.8922
 30
0.0
 42
0.0
  0
VERTEX
  8
Switch
 10
56.2747000000001
 20
378.705
 30
0.0
 42
0.0
  0
VERTEX
  8
Switch
 10
61.2835800000001
 20
378.705
 30
0.0
 42
0.0
  0
VERTEX
  8
Switch
 10
61.2835800000001
 20
377.8922
 30
0.0
 42
0.0
  0
VERTEX
  8
Switch
 10
64.7837000000001
 20
377.8922
 30
0.0
 42
0.0
  0
VERTEX
  8
Switch
 10
64.7837000000001
 20
378.705
 30
0.0
 42
0.0
  0
VERTEX
  8
Switch
 10
65.76414
 20
378.705
 30
0.0
 42
0.0
  0
VERTEX
  8
Switch
 10
65.7641400000001
 20
392.675
 30
0.0
 42
0.0
  0
VERTEX
  8
Switch
 10
64.7837000000001
 20
392.675
 30
0.0
 42
0.0
  0
VERTEX
  8
Switch
 10
64.7837000000001
 20
393.4878
 30
0.0
 42
0.0
  0
VERTEX
  8
Switch
 10
61.2835800000001
 20
393.4878
 30
0.0
 42
0.0
  0
VERTEX
  8
Switch
 10
61.2835800000001
 20
392.675
 30
0.0
 42
0.0
  0
VERTEX
  8
Switch
 10
56.2747000000001
 20
392.675
 30
0.0
 42
0.0
  0
VERTEX
  8
Switch
 10
56.2747000000001
 20
393.4878
 30
0.0
 42
0.0
  0
VERTEX
  8
Switch
 10
52.7745800000001
 20
393.4878
 30
0.0
 42
0.0
  0
SEQEND
  0
POLYLINE
  8
Switch
 66
     1
 10
0.0
 20
0.0
 30
0.0
 70
     9
  0
VERTEX
  8
Switch
 10
114.69724
 20
335.525
 30
0.0
 42
0.0
  0
VERTEX
  8
Switch
 10
113.7168
 20
335.525
 30
0.0
 42
0.0
  0
VERTEX
  8
Switch
 10
113.7168
 20
321.555
 30
0.0
 42
0.0
  0
VERTEX
  8
Switch
 10
114.69724
 20
321.555
 30
0.0
 42
0.0
  0
VERTEX
  8
Switch
 10
114.69724
 20
320.7422
 30
0.0
 42
0.0
  0
VERTEX
  8
Switch
 10
118.19736
 20
320.7422
 30
0.0
 42
0.0
  0
VERTEX
  8
Switch
 10
118.19736
 20
321.555
 30
0.0
 42
0.0
  0
VERTEX
  8
Switch
 10
123.20624
 20
321.555
 30
0.0
 42
0.0
  0
VERTEX
  8
Switch
 10
123.20624
 20
320.7422
 30
0.0
 42
0.0
  0
VERTEX
  8
Switch
 10
126.70636
 20
320.7422
 30
0.0
 42
0.0
  0
VERTEX
  8
Switch
 10
126.70636
 20
321.555
 30
0.0
 42
0.0
  0
VERTEX
  8
Switch
 10
127.6868
 20
321.555
 30
0.0
 42
0.0
  0
VERTEX
  8
Switch
 10
127.6868
 20
335.525
 30
0.0
 42
0.0
  0
VERTEX
  8
Switch
 10
126.70636
 20
335.525
 30
0.0
 42
0.0
  0
VERTEX
  8
Switch
 10
126.70636
 20
336.3378
 30
0.0
 42
0.0
  0
VERTEX
  8
Switch
 10
123.20624
 20
336.3378
 30
0.0
 42
0.0
  0
VERTEX
  8
Switch
 10
123.20624
 20
335.525
 30
0.0
 42
0.0
  0
VERTEX
  8
Switch
 10
118.19736
 20
335.525
 30
0.0
 42
0.0
  0
VERTEX
  8
Switch
 10
118.19736
 20
336.3378
 30
0.0
 42
0.0
  0
VERTEX
  8
Switch
 10
114.69724
 20
336.3378
 30
0.0
 42
0.0
  0
SEQEND
  0
POLYLINE
  8
Switch
 66
     1
 10
0.0
 20
0.0
 30
0.0
 70
     9
  0
VERTEX
  8
Switch
 10
64.7837
 20
359.655
 30
0.0
 42
0.0
  0
VERTEX
  8
Switch
 10
65.76414
 20
359.655
 30
0.0
 42
0.0
  0
VERTEX
  8
Switch
 10
65.76414
 20
373.625
 30
0.0
 42
0.0
  0
VERTEX
  8
Switch
 10
64.7837000000001
 20
373.625
 30
0.0
 42
0.0
  0
VERTEX
  8
Switch
 10
64.7837000000001
 20
374.4378
 30
0.0
 42
0.0
  0
VERTEX
  8
Switch
 10
61.2835800000001
 20
374.4378
 30
0.0
 42
0.0
  0
VERTEX
  8
Switch
 10
61.2835800000001
 20
373.625
 30
0.0
 42
0.0
  0
VERTEX
  8
Switch
 10
56.2747000000001
 20
373.625
 30
0.0
 42
0.0
  0
VERTEX
  8
Switch
 10
56.2747000000001
 20
374.4378
 30
0.0
 42
0.0
  0
VERTEX
  8
Switch
 10
52.7745800000001
 20
374.4378
 30
0.0
 42
0.0
  0
VERTEX
  8
Switch
 10
52.7745800000001
 20
373.625
 30
0.0
 42
0.0
  0
VERTEX
  8
Switch
 10
51.79414
 20
373.625
 30
0.0
 42
0.0
  0
VERTEX
  8
Switch
 10
51.79414
 20
359.655
 30
0.0
 42
0.0
  0
VERTEX
  8
Switch
 10
52.77458
 20
359.655
 30
0.0
 42
0.0
  0
VERTEX
  8
Switch
 10
52.77458
 20
358.8422
 30
0.0
 42
0.0
  0
VERTEX
  8
Switch
 10
56.2747
 20
358.8422
 30
0.0
 42
0.0
  0
VERTEX
  8
Switch
 10
56.2747
 20
359.655
 30
0.0
 42
0.0
  0
VERTEX
  8
Switch
 10
61.28358
 20
359.655
 30
0.0
 42
0.0
  0
VERTEX
  8
Switch
 10
61.28358
 20
358.8422
 30
0.0
 42
0.0
  0
VERTEX
  8
Switch
 10
64.7837
 20
358.8422
 30
0.0
 42
0.0
  0
SEQEND
  0
POLYLINE
  8
Switch
 66
     1
 10
0.0
 20
0.0
 30
0.0
 70
     9
  0
VERTEX
  8
Switch
 10
57.54724
 20
335.525
 30
0.0
 42
0.0
  0
VERTEX
  8
Switch
 10
56.5668
 20
335.525
 30
0.0
 42
0.0
  0
VERTEX
  8
Switch
 10
56.5668
 20
321.555
 30
0.0
 42
0.0
  0
VERTEX
  8
Switch
 10
57.54724
 20
321.555
 30
0.0
 42
0.0
  0
VERTEX
  8
Switch
 10
57.54724
 20
320.7422
 30
0.0
 42
0.0
  0
VERTEX
  8
Switch
 10
61.04736
 20
320.7422
 30
0.0
 42
0.0
  0
VERTEX
  8
Switch
 10
61.04736
 20
321.555
 30
0.0
 42
0.0
  0
VERTEX
  8
Switch
 10
66.05624
 20
321.555
 30
0.0
 42
0.0
  0
VERTEX
  8
Switch
 10
66.05624
 20
320.7422
 30
0.0
 42
0.0
  0
VERTEX
  8
Switch
 10
69.55636
 20
320.7422
 30
0.0
 42
0.0
  0
VERTEX
  8
Switch
 10
69.55636
 20
321.555
 30
0.0
 42
0.0
  0
VERTEX
  8
Switch
 10
70.5368
 20
321.555
 30
0.0
 42
0.0
  0
VERTEX
  8
Switch
 10
70.5368
 20
335.525
 30
0.0
 42
0.0
  0
VERTEX
  8
Switch
 10
69.55636
 20
335.525
 30
0.0
 42
0.0
  0
VERTEX
  8
Switch
 10
69.55636
 20
336.3378
 30
0.0
 42
0.0
  0
VERTEX
  8
Switch
 10
66.05624
 20
336.3378
 30
0.0
 42
0.0
  0
VERTEX
  8
Switch
 10
66.05624
 20
335.525
 30
0.0
 42
0.0
  0
VERTEX
  8
Switch
 10
61.04736
 20
335.525
 30
0.0
 42
0.0
  0
VERTEX
  8
Switch
 10
61.04736
 20
336.3378
 30
0.0
 42
0.0
  0
VERTEX
  8
Switch
 10
57.54724
 20
336.3378
 30
0.0
 42
0.0
  0
SEQEND
  0
POLYLINE
  8
Switch
 66
     1
 10
0.0
 20
0.0
 30
0.0
 70
     9
  0
VERTEX
  8
Switch
 10
111.82958
 20
283.455
 30
0.0
 42
0.0
  0
VERTEX
  8
Switch
 10
111.82958
 20
282.6422
 30
0.0
 42
0.0
  0
VERTEX
  8
Switch
 10
115.3297
 20
282.6422
 30
0.0
 42
0.0
  0
VERTEX
  8
Switch
 10
115.3297
 20
283.455
 30
0.0
 42
0.0
  0
VERTEX
  8
Switch
 10
120.33858
 20
283.455
 30
0.0
 42
0.0
  0
VERTEX
  8
Switch
 10
120.33858
 20
282.6422
 30
0.0
 42
0.0
  0
VERTEX
  8
Switch
 10
123.8387
 20
282.6422
 30
0.0
 42
0.0
  0
VERTEX
  8
Switch
 10
123.8387
 20
283.455
 30
0.0
 42
0.0
  0
VERTEX
  8
Switch
 10
124.81914
 20
283.455
 30
0.0
 42
0.0
  0
VERTEX
  8
Switch
 10
124.81914
 20
297.425
 30
0.0
 42
0.0
  0
VERTEX
  8
Switch
 10
123.8387
 20
297.425
 30
0.0
 42
0.0
  0
VERTEX
  8
Switch
 10
123.8387
 20
298.2378
 30
0.0
 42
0.0
  0
VERTEX
  8
Switch
 10
120.33858
 20
298.2378
 30
0.0
 42
0.0
  0
VERTEX
  8
Switch
 10
120.33858
 20
297.425
 30
0.0
 42
0.0
  0
VERTEX
  8
Switch
 10
115.3297
 20
297.425
 30
0.0
 42
0.0
  0
VERTEX
  8
Switch
 10
115.3297
 20
298.2378
 30
0.0
 42
0.0
  0
VERTEX
  8
Switch
 10
111.82958
 20
298.2378
 30
0.0
 42
0.0
  0
VERTEX
  8
Switch
 10
111.82958
 20
297.425
 30
0.0
 42
0.0
  0
VERTEX
  8
Switch
 10
110.84914
 20
297.425
 30
0.0
 42
0.0
  0
VERTEX
  8
Switch
 10
110.84914
 20
283.455
 30
0.0
 42
0.0
  0
SEQEND
  0
POLYLINE
  8
Switch
 66
     1
 10
0.0
 20
0.0
 30
0.0
 70
     9
  0
VERTEX
  8
Switch
 10
125.1087
 20
302.505
 30
0.0
 42
0.0
  0
VERTEX
  8
Switch
 10
126.08914
 20
302.505
 30
0.0
 42
0.0
  0
VERTEX
  8
Switch
 10
126.08914
 20
316.475
 30
0.0
 42
0.0
  0
VERTEX
  8
Switch
 10
125.1087
 20
316.475
 30
0.0
 42
0.0
  0
VERTEX
  8
Switch
 10
125.1087
 20
317.2878
 30
0.0
 42
0.0
  0
VERTEX
  8
Switch
 10
121.60858
 20
317.2878
 30
0.0
 42
0.0
  0
VERTEX
  8
Switch
 10
121.60858
 20
316.475
 30
0.0
 42
0.0
  0
VERTEX
  8
Switch
 10
116.5997
 20
316.475
 30
0.0
 42
0.0
  0
VERTEX
  8
Switch
 10
116.5997
 20
317.2878
 30
0.0
 42
0.0
  0
VERTEX
  8
Switch
 10
113.09958
 20
317.2878
 30
0.0
 42
0.0
  0
VERTEX
  8
Switch
 10
113.09958
 20
316.475
 30
0.0
 42
0.0
  0
VERTEX
  8
Switch
 10
112.11914
 20
316.475
 30
0.0
 42
0.0
  0
VERTEX
  8
Switch
 10
112.11914
 20
302.505
 30
0.0
 42
0.0
  0
VERTEX
  8
Switch
 10
113.09958
 20
302.505
 30
0.0
 42
0.0
  0
VERTEX
  8
Switch
 10
113.09958
 20
301.6922
 30
0.0
 42
0.0
  0
VERTEX
  8
Switch
 10
116.5997
 20
301.6922
 30
0.0
 42
0.0
  0
VERTEX
  8
Switch
 10
116.5997
 20
302.505
 30
0.0
 42
0.0
  0
VERTEX
  8
Switch
 10
121.60858
 20
302.505
 30
0.0
 42
0.0
  0
VERTEX
  8
Switch
 10
121.60858
 20
301.6922
 30
0.0
 42
0.0
  0
VERTEX
  8
Switch
 10
125.1087
 20
301.6922
 30
0.0
 42
0.0
  0
SEQEND
  0
POLYLINE
  8
Switch
 66
     1
 10
0.0
 20
0.0
 30
0.0
 70
     9
  0
VERTEX
  8
Switch
 10
73.72958
 20
283.455
 30
0.0
 42
0.0
  0
VERTEX
  8
Switch
 10
73.72958
 20
282.6422
 30
0.0
 42
0.0
  0
VERTEX
  8
Switch
 10
77.2297
 20
282.6422
 30
0.0
 42
0.0
  0
VERTEX
  8
Switch
 10
77.2297
 20
283.455
 30
0.0
 42
0.0
  0
VERTEX
  8
Switch
 10
82.23858
 20
283.455
 30
0.0
 42
0.0
  0
VERTEX
  8
Switch
 10
82.23858
 20
282.6422
 30
0.0
 42
0.0
  0
VERTEX
  8
Switch
 10
85.7387
 20
282.6422
 30
0.0
 42
0.0
  0
VERTEX
  8
Switch
 10
85.7387
 20
283.455
 30
0.0
 42
0.0
  0
VERTEX
  8
Switch
 10
86.71914
 20
283.455
 30
0.0
 42
0.0
  0
VERTEX
  8
Switch
 10
86.71914
 20
297.425
 30
0.0
 42
0.0
  0
VERTEX
  8
Switch
 10
85.7387
 20
297.425
 30
0.0
 42
0.0
  0
VERTEX
  8
Switch
 10
85.7387
 20
298.2378
 30
0.0
 42
0.0
  0
VERTEX
  8
Switch
 10
82.23858
 20
298.2378
 30
0.0
 42
0.0
  0
VERTEX
  8
Switch
 10
82.23858
 20
297.425
 30
0.0
 42
0.0
  0
VERTEX
  8
Switch
 10
77.2297
 20
297.425
 30
0.0
 42
0.0
  0
VERTEX
  8
Switch
 10
77.2297
 20
298.2378
 30
0.0
 42
0.0
  0
VERTEX
  8
Switch
 10
73.72958
 20
298.2378
 30
0.0
 42
0.0
  0
VERTEX
  8
Switch
 10
73.72958
 20
297.425
 30
0.0
 42
0.0
  0
VERTEX
  8
Switch
 10
72.74914
 20
297.425
 30
0.0
 42
0.0
  0
VERTEX
  8
Switch
 10
72.74914
 20
283.455
 30
0.0
 42
0.0
  0
SEQEND
  0
POLYLINE
  8
Switch
 66
     1
 10
0.0
 20
0.0
 30
0.0
 70
     9
  0
VERTEX
  8
Switch
 10
33.05402
 20
237.95598
 30
0.0
 42
0.0
  0
VERTEX
  8
Switch
 10
32.71112
 20
237.21938
 30
0.0
 42
0.0
  0
VERTEX
  8
Switch
 10
35.88358
 20
235.73856
 30
0.0
 42
0.0
  0
VERTEX
  8
Switch
 10
36.22648
 20
236.47516
 30
0.0
 42
0.0
  0
VERTEX
  8
Switch
 10
40.76546
 20
234.35934
 30
0.0
 42
0.0
  0
VERTEX
  8
Switch
 10
40.42256
 20
233.62274
 30
0.0
 42
0.0
  0
VERTEX
  8
Switch
 10
43.59502
 20
232.14446
 30
0.0
 42
0.0
  0
VERTEX
  8
Switch
 10
43.93792
 20
232.88106
 30
0.0
 42
0.0
  0
VERTEX
  8
Switch
 10
44.82692
 20
232.4645
 30
0.0
 42
0.0
  0
VERTEX
  8
Switch
 10
50.73242
 20
245.1264
 30
0.0
 42
0.0
  0
VERTEX
  8
Switch
 10
49.84342
 20
245.54042
 30
0.0
 42
0.0
  0
VERTEX
  8
Switch
 10
50.18632
 20
246.27702
 30
0.0
 42
0.0
  0
VERTEX
  8
Switch
 10
47.01386
 20
247.75784
 30
0.0
 42
0.0
  0
VERTEX
  8
Switch
 10
46.67096
 20
247.02124
 30
0.0
 42
0.0
  0
VERTEX
  8
Switch
 10
42.13198
 20
249.13706
 30
0.0
 42
0.0
  0
VERTEX
  8
Switch
 10
42.47488
 20
249.87366
 30
0.0
 42
0.0
  0
VERTEX
  8
Switch
 10
39.30242
 20
251.35194
 30
0.0
 42
0.0
  0
VERTEX
  8
Switch
 10
38.95952
 20
250.61534
 30
0.0
 42
0.0
  0
VERTEX
  8
Switch
 10
38.07052
 20
251.0319
 30
0.0
 42
0.0
  0
VERTEX
  8
Switch
 10
32.16502
 20
238.37
 30
0.0
 42
0.0
  0
SEQEND
  0
POLYLINE
  8
Switch
 66
     1
 10
0.0
 20
0.0
 30
0.0
 70
     9
  0
VERTEX
  8
Switch
 10
55.94958
 20
302.505
 30
0.0
 42
0.0
  0
VERTEX
  8
Switch
 10
55.94958
 20
301.6922
 30
0.0
 42
0.0
  0
VERTEX
  8
Switch
 10
59.4497
 20
301.6922
 30
0.0
 42
0.0
  0
VERTEX
  8
Switch
 10
59.4497
 20
302.505
 30
0.0
 42
0.0
  0
VERTEX
  8
Switch
 10
64.45858
 20
302.505
 30
0.0
 42
0.0
  0
VERTEX
  8
Switch
 10
64.45858
 20
301.6922
 30
0.0
 42
0.0
  0
VERTEX
  8
Switch
 10
67.9587
 20
301.6922
 30
0.0
 42
0.0
  0
VERTEX
  8
Switch
 10
67.9587
 20
302.505
 30
0.0
 42
0.0
  0
VERTEX
  8
Switch
 10
68.93914
 20
302.505
 30
0.0
 42
0.0
  0
VERTEX
  8
Switch
 10
68.93914
 20
316.475
 30
0.0
 42
0.0
  0
VERTEX
  8
Switch
 10
67.9587
 20
316.475
 30
0.0
 42
0.0
  0
VERTEX
  8
Switch
 10
67.9587
 20
317.2878
 30
0.0
 42
0.0
  0
VERTEX
  8
Switch
 10
64.45858
 20
317.2878
 30
0.0
 42
0.0
  0
VERTEX
  8
Switch
 10
64.45858
 20
316.475
 30
0.0
 42
0.0
  0
VERTEX
  8
Switch
 10
59.4497
 20
316.475
 30
0.0
 42
0.0
  0
VERTEX
  8
Switch
 10
59.4497
 20
317.2878
 30
0.0
 42
0.0
  0
VERTEX
  8
Switch
 10
55.94958
 20
317.2878
 30
0.0
 42
0.0
  0
VERTEX
  8
Switch
 10
55.94958
 20
316.475
 30
0.0
 42
0.0
  0
VERTEX
  8
Switch
 10
54.96914
 20
316.475
 30
0.0
 42
0.0
  0
VERTEX
  8
Switch
 10
54.96914
 20
302.505
 30
0.0
 42
0.0
  0
SEQEND
  0
POLYLINE
  8
Switch
 66
     1
 10
0.0
 20
0.0
 30
0.0
 70
     9
  0
VERTEX
  8
Switch
 10
102.8837
 20
359.655
 30
0.0
 42
0.0
  0
VERTEX
  8
Switch
 10
103.86414
 20
359.655
 30
0.0
 42
0.0
  0
VERTEX
  8
Switch
 10
103.86414
 20
373.625
 30
0.0
 42
0.0
  0
VERTEX
  8
Switch
 10
102.8837
 20
373.625
 30
0.0
 42
0.0
  0
VERTEX
  8
Switch
 10
102.8837
 20
374.4378
 30
0.0
 42
0.0
  0
VERTEX
  8
Switch
 10
99.38358
 20
374.4378
 30
0.0
 42
0.0
  0
VERTEX
  8
Switch
 10
99.38358
 20
373.625
 30
0.0
 42
0.0
  0
VERTEX
  8
Switch
 10
94.3747
 20
373.625
 30
0.0
 42
0.0
  0
VERTEX
  8
Switch
 10
94.3747
 20
374.4378
 30
0.0
 42
0.0
  0
VERTEX
  8
Switch
 10
90.87458
 20
374.4378
 30
0.0
 42
0.0
  0
VERTEX
  8
Switch
 10
90.87458
 20
373.625
 30
0.0
 42
0.0
  0
VERTEX
  8
Switch
 10
89.89414
 20
373.625
 30
0.0
 42
0.0
  0
VERTEX
  8
Switch
 10
89.89414
 20
359.655
 30
0.0
 42
0.0
  0
VERTEX
  8
Switch
 10
90.87458
 20
359.655
 30
0.0
 42
0.0
  0
VERTEX
  8
Switch
 10
90.87458
 20
358.8422
 30
0.0
 42
0.0
  0
VERTEX
  8
Switch
 10
94.3747
 20
358.8422
 30
0.0
 42
0.0
  0
VERTEX
  8
Switch
 10
94.3747
 20
359.655
 30
0.0
 42
0.0
  0
VERTEX
  8
Switch
 10
99.38358
 20
359.655
 30
0.0
 42
0.0
  0
VERTEX
  8
Switch
 10
99.38358
 20
358.8422
 30
0.0
 42
0.0
  0
VERTEX
  8
Switch
 10
102.8837
 20
358.8422
 30
0.0
 42
0.0
  0
SEQEND
  0
POLYLINE
  8
Switch
 66
     1
 10
0.0
 20
0.0
 30
0.0
 70
     9
  0
VERTEX
  8
Switch
 10
52.70854
 20
271.90816
 30
0.0
 42
0.0
  0
VERTEX
  8
Switch
 10
53.44514
 20
271.56526
 30
0.0
 42
0.0
  0
VERTEX
  8
Switch
 10
54.92596
 20
274.73772
 30
0.0
 42
0.0
  0
VERTEX
  8
Switch
 10
54.18936
 20
275.08062
 30
0.0
 42
0.0
  0
VERTEX
  8
Switch
 10
56.30518
 20
279.6196
 30
0.0
 42
0.0
  0
VERTEX
  8
Switch
 10
57.04178
 20
279.2767
 30
0.0
 42
0.0
  0
VERTEX
  8
Switch
 10
58.52006
 20
282.44916
 30
0.0
 42
0.0
  0
VERTEX
  8
Switch
 10
57.78346
 20
282.79206
 30
0.0
 42
0.0
  0
VERTEX
  8
Switch
 10
58.20002
 20
283.68106
 30
0.0
 42
0.0
  0
VERTEX
  8
Switch
 10
45.53812
 20
289.58656
 30
0.0
 42
0.0
  0
VERTEX
  8
Switch
 10
45.1241
 20
288.69756
 30
0.0
 42
0.0
  0
VERTEX
  8
Switch
 10
44.3875
 20
289.04046
 30
0.0
 42
0.0
  0
VERTEX
  8
Switch
 10
42.90668
 20
285.868
 30
0.0
 42
0.0
  0
VERTEX
  8
Switch
 10
43.64328
 20
285.5251
 30
0.0
 42
0.0
  0
VERTEX
  8
Switch
 10
41.52746
 20
280.98612
 30
0.0
 42
0.0
  0
VERTEX
  8
Switch
 10
40.79086
 20
281.32902
 30
0.0
 42
0.0
  0
VERTEX
  8
Switch
 10
39.31258
 20
278.15656
 30
0.0
 42
0.0
  0
VERTEX
  8
Switch
 10
40.04918
 20
277.81366
 30
0.0
 42
0.0
  0
VERTEX
  8
Switch
 10
39.63262
 20
276.92466
 30
0.0
 42
0.0
  0
VERTEX
  8
Switch
 10
52.29452
 20
271.01916
 30
0.0
 42
0.0
  0
SEQEND
  0
POLYLINE
  8
Switch
 66
     1
 10
0.0
 20
0.0
 30
0.0
 70
     9
  0
VERTEX
  8
Switch
 10
15.7871
 20
246.00778
 30
0.0
 42
0.0
  0
VERTEX
  8
Switch
 10
15.4442
 20
245.27118
 30
0.0
 42
0.0
  0
VERTEX
  8
Switch
 10
18.61666
 20
243.79036
 30
0.0
 42
0.0
  0
VERTEX
  8
Switch
 10
18.95956
 20
244.52696
 30
0.0
 42
0.0
  0
VERTEX
  8
Switch
 10
23.49854
 20
242.41114
 30
0.0
 42
0.0
  0
VERTEX
  8
Switch
 10
23.15564
 20
241.67454
 30
0.0
 42
0.0
  0
VERTEX
  8
Switch
 10
26.3281
 20
240.19626
 30
0.0
 42
0.0
  0
VERTEX
  8
Switch
 10
26.671
 20
240.93286
 30
0.0
 42
0.0
  0
VERTEX
  8
Switch
 10
27.56
 20
240.5163
 30
0.0
 42
0.0
  0
VERTEX
  8
Switch
 10
33.4655
 20
253.1782
 30
0.0
 42
0.0
  0
VERTEX
  8
Switch
 10
32.5765
 20
253.59222
 30
0.0
 42
0.0
  0
VERTEX
  8
Switch
 10
32.9194
 20
254.32882
 30
0.0
 42
0.0
  0
VERTEX
  8
Switch
 10
29.74694
 20
255.80964
 30
0.0
 42
0.0
  0
VERTEX
  8
Switch
 10
29.40404
 20
255.07304
 30
0.0
 42
0.0
  0
VERTEX
  8
Switch
 10
24.86506
 20
257.18886
 30
0.0
 42
0.0
  0
VERTEX
  8
Switch
 10
25.20796
 20
257.92546
 30
0.0
 42
0.0
  0
VERTEX
  8
Switch
 10
22.0355
 20
259.40374
 30
0.0
 42
0.0
  0
VERTEX
  8
Switch
 10
21.6926
 20
258.66714
 30
0.0
 42
0.0
  0
VERTEX
  8
Switch
 10
20.8036
 20
259.0837
 30
0.0
 42
0.0
  0
VERTEX
  8
Switch
 10
14.8981
 20
246.4218
 30
0.0
 42
0.0
  0
SEQEND
  0
POLYLINE
  8
Switch
 66
     1
 10
0.0
 20
0.0
 30
0.0
 70
     9
  0
VERTEX
  8
Switch
 10
106.0587
 20
340.605
 30
0.0
 42
0.0
  0
VERTEX
  8
Switch
 10
107.03914
 20
340.605
 30
0.0
 42
0.0
  0
VERTEX
  8
Switch
 10
107.03914
 20
354.575
 30
0.0
 42
0.0
  0
VERTEX
  8
Switch
 10
106.0587
 20
354.575
 30
0.0
 42
0.0
  0
VERTEX
  8
Switch
 10
106.0587
 20
355.3878
 30
0.0
 42
0.0
  0
VERTEX
  8
Switch
 10
102.55858
 20
355.3878
 30
0.0
 42
0.0
  0
VERTEX
  8
Switch
 10
102.55858
 20
354.575
 30
0.0
 42
0.0
  0
VERTEX
  8
Switch
 10
97.5497
 20
354.575
 30
0.0
 42
0.0
  0
VERTEX
  8
Switch
 10
97.5497
 20
355.3878
 30
0.0
 42
0.0
  0
VERTEX
  8
Switch
 10
94.04958
 20
355.3878
 30
0.0
 42
0.0
  0
VERTEX
  8
Switch
 10
94.04958
 20
354.575
 30
0.0
 42
0.0
  0
VERTEX
  8
Switch
 10
93.06914
 20
354.575
 30
0.0
 42
0.0
  0
VERTEX
  8
Switch
 10
93.06914
 20
340.605
 30
0.0
 42
0.0
  0
VERTEX
  8
Switch
 10
94.04958
 20
340.605
 30
0.0
 42
0.0
  0
VERTEX
  8
Switch
 10
94.04958
 20
339.7922
 30
0.0
 42
0.0
  0
VERTEX
  8
Switch
 10
97.5497
 20
339.7922
 30
0.0
 42
0.0
  0
VERTEX
  8
Switch
 10
97.5497
 20
340.605
 30
0.0
 42
0.0
  0
VERTEX
  8
Switch
 10
102.55858
 20
340.605
 30
0.0
 42
0.0
  0
VERTEX
  8
Switch
 10
102.55858
 20
339.7922
 30
0.0
 42
0.0
  0
VERTEX
  8
Switch
 10
106.0587
 20
339.7922
 30
0.0
 42
0.0
  0
SEQEND
  0
POLYLINE
  8
Switch
 66
     1
 10
0.0
 20
0.0
 30
0.0
 70
     9
  0
VERTEX
  8
Switch
 10
67.1078
 20
237.49116
 30
0.0
 42
0.0
  0
VERTEX
  8
Switch
 10
67.4507
 20
238.22776
 30
0.0
 42
0.0
  0
VERTEX
  8
Switch
 10
64.27824
 20
239.70858
 30
0.0
 42
0.0
  0
VERTEX
  8
Switch
 10
63.93534
 20
238.97198
 30
0.0
 42
0.0
  0
VERTEX
  8
Switch
 10
59.39636
 20
241.0878
 30
0.0
 42
0.0
  0
VERTEX
  8
Switch
 10
59.73926
 20
241.8244
 30
0.0
 42
0.0
  0
VERTEX
  8
Switch
 10
56.5668
 20
243.30268
 30
0.0
 42
0.0
  0
VERTEX
  8
Switch
 10
56.2239
 20
242.56608
 30
0.0
 42
0.0
  0
VERTEX
  8
Switch
 10
55.3349
 20
242.98264
 30
0.0
 42
0.0
  0
VERTEX
  8
Switch
 10
49.4294
 20
230.32074
 30
0.0
 42
0.0
  0
VERTEX
  8
Switch
 10
50.3184
 20
229.90672
 30
0.0
 42
0.0
  0
VERTEX
  8
Switch
 10
49.9755
 20
229.17012
 30
0.0
 42
0.0
  0
VERTEX
  8
Switch
 10
53.14796
 20
227.6893
 30
0.0
 42
0.0
  0
VERTEX
  8
Switch
 10
53.49086
 20
228.4259
 30
0.0
 42
0.0
  0
VERTEX
  8
Switch
 10
58.02984
 20
226.31008
 30
0.0
 42
0.0
  0
VERTEX
  8
Switch
 10
57.68694
 20
225.57348
 30
0.0
 42
0.0
  0
VERTEX
  8
Switch
 10
60.8594
 20
224.0952
 30
0.0
 42
0.0
  0
VERTEX
  8
Switch
 10
61.2023
 20
224.8318
 30
0.0
 42
0.0
  0
VERTEX
  8
Switch
 10
62.0913
 20
224.41524
 30
0.0
 42
0.0
  0
VERTEX
  8
Switch
 10
67.9968
 20
237.07714
 30
0.0
 42
0.0
  0
SEQEND
  0
POLYLINE
  8
Switch
 66
     1
 10
0.0
 20
0.0
 30
0.0
 70
     9
  0
VERTEX
  8
Switch
 10
107.65636
 20
335.525
 30
0.0
 42
0.0
  0
VERTEX
  8
Switch
 10
107.65636
 20
336.3378
 30
0.0
 42
0.0
  0
VERTEX
  8
Switch
 10
104.15624
 20
336.3378
 30
0.0
 42
0.0
  0
VERTEX
  8
Switch
 10
104.15624
 20
335.525
 30
0.0
 42
0.0
  0
VERTEX
  8
Switch
 10
99.14736
 20
335.525
 30
0.0
 42
0.0
  0
VERTEX
  8
Switch
 10
99.14736
 20
336.3378
 30
0.0
 42
0.0
  0
VERTEX
  8
Switch
 10
95.64724
 20
336.3378
 30
0.0
 42
0.0
  0
VERTEX
  8
Switch
 10
95.64724
 20
335.525
 30
0.0
 42
0.0
  0
VERTEX
  8
Switch
 10
94.6668
 20
335.525
 30
0.0
 42
0.0
  0
VERTEX
  8
Switch
 10
94.6668
 20
321.555
 30
0.0
 42
0.0
  0
VERTEX
  8
Switch
 10
95.64724
 20
321.555
 30
0.0
 42
0.0
  0
VERTEX
  8
Switch
 10
95.64724
 20
320.7422
 30
0.0
 42
0.0
  0
VERTEX
  8
Switch
 10
99.14736
 20
320.7422
 30
0.0
 42
0.0
  0
VERTEX
  8
Switch
 10
99.14736
 20
321.555
 30
0.0
 42
0.0
  0
VERTEX
  8
Switch
 10
104.15624
 20
321.555
 30
0.0
 42
0.0
  0
VERTEX
  8
Switch
 10
104.15624
 20
320.7422
 30
0.0
 42
0.0
  0
VERTEX
  8
Switch
 10
107.65636
 20
320.7422
 30
0.0
 42
0.0
  0
VERTEX
  8
Switch
 10
107.65636
 20
321.555
 30
0.0
 42
0.0
  0
VERTEX
  8
Switch
 10
108.6368
 20
321.555
 30
0.0
 42
0.0
  0
VERTEX
  8
Switch
 10
108.6368
 20
335.525
 30
0.0
 42
0.0
  0
SEQEND
  0
POLYLINE
  8
Switch
 66
     1
 10
0.0
 20
0.0
 30
0.0
 70
     9
  0
VERTEX
  8
Switch
 10
106.0587
 20
302.505
 30
0.0
 42
0.0
  0
VERTEX
  8
Switch
 10
107.03914
 20
302.505
 30
0.0
 42
0.0
  0
VERTEX
  8
Switch
 10
107.03914
 20
316.475
 30
0.0
 42
0.0
  0
VERTEX
  8
Switch
 10
106.0587
 20
316.475
 30
0.0
 42
0.0
  0
VERTEX
  8
Switch
 10
106.0587
 20
317.2878
 30
0.0
 42
0.0
  0
VERTEX
  8
Switch
 10
102.55858
 20
317.2878
 30
0.0
 42
0.0
  0
VERTEX
  8
Switch
 10
102.55858
 20
316.475
 30
0.0
 42
0.0
  0
VERTEX
  8
Switch
 10
97.5497
 20
316.475
 30
0.0
 42
0.0
  0
VERTEX
  8
Switch
 10
97.5497
 20
317.2878
 30
0.0
 42
0.0
  0
VERTEX
  8
Switch
 10
94.04958
 20
317.2878
 30
0.0
 42
0.0
  0
VERTEX
  8
Switch
 10
94.04958
 20
316.475
 30
0.0
 42
0.0
  0
VERTEX
  8
Switch
 10
93.06914
 20
316.475
 30
0.0
 42
0.0
  0
VERTEX
  8
Switch
 10
93.06914
 20
302.505
 30
0.0
 42
0.0
  0
VERTEX
  8
Switch
 10
94.04958
 20
302.505
 30
0.0
 42
0.0
  0
VERTEX
  8
Switch
 10
94.04958
 20
301.6922
 30
0.0
 42
0.0
  0
VERTEX
  8
Switch
 10
97.5497
 20
301.6922
 30
0.0
 42
0.0
  0
VERTEX
  8
Switch
 10
97.5497
 20
302.505
 30
0.0
 42
0.0
  0
VERTEX
  8
Switch
 10
102.55858
 20
302.505
 30
0.0
 42
0.0
  0
VERTEX
  8
Switch
 10
102.55858
 20
301.6922
 30
0.0
 42
0.0
  0
VERTEX
  8
Switch
 10
106.0587
 20
301.6922
 30
0.0
 42
0.0
  0
SEQEND
  0
POLYLINE
  8
Switch
 66
     1
 10
0.0
 20
0.0
 30
0.0
 70
     9
  0
VERTEX
  8
Switch
 10
125.1087
 20
340.605
 30
0.0
 42
0.0
  0
VERTEX
  8
Switch
 10
126.08914
 20
340.605
 30
0.0
 42
0.0
  0
VERTEX
  8
Switch
 10
126.08914
 20
354.575
 30
0.0
 42
0.0
  0
VERTEX
  8
Switch
 10
125.1087
 20
354.575
 30
0.0
 42
0.0
  0
VERTEX
  8
Switch
 10
125.1087
 20
355.3878
 30
0.0
 42
0.0
  0
VERTEX
  8
Switch
 10
121.60858
 20
355.3878
 30
0.0
 42
0.0
  0
VERTEX
  8
Switch
 10
121.60858
 20
354.575
 30
0.0
 42
0.0
  0
VERTEX
  8
Switch
 10
116.5997
 20
354.575
 30
0.0
 42
0.0
  0
VERTEX
  8
Switch
 10
116.5997
 20
355.3878
 30
0.0
 42
0.0
  0
VERTEX
  8
Switch
 10
113.09958
 20
355.3878
 30
0.0
 42
0.0
  0
VERTEX
  8
Switch
 10
113.09958
 20
354.575
 30
0.0
 42
0.0
  0
VERTEX
  8
Switch
 10
112.11914
 20
354.575
 30
0.0
 42
0.0
  0
VERTEX
  8
Switch
 10
112.11914
 20
340.605
 30
0.0
 42
0.0
  0
VERTEX
  8
Switch
 10
113.09958
 20
340.605
 30
0.0
 42
0.0
  0
VERTEX
  8
Switch
 10
113.09958
 20
339.7922
 30
0.0
 42
0.0
  0
VERTEX
  8
Switch
 10
116.5997
 20
339.7922
 30
0.0
 42
0.0
  0
VERTEX
  8
Switch
 10
116.5997
 20
340.605
 30
0.0
 42
0.0
  0
VERTEX
  8
Switch
 10
121.60858
 20
340.605
 30
0.0
 42
0.0
  0
VERTEX
  8
Switch
 10
121.60858
 20
339.7922
 30
0.0
 42
0.0
  0
VERTEX
  8
Switch
 10
125.1087
 20
339.7922
 30
0.0
 42
0.0
  0
SEQEND
  0
POLYLINE
  8
Switch
 66
     1
 10
0.0
 20
0.0
 30
0.0
 70
     9
  0
VERTEX
  8
Switch
 10
128.97204
 20
359.655
 30
0.0
 42
0.0
  0
VERTEX
  8
Switch
 10
128.97204
 20
358.8422
 30
0.0
 42
0.0
  0
VERTEX
  8
Switch
 10
132.47216
 20
358.8422
 30
0.0
 42
0.0
  0
VERTEX
  8
Switch
 10
132.47216
 20
359.655
 30
0.0
 42
0.0
  0
VERTEX
  8
Switch
 10
137.48104
 20
359.655
 30
0.0
 42
0.0
  0
VERTEX
  8
Switch
 10
137.48104
 20
358.8422
 30
0.0
 42
0.0
  0
VERTEX
  8
Switch
 10
140.98116
 20
358.8422
 30
0.0
 42
0.0
  0
VERTEX
  8
Switch
 10
140.98116
 20
359.655
 30
0.0
 42
0.0
  0
VERTEX
  8
Switch
 10
141.9616
 20
359.655
 30
0.0
 42
0.0
  0
VERTEX
  8
Switch
 10
141.9616
 20
373.625
 30
0.0
 42
0.0
  0
VERTEX
  8
Switch
 10
140.98116
 20
373.625
 30
0.0
 42
0.0
  0
VERTEX
  8
Switch
 10
140.98116
 20
374.4378
 30
0.0
 42
0.0
  0
VERTEX
  8
Switch
 10
137.48104
 20
374.4378
 30
0.0
 42
0.0
  0
VERTEX
  8
Switch
 10
137.48104
 20
373.625
 30
0.0
 42
0.0
  0
VERTEX
  8
Switch
 10
132.47216
 20
373.625
 30
0.0
 42
0.0
  0
VERTEX
  8
Switch
 10
132.47216
 20
374.4378
 30
0.0
 42
0.0
  0
VERTEX
  8
Switch
 10
128.97204
 20
374.4378
 30
0.0
 42
0.0
  0
VERTEX
  8
Switch
 10
128.97204
 20
373.625
 30
0.0
 42
0.0
  0
VERTEX
  8
Switch
 10
127.9916
 20
373.625
 30
0.0
 42
0.0
  0
VERTEX
  8
Switch
 10
127.9916
 20
359.655
 30
0.0
 42
0.0
  0
SEQEND
  0
POLYLINE
  8
Switch
 66
     1
 10
0.0
 20
0.0
 30
0.0
 70
     9
  0
VERTEX
  8
Switch
 10
58.36766
 20
247.1711
 30
0.0
 42
0.0
  0
VERTEX
  8
Switch
 10
58.02476
 20
246.4345
 30
0.0
 42
0.0
  0
VERTEX
  8
Switch
 10
61.19722
 20
244.95368
 30
0.0
 42
0.0
  0
VERTEX
  8
Switch
 10
61.54012
 20
245.69028
 30
0.0
 42
0.0
  0
VERTEX
  8
Switch
 10
66.0791
 20
243.57446
 30
0.0
 42
0.0
  0
VERTEX
  8
Switch
 10
65.7362
 20
242.83786
 30
0.0
 42
0.0
  0
VERTEX
  8
Switch
 10
68.90866
 20
241.35958
 30
0.0
 42
0.0
  0
VERTEX
  8
Switch
 10
69.25156
 20
242.09618
 30
0.0
 42
0.0
  0
VERTEX
  8
Switch
 10
70.14056
 20
241.67962
 30
0.0
 42
0.0
  0
VERTEX
  8
Switch
 10
76.04606
 20
254.34152
 30
0.0
 42
0.0
  0
VERTEX
  8
Switch
 10
75.15706
 20
254.75554
 30
0.0
 42
0.0
  0
VERTEX
  8
Switch
 10
75.49996
 20
255.49214
 30
0.0
 42
0.0
  0
VERTEX
  8
Switch
 10
72.3275
 20
256.97296
 30
0.0
 42
0.0
  0
VERTEX
  8
Switch
 10
71.9846
 20
256.23636
 30
0.0
 42
0.0
  0
VERTEX
  8
Switch
 10
67.44562
 20
258.35218
 30
0.0
 42
0.0
  0
VERTEX
  8
Switch
 10
67.78852
 20
259.08878
 30
0.0
 42
0.0
  0
VERTEX
  8
Switch
 10
64.61606
 20
260.56706
 30
0.0
 42
0.0
  0
VERTEX
  8
Switch
 10
64.27316
 20
259.83046
 30
0.0
 42
0.0
  0
VERTEX
  8
Switch
 10
63.38416
 20
260.24702
 30
0.0
 42
0.0
  0
VERTEX
  8
Switch
 10
57.47866
 20
247.58512
 30
0.0
 42
0.0
  0
SEQEND
  0
POLYLINE
  8
Switch
 66
     1
 10
0.0
 20
0.0
 30
0.0
 70
     9
  0
VERTEX
  8
Switch
 10
130.87704
 20
283.455
 30
0.0
 42
0.0
  0
VERTEX
  8
Switch
 10
130.87704
 20
282.6422
 30
0.0
 42
0.0
  0
VERTEX
  8
Switch
 10
134.37716
 20
282.6422
 30
0.0
 42
0.0
  0
VERTEX
  8
Switch
 10
134.37716
 20
283.455
 30
0.0
 42
0.0
  0
VERTEX
  8
Switch
 10
139.38604
 20
283.455
 30
0.0
 42
0.0
  0
VERTEX
  8
Switch
 10
139.38604
 20
282.6422
 30
0.0
 42
0.0
  0
VERTEX
  8
Switch
 10
142.88616
 20
282.6422
 30
0.0
 42
0.0
  0
VERTEX
  8
Switch
 10
142.88616
 20
283.455
 30
0.0
 42
0.0
  0
VERTEX
  8
Switch
 10
143.8666
 20
283.455
 30
0.0
 42
0.0
  0
VERTEX
  8
Switch
 10
143.8666
 20
297.425
 30
0.0
 42
0.0
  0
VERTEX
  8
Switch
 10
142.88616
 20
297.425
 30
0.0
 42
0.0
  0
VERTEX
  8
Switch
 10
142.88616
 20
298.2378
 30
0.0
 42
0.0
  0
VERTEX
  8
Switch
 10
139.38604
 20
298.2378
 30
0.0
 42
0.0
  0
VERTEX
  8
Switch
 10
139.38604
 20
297.425
 30
0.0
 42
0.0
  0
VERTEX
  8
Switch
 10
134.37716
 20
297.425
 30
0.0
 42
0.0
  0
VERTEX
  8
Switch
 10
134.37716
 20
298.2378
 30
0.0
 42
0.0
  0
VERTEX
  8
Switch
 10
130.87704
 20
298.2378
 30
0.0
 42
0.0
  0
VERTEX
  8
Switch
 10
130.87704
 20
297.425
 30
0.0
 42
0.0
  0
VERTEX
  8
Switch
 10
129.8966
 20
297.425
 30
0.0
 42
0.0
  0
VERTEX
  8
Switch
 10
129.8966
 20
283.455
 30
0.0
 42
0.0
  0
SEQEND
  0
POLYLINE
  8
Switch
 66
     1
 10
0.0
 20
0.0
 30
0.0
 70
     9
  0
VERTEX
  8
Switch
 10
104.7887
 20
283.455
 30
0.0
 42
0.0
  0
VERTEX
  8
Switch
 10
105.76914
 20
283.455
 30
0.0
 42
0.0
  0
VERTEX
  8
Switch
 10
105.76914
 20
297.425
 30
0.0
 42
0.0
  0
VERTEX
  8
Switch
 10
104.7887
 20
297.425
 30
0.0
 42
0.0
  0
VERTEX
  8
Switch
 10
104.7887
 20
298.2378
 30
0.0
 42
0.0
  0
VERTEX
  8
Switch
 10
101.28858
 20
298.2378
 30
0.0
 42
0.0
  0
VERTEX
  8
Switch
 10
101.28858
 20
297.425
 30
0.0
 42
0.0
  0
VERTEX
  8
Switch
 10
96.2797
 20
297.425
 30
0.0
 42
0.0
  0
VERTEX
  8
Switch
 10
96.2797
 20
298.2378
 30
0.0
 42
0.0
  0
VERTEX
  8
Switch
 10
92.77958
 20
298.2378
 30
0.0
 42
0.0
  0
VERTEX
  8
Switch
 10
92.77958
 20
297.425
 30
0.0
 42
0.0
  0
VERTEX
  8
Switch
 10
91.79914
 20
297.425
 30
0.0
 42
0.0
  0
VERTEX
  8
Switch
 10
91.79914
 20
283.455
 30
0.0
 42
0.0
  0
VERTEX
  8
Switch
 10
92.77958
 20
283.455
 30
0.0
 42
0.0
  0
VERTEX
  8
Switch
 10
92.77958
 20
282.6422
 30
0.0
 42
0.0
  0
VERTEX
  8
Switch
 10
96.2797
 20
282.6422
 30
0.0
 42
0.0
  0
VERTEX
  8
Switch
 10
96.2797
 20
283.455
 30
0.0
 42
0.0
  0
VERTEX
  8
Switch
 10
101.28858
 20
283.455
 30
0.0
 42
0.0
  0
VERTEX
  8
Switch
 10
101.28858
 20
282.6422
 30
0.0
 42
0.0
  0
VERTEX
  8
Switch
 10
104.7887
 20
282.6422
 30
0.0
 42
0.0
  0
SEQEND
  0
POLYLINE
  8
Switch
 66
     1
 10
0.0
 20
0.0
 30
0.0
 70
     9
  0
VERTEX
  8
Switch
 10
44.65674
 20
254.64378
 30
0.0
 42
0.0
  0
VERTEX
  8
Switch
 10
45.39334
 20
254.30088
 30
0.0
 42
0.0
  0
VERTEX
  8
Switch
 10
46.87416
 20
257.47334
 30
0.0
 42
0.0
  0
VERTEX
  8
Switch
 10
46.13756
 20
257.81624
 30
0.0
 42
0.0
  0
VERTEX
  8
Switch
 10
48.25338
 20
262.35522
 30
0.0
 42
0.0
  0
VERTEX
  8
Switch
 10
48.98998
 20
262.01232
 30
0.0
 42
0.0
  0
VERTEX
  8
Switch
 10
50.46826
 20
265.18478
 30
0.0
 42
0.0
  0
VERTEX
  8
Switch
 10
49.73166
 20
265.52768
 30
0.0
 42
0.0
  0
VERTEX
  8
Switch
 10
50.14822
 20
266.41668
 30
0.0
 42
0.0
  0
VERTEX
  8
Switch
 10
37.48632
 20
272.32218
 30
0.0
 42
0.0
  0
VERTEX
  8
Switch
 10
37.0723
 20
271.43318
 30
0.0
 42
0.0
  0
VERTEX
  8
Switch
 10
36.3357
 20
271.77608
 30
0.0
 42
0.0
  0
VERTEX
  8
Switch
 10
34.85488
 20
268.60362
 30
0.0
 42
0.0
  0
VERTEX
  8
Switch
 10
35.59148
 20
268.26072
 30
0.0
 42
0.0
  0
VERTEX
  8
Switch
 10
33.47566
 20
263.72174
 30
0.0
 42
0.0
  0
VERTEX
  8
Switch
 10
32.73906
 20
264.06464
 30
0.0
 42
0.0
  0
VERTEX
  8
Switch
 10
31.26078
 20
260.89218
 30
0.0
 42
0.0
  0
VERTEX
  8
Switch
 10
31.99738
 20
260.54928
 30
0.0
 42
0.0
  0
VERTEX
  8
Switch
 10
31.58082
 20
259.66028
 30
0.0
 42
0.0
  0
VERTEX
  8
Switch
 10
44.24272
 20
253.75478
 30
0.0
 42
0.0
  0
SEQEND
  0
POLYLINE
  8
Switch
 66
     1
 10
0.0
 20
0.0
 30
0.0
 70
     9
  0
VERTEX
  8
Switch
 10
144.1587
 20
340.605
 30
0.0
 42
0.0
  0
VERTEX
  8
Switch
 10
145.13914
 20
340.605
 30
0.0
 42
0.0
  0
VERTEX
  8
Switch
 10
145.13914
 20
354.575
 30
0.0
 42
0.0
  0
VERTEX
  8
Switch
 10
144.1587
 20
354.575
 30
0.0
 42
0.0
  0
VERTEX
  8
Switch
 10
144.1587
 20
355.3878
 30
0.0
 42
0.0
  0
VERTEX
  8
Switch
 10
140.65858
 20
355.3878
 30
0.0
 42
0.0
  0
VERTEX
  8
Switch
 10
140.65858
 20
354.575
 30
0.0
 42
0.0
  0
VERTEX
  8
Switch
 10
135.6497
 20
354.575
 30
0.0
 42
0.0
  0
VERTEX
  8
Switch
 10
135.6497
 20
355.3878
 30
0.0
 42
0.0
  0
VERTEX
  8
Switch
 10
132.14958
 20
355.3878
 30
0.0
 42
0.0
  0
VERTEX
  8
Switch
 10
132.14958
 20
354.575
 30
0.0
 42
0.0
  0
VERTEX
  8
Switch
 10
131.16914
 20
354.575
 30
0.0
 42
0.0
  0
VERTEX
  8
Switch
 10
131.16914
 20
340.605
 30
0.0
 42
0.0
  0
VERTEX
  8
Switch
 10
132.14958
 20
340.605
 30
0.0
 42
0.0
  0
VERTEX
  8
Switch
 10
132.14958
 20
339.7922
 30
0.0
 42
0.0
  0
VERTEX
  8
Switch
 10
135.6497
 20
339.7922
 30
0.0
 42
0.0
  0
VERTEX
  8
Switch
 10
135.6497
 20
340.605
 30
0.0
 42
0.0
  0
VERTEX
  8
Switch
 10
140.65858
 20
340.605
 30
0.0
 42
0.0
  0
VERTEX
  8
Switch
 10
140.65858
 20
339.7922
 30
0.0
 42
0.0
  0
VERTEX
  8
Switch
 10
144.1587
 20
339.7922
 30
0.0
 42
0.0
  0
SEQEND
  0
POLYLINE
  8
Switch
 66
     1
 10
0.0
 20
0.0
 30
0.0
 70
     9
  0
VERTEX
  8
Switch
 10
83.8337
 20
359.655
 30
0.0
 42
0.0
  0
VERTEX
  8
Switch
 10
84.81414
 20
359.655
 30
0.0
 42
0.0
  0
VERTEX
  8
Switch
 10
84.81414
 20
373.625
 30
0.0
 42
0.0
  0
VERTEX
  8
Switch
 10
83.8337
 20
373.625
 30
0.0
 42
0.0
  0
VERTEX
  8
Switch
 10
83.8337
 20
374.4378
 30
0.0
 42
0.0
  0
VERTEX
  8
Switch
 10
80.33358
 20
374.4378
 30
0.0
 42
0.0
  0
VERTEX
  8
Switch
 10
80.33358
 20
373.625
 30
0.0
 42
0.0
  0
VERTEX
  8
Switch
 10
75.3247000000001
 20
373.625
 30
0.0
 42
0.0
  0
VERTEX
  8
Switch
 10
75.3247000000001
 20
374.4378
 30
0.0
 42
0.0
  0
VERTEX
  8
Switch
 10
71.82458
 20
374.4378
 30
0.0
 42
0.0
  0
VERTEX
  8
Switch
 10
71.82458
 20
373.625
 30
0.0
 42
0.0
  0
VERTEX
  8
Switch
 10
70.84414
 20
373.625
 30
0.0
 42
0.0
  0
VERTEX
  8
Switch
 10
70.84414
 20
359.655
 30
0.0
 42
0.0
  0
VERTEX
  8
Switch
 10
71.82458
 20
359.655
 30
0.0
 42
0.0
  0
VERTEX
  8
Switch
 10
71.82458
 20
358.8422
 30
0.0
 42
0.0
  0
VERTEX
  8
Switch
 10
75.3247000000001
 20
358.8422
 30
0.0
 42
0.0
  0
VERTEX
  8
Switch
 10
75.3247000000001
 20
359.655
 30
0.0
 42
0.0
  0
VERTEX
  8
Switch
 10
80.33358
 20
359.655
 30
0.0
 42
0.0
  0
VERTEX
  8
Switch
 10
80.33358
 20
358.8422
 30
0.0
 42
0.0
  0
VERTEX
  8
Switch
 10
83.8337
 20
358.8422
 30
0.0
 42
0.0
  0
SEQEND
  0
POLYLINE
  8
Switch
 66
     1
 10
0.0
 20
0.0
 30
0.0
 70
     9
  0
VERTEX
  8
Switch
 10
145.75636
 20
335.525
 30
0.0
 42
0.0
  0
VERTEX
  8
Switch
 10
145.75636
 20
336.3378
 30
0.0
 42
0.0
  0
VERTEX
  8
Switch
 10
142.25624
 20
336.3378
 30
0.0
 42
0.0
  0
VERTEX
  8
Switch
 10
142.25624
 20
335.525
 30
0.0
 42
0.0
  0
VERTEX
  8
Switch
 10
137.24736
 20
335.525
 30
0.0
 42
0.0
  0
VERTEX
  8
Switch
 10
137.24736
 20
336.3378
 30
0.0
 42
0.0
  0
VERTEX
  8
Switch
 10
133.74724
 20
336.3378
 30
0.0
 42
0.0
  0
VERTEX
  8
Switch
 10
133.74724
 20
335.525
 30
0.0
 42
0.0
  0
VERTEX
  8
Switch
 10
132.7668
 20
335.525
 30
0.0
 42
0.0
  0
VERTEX
  8
Switch
 10
132.7668
 20
321.555
 30
0.0
 42
0.0
  0
VERTEX
  8
Switch
 10
133.74724
 20
321.555
 30
0.0
 42
0.0
  0
VERTEX
  8
Switch
 10
133.74724
 20
320.7422
 30
0.0
 42
0.0
  0
VERTEX
  8
Switch
 10
137.24736
 20
320.7422
 30
0.0
 42
0.0
  0
VERTEX
  8
Switch
 10
137.24736
 20
321.555
 30
0.0
 42
0.0
  0
VERTEX
  8
Switch
 10
142.25624
 20
321.555
 30
0.0
 42
0.0
  0
VERTEX
  8
Switch
 10
142.25624
 20
320.7422
 30
0.0
 42
0.0
  0
VERTEX
  8
Switch
 10
145.75636
 20
320.7422
 30
0.0
 42
0.0
  0
VERTEX
  8
Switch
 10
145.75636
 20
321.555
 30
0.0
 42
0.0
  0
VERTEX
  8
Switch
 10
146.7368
 20
321.555
 30
0.0
 42
0.0
  0
VERTEX
  8
Switch
 10
146.7368
 20
335.525
 30
0.0
 42
0.0
  0
SEQEND
  0
POLYLINE
  8
Switch
 66
     1
 10
0.0
 20
0.0
 30
0.0
 70
     9
  0
VERTEX
  8
Switch
 10
128.97204
 20
383.4675
 30
0.0
 42
0.0
  0
VERTEX
  8
Switch
 10
128.97204
 20
382.6547
 30
0.0
 42
0.0
  0
VERTEX
  8
Switch
 10
132.47216
 20
382.6547
 30
0.0
 42
0.0
  0
VERTEX
  8
Switch
 10
132.47216
 20
383.4675
 30
0.0
 42
0.0
  0
VERTEX
  8
Switch
 10
137.48104
 20
383.4675
 30
0.0
 42
0.0
  0
VERTEX
  8
Switch
 10
137.48104
 20
382.6547
 30
0.0
 42
0.0
  0
VERTEX
  8
Switch
 10
140.98116
 20
382.6547
 30
0.0
 42
0.0
  0
VERTEX
  8
Switch
 10
140.98116
 20
383.4675
 30
0.0
 42
0.0
  0
VERTEX
  8
Switch
 10
141.9616
 20
383.4675
 30
0.0
 42
0.0
  0
VERTEX
  8
Switch
 10
141.9616
 20
397.4375
 30
0.0
 42
0.0
  0
VERTEX
  8
Switch
 10
140.98116
 20
397.4375
 30
0.0
 42
0.0
  0
VERTEX
  8
Switch
 10
140.98116
 20
398.2503
 30
0.0
 42
0.0
  0
VERTEX
  8
Switch
 10
137.48104
 20
398.2503
 30
0.0
 42
0.0
  0
VERTEX
  8
Switch
 10
137.48104
 20
397.4375
 30
0.0
 42
0.0
  0
VERTEX
  8
Switch
 10
132.47216
 20
397.4375
 30
0.0
 42
0.0
  0
VERTEX
  8
Switch
 10
132.47216
 20
398.2503
 30
0.0
 42
0.0
  0
VERTEX
  8
Switch
 10
128.97204
 20
398.2503
 30
0.0
 42
0.0
  0
VERTEX
  8
Switch
 10
128.97204
 20
397.4375
 30
0.0
 42
0.0
  0
VERTEX
  8
Switch
 10
127.9916
 20
397.4375
 30
0.0
 42
0.0
  0
VERTEX
  8
Switch
 10
127.9916
 20
383.4675
 30
0.0
 42
0.0
  0
SEQEND
  0
POLYLINE
  8
Out
 66
     1
 10
0.0
 20
0.0
 30
0.0
 70
     1
  0
VERTEX
  8
Out
 10
172.0
 20
124.2292
 42
0.0
  0
VERTEX
  8
Out
 10
172.0
 20
127.5
 42
0.0
  0
VERTEX
  8
Out
 10
173.50078
 20
127.5
 42
0.0
  0
VERTEX
  8
Out
 10
173.500780000001
 20
126.9429
 42
0.0
  0
VERTEX
  8
Out
 10
178.6138
 20
113.0632
 42
0.0
  0
VERTEX
  8
Out
 10
178.613855239421
 20
93.98776964692
 42
0.0
  0
VERTEX
  8
Out
 10
173.511596809304
 20
84.702194575127
 42
0.0
  0
VERTEX
  8
Out
 10
173.500876693161
 20
84.682685088375
 42
0.0
  0
VERTEX
  8
Out
 10
173.50078
 20
83.20804
 42
0.0
  0
VERTEX
  8
Out
 10
171.501800000001
 20
83.20804
 42
0.0
  0
VERTEX
  8
Out
 10
171.5018
 20
85.0978
 42
0.0
  0
VERTEX
  8
Out
 10
169.7238
 20
85.097799999999
 42
0.0
  0
VERTEX
  8
Out
 10
169.7238
 20
86.0
 42
0.0
  0
VERTEX
  8
Out
 10
164.847
 20
86.0
 42
0.0
  0
VERTEX
  8
Out
 10
164.847
 20
98.0
 42
0.0
  0
VERTEX
  8
Out
 10
152.0
 20
98.0
 42
0.0
  0
VERTEX
  8
Out
 10
152.0
 20
57.78088
 42
0.0
  0
VERTEX
  8
Out
 10
150.0
 20
57.78088
 42
0.0
  0
VERTEX
  8
Out
 10
150.0
 20
25.0
 42
0.0
  0
VERTEX
  8
Out
 10
168.7238
 20
25.0
 42
0.0
  0
VERTEX
  8
Out
 10
169.7238
 20
25.0
 42
0.0
  0
VERTEX
  8
Out
 10
169.7238
 20
73.5916
 42
0.0
  0
VERTEX
  8
Out
 10
171.5018
 20
73.5916
 42
0.0
  0
VERTEX
  8
Out
 10
171.501800000001
 20
75.50676
 42
0.0
  0
VERTEX
  8
Out
 10
173.50078
 20
75.50676
 42
0.0
  0
VERTEX
  8
Out
 10
173.500876693159
 20
74.006805088375
 42
0.0
  0
VERTEX
  8
Out
 10
173.500876707412
 20
74.006584002656
 42
0.0
  0
VERTEX
  8
Out
 10
178.6138
 20
64.7016
 42
0.0
  0
VERTEX
  8
Out
 10
178.613703306842
 20
9.192154911625
 42
-0.2914712965981
  0
VERTEX
  8
Out
 10
174.57205869271
 20
2.848013250935
 42
-0.1095189104978
  0
VERTEX
  8
Out
 10
171.613703306842
 20
2.192154911625
 42
0.0
  0
VERTEX
  8
Out
 10
47.1837033068432
 20
2.192154911625
 42
-0.4142135623731
  0
VERTEX
  8
Out
 10
40.1837033068432
 20
9.192154911626
 42
0.0
  0
VERTEX
  8
Out
 10
40.1837033068491
 20
86.324946917236
 42
0.1094975108592
  0
VERTEX
  8
Out
 10
39.5280953160875
 20
89.28276537568
 42
0.0
  0
VERTEX
  8
Out
 10
2.4327102002354
 20
168.850743906351
 42
-0.4141910192641
  0
VERTEX
  8
Out
 10
5.8187950035032
 20
178.152726860544
 42
0.0
  0
VERTEX
  8
Out
 10
61.5000772096902
 20
204.117113266381
 42
-0.4142221777008
  0
VERTEX
  8
Out
 10
70.8026354820658
 20
200.731069526558
 42
0.0
  0
VERTEX
  8
Out
 10
86.3807543922626
 20
167.320834458289
 42
0.2914822858544
  0
VERTEX
  8
Out
 10
92.725005599738
 20
163.278954911625
 42
0.0
  0
VERTEX
  8
Out
 10
171.613703306842
 20
163.278954911625
 42
-0.4142065807752
  0
VERTEX
  8
Out
 10
178.613703304853
 20
156.279121768701
 42
0.0
  0
VERTEX
  8
Out
 10
178.613703306842
 20
156.278954911625
 42
0.0
  0
VERTEX
  8
Out
 10
178.6138
 20
148.166
 42
0.0
  0
VERTEX
  8
Out
 10
173.50078
 20
134.2863
 42
0.0
  0
VERTEX
  8
Out
 10
173.50078
 20
133.5
 42
0.0
  0
VERTEX
  8
Out
 10
172.0
 20
133.5
 42
0.0
  0
VERTEX
  8
Out
 10
172.0
 20
137.0
 42
0.0
  0
VERTEX
  8
Out
 10
171.5018
 20
137.0
 42
0.0
  0
VERTEX
  8
Out
 10
171.5018
 20
139.1236
 42
0.0
  0
VERTEX
  8
Out
 10
169.7238
 20
139.1236
 42
0.0
  0
VERTEX
  8
Out
 10
169.7238
 20
139.999345131768
 42
0.0
  0
VERTEX
  8
Out
 10
168.457186422174
 20
139.996342
 42
0.0
  0
VERTEX
  8
Out
 10
160.498073513029
 20
139.995551958619
 42
0.0
  0
VERTEX
  8
Out
 10
160.5
 20
137.0
 42
0.0
  0
VERTEX
  8
Out
 10
158.5
 20
137.0
 42
0.0
  0
VERTEX
  8
Out
 10
158.5
 20
124.2292
 42
0.0
  0
VERTEX
  8
Out
 10
161.542813577826
 20
124.2292
 42
0.0
  0
VERTEX
  8
Out
 10
161.540887090855
 20
121.233648041381
 42
0.0
  0
VERTEX
  8
Out
 10
169.7238
 20
121.232835785054
 42
0.0
  0
VERTEX
  8
Out
 10
169.7238
 20
121.9532
 42
0.0
  0
VERTEX
  8
Out
 10
171.5018
 20
121.9532
 42
0.0
  0
VERTEX
  8
Out
 10
171.5018
 20
124.2292
 42
0.0
  0
SEQEND
  0
POLYLINE
  8
Out
 66
     1
 10
0.0
 20
0.0
 30
0.0
 70
     9
  0
VERTEX
  8
Out
 10
172.0
 20
291.7708
 30
0.0
 42
0.0
  0
VERTEX
  8
Out
 10
172.0
 20
288.5
 30
0.0
 42
0.0
  0
VERTEX
  8
Out
 10
173.50078
 20
288.5
 30
0.0
 42
0.0
  0
VERTEX
  8
Out
 10
173.500780000001
 20
289.0571
 30
0.0
 42
0.0
  0
VERTEX
  8
Out
 10
178.6138
 20
302.9368
 30
0.0
 42
0.0
  0
VERTEX
  8
Out
 10
178.613855239421
 20
322.01223035308
 30
0.0
 42
0.0
  0
VERTEX
  8
Out
 10
173.511596809304
 20
331.297805424873
 30
0.0
 42
0.0
  0
VERTEX
  8
Out
 10
173.500876693161
 20
331.317314911625
 30
0.0
 42
0.0
  0
VERTEX
  8
Out
 10
173.50078
 20
332.79196
 30
0.0
 42
0.0
  0
VERTEX
  8
Out
 10
171.501800000001
 20
332.79196
 30
0.0
 42
0.0
  0
VERTEX
  8
Out
 10
171.5018
 20
330.9022
 30
0.0
 42
0.0
  0
VERTEX
  8
Out
 10
169.7238
 20
330.902200000001
 30
0.0
 42
0.0
  0
VERTEX
  8
Out
 10
169.7238
 20
330.0
 30
0.0
 42
0.0
  0
VERTEX
  8
Out
 10
164.847
 20
330.0
 30
0.0
 42
0.0
  0
VERTEX
  8
Out
 10
164.847
 20
318.0
 30
0.0
 42
0.0
  0
VERTEX
  8
Out
 10
152.0
 20
318.0
 30
0.0
 42
0.0
  0
VERTEX
  8
Out
 10
152.0
 20
358.21912
 30
0.0
 42
0.0
  0
VERTEX
  8
Out
 10
150.0
 20
358.21912
 30
0.0
 42
0.0
  0
VERTEX
  8
Out
 10
150.0
 20
391.0
 30
0.0
 42
0.0
  0
VERTEX
  8
Out
 10
168.7238
 20
391.0
 30
0.0
 42
0.0
  0
VERTEX
  8
Out
 10
169.7238
 20
391.0
 30
0.0
 42
0.0
  0
VERTEX
  8
Out
 10
169.7238
 20
342.4084
 30
0.0
 42
0.0
  0
VERTEX
  8
Out
 10
171.5018
 20
342.4084
 30
0.0
 42
0.0
  0
VERTEX
  8
Out
 10
171.501800000001
 20
340.49324
 30
0.0
 42
0.0
  0
VERTEX
  8
Out
 10
173.50078
 20
340.49324
 30
0.0
 42
0.0
  0
VERTEX
  8
Out
 10
173.500876693159
 20
341.993194911625
 30
0.0
 42
0.0
  0
VERTEX
  8
Out
 10
173.500876707412
 20
341.993415997344
 30
0.0
 42
0.0
  0
VERTEX
  8
Out
 10
178.6138
 20
351.2984
 30
0.0
 42
0.0
  0
VERTEX
  8
Out
 10
178.613703306842
 20
406.807845088375
 30
0.0
 42
0.2914712965981
  0
VERTEX
  8
Out
 10
174.57205869271
 20
413.151986749065
 30
0.0
 42
0.1095189104978
  0
VERTEX
  8
Out
 10
171.613703306842
 20
413.807845088375
 30
0.0
 42
0.0
  0
VERTEX
  8
Out
 10
47.1837033068433
 20
413.807845088375
 30
0.0
 42
0.4142135623731
  0
VERTEX
  8
Out
 10
40.1837033068433
 20
406.807845088374
 30
0.0
 42
0.0
  0
VERTEX
  8
Out
 10
40.1837033068491
 20
329.675053082764
 30
0.0
 42
-0.1094975108592
  0
VERTEX
  8
Out
 10
39.5280953160875
 20
326.71723462432
 30
0.0
 42
0.0
  0
VERTEX
  8
Out
 10
2.4327102002354
 20
247.149256093649
 30
0.0
 42
0.4141910192641
  0
VERTEX
  8
Out
 10
5.8187950035032
 20
237.847273139456
 30
0.0
 42
0.0
  0
VERTEX
  8
Out
 10
61.5000772096902
 20
211.882886733619
 30
0.0
 42
0.4142221777008
  0
VERTEX
  8
Out
 10
70.8026354820658
 20
215.268930473442
 30
0.0
 42
0.0
  0
VERTEX
  8
Out
 10
86.3807543922626
 20
248.679165541711
 30
0.0
 42
-0.2914822858544
  0
VERTEX
  8
Out
 10
92.725005599738
 20
252.721045088375
 30
0.0
 42
0.0
  0
VERTEX
  8
Out
 10
171.613703306842
 20
252.721045088375
 30
0.0
 42
0.4142065807752
  0
VERTEX
  8
Out
 10
178.613703304853
 20
259.720878231299
 30
0.0
 42
0.0
  0
VERTEX
  8
Out
 10
178.613703306842
 20
259.721045088375
 30
0.0
 42
0.0
  0
VERTEX
  8
Out
 10
178.6138
 20
267.834
 30
0.0
 42
0.0
  0
VERTEX
  8
Out
 10
173.50078
 20
281.7137
 30
0.0
 42
0.0
  0
VERTEX
  8
Out
 10
173.50078
 20
282.5
 30
0.0
 42
0.0
  0
VERTEX
  8
Out
 10
172.0
 20
282.5
 30
0.0
 42
0.0
  0
VERTEX
  8
Out
 10
172.0
 20
279.0
 30
0.0
 42
0.0
  0
VERTEX
  8
Out
 10
171.5018
 20
279.0
 30
0.0
 42
0.0
  0
VERTEX
  8
Out
 10
171.5018
 20
276.8764
 30
0.0
 42
0.0
  0
VERTEX
  8
Out
 10
169.7238
 20
276.8764
 30
0.0
 42
0.0
  0
VERTEX
  8
Out
 10
169.7238
 20
276.000654868232
 30
0.0
 42
0.0
  0
VERTEX
  8
Out
 10
168.457186422174
 20
276.003658
 30
0.0
 42
0.0
  0
VERTEX
  8
Out
 10
160.498073513029
 20
276.004448041381
 30
0.0
 42
0.0
  0
VERTEX
  8
Out
 10
160.5
 20
279.0
 30
0.0
 42
0.0
  0
VERTEX
  8
Out
 10
158.5
 20
279.0
 30
0.0
 42
0.0
  0
VERTEX
  8
Out
 10
158.5
 20
291.7708
 30
0.0
 42
0.0
  0
VERTEX
  8
Out
 10
161.542813577826
 20
291.7708
 30
0.0
 42
0.0
  0
VERTEX
  8
Out
 10
161.540887090855
 20
294.766351958619
 30
0.0
 42
0.0
  0
VERTEX
  8
Out
 10
169.7238
 20
294.767164214946
 30
0.0
 42
0.0
  0
VERTEX
  8
Out
 10
169.7238
 20
294.0468
 30
0.0
 42
0.0
  0
VERTEX
  8
Out
 10
171.5018
 20
294.0468
 30
0.0
 42
0.0
  0
VERTEX
  8
Out
 10
171.5018
 20
291.7708
 30
0.0
 42
0.0
  0
SEQEND
  0
POLYLINE
  8
Out
 66
     1
 10
0.0
 20
0.0
 30
0.0
 70
     1
  0
VERTEX
  8
Out
 10
346.159470043145
 20
3.0403613379822
 42
0.4142135623731
  0
VERTEX
  8
Out
 10
353.159470043145
 20
10.0403613379822
 42
0.0
  0
VERTEX
  8
Out
 10
353.159470043145
 20
65.5498064263572
 42
0.0
  0
VERTEX
  8
Out
 10
353.159470043145
 20
65.5499823977612
 42
0.0
  0
VERTEX
  8
Out
 10
353.159470043145
 20
94.8359613379822
 42
0.0
  0
VERTEX
  8
Out
 10
353.159470043146
 20
113.911361337981
 42
0.0
  0
VERTEX
  8
Out
 10
353.159470043145
 20
149.014161337982
 42
0.0
  0
VERTEX
  8
Out
 10
353.159470043146
 20
157.127161337982
 42
0.4142135623731
  0
VERTEX
  8
Out
 10
346.159470043146
 20
164.127161337982
 42
0.0
  0
VERTEX
  8
Out
 10
267.270772336042
 20
164.127161337982
 42
-0.2914822858544
  0
VERTEX
  8
Out
 10
260.926521128566
 20
168.169040884646
 42
0.0
  0
VERTEX
  8
Out
 10
245.34840221837
 20
201.579275952914
 42
0.4142221305055
  0
VERTEX
  8
Out
 10
236.045844968252
 20
204.96532016942
 42
0.0
  0
VERTEX
  8
Out
 10
180.364561739807
 20
179.0009332869
 42
0.4141910192641
  0
VERTEX
  8
Out
 10
176.978476936538
 20
169.698950332707
 42
0.0
  0
VERTEX
  8
Out
 10
214.073861911321
 20
90.1309721046272
 42
-0.1094975108592
  0
VERTEX
  8
Out
 10
214.729470043153
 20
87.1731533435922
 42
0.0
  0
VERTEX
  8
Out
 10
214.729470043147
 20
10.0403613379822
 42
0.4142135623731
  0
VERTEX
  8
Out
 10
221.729470043147
 20
3.0403613379822
 42
0.0
  0
SEQEND
  0
POLYLINE
  8
Out
 66
     1
 10
0.0
 20
0.0
 30
0.0
 70
     9
  0
VERTEX
  8
Out
 10
346.491617136107
 20
414.302461918326
 30
0.0
 42
-0.4142135623731
  0
VERTEX
  8
Out
 10
353.491617136107
 20
407.302461918326
 30
0.0
 42
0.0
  0
VERTEX
  8
Out
 10
353.491617136107
 20
351.793016829951
 30
0.0
 42
0.0
  0
VERTEX
  8
Out
 10
353.491617136107
 20
351.792840858547
 30
0.0
 42
0.0
  0
VERTEX
  8
Out
 10
353.491617136107
 20
322.506861918326
 30
0.0
 42
0.0
  0
VERTEX
  8
Out
 10
353.491617136108
 20
303.431461918327
 30
0.0
 42
0.0
  0
VERTEX
  8
Out
 10
353.491617136107
 20
268.328661918326
 30
0.0
 42
0.0
  0
VERTEX
  8
Out
 10
353.491617136107
 20
260.215661918326
 30
0.0
 42
-0.4142135623731
  0
VERTEX
  8
Out
 10
346.491617136107
 20
253.215661918326
 30
0.0
 42
0.0
  0
VERTEX
  8
Out
 10
267.602919429004
 20
253.215661918326
 30
0.0
 42
0.2914822858544
  0
VERTEX
  8
Out
 10
261.258668221528
 20
249.173782371662
 30
0.0
 42
0.0
  0
VERTEX
  8
Out
 10
245.680549311331
 20
215.763547303394
 30
0.0
 42
-0.4142221305055
  0
VERTEX
  8
Out
 10
236.377992061214
 20
212.377503086888
 30
0.0
 42
0.0
  0
VERTEX
  8
Out
 10
180.696708832768
 20
238.341889969408
 30
0.0
 42
-0.4141910192641
  0
VERTEX
  8
Out
 10
177.310624029499
 20
247.643872923601
 30
0.0
 42
0.0
  0
VERTEX
  8
Out
 10
214.406009004282
 20
327.211851151681
 30
0.0
 42
0.1094975108592
  0
VERTEX
  8
Out
 10
215.061617136114
 20
330.169669912716
 30
0.0
 42
0.0
  0
VERTEX
  8
Out
 10
215.061617136108
 20
407.302461918326
 30
0.0
 42
-0.4142135623731
  0
VERTEX
  8
Out
 10
222.061617136108
 20
414.302461918326
 30
0.0
 42
0.0
  0
SEQEND
  0
POLYLINE
  8
In
 66
     1
 10
0.0
 20
0.0
 30
0.0
 70
     1
  0
VERTEX
  8
In
 10
169.7238
 20
25.0
 42
0.0
  0
VERTEX
  8
In
 10
150.0
 20
25.0
 42
0.0
  0
VERTEX
  8
In
 10
150.0
 20
57.78088
 42
0.0
  0
VERTEX
  8
In
 10
152.0
 20
57.78088
 42
0.0
  0
VERTEX
  8
In
 10
152.0
 20
98.0
 42
0.0
  0
VERTEX
  8
In
 10
164.847
 20
98.0
 42
0.0
  0
VERTEX
  8
In
 10
164.847
 20
86.0
 42
0.0
  0
VERTEX
  8
In
 10
169.7238
 20
86.0
 42
0.0
  0
VERTEX
  8
In
 10
169.7238
 20
121.232835785054
 42
0.0
  0
VERTEX
  8
In
 10
161.540887090855
 20
121.233648041381
 42
0.0
  0
VERTEX
  8
In
 10
161.542813577826
 20
124.2292
 42
0.0
  0
VERTEX
  8
In
 10
158.5
 20
124.2292
 42
0.0
  0
VERTEX
  8
In
 10
158.5
 20
137.0
 42
0.0
  0
VERTEX
  8
In
 10
160.5
 20
137.0
 42
0.0
  0
VERTEX
  8
In
 10
160.498073513029
 20
139.995551958619
 42
0.0
  0
VERTEX
  8
In
 10
168.457186422174
 20
139.996342
 42
0.0
  0
VERTEX
  8
In
 10
169.7238
 20
139.999345131768
 42
0.0
  0
VERTEX
  8
In
 10
169.7238
 20
151.1886
 42
0.0
  0
VERTEX
  8
In
 10
166.548800000001
 20
154.389
 42
0.0
  0
VERTEX
  8
In
 10
80.3158000000006
 20
154.389
 42
0.0
  0
VERTEX
  8
In
 10
80.3158000000002
 20
159.2912
 42
0.0
  0
VERTEX
  8
In
 10
64.8853000000005
 20
192.38232
 42
0.0
  0
VERTEX
  8
In
 10
60.66636
 20
193.91902
 42
0.0
  0
VERTEX
  8
In
 10
14.1640400000006
 20
172.23504
 42
0.0
  0
VERTEX
  8
In
 10
12.62988
 20
168.0161
 42
0.0
  0
VERTEX
  8
In
 10
49.0738000000005
 20
89.8476
 42
0.0
  0
VERTEX
  8
In
 10
49.0738000000001
 20
20.6072
 42
0.0
  0
VERTEX
  8
In
 10
58.5988000000004
 20
11.0822
 42
0.0
  0
VERTEX
  8
In
 10
166.5488
 20
11.0822
 42
0.0
  0
VERTEX
  8
In
 10
169.7238
 20
14.2572
 42
0.0
  0
SEQEND
  0
POLYLINE
  8
In
 66
     1
 10
0.0
 20
0.0
 30
0.0
 70
     1
  0
VERTEX
  8
In
 10
164.501587925705
 20
120.0
 42
0.0
  0
VERTEX
  8
In
 10
162.504849024761
 20
120.0
 42
0.0
  0
VERTEX
  8
In
 10
153.603723539553
 20
111.098874514792
 42
0.0
  0
VERTEX
  8
In
 10
159.351434831242
 20
105.35116322124
 42
0.0
  0
VERTEX
  8
In
 10
169.250929767853
 20
115.250658157852
 42
0.0
  0
SEQEND
  0
POLYLINE
  8
In
 66
     1
 10
0.0
 20
0.0
 30
0.0
 70
     9
  0
VERTEX
  8
In
 10
169.7238
 20
391.0
 30
0.0
 42
0.0
  0
VERTEX
  8
In
 10
150.0
 20
391.0
 30
0.0
 42
0.0
  0
VERTEX
  8
In
 10
150.0
 20
358.21912
 30
0.0
 42
0.0
  0
VERTEX
  8
In
 10
152.0
 20
358.21912
 30
0.0
 42
0.0
  0
VERTEX
  8
In
 10
152.0
 20
318.0
 30
0.0
 42
0.0
  0
VERTEX
  8
In
 10
164.847
 20
318.0
 30
0.0
 42
0.0
  0
VERTEX
  8
In
 10
164.847
 20
330.0
 30
0.0
 42
0.0
  0
VERTEX
  8
In
 10
169.7238
 20
330.0
 30
0.0
 42
0.0
  0
VERTEX
  8
In
 10
169.7238
 20
294.767164214946
 30
0.0
 42
0.0
  0
VERTEX
  8
In
 10
161.540887090855
 20
294.766351958619
 30
0.0
 42
0.0
  0
VERTEX
  8
In
 10
161.542813577826
 20
291.7708
 30
0.0
 42
0.0
  0
VERTEX
  8
In
 10
158.5
 20
291.7708
 30
0.0
 42
0.0
  0
VERTEX
  8
In
 10
158.5
 20
279.0
 30
0.0
 42
0.0
  0
VERTEX
  8
In
 10
160.5
 20
279.0
 30
0.0
 42
0.0
  0
VERTEX
  8
In
 10
160.498073513029
 20
276.004448041381
 30
0.0
 42
0.0
  0
VERTEX
  8
In
 10
168.457186422174
 20
276.003658
 30
0.0
 42
0.0
  0
VERTEX
  8
In
 10
169.7238
 20
276.000654868232
 30
0.0
 42
0.0
  0
VERTEX
  8
In
 10
169.7238
 20
264.8114
 30
0.0
 42
0.0
  0
VERTEX
  8
In
 10
166.548800000001
 20
261.611
 30
0.0
 42
0.0
  0
VERTEX
  8
In
 10
80.3158000000006
 20
261.611
 30
0.0
 42
0.0
  0
VERTEX
  8
In
 10
80.3158000000002
 20
256.7088
 30
0.0
 42
0.0
  0
VERTEX
  8
In
 10
64.8853000000005
 20
223.61768
 30
0.0
 42
0.0
  0
VERTEX
  8
In
 10
60.66636
 20
222.08098
 30
0.0
 42
0.0
  0
VERTEX
  8
In
 10
14.1640400000006
 20
243.76496
 30
0.0
 42
0.0
  0
VERTEX
  8
In
 10
12.62988
 20
247.9839
 30
0.0
 42
0.0
  0
VERTEX
  8
In
 10
49.0738000000005
 20
326.1524
 30
0.0
 42
0.0
  0
VERTEX
  8
In
 10
49.0738000000001
 20
395.3928
 30
0.0
 42
0.0
  0
VERTEX
  8
In
 10
58.5988000000005
 20
404.9178
 30
0.0
 42
0.0
  0
VERTEX
  8
In
 10
166.5488
 20
404.9178
 30
0.0
 42
0.0
  0
VERTEX
  8
In
 10
169.7238
 20
401.7428
 30
0.0
 42
0.0
  0
SEQEND
  0
POLYLINE
  8
In
 66
     1
 10
0.0
 20
0.0
 30
0.0
 70
     9
  0
VERTEX
  8
In
 10
164.501587925705
 20
296.0
 30
0.0
 42
0.0
  0
VERTEX
  8
In
 10
162.504849024761
 20
296.0
 30
0.0
 42
0.0
  0
VERTEX
  8
In
 10
153.603723539553
 20
304.901125485208
 30
0.0
 42
0.0
  0
VERTEX
  8
In
 10
159.351434831242
 20
310.64883677876
 30
0.0
 42
0.0
  0
VERTEX
  8
In
 10
169.250929767853
 20
300.749341842148
 30
0.0
 42
0.0
  0
SEQEND
  0
POLYLINE
  8
In
 66
     1
 10
0.0
 20
0.0
 30
0.0
 70
     1
  0
VERTEX
  8
In
 10
339.392670043145
 20
86.8481613379822
 42
0.0
  0
VERTEX
  8
In
 10
339.392670043145
 20
98.8481613379822
 42
0.0
  0
VERTEX
  8
In
 10
326.545670043145
 20
98.8481613379822
 42
0.0
  0
VERTEX
  8
In
 10
326.545670043145
 20
58.6290413379822
 42
0.0
  0
VERTEX
  8
In
 10
324.545670043145
 20
58.6290413379822
 42
0.0
  0
VERTEX
  8
In
 10
324.545670043145
 20
25.8481613379822
 42
0.0
  0
VERTEX
  8
In
 10
344.045670043145
 20
25.8481613379822
 42
0.0
  0
VERTEX
  8
In
 10
344.045670043145
 20
86.8481613379822
 42
0.0
  0
SEQEND
  0
POLYLINE
  8
In
 66
     1
 10
0.0
 20
0.0
 30
0.0
 70
     1
  0
VERTEX
  8
In
 10
346.545670043145
 20
125.077361337982
 42
0.0
  0
VERTEX
  8
In
 10
346.545670043145
 20
137.848161337982
 42
0.0
  0
VERTEX
  8
In
 10
333.045670043145
 20
137.848161337982
 42
0.0
  0
VERTEX
  8
In
 10
333.045670043145
 20
125.077361337982
 42
0.0
  0
SEQEND
  0
POLYLINE
  8
In
 66
     1
 10
0.0
 20
0.0
 30
0.0
 70
     0
  0
VERTEX
  8
In
 10
353.159470043145
 20
149.014161337982
 42
0.0
  0
VERTEX
  8
In
 10
348.046450043145
 20
135.134461337982
 42
0.0
  0
VERTEX
  8
In
 10
348.046450043145
 20
127.791061337982
 42
0.0
  0
VERTEX
  8
In
 10
353.159470043145
 20
113.911361337982
 42
0.0
  0
SEQEND
  0
POLYLINE
  8
In
 66
     1
 10
0.0
 20
0.0
 30
0.0
 70
     0
  0
VERTEX
  8
In
 10
353.159470043145
 20
94.8358304549522
 42
0.0
  0
VERTEX
  8
In
 10
348.065311620469
 20
85.5649965469382
 42
0.0
  0
VERTEX
  8
In
 10
348.046546736304
 20
74.8549664263572
 42
0.0
  0
VERTEX
  8
In
 10
353.159470043145
 20
65.5499823977622
 42
0.0
  0
SEQEND
  0
POLYLINE
  8
In
 66
     1
 10
0.0
 20
0.0
 30
0.0
 70
     1
  0
VERTEX
  8
In
 10
320.177661425164
 20
155.224502612137
 42
0.0
  0
VERTEX
  8
In
 10
245.501661425164
 20
155.224502612137
 42
0.4142135623731
  0
VERTEX
  8
In
 10
244.485661425164
 20
154.208502612137
 42
0.0
  0
VERTEX
  8
In
 10
244.485661425164
 20
141.649102409677
 42
-0.8025848516709
  0
VERTEX
  8
In
 10
242.548852713064
 20
141.219722257517
 42
0.0
  0
VERTEX
  8
In
 10
237.670400986061
 20
151.681595748142
 42
-0.4142135623731
  0
VERTEX
  8
In
 10
238.407543822724
 20
153.706879045917
 42
0.0
  0
VERTEX
  8
In
 10
253.370685386594
 20
160.684306546929
 42
0.4142135623731
  0
VERTEX
  8
In
 10
253.862113942224
 20
162.034495413257
 42
0.0
  0
VERTEX
  8
In
 10
238.404428403032
 20
195.183609030307
 42
0.4142135623731
  0
VERTEX
  8
In
 10
237.054239537474
 20
195.675037588006
 42
0.0
  0
VERTEX
  8
In
 10
186.639962573494
 20
172.166474160726
 42
0.4142135623731
  0
VERTEX
  8
In
 10
186.148534017864
 20
170.816285294397
 42
0.0
  0
VERTEX
  8
In
 10
209.657097445615
 20
120.402008333727
 42
0.4142135623731
  0
VERTEX
  8
In
 10
211.007286309404
 20
119.910579775557
 42
0.0
  0
VERTEX
  8
In
 10
242.317591194269
 20
134.51081472342
 42
-0.5486187866272
  0
VERTEX
  8
In
 10
244.485661425164
 20
133.129601655977
 42
0.0
  0
VERTEX
  8
In
 10
244.485661425164
 20
118.648502612137
 42
-0.4142135623731
  0
VERTEX
  8
In
 10
242.961661425164
 20
117.124502612137
 42
0.0
  0
VERTEX
  8
In
 10
227.721661425164
 20
117.124502612137
 42
0.4142135623731
  0
VERTEX
  8
In
 10
226.705661425164
 20
116.108502612137
 42
0.0
  0
VERTEX
  8
In
 10
226.705661425164
 20
98.3971456295372
 42
0.3056146845809
  0
VERTEX
  8
In
 10
227.340661425163
 20
97.4552884239292
 42
-0.3056146845809
  0
VERTEX
  8
In
 10
228.293161425164
 20
96.0425026121372
 42
0.0
  0
VERTEX
  8
In
 10
228.293161425164
 20
80.5485026121372
 42
-0.3056146845809
  0
VERTEX
  8
In
 10
227.340661425164
 20
79.1357168000592
 42
0.3056146845809
  0
VERTEX
  8
In
 10
226.705661425164
 20
78.1938595921972
 42
0.0
  0
VERTEX
  8
In
 10
226.705661425164
 20
61.4985026121372
 42
-0.4142135623731
  0
VERTEX
  8
In
 10
225.181661425164
 20
59.9745026121372
 42
0.0
  0
VERTEX
  8
In
 10
224.546661425164
 20
59.9745026121372
 42
0.4142135623731
  0
VERTEX
  8
In
 10
223.530661425164
 20
58.9585026121372
 42
0.0
  0
VERTEX
  8
In
 10
223.530661425164
 20
22.3825026121372
 42
0.4142135623731
  0
VERTEX
  8
In
 10
224.546661425164
 20
21.3665026121372
 42
0.0
  0
VERTEX
  8
In
 10
241.056661425164
 20
21.3665026121372
 42
-0.4142135623731
  0
VERTEX
  8
In
 10
242.580661425164
 20
19.8425026121372
 42
0.0
  0
VERTEX
  8
In
 10
242.580661425164
 20
12.9303613379822
 42
0.4142135623731
  0
VERTEX
  8
In
 10
243.580661425164
 20
11.9303613379822
 42
0.0
  0
VERTEX
  8
In
 10
318.288661425164
 20
11.9303613379822
 42
0.4142135623731
  0
VERTEX
  8
In
 10
319.288661425164
 20
12.9303613379822
 42
0.0
  0
VERTEX
  8
In
 10
319.288661425164
 20
57.9425026121372
 42
-0.4142135623731
  0
VERTEX
  8
In
 10
320.812661425164
 20
59.4665026121372
 42
0.0
  0
VERTEX
  8
In
 10
321.447661425164
 20
59.4665026121372
 42
0.4142135623731
  0
VERTEX
  8
In
 10
322.463661425164
 20
60.4825026121372
 42
0.0
  0
VERTEX
  8
In
 10
322.463661425164
 20
76.9925026121372
 42
-0.3056146845809
  0
VERTEX
  8
In
 10
323.416161425163
 20
78.4052884216762
 42
0.3056146845809
  0
VERTEX
  8
In
 10
324.051161425164
 20
79.3471456295372
 42
0.0
  0
VERTEX
  8
In
 10
324.051161425164
 20
97.2438595921972
 42
0.3056146845809
  0
VERTEX
  8
In
 10
323.416161425165
 20
98.1857168003452
 42
-0.3056146845809
  0
VERTEX
  8
In
 10
322.463661425164
 20
99.5985026121372
 42
0.0
  0
VERTEX
  8
In
 10
322.463661425164
 20
116.448798085977
 42
0.2679491924311
  0
VERTEX
  8
In
 10
321.955661425164
 20
117.32867989677
 42
-0.2679491924311
  0
VERTEX
  8
In
 10
321.193661425164
 20
118.648502612137
 42
0.0
  0
VERTEX
  8
In
 10
321.193661425164
 20
154.208502612137
 42
0.4141000373537
  0
SEQEND
  0
POLYLINE
  8
In
 66
     1
 10
0.0
 20
0.0
 30
0.0
 70
     1
  0
VERTEX
  8
In
 10
349.545670043145
 20
84.8481613379822
 42
0.0
  0
VERTEX
  8
In
 10
355.545670043145
 20
95.8481613379822
 42
0.0
  0
VERTEX
  8
In
 10
355.545670043145
 20
64.8481613379822
 42
0.0
  0
VERTEX
  8
In
 10
349.545670043145
 20
75.8481613379822
 42
0.0
  0
SEQEND
  0
POLYLINE
  8
In
 66
     1
 10
0.0
 20
0.0
 30
0.0
 70
     1
  0
VERTEX
  8
In
 10
349.545670043145
 20
127.848161337982
 42
0.0
  0
VERTEX
  8
In
 10
355.545670043145
 20
111.848161337982
 42
0.0
  0
VERTEX
  8
In
 10
355.545670043145
 20
149.848161337982
 42
0.0
  0
VERTEX
  8
In
 10
349.545670043145
 20
134.848161337982
 42
0.0
  0
SEQEND
  0
POLYLINE
  8
In
 66
     1
 10
0.0
 20
0.0
 30
0.0
 70
     9
  0
VERTEX
  8
In
 10
339.724817136107
 20
330.494661918326
 30
0.0
 42
0.0
  0
VERTEX
  8
In
 10
339.724817136107
 20
318.494661918326
 30
0.0
 42
0.0
  0
VERTEX
  8
In
 10
326.877817136107
 20
318.494661918326
 30
0.0
 42
0.0
  0
VERTEX
  8
In
 10
326.877817136107
 20
358.713781918326
 30
0.0
 42
0.0
  0
VERTEX
  8
In
 10
324.877817136107
 20
358.713781918326
 30
0.0
 42
0.0
  0
VERTEX
  8
In
 10
324.877817136107
 20
391.494661918326
 30
0.0
 42
0.0
  0
VERTEX
  8
In
 10
344.377817136107
 20
391.494661918326
 30
0.0
 42
0.0
  0
VERTEX
  8
In
 10
344.377817136107
 20
330.494661918326
 30
0.0
 42
0.0
  0
SEQEND
  0
POLYLINE
  8
In
 66
     1
 10
0.0
 20
0.0
 30
0.0
 70
     9
  0
VERTEX
  8
In
 10
346.877817136107
 20
292.265461918326
 30
0.0
 42
0.0
  0
VERTEX
  8
In
 10
346.877817136107
 20
279.494661918326
 30
0.0
 42
0.0
  0
VERTEX
  8
In
 10
333.377817136107
 20
279.494661918326
 30
0.0
 42
0.0
  0
VERTEX
  8
In
 10
333.377817136107
 20
292.265461918326
 30
0.0
 42
0.0
  0
SEQEND
  0
POLYLINE
  8
In
 66
     1
 10
0.0
 20
0.0
 30
0.0
 70
     8
  0
VERTEX
  8
In
 10
353.491617136107
 20
268.328661918326
 30
0.0
 42
0.0
  0
VERTEX
  8
In
 10
348.378597136107
 20
282.208361918326
 30
0.0
 42
0.0
  0
VERTEX
  8
In
 10
348.378597136107
 20
289.551761918326
 30
0.0
 42
0.0
  0
VERTEX
  8
In
 10
353.491617136107
 20
303.431461918326
 30
0.0
 42
0.0
  0
SEQEND
  0
POLYLINE
  8
In
 66
     1
 10
0.0
 20
0.0
 30
0.0
 70
     8
  0
VERTEX
  8
In
 10
353.491617136107
 20
322.506992801356
 30
0.0
 42
0.0
  0
VERTEX
  8
In
 10
348.397458713431
 20
331.77782670937
 30
0.0
 42
0.0
  0
VERTEX
  8
In
 10
348.378693829266
 20
342.487856829951
 30
0.0
 42
0.0
  0
VERTEX
  8
In
 10
353.491617136107
 20
351.792840858546
 30
0.0
 42
0.0
  0
SEQEND
  0
POLYLINE
  8
In
 66
     1
 10
0.0
 20
0.0
 30
0.0
 70
     9
  0
VERTEX
  8
In
 10
320.509808518126
 20
262.118320644171
 30
0.0
 42
0.0
  0
VERTEX
  8
In
 10
245.833808518125
 20
262.118320644171
 30
0.0
 42
-0.4142135623731
  0
VERTEX
  8
In
 10
244.817808518125
 20
263.134320644171
 30
0.0
 42
0.0
  0
VERTEX
  8
In
 10
244.817808518125
 20
275.693720846631
 30
0.0
 42
0.8025848516709
  0
VERTEX
  8
In
 10
242.880999806025
 20
276.123100998791
 30
0.0
 42
0.0
  0
VERTEX
  8
In
 10
238.002548079022
 20
265.661227508166
 30
0.0
 42
0.4142135623731
  0
VERTEX
  8
In
 10
238.739690915685
 20
263.635944210391
 30
0.0
 42
0.0
  0
VERTEX
  8
In
 10
253.702832479555
 20
256.658516709379
 30
0.0
 42
-0.4142135623731
  0
VERTEX
  8
In
 10
254.194261035185
 20
255.308327843051
 30
0.0
 42
0.0
  0
VERTEX
  8
In
 10
238.736575495994
 20
222.159214226001
 30
0.0
 42
-0.4142135623731
  0
VERTEX
  8
In
 10
237.386386630435
 20
221.667785668302
 30
0.0
 42
0.0
  0
VERTEX
  8
In
 10
186.972109666455
 20
245.176349095582
 30
0.0
 42
-0.4142135623731
  0
VERTEX
  8
In
 10
186.480681110825
 20
246.526537961911
 30
0.0
 42
0.0
  0
VERTEX
  8
In
 10
209.989244538577
 20
296.940814922581
 30
0.0
 42
-0.4142135623731
  0
VERTEX
  8
In
 10
211.339433402365
 20
297.432243480751
 30
0.0
 42
0.0
  0
VERTEX
  8
In
 10
242.64973828723
 20
282.832008532888
 30
0.0
 42
0.5486187866272
  0
VERTEX
  8
In
 10
244.817808518125
 20
284.213221600331
 30
0.0
 42
0.0
  0
VERTEX
  8
In
 10
244.817808518125
 20
298.694320644171
 30
0.0
 42
0.4142135623731
  0
VERTEX
  8
In
 10
243.293808518125
 20
300.218320644171
 30
0.0
 42
0.0
  0
VERTEX
  8
In
 10
228.053808518125
 20
300.218320644171
 30
0.0
 42
-0.4142135623731
  0
VERTEX
  8
In
 10
227.037808518125
 20
301.234320644171
 30
0.0
 42
0.0
  0
VERTEX
  8
In
 10
227.037808518125
 20
318.945677626771
 30
0.0
 42
-0.3056146845809
  0
VERTEX
  8
In
 10
227.672808518124
 20
319.887534832379
 30
0.0
 42
0.3056146845809
  0
VERTEX
  8
In
 10
228.625308518125
 20
321.300320644171
 30
0.0
 42
0.0
  0
VERTEX
  8
In
 10
228.625308518125
 20
336.794320644171
 30
0.0
 42
0.3056146845809
  0
VERTEX
  8
In
 10
227.672808518126
 20
338.207106456249
 30
0.0
 42
-0.3056146845809
  0
VERTEX
  8
In
 10
227.037808518125
 20
339.148963664111
 30
0.0
 42
0.0
  0
VERTEX
  8
In
 10
227.037808518125
 20
355.844320644171
 30
0.0
 42
0.4142135623731
  0
VERTEX
  8
In
 10
225.513808518125
 20
357.368320644171
 30
0.0
 42
0.0
  0
VERTEX
  8
In
 10
224.878808518125
 20
357.368320644171
 30
0.0
 42
-0.4142135623731
  0
VERTEX
  8
In
 10
223.862808518125
 20
358.384320644171
 30
0.0
 42
0.0
  0
VERTEX
  8
In
 10
223.862808518125
 20
394.960320644171
 30
0.0
 42
-0.4142135623731
  0
VERTEX
  8
In
 10
224.878808518125
 20
395.976320644171
 30
0.0
 42
0.0
  0
VERTEX
  8
In
 10
241.388808518125
 20
395.976320644171
 30
0.0
 42
0.4142135623731
  0
VERTEX
  8
In
 10
242.912808518125
 20
397.500320644171
 30
0.0
 42
0.0
  0
VERTEX
  8
In
 10
242.912808518125
 20
404.412461918326
 30
0.0
 42
-0.4142135623731
  0
VERTEX
  8
In
 10
243.912808518125
 20
405.412461918326
 30
0.0
 42
0.0
  0
VERTEX
  8
In
 10
318.620808518126
 20
405.412461918326
 30
0.0
 42
-0.4142135623731
  0
VERTEX
  8
In
 10
319.620808518126
 20
404.412461918326
 30
0.0
 42
0.0
  0
VERTEX
  8
In
 10
319.620808518126
 20
359.400320644171
 30
0.0
 42
0.4142135623731
  0
VERTEX
  8
In
 10
321.144808518126
 20
357.876320644171
 30
0.0
 42
0.0
  0
VERTEX
  8
In
 10
321.779808518126
 20
357.876320644171
 30
0.0
 42
-0.4142135623731
  0
VERTEX
  8
In
 10
322.795808518126
 20
356.860320644171
 30
0.0
 42
0.0
  0
VERTEX
  8
In
 10
322.795808518126
 20
340.350320644171
 30
0.0
 42
0.3056146845809
  0
VERTEX
  8
In
 10
323.748308518125
 20
338.937534834632
 30
0.0
 42
-0.3056146845809
  0
VERTEX
  8
In
 10
324.383308518126
 20
337.995677626771
 30
0.0
 42
0.0
  0
VERTEX
  8
In
 10
324.383308518126
 20
320.098963664111
 30
0.0
 42
-0.3056146845809
  0
VERTEX
  8
In
 10
323.748308518127
 20
319.157106455963
 30
0.0
 42
0.3056146845809
  0
VERTEX
  8
In
 10
322.795808518126
 20
317.744320644171
 30
0.0
 42
0.0
  0
VERTEX
  8
In
 10
322.795808518126
 20
300.894025170331
 30
0.0
 42
-0.2679491924311
  0
VERTEX
  8
In
 10
322.287808518126
 20
300.014143359538
 30
0.0
 42
0.2679491924311
  0
VERTEX
  8
In
 10
321.525808518126
 20
298.694320644171
 30
0.0
 42
0.0
  0
VERTEX
  8
In
 10
321.525808518126
 20
263.134320644171
 30
0.0
 42
-0.4141000373537
  0
SEQEND
  0
POLYLINE
  8
In
 66
     1
 10
0.0
 20
0.0
 30
0.0
 70
     9
  0
VERTEX
  8
In
 10
349.877817136107
 20
332.494661918326
 30
0.0
 42
0.0
  0
VERTEX
  8
In
 10
355.877817136107
 20
321.494661918326
 30
0.0
 42
0.0
  0
VERTEX
  8
In
 10
355.877817136107
 20
352.494661918326
 30
0.0
 42
0.0
  0
VERTEX
  8
In
 10
349.877817136107
 20
341.494661918326
 30
0.0
 42
0.0
  0
SEQEND
  0
POLYLINE
  8
In
 66
     1
 10
0.0
 20
0.0
 30
0.0
 70
     9
  0
VERTEX
  8
In
 10
349.877817136107
 20
289.494661918326
 30
0.0
 42
0.0
  0
VERTEX
  8
In
 10
355.877817136107
 20
305.494661918326
 30
0.0
 42
0.0
  0
VERTEX
  8
In
 10
355.877817136107
 20
267.494661918326
 30
0.0
 42
0.0
  0
VERTEX
  8
In
 10
349.877817136107
 20
282.494661918326
 30
0.0
 42
0.0
  0
SEQEND
  0
POLYLINE
  8
In
 66
     1
 10
0.0
 20
0.0
 30
0.0
 70
     1
  0
VERTEX
  8
In
 10
0.0
 20
0.0
 42
0.0
  0
VERTEX
  8
In
 10
360.0
 20
0.0
 42
0.0
  0
VERTEX
  8
In
 10
360.0
 20
420.0
 42
0.0
  0
VERTEX
  8
In
 10
0.0
 20
420.0
 42
0.0
  0
SEQEND
  0
ENDSEC
  0
EOF
