  0
SECTION
  2
HEADER
  9
$ACADVER
  1
AC1009
  9
$EXTMAX
 10
193.152450561523
 20
167.021911621094
 30
0.0
  9
$EXTMIN
 10
0.5716518163681
 20
0.1852144151926
 30
0.0
  9
$INSUNITS
 70
     4
  9
$LUNITS
 70
     2
  9
$LUPREC
 70
     4
  9
$MEASUREMENT
 70
     1
  0
ENDSEC
  0
SECTION
  2
TABLES
  0
TABLE
  2
LAYER
 70
     1
  0
LAYER
  2
0
 70
     0
 62
     7
  6
Continuous
  0
LAYER
  2
Switch
 70
     0
 62
    70
  6
Continuous
  0
LAYER
  2
In
 70
     0
 62
    70
  6
Continuous
  0
LAYER
  2
Out
 70
     0
 62
    70
  6
Continuous
  0
ENDTAB
  0
TABLE
  2
APPID
 70
     1
  0
APPID
  2
ACAD
 70
     0
  0
ENDTAB
  0
ENDSEC
  0
SECTION
  2
ENTITIES
  0
POLYLINE
  8
Switch
 66
     1
 10
0.0
 20
0.0
 30
0.0
 70
     9
  0
VERTEX
  8
Switch
 10
68.7744969254887
 20
80.4168123517349
 30
0.0
 42
0.0
  0
VERTEX
  8
Switch
 10
68.7744969254887
 20
81.3972523517349
 30
0.0
 42
0.0
  0
VERTEX
  8
Switch
 10
54.8044969254888
 20
81.3972523517349
 30
0.0
 42
0.0
  0
VERTEX
  8
Switch
 10
54.8044969254888
 20
80.4168123517349
 30
0.0
 42
0.0
  0
VERTEX
  8
Switch
 10
53.9916969254888
 20
80.4168123517349
 30
0.0
 42
0.0
  0
VERTEX
  8
Switch
 10
53.9916969254888
 20
76.9166923517349
 30
0.0
 42
0.0
  0
VERTEX
  8
Switch
 10
54.8044969254888
 20
76.9166923517349
 30
0.0
 42
0.0
  0
VERTEX
  8
Switch
 10
54.8044969254888
 20
71.9078123517349
 30
0.0
 42
0.0
  0
VERTEX
  8
Switch
 10
53.9916969254888
 20
71.9078123517349
 30
0.0
 42
0.0
  0
VERTEX
  8
Switch
 10
53.9916969254888
 20
68.4076923517349
 30
0.0
 42
0.0
  0
VERTEX
  8
Switch
 10
54.8044969254888
 20
68.4076923517349
 30
0.0
 42
0.0
  0
VERTEX
  8
Switch
 10
54.8044969254888
 20
67.4272523517349
 30
0.0
 42
0.0
  0
VERTEX
  8
Switch
 10
68.7744969254887
 20
67.4272523517349
 30
0.0
 42
0.0
  0
VERTEX
  8
Switch
 10
68.7744969254887
 20
68.4076923517349
 30
0.0
 42
0.0
  0
VERTEX
  8
Switch
 10
69.5872969254887
 20
68.4076923517349
 30
0.0
 42
0.0
  0
VERTEX
  8
Switch
 10
69.5872969254887
 20
71.9078123517349
 30
0.0
 42
0.0
  0
VERTEX
  8
Switch
 10
68.7744969254887
 20
71.9078123517349
 30
0.0
 42
0.0
  0
VERTEX
  8
Switch
 10
68.7744969254887
 20
76.9166923517349
 30
0.0
 42
0.0
  0
VERTEX
  8
Switch
 10
69.5872969254887
 20
76.9166923517349
 30
0.0
 42
0.0
  0
VERTEX
  8
Switch
 10
69.5872969254887
 20
80.4168123517349
 30
0.0
 42
0.0
  0
SEQEND
  0
POLYLINE
  8
Switch
 66
     1
 10
0.0
 20
0.0
 30
0.0
 70
     9
  0
VERTEX
  8
Switch
 10
73.8544969254887
 20
70.0053523517349
 30
0.0
 42
0.0
  0
VERTEX
  8
Switch
 10
73.8544969254887
 20
69.0249123517349
 30
0.0
 42
0.0
  0
VERTEX
  8
Switch
 10
87.8244969254887
 20
69.0249123517349
 30
0.0
 42
0.0
  0
VERTEX
  8
Switch
 10
87.8244969254887
 20
70.0053523517349
 30
0.0
 42
0.0
  0
VERTEX
  8
Switch
 10
88.6372969254887
 20
70.0053523517349
 30
0.0
 42
0.0
  0
VERTEX
  8
Switch
 10
88.6372969254887
 20
73.5054723517349
 30
0.0
 42
0.0
  0
VERTEX
  8
Switch
 10
87.8244969254887
 20
73.5054723517349
 30
0.0
 42
0.0
  0
VERTEX
  8
Switch
 10
87.8244969254887
 20
78.5143523517349
 30
0.0
 42
0.0
  0
VERTEX
  8
Switch
 10
88.6372969254887
 20
78.5143523517349
 30
0.0
 42
0.0
  0
VERTEX
  8
Switch
 10
88.6372969254887
 20
82.0144723517349
 30
0.0
 42
0.0
  0
VERTEX
  8
Switch
 10
87.8244969254887
 20
82.0144723517349
 30
0.0
 42
0.0
  0
VERTEX
  8
Switch
 10
87.8244969254887
 20
82.9949123517349
 30
0.0
 42
0.0
  0
VERTEX
  8
Switch
 10
73.8544969254887
 20
82.9949123517349
 30
0.0
 42
0.0
  0
VERTEX
  8
Switch
 10
73.8544969254887
 20
82.0144723517349
 30
0.0
 42
0.0
  0
VERTEX
  8
Switch
 10
73.0416969254887
 20
82.0144723517349
 30
0.0
 42
0.0
  0
VERTEX
  8
Switch
 10
73.0416969254887
 20
78.5143523517349
 30
0.0
 42
0.0
  0
VERTEX
  8
Switch
 10
73.8544969254887
 20
78.5143523517349
 30
0.0
 42
0.0
  0
VERTEX
  8
Switch
 10
73.8544969254887
 20
73.5054723517349
 30
0.0
 42
0.0
  0
VERTEX
  8
Switch
 10
73.0416969254887
 20
73.5054723517349
 30
0.0
 42
0.0
  0
VERTEX
  8
Switch
 10
73.0416969254887
 20
70.0053523517349
 30
0.0
 42
0.0
  0
SEQEND
  0
POLYLINE
  8
Switch
 66
     1
 10
0.0
 20
0.0
 30
0.0
 70
     9
  0
VERTEX
  8
Switch
 10
144.974496925489
 20
124.285152351735
 30
0.0
 42
0.0
  0
VERTEX
  8
Switch
 10
145.787296925489
 20
124.285152351735
 30
0.0
 42
0.0
  0
VERTEX
  8
Switch
 10
145.787296925489
 20
127.785272351735
 30
0.0
 42
0.0
  0
VERTEX
  8
Switch
 10
144.974496925489
 20
127.785272351735
 30
0.0
 42
0.0
  0
VERTEX
  8
Switch
 10
144.974496925489
 20
132.794152351735
 30
0.0
 42
0.0
  0
VERTEX
  8
Switch
 10
145.787296925489
 20
132.794152351735
 30
0.0
 42
0.0
  0
VERTEX
  8
Switch
 10
145.787296925489
 20
136.294272351735
 30
0.0
 42
0.0
  0
VERTEX
  8
Switch
 10
144.974496925489
 20
136.294272351735
 30
0.0
 42
0.0
  0
VERTEX
  8
Switch
 10
144.974496925489
 20
137.274712351735
 30
0.0
 42
0.0
  0
VERTEX
  8
Switch
 10
131.004496925489
 20
137.274712351735
 30
0.0
 42
0.0
  0
VERTEX
  8
Switch
 10
131.004496925489
 20
136.294272351735
 30
0.0
 42
0.0
  0
VERTEX
  8
Switch
 10
130.191696925489
 20
136.294272351735
 30
0.0
 42
0.0
  0
VERTEX
  8
Switch
 10
130.191696925489
 20
132.794152351735
 30
0.0
 42
0.0
  0
VERTEX
  8
Switch
 10
131.004496925489
 20
132.794152351735
 30
0.0
 42
0.0
  0
VERTEX
  8
Switch
 10
131.004496925489
 20
127.785272351735
 30
0.0
 42
0.0
  0
VERTEX
  8
Switch
 10
130.191696925489
 20
127.785272351735
 30
0.0
 42
0.0
  0
VERTEX
  8
Switch
 10
130.191696925489
 20
124.285152351735
 30
0.0
 42
0.0
  0
VERTEX
  8
Switch
 10
131.004496925489
 20
124.285152351735
 30
0.0
 42
0.0
  0
VERTEX
  8
Switch
 10
131.004496925489
 20
123.304712351735
 30
0.0
 42
0.0
  0
VERTEX
  8
Switch
 10
144.974496925489
 20
123.304712351735
 30
0.0
 42
0.0
  0
SEQEND
  0
POLYLINE
  8
Switch
 66
     1
 10
0.0
 20
0.0
 30
0.0
 70
     9
  0
VERTEX
  8
Switch
 10
106.874496925489
 20
137.566812351735
 30
0.0
 42
0.0
  0
VERTEX
  8
Switch
 10
106.874496925489
 20
138.547252351735
 30
0.0
 42
0.0
  0
VERTEX
  8
Switch
 10
92.9044969254887
 20
138.547252351735
 30
0.0
 42
0.0
  0
VERTEX
  8
Switch
 10
92.9044969254887
 20
137.566812351735
 30
0.0
 42
0.0
  0
VERTEX
  8
Switch
 10
92.0916969254887
 20
137.566812351735
 30
0.0
 42
0.0
  0
VERTEX
  8
Switch
 10
92.0916969254887
 20
134.066692351735
 30
0.0
 42
0.0
  0
VERTEX
  8
Switch
 10
92.9044969254887
 20
134.066692351735
 30
0.0
 42
0.0
  0
VERTEX
  8
Switch
 10
92.9044969254887
 20
129.057812351735
 30
0.0
 42
0.0
  0
VERTEX
  8
Switch
 10
92.0916969254887
 20
129.057812351735
 30
0.0
 42
0.0
  0
VERTEX
  8
Switch
 10
92.0916969254887
 20
125.557692351735
 30
0.0
 42
0.0
  0
VERTEX
  8
Switch
 10
92.9044969254887
 20
125.557692351735
 30
0.0
 42
0.0
  0
VERTEX
  8
Switch
 10
92.9044969254887
 20
124.577252351735
 30
0.0
 42
0.0
  0
VERTEX
  8
Switch
 10
106.874496925489
 20
124.577252351735
 30
0.0
 42
0.0
  0
VERTEX
  8
Switch
 10
106.874496925489
 20
125.557692351735
 30
0.0
 42
0.0
  0
VERTEX
  8
Switch
 10
107.687296925489
 20
125.557692351735
 30
0.0
 42
0.0
  0
VERTEX
  8
Switch
 10
107.687296925489
 20
129.057812351735
 30
0.0
 42
0.0
  0
VERTEX
  8
Switch
 10
106.874496925489
 20
129.057812351735
 30
0.0
 42
0.0
  0
VERTEX
  8
Switch
 10
106.874496925489
 20
134.066692351735
 30
0.0
 42
0.0
  0
VERTEX
  8
Switch
 10
107.687296925489
 20
134.066692351735
 30
0.0
 42
0.0
  0
VERTEX
  8
Switch
 10
107.687296925489
 20
137.566812351735
 30
0.0
 42
0.0
  0
SEQEND
  0
POLYLINE
  8
Switch
 66
     1
 10
0.0
 20
0.0
 30
0.0
 70
     9
  0
VERTEX
  8
Switch
 10
25.9119969254888
 20
96.2918123517349
 30
0.0
 42
0.0
  0
VERTEX
  8
Switch
 10
25.9119969254888
 20
97.2722523517349
 30
0.0
 42
0.0
  0
VERTEX
  8
Switch
 10
11.9419969254888
 20
97.2722523517349
 30
0.0
 42
0.0
  0
VERTEX
  8
Switch
 10
11.9419969254888
 20
96.2918123517349
 30
0.0
 42
0.0
  0
VERTEX
  8
Switch
 10
11.1291969254887
 20
96.2918123517349
 30
0.0
 42
0.0
  0
VERTEX
  8
Switch
 10
11.1291969254887
 20
92.7916923517349
 30
0.0
 42
0.0
  0
VERTEX
  8
Switch
 10
11.9419969254888
 20
92.7916923517349
 30
0.0
 42
0.0
  0
VERTEX
  8
Switch
 10
11.9419969254888
 20
87.7828123517349
 30
0.0
 42
0.0
  0
VERTEX
  8
Switch
 10
11.1291969254887
 20
87.7828123517349
 30
0.0
 42
0.0
  0
VERTEX
  8
Switch
 10
11.1291969254887
 20
84.2826923517349
 30
0.0
 42
0.0
  0
VERTEX
  8
Switch
 10
11.9419969254888
 20
84.2826923517349
 30
0.0
 42
0.0
  0
VERTEX
  8
Switch
 10
11.9419969254888
 20
83.3022523517349
 30
0.0
 42
0.0
  0
VERTEX
  8
Switch
 10
25.9119969254888
 20
83.3022523517349
 30
0.0
 42
0.0
  0
VERTEX
  8
Switch
 10
25.9119969254888
 20
84.2826923517349
 30
0.0
 42
0.0
  0
VERTEX
  8
Switch
 10
26.7247969254888
 20
84.2826923517349
 30
0.0
 42
0.0
  0
VERTEX
  8
Switch
 10
26.7247969254888
 20
87.7828123517349
 30
0.0
 42
0.0
  0
VERTEX
  8
Switch
 10
25.9119969254888
 20
87.7828123517349
 30
0.0
 42
0.0
  0
VERTEX
  8
Switch
 10
25.9119969254888
 20
92.7916923517349
 30
0.0
 42
0.0
  0
VERTEX
  8
Switch
 10
26.7247969254888
 20
92.7916923517349
 30
0.0
 42
0.0
  0
VERTEX
  8
Switch
 10
26.7247969254888
 20
96.2918123517349
 30
0.0
 42
0.0
  0
SEQEND
  0
POLYLINE
  8
Switch
 66
     1
 10
0.0
 20
0.0
 30
0.0
 70
     9
  0
VERTEX
  8
Switch
 10
68.7744969254887
 20
49.3576923517349
 30
0.0
 42
0.0
  0
VERTEX
  8
Switch
 10
69.5872969254888
 20
49.3576923517349
 30
0.0
 42
0.0
  0
VERTEX
  8
Switch
 10
69.5872969254888
 20
52.8578123517349
 30
0.0
 42
0.0
  0
VERTEX
  8
Switch
 10
68.7744969254887
 20
52.8578123517349
 30
0.0
 42
0.0
  0
VERTEX
  8
Switch
 10
68.7744969254887
 20
57.8666923517349
 30
0.0
 42
0.0
  0
VERTEX
  8
Switch
 10
69.5872969254887
 20
57.8666923517349
 30
0.0
 42
0.0
  0
VERTEX
  8
Switch
 10
69.5872969254887
 20
61.3668123517349
 30
0.0
 42
0.0
  0
VERTEX
  8
Switch
 10
68.7744969254887
 20
61.3668123517349
 30
0.0
 42
0.0
  0
VERTEX
  8
Switch
 10
68.7744969254887
 20
62.3472523517349
 30
0.0
 42
0.0
  0
VERTEX
  8
Switch
 10
54.8044969254888
 20
62.3472523517349
 30
0.0
 42
0.0
  0
VERTEX
  8
Switch
 10
54.8044969254888
 20
61.3668123517349
 30
0.0
 42
0.0
  0
VERTEX
  8
Switch
 10
53.9916969254888
 20
61.3668123517349
 30
0.0
 42
0.0
  0
VERTEX
  8
Switch
 10
53.9916969254888
 20
57.8666923517349
 30
0.0
 42
0.0
  0
VERTEX
  8
Switch
 10
54.8044969254888
 20
57.8666923517349
 30
0.0
 42
0.0
  0
VERTEX
  8
Switch
 10
54.8044969254888
 20
52.8578123517349
 30
0.0
 42
0.0
  0
VERTEX
  8
Switch
 10
53.9916969254888
 20
52.8578123517349
 30
0.0
 42
0.0
  0
VERTEX
  8
Switch
 10
53.9916969254888
 20
49.3576923517349
 30
0.0
 42
0.0
  0
VERTEX
  8
Switch
 10
54.8044969254888
 20
49.3576923517349
 30
0.0
 42
0.0
  0
VERTEX
  8
Switch
 10
54.8044969254888
 20
48.3772523517349
 30
0.0
 42
0.0
  0
VERTEX
  8
Switch
 10
68.7744969254887
 20
48.3772523517349
 30
0.0
 42
0.0
  0
SEQEND
  0
POLYLINE
  8
Switch
 66
     1
 10
0.0
 20
0.0
 30
0.0
 70
     9
  0
VERTEX
  8
Switch
 10
143.994056925489
 20
99.4947523517349
 30
0.0
 42
0.0
  0
VERTEX
  8
Switch
 10
144.974496925489
 20
99.4947523517349
 30
0.0
 42
0.0
  0
VERTEX
  8
Switch
 10
144.974496925489
 20
113.464752351735
 30
0.0
 42
0.0
  0
VERTEX
  8
Switch
 10
143.994056925489
 20
113.464752351735
 30
0.0
 42
0.0
  0
VERTEX
  8
Switch
 10
143.994056925489
 20
114.277552351735
 30
0.0
 42
0.0
  0
VERTEX
  8
Switch
 10
140.493936925489
 20
114.277552351735
 30
0.0
 42
0.0
  0
VERTEX
  8
Switch
 10
140.493936925489
 20
113.464752351735
 30
0.0
 42
0.0
  0
VERTEX
  8
Switch
 10
135.485056925489
 20
113.464752351735
 30
0.0
 42
0.0
  0
VERTEX
  8
Switch
 10
135.485056925489
 20
114.277552351735
 30
0.0
 42
0.0
  0
VERTEX
  8
Switch
 10
131.984936925489
 20
114.277552351735
 30
0.0
 42
0.0
  0
VERTEX
  8
Switch
 10
131.984936925489
 20
113.464752351735
 30
0.0
 42
0.0
  0
VERTEX
  8
Switch
 10
131.004496925489
 20
113.464752351735
 30
0.0
 42
0.0
  0
VERTEX
  8
Switch
 10
131.004496925489
 20
99.4947523517349
 30
0.0
 42
0.0
  0
VERTEX
  8
Switch
 10
131.984936925489
 20
99.4947523517349
 30
0.0
 42
0.0
  0
VERTEX
  8
Switch
 10
131.984936925489
 20
98.6819523517349
 30
0.0
 42
0.0
  0
VERTEX
  8
Switch
 10
135.485056925489
 20
98.6819523517349
 30
0.0
 42
0.0
  0
VERTEX
  8
Switch
 10
135.485056925489
 20
99.4947523517349
 30
0.0
 42
0.0
  0
VERTEX
  8
Switch
 10
140.493936925489
 20
99.4947523517349
 30
0.0
 42
0.0
  0
VERTEX
  8
Switch
 10
140.493936925489
 20
98.6819523517349
 30
0.0
 42
0.0
  0
VERTEX
  8
Switch
 10
143.994056925489
 20
98.6819523517349
 30
0.0
 42
0.0
  0
SEQEND
  0
POLYLINE
  8
Switch
 66
     1
 10
0.0
 20
0.0
 30
0.0
 70
     9
  0
VERTEX
  8
Switch
 10
106.874496925489
 20
80.4168123517349
 30
0.0
 42
0.0
  0
VERTEX
  8
Switch
 10
106.874496925489
 20
81.3972523517349
 30
0.0
 42
0.0
  0
VERTEX
  8
Switch
 10
92.9044969254887
 20
81.3972523517349
 30
0.0
 42
0.0
  0
VERTEX
  8
Switch
 10
92.9044969254887
 20
80.4168123517349
 30
0.0
 42
0.0
  0
VERTEX
  8
Switch
 10
92.0916969254887
 20
80.4168123517349
 30
0.0
 42
0.0
  0
VERTEX
  8
Switch
 10
92.0916969254887
 20
76.9166923517349
 30
0.0
 42
0.0
  0
VERTEX
  8
Switch
 10
92.9044969254887
 20
76.9166923517349
 30
0.0
 42
0.0
  0
VERTEX
  8
Switch
 10
92.9044969254887
 20
71.9078123517349
 30
0.0
 42
0.0
  0
VERTEX
  8
Switch
 10
92.0916969254887
 20
71.9078123517349
 30
0.0
 42
0.0
  0
VERTEX
  8
Switch
 10
92.0916969254887
 20
68.4076923517349
 30
0.0
 42
0.0
  0
VERTEX
  8
Switch
 10
92.9044969254887
 20
68.4076923517349
 30
0.0
 42
0.0
  0
VERTEX
  8
Switch
 10
92.9044969254887
 20
67.4272523517349
 30
0.0
 42
0.0
  0
VERTEX
  8
Switch
 10
106.874496925489
 20
67.4272523517349
 30
0.0
 42
0.0
  0
VERTEX
  8
Switch
 10
106.874496925489
 20
68.4076923517349
 30
0.0
 42
0.0
  0
VERTEX
  8
Switch
 10
107.687296925489
 20
68.4076923517349
 30
0.0
 42
0.0
  0
VERTEX
  8
Switch
 10
107.687296925489
 20
71.9078123517349
 30
0.0
 42
0.0
  0
VERTEX
  8
Switch
 10
106.874496925489
 20
71.9078123517349
 30
0.0
 42
0.0
  0
VERTEX
  8
Switch
 10
106.874496925489
 20
76.9166923517349
 30
0.0
 42
0.0
  0
VERTEX
  8
Switch
 10
107.687296925489
 20
76.9166923517349
 30
0.0
 42
0.0
  0
VERTEX
  8
Switch
 10
107.687296925489
 20
80.4168123517349
 30
0.0
 42
0.0
  0
SEQEND
  0
POLYLINE
  8
Switch
 66
     1
 10
0.0
 20
0.0
 30
0.0
 70
     9
  0
VERTEX
  8
Switch
 10
25.9119969254888
 20
77.2418123517349
 30
0.0
 42
0.0
  0
VERTEX
  8
Switch
 10
25.9119969254888
 20
78.2222523517349
 30
0.0
 42
0.0
  0
VERTEX
  8
Switch
 10
11.9419969254888
 20
78.2222523517349
 30
0.0
 42
0.0
  0
VERTEX
  8
Switch
 10
11.9419969254888
 20
77.2418123517349
 30
0.0
 42
0.0
  0
VERTEX
  8
Switch
 10
11.1291969254887
 20
77.2418123517349
 30
0.0
 42
0.0
  0
VERTEX
  8
Switch
 10
11.1291969254887
 20
73.7416923517349
 30
0.0
 42
0.0
  0
VERTEX
  8
Switch
 10
11.9419969254888
 20
73.7416923517349
 30
0.0
 42
0.0
  0
VERTEX
  8
Switch
 10
11.9419969254888
 20
68.7328123517349
 30
0.0
 42
0.0
  0
VERTEX
  8
Switch
 10
11.1291969254887
 20
68.7328123517349
 30
0.0
 42
0.0
  0
VERTEX
  8
Switch
 10
11.1291969254887
 20
65.2326923517349
 30
0.0
 42
0.0
  0
VERTEX
  8
Switch
 10
11.9419969254888
 20
65.2326923517349
 30
0.0
 42
0.0
  0
VERTEX
  8
Switch
 10
11.9419969254888
 20
64.2522523517349
 30
0.0
 42
0.0
  0
VERTEX
  8
Switch
 10
25.9119969254888
 20
64.2522523517349
 30
0.0
 42
0.0
  0
VERTEX
  8
Switch
 10
25.9119969254888
 20
65.2326923517349
 30
0.0
 42
0.0
  0
VERTEX
  8
Switch
 10
26.7247969254888
 20
65.2326923517349
 30
0.0
 42
0.0
  0
VERTEX
  8
Switch
 10
26.7247969254888
 20
68.7328123517349
 30
0.0
 42
0.0
  0
VERTEX
  8
Switch
 10
25.9119969254888
 20
68.7328123517349
 30
0.0
 42
0.0
  0
VERTEX
  8
Switch
 10
25.9119969254888
 20
73.7416923517349
 30
0.0
 42
0.0
  0
VERTEX
  8
Switch
 10
26.7247969254888
 20
73.7416923517349
 30
0.0
 42
0.0
  0
VERTEX
  8
Switch
 10
26.7247969254888
 20
77.2418123517349
 30
0.0
 42
0.0
  0
SEQEND
  0
POLYLINE
  8
Switch
 66
     1
 10
0.0
 20
0.0
 30
0.0
 70
     9
  0
VERTEX
  8
Switch
 10
25.9119969254888
 20
103.332692351735
 30
0.0
 42
0.0
  0
VERTEX
  8
Switch
 10
26.7247969254888
 20
103.332692351735
 30
0.0
 42
0.0
  0
VERTEX
  8
Switch
 10
26.7247969254888
 20
106.832812351735
 30
0.0
 42
0.0
  0
VERTEX
  8
Switch
 10
25.9119969254888
 20
106.832812351735
 30
0.0
 42
0.0
  0
VERTEX
  8
Switch
 10
25.9119969254888
 20
111.841692351735
 30
0.0
 42
0.0
  0
VERTEX
  8
Switch
 10
26.7247969254888
 20
111.841692351735
 30
0.0
 42
0.0
  0
VERTEX
  8
Switch
 10
26.7247969254887
 20
115.341812351735
 30
0.0
 42
0.0
  0
VERTEX
  8
Switch
 10
25.9119969254887
 20
115.341812351735
 30
0.0
 42
0.0
  0
VERTEX
  8
Switch
 10
25.9119969254887
 20
116.322252351735
 30
0.0
 42
0.0
  0
VERTEX
  8
Switch
 10
11.9419969254887
 20
116.322252351735
 30
0.0
 42
0.0
  0
VERTEX
  8
Switch
 10
11.9419969254887
 20
115.341812351735
 30
0.0
 42
0.0
  0
VERTEX
  8
Switch
 10
11.1291969254887
 20
115.341812351735
 30
0.0
 42
0.0
  0
VERTEX
  8
Switch
 10
11.1291969254887
 20
111.841692351735
 30
0.0
 42
0.0
  0
VERTEX
  8
Switch
 10
11.9419969254888
 20
111.841692351735
 30
0.0
 42
0.0
  0
VERTEX
  8
Switch
 10
11.9419969254888
 20
106.832812351735
 30
0.0
 42
0.0
  0
VERTEX
  8
Switch
 10
11.1291969254887
 20
106.832812351735
 30
0.0
 42
0.0
  0
VERTEX
  8
Switch
 10
11.1291969254887
 20
103.332692351735
 30
0.0
 42
0.0
  0
VERTEX
  8
Switch
 10
11.9419969254888
 20
103.332692351735
 30
0.0
 42
0.0
  0
VERTEX
  8
Switch
 10
11.9419969254888
 20
102.352252351735
 30
0.0
 42
0.0
  0
VERTEX
  8
Switch
 10
25.9119969254888
 20
102.352252351735
 30
0.0
 42
0.0
  0
SEQEND
  0
POLYLINE
  8
Switch
 66
     1
 10
0.0
 20
0.0
 30
0.0
 70
     9
  0
VERTEX
  8
Switch
 10
141.840136925489
 20
51.3668323517349
 30
0.0
 42
0.0
  0
VERTEX
  8
Switch
 10
129.180776925489
 20
57.2697923517349
 30
0.0
 42
0.0
  0
VERTEX
  8
Switch
 10
127.783776925489
 20
54.2776723517349
 30
0.0
 42
0.0
  0
VERTEX
  8
Switch
 10
140.445676925489
 20
48.3747123517349
 30
0.0
 42
0.0
  0
SEQEND
  0
POLYLINE
  8
Switch
 66
     1
 10
0.0
 20
0.0
 30
0.0
 70
     9
  0
VERTEX
  8
Switch
 10
117.694896925489
 20
32.6394123517349
 30
0.0
 42
0.0
  0
VERTEX
  8
Switch
 10
130.354256925489
 20
26.7339123517349
 30
0.0
 42
0.0
  0
VERTEX
  8
Switch
 10
131.751256925489
 20
29.7260323517349
 30
0.0
 42
0.0
  0
VERTEX
  8
Switch
 10
119.089356925489
 20
35.6315323517349
 30
0.0
 42
0.0
  0
SEQEND
  0
POLYLINE
  8
Switch
 66
     1
 10
0.0
 20
0.0
 30
0.0
 70
     9
  0
VERTEX
  8
Switch
 10
131.984936925489
 20
84.8897523517349
 30
0.0
 42
0.0
  0
VERTEX
  8
Switch
 10
131.004496925489
 20
84.8897523517349
 30
0.0
 42
0.0
  0
VERTEX
  8
Switch
 10
131.004496925489
 20
70.9197523517349
 30
0.0
 42
0.0
  0
VERTEX
  8
Switch
 10
131.984936925489
 20
70.9197523517349
 30
0.0
 42
0.0
  0
VERTEX
  8
Switch
 10
131.984936925489
 20
70.1069523517349
 30
0.0
 42
0.0
  0
VERTEX
  8
Switch
 10
135.485056925489
 20
70.1069523517349
 30
0.0
 42
0.0
  0
VERTEX
  8
Switch
 10
135.485056925489
 20
70.9197523517349
 30
0.0
 42
0.0
  0
VERTEX
  8
Switch
 10
140.493936925489
 20
70.9197523517349
 30
0.0
 42
0.0
  0
VERTEX
  8
Switch
 10
140.493936925489
 20
70.1069523517349
 30
0.0
 42
0.0
  0
VERTEX
  8
Switch
 10
143.994056925489
 20
70.1069523517349
 30
0.0
 42
0.0
  0
VERTEX
  8
Switch
 10
143.994056925489
 20
70.9197523517349
 30
0.0
 42
0.0
  0
VERTEX
  8
Switch
 10
144.974496925489
 20
70.9197523517349
 30
0.0
 42
0.0
  0
VERTEX
  8
Switch
 10
144.974496925489
 20
84.8897523517349
 30
0.0
 42
0.0
  0
VERTEX
  8
Switch
 10
143.994056925489
 20
84.8897523517349
 30
0.0
 42
0.0
  0
VERTEX
  8
Switch
 10
143.994056925489
 20
85.7025523517349
 30
0.0
 42
0.0
  0
VERTEX
  8
Switch
 10
140.493936925489
 20
85.7025523517349
 30
0.0
 42
0.0
  0
VERTEX
  8
Switch
 10
140.493936925489
 20
84.8897523517349
 30
0.0
 42
0.0
  0
VERTEX
  8
Switch
 10
135.485056925489
 20
84.8897523517349
 30
0.0
 42
0.0
  0
VERTEX
  8
Switch
 10
135.485056925489
 20
85.7025523517349
 30
0.0
 42
0.0
  0
VERTEX
  8
Switch
 10
131.984936925489
 20
85.7025523517349
 30
0.0
 42
0.0
  0
SEQEND
  0
POLYLINE
  8
Switch
 66
     1
 10
0.0
 20
0.0
 30
0.0
 70
     9
  0
VERTEX
  8
Switch
 10
49.7244969254888
 20
103.332692351735
 30
0.0
 42
0.0
  0
VERTEX
  8
Switch
 10
50.5372969254888
 20
103.332692351735
 30
0.0
 42
0.0
  0
VERTEX
  8
Switch
 10
50.5372969254888
 20
106.832812351735
 30
0.0
 42
0.0
  0
VERTEX
  8
Switch
 10
49.7244969254888
 20
106.832812351735
 30
0.0
 42
0.0
  0
VERTEX
  8
Switch
 10
49.7244969254888
 20
111.841692351735
 30
0.0
 42
0.0
  0
VERTEX
  8
Switch
 10
50.5372969254888
 20
111.841692351735
 30
0.0
 42
0.0
  0
VERTEX
  8
Switch
 10
50.5372969254887
 20
115.341812351735
 30
0.0
 42
0.0
  0
VERTEX
  8
Switch
 10
49.7244969254887
 20
115.341812351735
 30
0.0
 42
0.0
  0
VERTEX
  8
Switch
 10
49.7244969254887
 20
116.322252351735
 30
0.0
 42
0.0
  0
VERTEX
  8
Switch
 10
35.7544969254887
 20
116.322252351735
 30
0.0
 42
0.0
  0
VERTEX
  8
Switch
 10
35.7544969254887
 20
115.341812351735
 30
0.0
 42
0.0
  0
VERTEX
  8
Switch
 10
34.9416969254887
 20
115.341812351735
 30
0.0
 42
0.0
  0
VERTEX
  8
Switch
 10
34.9416969254887
 20
111.841692351735
 30
0.0
 42
0.0
  0
VERTEX
  8
Switch
 10
35.7544969254888
 20
111.841692351735
 30
0.0
 42
0.0
  0
VERTEX
  8
Switch
 10
35.7544969254888
 20
106.832812351735
 30
0.0
 42
0.0
  0
VERTEX
  8
Switch
 10
34.9416969254887
 20
106.832812351735
 30
0.0
 42
0.0
  0
VERTEX
  8
Switch
 10
34.9416969254887
 20
103.332692351735
 30
0.0
 42
0.0
  0
VERTEX
  8
Switch
 10
35.7544969254888
 20
103.332692351735
 30
0.0
 42
0.0
  0
VERTEX
  8
Switch
 10
35.7544969254888
 20
102.352252351735
 30
0.0
 42
0.0
  0
VERTEX
  8
Switch
 10
49.7244969254888
 20
102.352252351735
 30
0.0
 42
0.0
  0
SEQEND
  0
POLYLINE
  8
Switch
 66
     1
 10
0.0
 20
0.0
 30
0.0
 70
     9
  0
VERTEX
  8
Switch
 10
133.577516925489
 20
25.2302323517349
 30
0.0
 42
0.0
  0
VERTEX
  8
Switch
 10
146.236876925489
 20
19.3272723517349
 30
0.0
 42
0.0
  0
VERTEX
  8
Switch
 10
147.633876925489
 20
22.3193923517349
 30
0.0
 42
0.0
  0
VERTEX
  8
Switch
 10
134.971976925489
 20
28.2223523517349
 30
0.0
 42
0.0
  0
SEQEND
  0
POLYLINE
  8
Switch
 66
     1
 10
0.0
 20
0.0
 30
0.0
 70
     9
  0
VERTEX
  8
Switch
 10
157.722756925489
 20
43.9576523517349
 30
0.0
 42
0.0
  0
VERTEX
  8
Switch
 10
145.063396925489
 20
49.8631523517349
 30
0.0
 42
0.0
  0
VERTEX
  8
Switch
 10
143.666396925489
 20
46.8710323517349
 30
0.0
 42
0.0
  0
VERTEX
  8
Switch
 10
156.328296925489
 20
40.9655323517349
 30
0.0
 42
0.0
  0
SEQEND
  0
POLYLINE
  8
Switch
 66
     1
 10
0.0
 20
0.0
 30
0.0
 70
     9
  0
VERTEX
  8
Switch
 10
16.7044969254887
 20
46.1826923517349
 30
0.0
 42
0.0
  0
VERTEX
  8
Switch
 10
16.7044969254887
 20
45.2022523517349
 30
0.0
 42
0.0
  0
VERTEX
  8
Switch
 10
30.6744969254887
 20
45.2022523517349
 30
0.0
 42
0.0
  0
VERTEX
  8
Switch
 10
30.6744969254887
 20
46.1826923517349
 30
0.0
 42
0.0
  0
VERTEX
  8
Switch
 10
31.4872969254887
 20
46.1826923517349
 30
0.0
 42
0.0
  0
VERTEX
  8
Switch
 10
31.4872969254887
 20
49.6828123517349
 30
0.0
 42
0.0
  0
VERTEX
  8
Switch
 10
30.6744969254887
 20
49.6828123517349
 30
0.0
 42
0.0
  0
VERTEX
  8
Switch
 10
30.6744969254887
 20
54.6916923517349
 30
0.0
 42
0.0
  0
VERTEX
  8
Switch
 10
31.4872969254887
 20
54.6916923517349
 30
0.0
 42
0.0
  0
VERTEX
  8
Switch
 10
31.4872969254887
 20
58.1918123517349
 30
0.0
 42
0.0
  0
VERTEX
  8
Switch
 10
30.6744969254887
 20
58.1918123517349
 30
0.0
 42
0.0
  0
VERTEX
  8
Switch
 10
30.6744969254887
 20
59.1722523517349
 30
0.0
 42
0.0
  0
VERTEX
  8
Switch
 10
16.7044969254887
 20
59.1722523517349
 30
0.0
 42
0.0
  0
VERTEX
  8
Switch
 10
16.7044969254887
 20
58.1918123517349
 30
0.0
 42
0.0
  0
VERTEX
  8
Switch
 10
15.8916969254888
 20
58.1918123517349
 30
0.0
 42
0.0
  0
VERTEX
  8
Switch
 10
15.8916969254888
 20
54.6916923517349
 30
0.0
 42
0.0
  0
VERTEX
  8
Switch
 10
16.7044969254887
 20
54.6916923517349
 30
0.0
 42
0.0
  0
VERTEX
  8
Switch
 10
16.7044969254887
 20
49.6828123517349
 30
0.0
 42
0.0
  0
VERTEX
  8
Switch
 10
15.8916969254888
 20
49.6828123517349
 30
0.0
 42
0.0
  0
VERTEX
  8
Switch
 10
15.8916969254888
 20
46.1826923517349
 30
0.0
 42
0.0
  0
SEQEND
  0
POLYLINE
  8
Switch
 66
     1
 10
0.0
 20
0.0
 30
0.0
 70
     9
  0
VERTEX
  8
Switch
 10
73.8544969254887
 20
108.105352351735
 30
0.0
 42
0.0
  0
VERTEX
  8
Switch
 10
73.8544969254887
 20
107.124912351735
 30
0.0
 42
0.0
  0
VERTEX
  8
Switch
 10
87.8244969254887
 20
107.124912351735
 30
0.0
 42
0.0
  0
VERTEX
  8
Switch
 10
87.8244969254887
 20
108.105352351735
 30
0.0
 42
0.0
  0
VERTEX
  8
Switch
 10
88.6372969254887
 20
108.105352351735
 30
0.0
 42
0.0
  0
VERTEX
  8
Switch
 10
88.6372969254887
 20
111.605472351735
 30
0.0
 42
0.0
  0
VERTEX
  8
Switch
 10
87.8244969254887
 20
111.605472351735
 30
0.0
 42
0.0
  0
VERTEX
  8
Switch
 10
87.8244969254887
 20
116.614352351735
 30
0.0
 42
0.0
  0
VERTEX
  8
Switch
 10
88.6372969254887
 20
116.614352351735
 30
0.0
 42
0.0
  0
VERTEX
  8
Switch
 10
88.6372969254887
 20
120.114472351735
 30
0.0
 42
0.0
  0
VERTEX
  8
Switch
 10
87.8244969254887
 20
120.114472351735
 30
0.0
 42
0.0
  0
VERTEX
  8
Switch
 10
87.8244969254887
 20
121.094912351735
 30
0.0
 42
0.0
  0
VERTEX
  8
Switch
 10
73.8544969254887
 20
121.094912351735
 30
0.0
 42
0.0
  0
VERTEX
  8
Switch
 10
73.8544969254887
 20
120.114472351735
 30
0.0
 42
0.0
  0
VERTEX
  8
Switch
 10
73.0416969254887
 20
120.114472351735
 30
0.0
 42
0.0
  0
VERTEX
  8
Switch
 10
73.0416969254887
 20
116.614352351735
 30
0.0
 42
0.0
  0
VERTEX
  8
Switch
 10
73.8544969254887
 20
116.614352351735
 30
0.0
 42
0.0
  0
VERTEX
  8
Switch
 10
73.8544969254887
 20
111.605472351735
 30
0.0
 42
0.0
  0
VERTEX
  8
Switch
 10
73.0416969254887
 20
111.605472351735
 30
0.0
 42
0.0
  0
VERTEX
  8
Switch
 10
73.0416969254887
 20
108.105352351735
 30
0.0
 42
0.0
  0
SEQEND
  0
POLYLINE
  8
Switch
 66
     1
 10
0.0
 20
0.0
 30
0.0
 70
     9
  0
VERTEX
  8
Switch
 10
49.7244969254888
 20
58.1918123517349
 30
0.0
 42
0.0
  0
VERTEX
  8
Switch
 10
49.7244969254888
 20
59.1722523517349
 30
0.0
 42
0.0
  0
VERTEX
  8
Switch
 10
35.7544969254888
 20
59.1722523517349
 30
0.0
 42
0.0
  0
VERTEX
  8
Switch
 10
35.7544969254888
 20
58.1918123517349
 30
0.0
 42
0.0
  0
VERTEX
  8
Switch
 10
34.9416969254887
 20
58.1918123517349
 30
0.0
 42
0.0
  0
VERTEX
  8
Switch
 10
34.9416969254887
 20
54.6916923517349
 30
0.0
 42
0.0
  0
VERTEX
  8
Switch
 10
35.7544969254888
 20
54.6916923517349
 30
0.0
 42
0.0
  0
VERTEX
  8
Switch
 10
35.7544969254888
 20
49.6828123517349
 30
0.0
 42
0.0
  0
VERTEX
  8
Switch
 10
34.9416969254887
 20
49.6828123517349
 30
0.0
 42
0.0
  0
VERTEX
  8
Switch
 10
34.9416969254887
 20
46.1826923517349
 30
0.0
 42
0.0
  0
VERTEX
  8
Switch
 10
35.7544969254888
 20
46.1826923517349
 30
0.0
 42
0.0
  0
VERTEX
  8
Switch
 10
35.7544969254888
 20
45.2022523517349
 30
0.0
 42
0.0
  0
VERTEX
  8
Switch
 10
49.7244969254888
 20
45.2022523517349
 30
0.0
 42
0.0
  0
VERTEX
  8
Switch
 10
49.7244969254888
 20
46.1826923517349
 30
0.0
 42
0.0
  0
VERTEX
  8
Switch
 10
50.5372969254888
 20
46.1826923517349
 30
0.0
 42
0.0
  0
VERTEX
  8
Switch
 10
50.5372969254888
 20
49.6828123517349
 30
0.0
 42
0.0
  0
VERTEX
  8
Switch
 10
49.7244969254888
 20
49.6828123517349
 30
0.0
 42
0.0
  0
VERTEX
  8
Switch
 10
49.7244969254888
 20
54.6916923517349
 30
0.0
 42
0.0
  0
VERTEX
  8
Switch
 10
50.5372969254888
 20
54.6916923517349
 30
0.0
 42
0.0
  0
VERTEX
  8
Switch
 10
50.5372969254888
 20
58.1918123517349
 30
0.0
 42
0.0
  0
SEQEND
  0
POLYLINE
  8
Switch
 66
     1
 10
0.0
 20
0.0
 30
0.0
 70
     9
  0
VERTEX
  8
Switch
 10
73.8544969254888
 20
50.9553523517349
 30
0.0
 42
0.0
  0
VERTEX
  8
Switch
 10
73.8544969254888
 20
49.9749123517349
 30
0.0
 42
0.0
  0
VERTEX
  8
Switch
 10
87.8244969254887
 20
49.9749123517349
 30
0.0
 42
0.0
  0
VERTEX
  8
Switch
 10
87.8244969254887
 20
50.9553523517349
 30
0.0
 42
0.0
  0
VERTEX
  8
Switch
 10
88.6372969254887
 20
50.9553523517349
 30
0.0
 42
0.0
  0
VERTEX
  8
Switch
 10
88.6372969254887
 20
54.4554723517349
 30
0.0
 42
0.0
  0
VERTEX
  8
Switch
 10
87.8244969254887
 20
54.4554723517349
 30
0.0
 42
0.0
  0
VERTEX
  8
Switch
 10
87.8244969254887
 20
59.4643523517349
 30
0.0
 42
0.0
  0
VERTEX
  8
Switch
 10
88.6372969254887
 20
59.4643523517349
 30
0.0
 42
0.0
  0
VERTEX
  8
Switch
 10
88.6372969254887
 20
62.9644723517349
 30
0.0
 42
0.0
  0
VERTEX
  8
Switch
 10
87.8244969254887
 20
62.9644723517349
 30
0.0
 42
0.0
  0
VERTEX
  8
Switch
 10
87.8244969254887
 20
63.9449123517349
 30
0.0
 42
0.0
  0
VERTEX
  8
Switch
 10
73.8544969254887
 20
63.9449123517349
 30
0.0
 42
0.0
  0
VERTEX
  8
Switch
 10
73.8544969254887
 20
62.9644723517349
 30
0.0
 42
0.0
  0
VERTEX
  8
Switch
 10
73.0416969254887
 20
62.9644723517349
 30
0.0
 42
0.0
  0
VERTEX
  8
Switch
 10
73.0416969254887
 20
59.4643523517349
 30
0.0
 42
0.0
  0
VERTEX
  8
Switch
 10
73.8544969254887
 20
59.4643523517349
 30
0.0
 42
0.0
  0
VERTEX
  8
Switch
 10
73.8544969254888
 20
54.4554723517349
 30
0.0
 42
0.0
  0
VERTEX
  8
Switch
 10
73.0416969254887
 20
54.4554723517349
 30
0.0
 42
0.0
  0
VERTEX
  8
Switch
 10
73.0416969254887
 20
50.9553523517349
 30
0.0
 42
0.0
  0
SEQEND
  0
POLYLINE
  8
Switch
 66
     1
 10
0.0
 20
0.0
 30
0.0
 70
     9
  0
VERTEX
  8
Switch
 10
125.924496925489
 20
105.237692351735
 30
0.0
 42
0.0
  0
VERTEX
  8
Switch
 10
126.737296925489
 20
105.237692351735
 30
0.0
 42
0.0
  0
VERTEX
  8
Switch
 10
126.737296925489
 20
108.737812351735
 30
0.0
 42
0.0
  0
VERTEX
  8
Switch
 10
125.924496925489
 20
108.737812351735
 30
0.0
 42
0.0
  0
VERTEX
  8
Switch
 10
125.924496925489
 20
113.746692351735
 30
0.0
 42
0.0
  0
VERTEX
  8
Switch
 10
126.737296925489
 20
113.746692351735
 30
0.0
 42
0.0
  0
VERTEX
  8
Switch
 10
126.737296925489
 20
117.246812351735
 30
0.0
 42
0.0
  0
VERTEX
  8
Switch
 10
125.924496925489
 20
117.246812351735
 30
0.0
 42
0.0
  0
VERTEX
  8
Switch
 10
125.924496925489
 20
118.227252351735
 30
0.0
 42
0.0
  0
VERTEX
  8
Switch
 10
111.954496925489
 20
118.227252351735
 30
0.0
 42
0.0
  0
VERTEX
  8
Switch
 10
111.954496925489
 20
117.246812351735
 30
0.0
 42
0.0
  0
VERTEX
  8
Switch
 10
111.141696925489
 20
117.246812351735
 30
0.0
 42
0.0
  0
VERTEX
  8
Switch
 10
111.141696925489
 20
113.746692351735
 30
0.0
 42
0.0
  0
VERTEX
  8
Switch
 10
111.954496925489
 20
113.746692351735
 30
0.0
 42
0.0
  0
VERTEX
  8
Switch
 10
111.954496925489
 20
108.737812351735
 30
0.0
 42
0.0
  0
VERTEX
  8
Switch
 10
111.141696925489
 20
108.737812351735
 30
0.0
 42
0.0
  0
VERTEX
  8
Switch
 10
111.141696925489
 20
105.237692351735
 30
0.0
 42
0.0
  0
VERTEX
  8
Switch
 10
111.954496925489
 20
105.237692351735
 30
0.0
 42
0.0
  0
VERTEX
  8
Switch
 10
111.954496925489
 20
104.257252351735
 30
0.0
 42
0.0
  0
VERTEX
  8
Switch
 10
125.924496925489
 20
104.257252351735
 30
0.0
 42
0.0
  0
SEQEND
  0
POLYLINE
  8
Switch
 66
     1
 10
0.0
 20
0.0
 30
0.0
 70
     9
  0
VERTEX
  8
Switch
 10
106.874496925489
 20
118.516812351735
 30
0.0
 42
0.0
  0
VERTEX
  8
Switch
 10
106.874496925489
 20
119.497252351735
 30
0.0
 42
0.0
  0
VERTEX
  8
Switch
 10
92.9044969254887
 20
119.497252351735
 30
0.0
 42
0.0
  0
VERTEX
  8
Switch
 10
92.9044969254887
 20
118.516812351735
 30
0.0
 42
0.0
  0
VERTEX
  8
Switch
 10
92.0916969254887
 20
118.516812351735
 30
0.0
 42
0.0
  0
VERTEX
  8
Switch
 10
92.0916969254887
 20
115.016692351735
 30
0.0
 42
0.0
  0
VERTEX
  8
Switch
 10
92.9044969254887
 20
115.016692351735
 30
0.0
 42
0.0
  0
VERTEX
  8
Switch
 10
92.9044969254887
 20
110.007812351735
 30
0.0
 42
0.0
  0
VERTEX
  8
Switch
 10
92.0916969254887
 20
110.007812351735
 30
0.0
 42
0.0
  0
VERTEX
  8
Switch
 10
92.0916969254887
 20
106.507692351735
 30
0.0
 42
0.0
  0
VERTEX
  8
Switch
 10
92.9044969254887
 20
106.507692351735
 30
0.0
 42
0.0
  0
VERTEX
  8
Switch
 10
92.9044969254887
 20
105.527252351735
 30
0.0
 42
0.0
  0
VERTEX
  8
Switch
 10
106.874496925489
 20
105.527252351735
 30
0.0
 42
0.0
  0
VERTEX
  8
Switch
 10
106.874496925489
 20
106.507692351735
 30
0.0
 42
0.0
  0
VERTEX
  8
Switch
 10
107.687296925489
 20
106.507692351735
 30
0.0
 42
0.0
  0
VERTEX
  8
Switch
 10
107.687296925489
 20
110.007812351735
 30
0.0
 42
0.0
  0
VERTEX
  8
Switch
 10
106.874496925489
 20
110.007812351735
 30
0.0
 42
0.0
  0
VERTEX
  8
Switch
 10
106.874496925489
 20
115.016692351735
 30
0.0
 42
0.0
  0
VERTEX
  8
Switch
 10
107.687296925489
 20
115.016692351735
 30
0.0
 42
0.0
  0
VERTEX
  8
Switch
 10
107.687296925489
 20
118.516812351735
 30
0.0
 42
0.0
  0
SEQEND
  0
POLYLINE
  8
Switch
 66
     1
 10
0.0
 20
0.0
 30
0.0
 70
     9
  0
VERTEX
  8
Switch
 10
125.924496925489
 20
67.1376923517349
 30
0.0
 42
0.0
  0
VERTEX
  8
Switch
 10
126.737296925489
 20
67.1376923517349
 30
0.0
 42
0.0
  0
VERTEX
  8
Switch
 10
126.737296925489
 20
70.6378123517349
 30
0.0
 42
0.0
  0
VERTEX
  8
Switch
 10
125.924496925489
 20
70.6378123517349
 30
0.0
 42
0.0
  0
VERTEX
  8
Switch
 10
125.924496925489
 20
75.6466923517349
 30
0.0
 42
0.0
  0
VERTEX
  8
Switch
 10
126.737296925489
 20
75.6466923517349
 30
0.0
 42
0.0
  0
VERTEX
  8
Switch
 10
126.737296925489
 20
79.1468123517349
 30
0.0
 42
0.0
  0
VERTEX
  8
Switch
 10
125.924496925489
 20
79.1468123517349
 30
0.0
 42
0.0
  0
VERTEX
  8
Switch
 10
125.924496925489
 20
80.1272523517349
 30
0.0
 42
0.0
  0
VERTEX
  8
Switch
 10
111.954496925489
 20
80.1272523517349
 30
0.0
 42
0.0
  0
VERTEX
  8
Switch
 10
111.954496925489
 20
79.1468123517349
 30
0.0
 42
0.0
  0
VERTEX
  8
Switch
 10
111.141696925489
 20
79.1468123517349
 30
0.0
 42
0.0
  0
VERTEX
  8
Switch
 10
111.141696925489
 20
75.6466923517349
 30
0.0
 42
0.0
  0
VERTEX
  8
Switch
 10
111.954496925489
 20
75.6466923517349
 30
0.0
 42
0.0
  0
VERTEX
  8
Switch
 10
111.954496925489
 20
70.6378123517349
 30
0.0
 42
0.0
  0
VERTEX
  8
Switch
 10
111.141696925489
 20
70.6378123517349
 30
0.0
 42
0.0
  0
VERTEX
  8
Switch
 10
111.141696925489
 20
67.1376923517349
 30
0.0
 42
0.0
  0
VERTEX
  8
Switch
 10
111.954496925489
 20
67.1376923517349
 30
0.0
 42
0.0
  0
VERTEX
  8
Switch
 10
111.954496925489
 20
66.1572523517349
 30
0.0
 42
0.0
  0
VERTEX
  8
Switch
 10
125.924496925489
 20
66.1572523517349
 30
0.0
 42
0.0
  0
SEQEND
  0
POLYLINE
  8
Switch
 66
     1
 10
0.0
 20
0.0
 30
0.0
 70
     9
  0
VERTEX
  8
Switch
 10
171.423516925489
 20
26.4621323517349
 30
0.0
 42
0.0
  0
VERTEX
  8
Switch
 10
172.160116925489
 20
26.1192323517349
 30
0.0
 42
0.0
  0
VERTEX
  8
Switch
 10
173.640936925489
 20
29.2916923517349
 30
0.0
 42
0.0
  0
VERTEX
  8
Switch
 10
172.904336925489
 20
29.6345923517349
 30
0.0
 42
0.0
  0
VERTEX
  8
Switch
 10
175.020156925489
 20
34.1735723517349
 30
0.0
 42
0.0
  0
VERTEX
  8
Switch
 10
175.756756925489
 20
33.8306723517349
 30
0.0
 42
0.0
  0
VERTEX
  8
Switch
 10
177.235036925489
 20
37.0031323517349
 30
0.0
 42
0.0
  0
VERTEX
  8
Switch
 10
176.498436925489
 20
37.3460323517349
 30
0.0
 42
0.0
  0
VERTEX
  8
Switch
 10
176.914996925489
 20
38.2350323517349
 30
0.0
 42
0.0
  0
VERTEX
  8
Switch
 10
164.253096925489
 20
44.1405323517349
 30
0.0
 42
0.0
  0
VERTEX
  8
Switch
 10
163.839076925489
 20
43.2515323517349
 30
0.0
 42
0.0
  0
VERTEX
  8
Switch
 10
163.102476925489
 20
43.5944323517349
 30
0.0
 42
0.0
  0
VERTEX
  8
Switch
 10
161.621656925489
 20
40.4219723517349
 30
0.0
 42
0.0
  0
VERTEX
  8
Switch
 10
162.358256925489
 20
40.0790723517349
 30
0.0
 42
0.0
  0
VERTEX
  8
Switch
 10
160.242436925489
 20
35.5400923517349
 30
0.0
 42
0.0
  0
VERTEX
  8
Switch
 10
159.505836925489
 20
35.8829923517349
 30
0.0
 42
0.0
  0
VERTEX
  8
Switch
 10
158.027556925489
 20
32.7105323517349
 30
0.0
 42
0.0
  0
VERTEX
  8
Switch
 10
158.764156925489
 20
32.3676323517349
 30
0.0
 42
0.0
  0
VERTEX
  8
Switch
 10
158.347596925489
 20
31.4786323517349
 30
0.0
 42
0.0
  0
VERTEX
  8
Switch
 10
171.009496925489
 20
25.5731323517349
 30
0.0
 42
0.0
  0
SEQEND
  0
POLYLINE
  8
Switch
 66
     1
 10
0.0
 20
0.0
 30
0.0
 70
     9
  0
VERTEX
  8
Switch
 10
106.874496925489
 20
49.3576923517349
 30
0.0
 42
0.0
  0
VERTEX
  8
Switch
 10
107.687296925489
 20
49.3576923517349
 30
0.0
 42
0.0
  0
VERTEX
  8
Switch
 10
107.687296925489
 20
52.8578123517349
 30
0.0
 42
0.0
  0
VERTEX
  8
Switch
 10
106.874496925489
 20
52.8578123517349
 30
0.0
 42
0.0
  0
VERTEX
  8
Switch
 10
106.874496925489
 20
57.8666923517349
 30
0.0
 42
0.0
  0
VERTEX
  8
Switch
 10
107.687296925489
 20
57.8666923517349
 30
0.0
 42
0.0
  0
VERTEX
  8
Switch
 10
107.687296925489
 20
61.3668123517349
 30
0.0
 42
0.0
  0
VERTEX
  8
Switch
 10
106.874496925489
 20
61.3668123517349
 30
0.0
 42
0.0
  0
VERTEX
  8
Switch
 10
106.874496925489
 20
62.3472523517349
 30
0.0
 42
0.0
  0
VERTEX
  8
Switch
 10
92.9044969254887
 20
62.3472523517349
 30
0.0
 42
0.0
  0
VERTEX
  8
Switch
 10
92.9044969254887
 20
61.3668123517349
 30
0.0
 42
0.0
  0
VERTEX
  8
Switch
 10
92.0916969254887
 20
61.3668123517349
 30
0.0
 42
0.0
  0
VERTEX
  8
Switch
 10
92.0916969254887
 20
57.8666923517349
 30
0.0
 42
0.0
  0
VERTEX
  8
Switch
 10
92.9044969254887
 20
57.8666923517349
 30
0.0
 42
0.0
  0
VERTEX
  8
Switch
 10
92.9044969254887
 20
52.8578123517349
 30
0.0
 42
0.0
  0
VERTEX
  8
Switch
 10
92.0916969254887
 20
52.8578123517349
 30
0.0
 42
0.0
  0
VERTEX
  8
Switch
 10
92.0916969254887
 20
49.3576923517349
 30
0.0
 42
0.0
  0
VERTEX
  8
Switch
 10
92.9044969254887
 20
49.3576923517349
 30
0.0
 42
0.0
  0
VERTEX
  8
Switch
 10
92.9044969254887
 20
48.3772523517349
 30
0.0
 42
0.0
  0
VERTEX
  8
Switch
 10
106.874496925489
 20
48.3772523517349
 30
0.0
 42
0.0
  0
SEQEND
  0
POLYLINE
  8
Switch
 66
     1
 10
0.0
 20
0.0
 30
0.0
 70
     9
  0
VERTEX
  8
Switch
 10
49.7244969254888
 20
96.2918123517349
 30
0.0
 42
0.0
  0
VERTEX
  8
Switch
 10
49.7244969254888
 20
97.2722523517349
 30
0.0
 42
0.0
  0
VERTEX
  8
Switch
 10
35.7544969254888
 20
97.2722523517349
 30
0.0
 42
0.0
  0
VERTEX
  8
Switch
 10
35.7544969254888
 20
96.2918123517349
 30
0.0
 42
0.0
  0
VERTEX
  8
Switch
 10
34.9416969254887
 20
96.2918123517349
 30
0.0
 42
0.0
  0
VERTEX
  8
Switch
 10
34.9416969254887
 20
92.7916923517349
 30
0.0
 42
0.0
  0
VERTEX
  8
Switch
 10
35.7544969254888
 20
92.7916923517349
 30
0.0
 42
0.0
  0
VERTEX
  8
Switch
 10
35.7544969254888
 20
87.7828123517349
 30
0.0
 42
0.0
  0
VERTEX
  8
Switch
 10
34.9416969254887
 20
87.7828123517349
 30
0.0
 42
0.0
  0
VERTEX
  8
Switch
 10
34.9416969254887
 20
84.2826923517349
 30
0.0
 42
0.0
  0
VERTEX
  8
Switch
 10
35.7544969254888
 20
84.2826923517349
 30
0.0
 42
0.0
  0
VERTEX
  8
Switch
 10
35.7544969254888
 20
83.3022523517349
 30
0.0
 42
0.0
  0
VERTEX
  8
Switch
 10
49.7244969254888
 20
83.3022523517349
 30
0.0
 42
0.0
  0
VERTEX
  8
Switch
 10
49.7244969254888
 20
84.2826923517349
 30
0.0
 42
0.0
  0
VERTEX
  8
Switch
 10
50.5372969254888
 20
84.2826923517349
 30
0.0
 42
0.0
  0
VERTEX
  8
Switch
 10
50.5372969254888
 20
87.7828123517349
 30
0.0
 42
0.0
  0
VERTEX
  8
Switch
 10
49.7244969254888
 20
87.7828123517349
 30
0.0
 42
0.0
  0
VERTEX
  8
Switch
 10
49.7244969254888
 20
92.7916923517349
 30
0.0
 42
0.0
  0
VERTEX
  8
Switch
 10
50.5372969254888
 20
92.7916923517349
 30
0.0
 42
0.0
  0
VERTEX
  8
Switch
 10
50.5372969254888
 20
96.2918123517349
 30
0.0
 42
0.0
  0
SEQEND
  0
POLYLINE
  8
Switch
 66
     1
 10
0.0
 20
0.0
 30
0.0
 70
     9
  0
VERTEX
  8
Switch
 10
137.471336925489
 20
46.1166523517349
 30
0.0
 42
0.0
  0
VERTEX
  8
Switch
 10
137.814236925489
 20
46.8532523517349
 30
0.0
 42
0.0
  0
VERTEX
  8
Switch
 10
134.641776925489
 20
48.3340723517349
 30
0.0
 42
0.0
  0
VERTEX
  8
Switch
 10
134.298876925489
 20
47.5974723517349
 30
0.0
 42
0.0
  0
VERTEX
  8
Switch
 10
129.759896925489
 20
49.7132923517349
 30
0.0
 42
0.0
  0
VERTEX
  8
Switch
 10
130.102796925489
 20
50.4498923517349
 30
0.0
 42
0.0
  0
VERTEX
  8
Switch
 10
126.930336925489
 20
51.9281723517349
 30
0.0
 42
0.0
  0
VERTEX
  8
Switch
 10
126.587436925489
 20
51.1915723517349
 30
0.0
 42
0.0
  0
VERTEX
  8
Switch
 10
125.698436925489
 20
51.6081323517349
 30
0.0
 42
0.0
  0
VERTEX
  8
Switch
 10
119.792936925489
 20
38.9462323517349
 30
0.0
 42
0.0
  0
VERTEX
  8
Switch
 10
120.681936925489
 20
38.5322123517349
 30
0.0
 42
0.0
  0
VERTEX
  8
Switch
 10
120.339036925489
 20
37.7956123517349
 30
0.0
 42
0.0
  0
VERTEX
  8
Switch
 10
123.511496925489
 20
36.3147923517349
 30
0.0
 42
0.0
  0
VERTEX
  8
Switch
 10
123.854396925489
 20
37.0513923517349
 30
0.0
 42
0.0
  0
VERTEX
  8
Switch
 10
128.393376925489
 20
34.9355723517349
 30
0.0
 42
0.0
  0
VERTEX
  8
Switch
 10
128.050476925489
 20
34.1989723517349
 30
0.0
 42
0.0
  0
VERTEX
  8
Switch
 10
131.222936925489
 20
32.7206923517349
 30
0.0
 42
0.0
  0
VERTEX
  8
Switch
 10
131.565836925489
 20
33.4572923517349
 30
0.0
 42
0.0
  0
VERTEX
  8
Switch
 10
132.454836925489
 20
33.0407323517349
 30
0.0
 42
0.0
  0
VERTEX
  8
Switch
 10
138.360336925489
 20
45.7026323517349
 30
0.0
 42
0.0
  0
SEQEND
  0
POLYLINE
  8
Switch
 66
     1
 10
0.0
 20
0.0
 30
0.0
 70
     9
  0
VERTEX
  8
Switch
 10
163.371716925489
 20
9.1952123517349
 30
0.0
 42
0.0
  0
VERTEX
  8
Switch
 10
164.108316925489
 20
8.8523123517349
 30
0.0
 42
0.0
  0
VERTEX
  8
Switch
 10
165.589136925489
 20
12.0247723517349
 30
0.0
 42
0.0
  0
VERTEX
  8
Switch
 10
164.852536925489
 20
12.3676723517349
 30
0.0
 42
0.0
  0
VERTEX
  8
Switch
 10
166.968356925489
 20
16.9066523517349
 30
0.0
 42
0.0
  0
VERTEX
  8
Switch
 10
167.704956925489
 20
16.5637523517349
 30
0.0
 42
0.0
  0
VERTEX
  8
Switch
 10
169.183236925489
 20
19.7362123517349
 30
0.0
 42
0.0
  0
VERTEX
  8
Switch
 10
168.446636925489
 20
20.0791123517349
 30
0.0
 42
0.0
  0
VERTEX
  8
Switch
 10
168.863196925489
 20
20.9681123517349
 30
0.0
 42
0.0
  0
VERTEX
  8
Switch
 10
156.201296925489
 20
26.8736123517349
 30
0.0
 42
0.0
  0
VERTEX
  8
Switch
 10
155.787276925489
 20
25.9846123517349
 30
0.0
 42
0.0
  0
VERTEX
  8
Switch
 10
155.050676925489
 20
26.3275123517349
 30
0.0
 42
0.0
  0
VERTEX
  8
Switch
 10
153.569856925489
 20
23.1550523517349
 30
0.0
 42
0.0
  0
VERTEX
  8
Switch
 10
154.306456925489
 20
22.8121523517349
 30
0.0
 42
0.0
  0
VERTEX
  8
Switch
 10
152.190636925489
 20
18.2731723517349
 30
0.0
 42
0.0
  0
VERTEX
  8
Switch
 10
151.454036925489
 20
18.6160723517349
 30
0.0
 42
0.0
  0
VERTEX
  8
Switch
 10
149.975756925489
 20
15.4436123517349
 30
0.0
 42
0.0
  0
VERTEX
  8
Switch
 10
150.712356925489
 20
15.1007123517349
 30
0.0
 42
0.0
  0
VERTEX
  8
Switch
 10
150.295796925489
 20
14.2117123517349
 30
0.0
 42
0.0
  0
VERTEX
  8
Switch
 10
162.957696925489
 20
8.3062123517349
 30
0.0
 42
0.0
  0
SEQEND
  0
POLYLINE
  8
Switch
 66
     1
 10
0.0
 20
0.0
 30
0.0
 70
     9
  0
VERTEX
  8
Switch
 10
68.7744969254887
 20
99.4668123517349
 30
0.0
 42
0.0
  0
VERTEX
  8
Switch
 10
68.7744969254887
 20
100.447252351735
 30
0.0
 42
0.0
  0
VERTEX
  8
Switch
 10
54.8044969254888
 20
100.447252351735
 30
0.0
 42
0.0
  0
VERTEX
  8
Switch
 10
54.8044969254888
 20
99.4668123517349
 30
0.0
 42
0.0
  0
VERTEX
  8
Switch
 10
53.9916969254888
 20
99.4668123517349
 30
0.0
 42
0.0
  0
VERTEX
  8
Switch
 10
53.9916969254888
 20
95.9666923517349
 30
0.0
 42
0.0
  0
VERTEX
  8
Switch
 10
54.8044969254888
 20
95.9666923517349
 30
0.0
 42
0.0
  0
VERTEX
  8
Switch
 10
54.8044969254888
 20
90.9578123517349
 30
0.0
 42
0.0
  0
VERTEX
  8
Switch
 10
53.9916969254888
 20
90.9578123517349
 30
0.0
 42
0.0
  0
VERTEX
  8
Switch
 10
53.9916969254888
 20
87.4576923517349
 30
0.0
 42
0.0
  0
VERTEX
  8
Switch
 10
54.8044969254888
 20
87.4576923517349
 30
0.0
 42
0.0
  0
VERTEX
  8
Switch
 10
54.8044969254888
 20
86.4772523517349
 30
0.0
 42
0.0
  0
VERTEX
  8
Switch
 10
68.7744969254887
 20
86.4772523517349
 30
0.0
 42
0.0
  0
VERTEX
  8
Switch
 10
68.7744969254887
 20
87.4576923517349
 30
0.0
 42
0.0
  0
VERTEX
  8
Switch
 10
69.5872969254887
 20
87.4576923517349
 30
0.0
 42
0.0
  0
VERTEX
  8
Switch
 10
69.5872969254887
 20
90.9578123517349
 30
0.0
 42
0.0
  0
VERTEX
  8
Switch
 10
68.7744969254887
 20
90.9578123517349
 30
0.0
 42
0.0
  0
VERTEX
  8
Switch
 10
68.7744969254887
 20
95.9666923517349
 30
0.0
 42
0.0
  0
VERTEX
  8
Switch
 10
69.5872969254887
 20
95.9666923517349
 30
0.0
 42
0.0
  0
VERTEX
  8
Switch
 10
69.5872969254887
 20
99.4668123517349
 30
0.0
 42
0.0
  0
SEQEND
  0
POLYLINE
  8
Switch
 66
     1
 10
0.0
 20
0.0
 30
0.0
 70
     9
  0
VERTEX
  8
Switch
 10
171.888336925489
 20
60.5159123517349
 30
0.0
 42
0.0
  0
VERTEX
  8
Switch
 10
171.151736925489
 20
60.8588123517349
 30
0.0
 42
0.0
  0
VERTEX
  8
Switch
 10
169.670916925489
 20
57.6863523517349
 30
0.0
 42
0.0
  0
VERTEX
  8
Switch
 10
170.407516925489
 20
57.3434523517349
 30
0.0
 42
0.0
  0
VERTEX
  8
Switch
 10
168.291696925489
 20
52.8044723517349
 30
0.0
 42
0.0
  0
VERTEX
  8
Switch
 10
167.555096925489
 20
53.1473723517349
 30
0.0
 42
0.0
  0
VERTEX
  8
Switch
 10
166.076816925489
 20
49.9749123517349
 30
0.0
 42
0.0
  0
VERTEX
  8
Switch
 10
166.813416925489
 20
49.6320123517349
 30
0.0
 42
0.0
  0
VERTEX
  8
Switch
 10
166.396856925489
 20
48.7430123517349
 30
0.0
 42
0.0
  0
VERTEX
  8
Switch
 10
179.058756925489
 20
42.8375123517349
 30
0.0
 42
0.0
  0
VERTEX
  8
Switch
 10
179.472776925489
 20
43.7265123517349
 30
0.0
 42
0.0
  0
VERTEX
  8
Switch
 10
180.209376925489
 20
43.3836123517349
 30
0.0
 42
0.0
  0
VERTEX
  8
Switch
 10
181.690196925489
 20
46.5560723517349
 30
0.0
 42
0.0
  0
VERTEX
  8
Switch
 10
180.953596925489
 20
46.8989723517349
 30
0.0
 42
0.0
  0
VERTEX
  8
Switch
 10
183.069416925489
 20
51.4379523517349
 30
0.0
 42
0.0
  0
VERTEX
  8
Switch
 10
183.806016925489
 20
51.0950523517349
 30
0.0
 42
0.0
  0
VERTEX
  8
Switch
 10
185.284296925489
 20
54.2675123517349
 30
0.0
 42
0.0
  0
VERTEX
  8
Switch
 10
184.547696925489
 20
54.6104123517349
 30
0.0
 42
0.0
  0
VERTEX
  8
Switch
 10
184.964256925489
 20
55.4994123517349
 30
0.0
 42
0.0
  0
VERTEX
  8
Switch
 10
172.302356925489
 20
61.4049123517349
 30
0.0
 42
0.0
  0
SEQEND
  0
POLYLINE
  8
Switch
 66
     1
 10
0.0
 20
0.0
 30
0.0
 70
     9
  0
VERTEX
  8
Switch
 10
73.8544969254887
 20
101.064472351735
 30
0.0
 42
0.0
  0
VERTEX
  8
Switch
 10
73.0416969254887
 20
101.064472351735
 30
0.0
 42
0.0
  0
VERTEX
  8
Switch
 10
73.0416969254887
 20
97.5643523517349
 30
0.0
 42
0.0
  0
VERTEX
  8
Switch
 10
73.8544969254887
 20
97.5643523517349
 30
0.0
 42
0.0
  0
VERTEX
  8
Switch
 10
73.8544969254887
 20
92.5554723517349
 30
0.0
 42
0.0
  0
VERTEX
  8
Switch
 10
73.0416969254887
 20
92.5554723517349
 30
0.0
 42
0.0
  0
VERTEX
  8
Switch
 10
73.0416969254887
 20
89.0553523517349
 30
0.0
 42
0.0
  0
VERTEX
  8
Switch
 10
73.8544969254887
 20
89.0553523517349
 30
0.0
 42
0.0
  0
VERTEX
  8
Switch
 10
73.8544969254887
 20
88.0749123517349
 30
0.0
 42
0.0
  0
VERTEX
  8
Switch
 10
87.8244969254887
 20
88.0749123517349
 30
0.0
 42
0.0
  0
VERTEX
  8
Switch
 10
87.8244969254887
 20
89.0553523517349
 30
0.0
 42
0.0
  0
VERTEX
  8
Switch
 10
88.6372969254887
 20
89.0553523517349
 30
0.0
 42
0.0
  0
VERTEX
  8
Switch
 10
88.6372969254887
 20
92.5554723517349
 30
0.0
 42
0.0
  0
VERTEX
  8
Switch
 10
87.8244969254887
 20
92.5554723517349
 30
0.0
 42
0.0
  0
VERTEX
  8
Switch
 10
87.8244969254887
 20
97.5643523517349
 30
0.0
 42
0.0
  0
VERTEX
  8
Switch
 10
88.6372969254887
 20
97.5643523517349
 30
0.0
 42
0.0
  0
VERTEX
  8
Switch
 10
88.6372969254887
 20
101.064472351735
 30
0.0
 42
0.0
  0
VERTEX
  8
Switch
 10
87.8244969254887
 20
101.064472351735
 30
0.0
 42
0.0
  0
VERTEX
  8
Switch
 10
87.8244969254887
 20
102.044912351735
 30
0.0
 42
0.0
  0
VERTEX
  8
Switch
 10
73.8544969254887
 20
102.044912351735
 30
0.0
 42
0.0
  0
SEQEND
  0
POLYLINE
  8
Switch
 66
     1
 10
0.0
 20
0.0
 30
0.0
 70
     9
  0
VERTEX
  8
Switch
 10
106.874496925489
 20
99.4668123517349
 30
0.0
 42
0.0
  0
VERTEX
  8
Switch
 10
106.874496925489
 20
100.447252351735
 30
0.0
 42
0.0
  0
VERTEX
  8
Switch
 10
92.9044969254887
 20
100.447252351735
 30
0.0
 42
0.0
  0
VERTEX
  8
Switch
 10
92.9044969254887
 20
99.4668123517349
 30
0.0
 42
0.0
  0
VERTEX
  8
Switch
 10
92.0916969254887
 20
99.4668123517349
 30
0.0
 42
0.0
  0
VERTEX
  8
Switch
 10
92.0916969254887
 20
95.9666923517349
 30
0.0
 42
0.0
  0
VERTEX
  8
Switch
 10
92.9044969254887
 20
95.9666923517349
 30
0.0
 42
0.0
  0
VERTEX
  8
Switch
 10
92.9044969254887
 20
90.9578123517349
 30
0.0
 42
0.0
  0
VERTEX
  8
Switch
 10
92.0916969254887
 20
90.9578123517349
 30
0.0
 42
0.0
  0
VERTEX
  8
Switch
 10
92.0916969254887
 20
87.4576923517349
 30
0.0
 42
0.0
  0
VERTEX
  8
Switch
 10
92.9044969254887
 20
87.4576923517349
 30
0.0
 42
0.0
  0
VERTEX
  8
Switch
 10
92.9044969254887
 20
86.4772523517349
 30
0.0
 42
0.0
  0
VERTEX
  8
Switch
 10
106.874496925489
 20
86.4772523517349
 30
0.0
 42
0.0
  0
VERTEX
  8
Switch
 10
106.874496925489
 20
87.4576923517349
 30
0.0
 42
0.0
  0
VERTEX
  8
Switch
 10
107.687296925489
 20
87.4576923517349
 30
0.0
 42
0.0
  0
VERTEX
  8
Switch
 10
107.687296925489
 20
90.9578123517349
 30
0.0
 42
0.0
  0
VERTEX
  8
Switch
 10
106.874496925489
 20
90.9578123517349
 30
0.0
 42
0.0
  0
VERTEX
  8
Switch
 10
106.874496925489
 20
95.9666923517349
 30
0.0
 42
0.0
  0
VERTEX
  8
Switch
 10
107.687296925489
 20
95.9666923517349
 30
0.0
 42
0.0
  0
VERTEX
  8
Switch
 10
107.687296925489
 20
99.4668123517349
 30
0.0
 42
0.0
  0
SEQEND
  0
POLYLINE
  8
Switch
 66
     1
 10
0.0
 20
0.0
 30
0.0
 70
     9
  0
VERTEX
  8
Switch
 10
68.7744969254887
 20
118.516812351735
 30
0.0
 42
0.0
  0
VERTEX
  8
Switch
 10
68.7744969254887
 20
119.497252351735
 30
0.0
 42
0.0
  0
VERTEX
  8
Switch
 10
54.8044969254887
 20
119.497252351735
 30
0.0
 42
0.0
  0
VERTEX
  8
Switch
 10
54.8044969254887
 20
118.516812351735
 30
0.0
 42
0.0
  0
VERTEX
  8
Switch
 10
53.9916969254887
 20
118.516812351735
 30
0.0
 42
0.0
  0
VERTEX
  8
Switch
 10
53.9916969254888
 20
115.016692351735
 30
0.0
 42
0.0
  0
VERTEX
  8
Switch
 10
54.8044969254888
 20
115.016692351735
 30
0.0
 42
0.0
  0
VERTEX
  8
Switch
 10
54.8044969254888
 20
110.007812351735
 30
0.0
 42
0.0
  0
VERTEX
  8
Switch
 10
53.9916969254888
 20
110.007812351735
 30
0.0
 42
0.0
  0
VERTEX
  8
Switch
 10
53.9916969254888
 20
106.507692351735
 30
0.0
 42
0.0
  0
VERTEX
  8
Switch
 10
54.8044969254888
 20
106.507692351735
 30
0.0
 42
0.0
  0
VERTEX
  8
Switch
 10
54.8044969254888
 20
105.527252351735
 30
0.0
 42
0.0
  0
VERTEX
  8
Switch
 10
68.7744969254887
 20
105.527252351735
 30
0.0
 42
0.0
  0
VERTEX
  8
Switch
 10
68.7744969254887
 20
106.507692351735
 30
0.0
 42
0.0
  0
VERTEX
  8
Switch
 10
69.5872969254887
 20
106.507692351735
 30
0.0
 42
0.0
  0
VERTEX
  8
Switch
 10
69.5872969254887
 20
110.007812351735
 30
0.0
 42
0.0
  0
VERTEX
  8
Switch
 10
68.7744969254887
 20
110.007812351735
 30
0.0
 42
0.0
  0
VERTEX
  8
Switch
 10
68.7744969254887
 20
115.016692351735
 30
0.0
 42
0.0
  0
VERTEX
  8
Switch
 10
69.5872969254887
 20
115.016692351735
 30
0.0
 42
0.0
  0
VERTEX
  8
Switch
 10
69.5872969254887
 20
118.516812351735
 30
0.0
 42
0.0
  0
SEQEND
  0
POLYLINE
  8
Switch
 66
     1
 10
0.0
 20
0.0
 30
0.0
 70
     9
  0
VERTEX
  8
Switch
 10
49.7244969254887
 20
122.380152351735
 30
0.0
 42
0.0
  0
VERTEX
  8
Switch
 10
50.5372969254887
 20
122.380152351735
 30
0.0
 42
0.0
  0
VERTEX
  8
Switch
 10
50.5372969254887
 20
125.880272351735
 30
0.0
 42
0.0
  0
VERTEX
  8
Switch
 10
49.7244969254887
 20
125.880272351735
 30
0.0
 42
0.0
  0
VERTEX
  8
Switch
 10
49.7244969254887
 20
130.889152351735
 30
0.0
 42
0.0
  0
VERTEX
  8
Switch
 10
50.5372969254887
 20
130.889152351735
 30
0.0
 42
0.0
  0
VERTEX
  8
Switch
 10
50.5372969254887
 20
134.389272351735
 30
0.0
 42
0.0
  0
VERTEX
  8
Switch
 10
49.7244969254887
 20
134.389272351735
 30
0.0
 42
0.0
  0
VERTEX
  8
Switch
 10
49.7244969254887
 20
135.369712351735
 30
0.0
 42
0.0
  0
VERTEX
  8
Switch
 10
35.7544969254887
 20
135.369712351735
 30
0.0
 42
0.0
  0
VERTEX
  8
Switch
 10
35.7544969254887
 20
134.389272351735
 30
0.0
 42
0.0
  0
VERTEX
  8
Switch
 10
34.9416969254887
 20
134.389272351735
 30
0.0
 42
0.0
  0
VERTEX
  8
Switch
 10
34.9416969254887
 20
130.889152351735
 30
0.0
 42
0.0
  0
VERTEX
  8
Switch
 10
35.7544969254887
 20
130.889152351735
 30
0.0
 42
0.0
  0
VERTEX
  8
Switch
 10
35.7544969254887
 20
125.880272351735
 30
0.0
 42
0.0
  0
VERTEX
  8
Switch
 10
34.9416969254887
 20
125.880272351735
 30
0.0
 42
0.0
  0
VERTEX
  8
Switch
 10
34.9416969254887
 20
122.380152351735
 30
0.0
 42
0.0
  0
VERTEX
  8
Switch
 10
35.7544969254887
 20
122.380152351735
 30
0.0
 42
0.0
  0
VERTEX
  8
Switch
 10
35.7544969254887
 20
121.399712351735
 30
0.0
 42
0.0
  0
VERTEX
  8
Switch
 10
49.7244969254887
 20
121.399712351735
 30
0.0
 42
0.0
  0
SEQEND
  0
POLYLINE
  8
Switch
 66
     1
 10
0.0
 20
0.0
 30
0.0
 70
     9
  0
VERTEX
  8
Switch
 10
162.208396925489
 20
51.7757723517349
 30
0.0
 42
0.0
  0
VERTEX
  8
Switch
 10
162.944996925489
 20
51.4328723517349
 30
0.0
 42
0.0
  0
VERTEX
  8
Switch
 10
164.425816925489
 20
54.6053323517349
 30
0.0
 42
0.0
  0
VERTEX
  8
Switch
 10
163.689216925489
 20
54.9482323517349
 30
0.0
 42
0.0
  0
VERTEX
  8
Switch
 10
165.805036925489
 20
59.4872123517349
 30
0.0
 42
0.0
  0
VERTEX
  8
Switch
 10
166.541636925489
 20
59.1443123517349
 30
0.0
 42
0.0
  0
VERTEX
  8
Switch
 10
168.019916925489
 20
62.3167723517349
 30
0.0
 42
0.0
  0
VERTEX
  8
Switch
 10
167.283316925489
 20
62.6596723517349
 30
0.0
 42
0.0
  0
VERTEX
  8
Switch
 10
167.699876925489
 20
63.5486723517349
 30
0.0
 42
0.0
  0
VERTEX
  8
Switch
 10
155.037976925489
 20
69.4541723517349
 30
0.0
 42
0.0
  0
VERTEX
  8
Switch
 10
154.623956925489
 20
68.5651723517349
 30
0.0
 42
0.0
  0
VERTEX
  8
Switch
 10
153.887356925489
 20
68.9080723517349
 30
0.0
 42
0.0
  0
VERTEX
  8
Switch
 10
152.406536925489
 20
65.7356123517349
 30
0.0
 42
0.0
  0
VERTEX
  8
Switch
 10
153.143136925489
 20
65.3927123517349
 30
0.0
 42
0.0
  0
VERTEX
  8
Switch
 10
151.027316925489
 20
60.8537323517349
 30
0.0
 42
0.0
  0
VERTEX
  8
Switch
 10
150.290716925489
 20
61.1966323517349
 30
0.0
 42
0.0
  0
VERTEX
  8
Switch
 10
148.812436925489
 20
58.0241723517349
 30
0.0
 42
0.0
  0
VERTEX
  8
Switch
 10
149.549036925489
 20
57.6812723517349
 30
0.0
 42
0.0
  0
VERTEX
  8
Switch
 10
149.132476925489
 20
56.7922723517349
 30
0.0
 42
0.0
  0
VERTEX
  8
Switch
 10
161.794376925489
 20
50.8867723517349
 30
0.0
 42
0.0
  0
SEQEND
  0
POLYLINE
  8
Switch
 66
     1
 10
0.0
 20
0.0
 30
0.0
 70
     9
  0
VERTEX
  8
Switch
 10
125.924496925489
 20
124.285152351735
 30
0.0
 42
0.0
  0
VERTEX
  8
Switch
 10
126.737296925489
 20
124.285152351735
 30
0.0
 42
0.0
  0
VERTEX
  8
Switch
 10
126.737296925489
 20
127.785272351735
 30
0.0
 42
0.0
  0
VERTEX
  8
Switch
 10
125.924496925489
 20
127.785272351735
 30
0.0
 42
0.0
  0
VERTEX
  8
Switch
 10
125.924496925489
 20
132.794152351735
 30
0.0
 42
0.0
  0
VERTEX
  8
Switch
 10
126.737296925489
 20
132.794152351735
 30
0.0
 42
0.0
  0
VERTEX
  8
Switch
 10
126.737296925489
 20
136.294272351735
 30
0.0
 42
0.0
  0
VERTEX
  8
Switch
 10
125.924496925489
 20
136.294272351735
 30
0.0
 42
0.0
  0
VERTEX
  8
Switch
 10
125.924496925489
 20
137.274712351735
 30
0.0
 42
0.0
  0
VERTEX
  8
Switch
 10
111.954496925489
 20
137.274712351735
 30
0.0
 42
0.0
  0
VERTEX
  8
Switch
 10
111.954496925489
 20
136.294272351735
 30
0.0
 42
0.0
  0
VERTEX
  8
Switch
 10
111.141696925489
 20
136.294272351735
 30
0.0
 42
0.0
  0
VERTEX
  8
Switch
 10
111.141696925489
 20
132.794152351735
 30
0.0
 42
0.0
  0
VERTEX
  8
Switch
 10
111.954496925489
 20
132.794152351735
 30
0.0
 42
0.0
  0
VERTEX
  8
Switch
 10
111.954496925489
 20
127.785272351735
 30
0.0
 42
0.0
  0
VERTEX
  8
Switch
 10
111.141696925489
 20
127.785272351735
 30
0.0
 42
0.0
  0
VERTEX
  8
Switch
 10
111.141696925489
 20
124.285152351735
 30
0.0
 42
0.0
  0
VERTEX
  8
Switch
 10
111.954496925489
 20
124.285152351735
 30
0.0
 42
0.0
  0
VERTEX
  8
Switch
 10
111.954496925489
 20
123.304712351735
 30
0.0
 42
0.0
  0
VERTEX
  8
Switch
 10
125.924496925489
 20
123.304712351735
 30
0.0
 42
0.0
  0
SEQEND
  0
POLYLINE
  8
Switch
 66
     1
 10
0.0
 20
0.0
 30
0.0
 70
     9
  0
VERTEX
  8
Switch
 10
125.924496925489
 20
98.1968123517349
 30
0.0
 42
0.0
  0
VERTEX
  8
Switch
 10
125.924496925489
 20
99.1772523517349
 30
0.0
 42
0.0
  0
VERTEX
  8
Switch
 10
111.954496925489
 20
99.1772523517349
 30
0.0
 42
0.0
  0
VERTEX
  8
Switch
 10
111.954496925489
 20
98.1968123517349
 30
0.0
 42
0.0
  0
VERTEX
  8
Switch
 10
111.141696925489
 20
98.1968123517349
 30
0.0
 42
0.0
  0
VERTEX
  8
Switch
 10
111.141696925489
 20
94.6966923517349
 30
0.0
 42
0.0
  0
VERTEX
  8
Switch
 10
111.954496925489
 20
94.6966923517349
 30
0.0
 42
0.0
  0
VERTEX
  8
Switch
 10
111.954496925489
 20
89.6878123517349
 30
0.0
 42
0.0
  0
VERTEX
  8
Switch
 10
111.141696925489
 20
89.6878123517349
 30
0.0
 42
0.0
  0
VERTEX
  8
Switch
 10
111.141696925489
 20
86.1876923517349
 30
0.0
 42
0.0
  0
VERTEX
  8
Switch
 10
111.954496925489
 20
86.1876923517349
 30
0.0
 42
0.0
  0
VERTEX
  8
Switch
 10
111.954496925489
 20
85.2072523517349
 30
0.0
 42
0.0
  0
VERTEX
  8
Switch
 10
125.924496925489
 20
85.2072523517349
 30
0.0
 42
0.0
  0
VERTEX
  8
Switch
 10
125.924496925489
 20
86.1876923517349
 30
0.0
 42
0.0
  0
VERTEX
  8
Switch
 10
126.737296925489
 20
86.1876923517349
 30
0.0
 42
0.0
  0
VERTEX
  8
Switch
 10
126.737296925489
 20
89.6878123517349
 30
0.0
 42
0.0
  0
VERTEX
  8
Switch
 10
125.924496925489
 20
89.6878123517349
 30
0.0
 42
0.0
  0
VERTEX
  8
Switch
 10
125.924496925489
 20
94.6966923517349
 30
0.0
 42
0.0
  0
VERTEX
  8
Switch
 10
126.737296925489
 20
94.6966923517349
 30
0.0
 42
0.0
  0
VERTEX
  8
Switch
 10
126.737296925489
 20
98.1968123517349
 30
0.0
 42
0.0
  0
SEQEND
  0
POLYLINE
  8
Switch
 66
     1
 10
0.0
 20
0.0
 30
0.0
 70
     9
  0
VERTEX
  8
Switch
 10
154.735716925489
 20
38.0648523517349
 30
0.0
 42
0.0
  0
VERTEX
  8
Switch
 10
155.078616925489
 20
38.8014523517349
 30
0.0
 42
0.0
  0
VERTEX
  8
Switch
 10
151.906156925489
 20
40.2822723517349
 30
0.0
 42
0.0
  0
VERTEX
  8
Switch
 10
151.563256925489
 20
39.5456723517349
 30
0.0
 42
0.0
  0
VERTEX
  8
Switch
 10
147.024276925489
 20
41.6614923517349
 30
0.0
 42
0.0
  0
VERTEX
  8
Switch
 10
147.367176925489
 20
42.3980923517349
 30
0.0
 42
0.0
  0
VERTEX
  8
Switch
 10
144.194716925489
 20
43.8763723517349
 30
0.0
 42
0.0
  0
VERTEX
  8
Switch
 10
143.851816925489
 20
43.1397723517349
 30
0.0
 42
0.0
  0
VERTEX
  8
Switch
 10
142.962816925489
 20
43.5563323517349
 30
0.0
 42
0.0
  0
VERTEX
  8
Switch
 10
137.057316925489
 20
30.8944323517349
 30
0.0
 42
0.0
  0
VERTEX
  8
Switch
 10
137.946316925489
 20
30.4804123517349
 30
0.0
 42
0.0
  0
VERTEX
  8
Switch
 10
137.603416925489
 20
29.7438123517349
 30
0.0
 42
0.0
  0
VERTEX
  8
Switch
 10
140.775876925489
 20
28.2629923517349
 30
0.0
 42
0.0
  0
VERTEX
  8
Switch
 10
141.118776925489
 20
28.9995923517349
 30
0.0
 42
0.0
  0
VERTEX
  8
Switch
 10
145.657756925489
 20
26.8837723517349
 30
0.0
 42
0.0
  0
VERTEX
  8
Switch
 10
145.314856925489
 20
26.1471723517349
 30
0.0
 42
0.0
  0
VERTEX
  8
Switch
 10
148.487316925489
 20
24.6688923517349
 30
0.0
 42
0.0
  0
VERTEX
  8
Switch
 10
148.830216925489
 20
25.4054923517349
 30
0.0
 42
0.0
  0
VERTEX
  8
Switch
 10
149.719216925489
 20
24.9889323517349
 30
0.0
 42
0.0
  0
VERTEX
  8
Switch
 10
155.624716925489
 20
37.6508323517349
 30
0.0
 42
0.0
  0
SEQEND
  0
POLYLINE
  8
Switch
 66
     1
 10
0.0
 20
0.0
 30
0.0
 70
     9
  0
VERTEX
  8
Switch
 10
68.7744969254887
 20
137.566812351735
 30
0.0
 42
0.0
  0
VERTEX
  8
Switch
 10
68.7744969254887
 20
138.547252351735
 30
0.0
 42
0.0
  0
VERTEX
  8
Switch
 10
54.8044969254887
 20
138.547252351735
 30
0.0
 42
0.0
  0
VERTEX
  8
Switch
 10
54.8044969254887
 20
137.566812351735
 30
0.0
 42
0.0
  0
VERTEX
  8
Switch
 10
53.9916969254887
 20
137.566812351735
 30
0.0
 42
0.0
  0
VERTEX
  8
Switch
 10
53.9916969254887
 20
134.066692351735
 30
0.0
 42
0.0
  0
VERTEX
  8
Switch
 10
54.8044969254887
 20
134.066692351735
 30
0.0
 42
0.0
  0
VERTEX
  8
Switch
 10
54.8044969254887
 20
129.057812351735
 30
0.0
 42
0.0
  0
VERTEX
  8
Switch
 10
53.9916969254887
 20
129.057812351735
 30
0.0
 42
0.0
  0
VERTEX
  8
Switch
 10
53.9916969254887
 20
125.557692351735
 30
0.0
 42
0.0
  0
VERTEX
  8
Switch
 10
54.8044969254887
 20
125.557692351735
 30
0.0
 42
0.0
  0
VERTEX
  8
Switch
 10
54.8044969254887
 20
124.577252351735
 30
0.0
 42
0.0
  0
VERTEX
  8
Switch
 10
68.7744969254887
 20
124.577252351735
 30
0.0
 42
0.0
  0
VERTEX
  8
Switch
 10
68.7744969254887
 20
125.557692351735
 30
0.0
 42
0.0
  0
VERTEX
  8
Switch
 10
69.5872969254887
 20
125.557692351735
 30
0.0
 42
0.0
  0
VERTEX
  8
Switch
 10
69.5872969254887
 20
129.057812351735
 30
0.0
 42
0.0
  0
VERTEX
  8
Switch
 10
68.7744969254887
 20
129.057812351735
 30
0.0
 42
0.0
  0
VERTEX
  8
Switch
 10
68.7744969254887
 20
134.066692351735
 30
0.0
 42
0.0
  0
VERTEX
  8
Switch
 10
69.5872969254887
 20
134.066692351735
 30
0.0
 42
0.0
  0
VERTEX
  8
Switch
 10
69.5872969254887
 20
137.566812351735
 30
0.0
 42
0.0
  0
SEQEND
  0
POLYLINE
  8
Switch
 66
     1
 10
0.0
 20
0.0
 30
0.0
 70
     9
  0
VERTEX
  8
Switch
 10
49.7244969254888
 20
77.2418123517349
 30
0.0
 42
0.0
  0
VERTEX
  8
Switch
 10
49.7244969254888
 20
78.2222523517349
 30
0.0
 42
0.0
  0
VERTEX
  8
Switch
 10
35.7544969254888
 20
78.2222523517349
 30
0.0
 42
0.0
  0
VERTEX
  8
Switch
 10
35.7544969254888
 20
77.2418123517349
 30
0.0
 42
0.0
  0
VERTEX
  8
Switch
 10
34.9416969254887
 20
77.2418123517349
 30
0.0
 42
0.0
  0
VERTEX
  8
Switch
 10
34.9416969254887
 20
73.7416923517349
 30
0.0
 42
0.0
  0
VERTEX
  8
Switch
 10
35.7544969254888
 20
73.7416923517349
 30
0.0
 42
0.0
  0
VERTEX
  8
Switch
 10
35.7544969254888
 20
68.7328123517349
 30
0.0
 42
0.0
  0
VERTEX
  8
Switch
 10
34.9416969254887
 20
68.7328123517349
 30
0.0
 42
0.0
  0
VERTEX
  8
Switch
 10
34.9416969254887
 20
65.2326923517349
 30
0.0
 42
0.0
  0
VERTEX
  8
Switch
 10
35.7544969254888
 20
65.2326923517349
 30
0.0
 42
0.0
  0
VERTEX
  8
Switch
 10
35.7544969254888
 20
64.2522523517349
 30
0.0
 42
0.0
  0
VERTEX
  8
Switch
 10
49.7244969254888
 20
64.2522523517349
 30
0.0
 42
0.0
  0
VERTEX
  8
Switch
 10
49.7244969254888
 20
65.2326923517349
 30
0.0
 42
0.0
  0
VERTEX
  8
Switch
 10
50.5372969254888
 20
65.2326923517349
 30
0.0
 42
0.0
  0
VERTEX
  8
Switch
 10
50.5372969254888
 20
68.7328123517349
 30
0.0
 42
0.0
  0
VERTEX
  8
Switch
 10
49.7244969254888
 20
68.7328123517349
 30
0.0
 42
0.0
  0
VERTEX
  8
Switch
 10
49.7244969254888
 20
73.7416923517349
 30
0.0
 42
0.0
  0
VERTEX
  8
Switch
 10
50.5372969254888
 20
73.7416923517349
 30
0.0
 42
0.0
  0
VERTEX
  8
Switch
 10
50.5372969254888
 20
77.2418123517349
 30
0.0
 42
0.0
  0
SEQEND
  0
POLYLINE
  8
Switch
 66
     1
 10
0.0
 20
0.0
 30
0.0
 70
     9
  0
VERTEX
  8
Switch
 10
73.8544969254887
 20
139.164472351735
 30
0.0
 42
0.0
  0
VERTEX
  8
Switch
 10
73.0416969254887
 20
139.164472351735
 30
0.0
 42
0.0
  0
VERTEX
  8
Switch
 10
73.0416969254887
 20
135.664352351735
 30
0.0
 42
0.0
  0
VERTEX
  8
Switch
 10
73.8544969254887
 20
135.664352351735
 30
0.0
 42
0.0
  0
VERTEX
  8
Switch
 10
73.8544969254887
 20
130.655472351735
 30
0.0
 42
0.0
  0
VERTEX
  8
Switch
 10
73.0416969254887
 20
130.655472351735
 30
0.0
 42
0.0
  0
VERTEX
  8
Switch
 10
73.0416969254887
 20
127.155352351735
 30
0.0
 42
0.0
  0
VERTEX
  8
Switch
 10
73.8544969254887
 20
127.155352351735
 30
0.0
 42
0.0
  0
VERTEX
  8
Switch
 10
73.8544969254887
 20
126.174912351735
 30
0.0
 42
0.0
  0
VERTEX
  8
Switch
 10
87.8244969254887
 20
126.174912351735
 30
0.0
 42
0.0
  0
VERTEX
  8
Switch
 10
87.8244969254887
 20
127.155352351735
 30
0.0
 42
0.0
  0
VERTEX
  8
Switch
 10
88.6372969254887
 20
127.155352351735
 30
0.0
 42
0.0
  0
VERTEX
  8
Switch
 10
88.6372969254887
 20
130.655472351735
 30
0.0
 42
0.0
  0
VERTEX
  8
Switch
 10
87.8244969254887
 20
130.655472351735
 30
0.0
 42
0.0
  0
VERTEX
  8
Switch
 10
87.8244969254887
 20
135.664352351735
 30
0.0
 42
0.0
  0
VERTEX
  8
Switch
 10
88.6372969254887
 20
135.664352351735
 30
0.0
 42
0.0
  0
VERTEX
  8
Switch
 10
88.6372969254887
 20
139.164472351735
 30
0.0
 42
0.0
  0
VERTEX
  8
Switch
 10
87.8244969254887
 20
139.164472351735
 30
0.0
 42
0.0
  0
VERTEX
  8
Switch
 10
87.8244969254887
 20
140.144912351735
 30
0.0
 42
0.0
  0
VERTEX
  8
Switch
 10
73.8544969254887
 20
140.144912351735
 30
0.0
 42
0.0
  0
SEQEND
  0
POLYLINE
  8
Switch
 66
     1
 10
0.0
 20
0.0
 30
0.0
 70
     9
  0
VERTEX
  8
Switch
 10
25.9119969254887
 20
122.380152351735
 30
0.0
 42
0.0
  0
VERTEX
  8
Switch
 10
26.7247969254887
 20
122.380152351735
 30
0.0
 42
0.0
  0
VERTEX
  8
Switch
 10
26.7247969254887
 20
125.880272351735
 30
0.0
 42
0.0
  0
VERTEX
  8
Switch
 10
25.9119969254887
 20
125.880272351735
 30
0.0
 42
0.0
  0
VERTEX
  8
Switch
 10
25.9119969254887
 20
130.889152351735
 30
0.0
 42
0.0
  0
VERTEX
  8
Switch
 10
26.7247969254887
 20
130.889152351735
 30
0.0
 42
0.0
  0
VERTEX
  8
Switch
 10
26.7247969254887
 20
134.389272351735
 30
0.0
 42
0.0
  0
VERTEX
  8
Switch
 10
25.9119969254887
 20
134.389272351735
 30
0.0
 42
0.0
  0
VERTEX
  8
Switch
 10
25.9119969254887
 20
135.369712351735
 30
0.0
 42
0.0
  0
VERTEX
  8
Switch
 10
11.9419969254887
 20
135.369712351735
 30
0.0
 42
0.0
  0
VERTEX
  8
Switch
 10
11.9419969254887
 20
134.389272351735
 30
0.0
 42
0.0
  0
VERTEX
  8
Switch
 10
11.1291969254887
 20
134.389272351735
 30
0.0
 42
0.0
  0
VERTEX
  8
Switch
 10
11.1291969254887
 20
130.889152351735
 30
0.0
 42
0.0
  0
VERTEX
  8
Switch
 10
11.9419969254887
 20
130.889152351735
 30
0.0
 42
0.0
  0
VERTEX
  8
Switch
 10
11.9419969254887
 20
125.880272351735
 30
0.0
 42
0.0
  0
VERTEX
  8
Switch
 10
11.1291969254887
 20
125.880272351735
 30
0.0
 42
0.0
  0
VERTEX
  8
Switch
 10
11.1291969254887
 20
122.380152351735
 30
0.0
 42
0.0
  0
VERTEX
  8
Switch
 10
11.9419969254887
 20
122.380152351735
 30
0.0
 42
0.0
  0
VERTEX
  8
Switch
 10
11.9419969254887
 20
121.399712351735
 30
0.0
 42
0.0
  0
VERTEX
  8
Switch
 10
25.9119969254887
 20
121.399712351735
 30
0.0
 42
0.0
  0
SEQEND
  0
POLYLINE
  8
In
 66
     1
 10
0.0
 20
0.0
 30
0.0
 70
     9
  0
VERTEX
  8
In
 10
18.3794969254887
 20
163.131912351735
 30
0.0
 42
0.0
  0
VERTEX
  8
In
 10
18.3794969254887
 20
143.408112351735
 30
0.0
 42
0.0
  0
VERTEX
  8
In
 10
51.1603769254887
 20
143.408112351735
 30
0.0
 42
0.0
  0
VERTEX
  8
In
 10
51.1603769254887
 20
145.408112351735
 30
0.0
 42
0.0
  0
VERTEX
  8
In
 10
91.3794969254888
 20
145.408112351735
 30
0.0
 42
0.0
  0
VERTEX
  8
In
 10
91.3794969254888
 20
158.255112351735
 30
0.0
 42
0.0
  0
VERTEX
  8
In
 10
79.3794969254888
 20
158.255112351735
 30
0.0
 42
0.0
  0
VERTEX
  8
In
 10
79.3794969254888
 20
163.131912351735
 30
0.0
 42
0.0
  0
VERTEX
  8
In
 10
114.612332710543
 20
163.131912351735
 30
0.0
 42
0.0
  0
VERTEX
  8
In
 10
114.613144966869
 20
154.94899944259
 30
0.0
 42
0.0
  0
VERTEX
  8
In
 10
117.608696925489
 20
154.950925929561
 30
0.0
 42
0.0
  0
VERTEX
  8
In
 10
117.608696925489
 20
151.908112351735
 30
0.0
 42
0.0
  0
VERTEX
  8
In
 10
130.379496925489
 20
151.908112351735
 30
0.0
 42
0.0
  0
VERTEX
  8
In
 10
130.379496925489
 20
153.908112351735
 30
0.0
 42
0.0
  0
VERTEX
  8
In
 10
133.375048884108
 20
153.906185864764
 30
0.0
 42
0.0
  0
VERTEX
  8
In
 10
133.375838925489
 20
161.865298773909
 30
0.0
 42
0.0
  0
VERTEX
  8
In
 10
133.378842057257
 20
163.131912351735
 30
0.0
 42
0.0
  0
VERTEX
  8
In
 10
144.568096925489
 20
163.131912351735
 30
0.0
 42
0.0
  0
VERTEX
  8
In
 10
147.768496925489
 20
159.956912351736
 30
0.0
 42
0.0
  0
VERTEX
  8
In
 10
147.768496925489
 20
73.7239123517355
 30
0.0
 42
0.0
  0
VERTEX
  8
In
 10
152.670696925489
 20
73.7239123517351
 30
0.0
 42
0.0
  0
VERTEX
  8
In
 10
185.761816925489
 20
58.2934123517354
 30
0.0
 42
0.0
  0
VERTEX
  8
In
 10
187.298516925489
 20
54.0744723517349
 30
0.0
 42
0.0
  0
VERTEX
  8
In
 10
165.614536925489
 20
7.5721523517355
 30
0.0
 42
0.0
  0
VERTEX
  8
In
 10
161.395596925489
 20
6.0379923517349
 30
0.0
 42
0.0
  0
VERTEX
  8
In
 10
83.2270969254888
 20
42.4819123517354
 30
0.0
 42
0.0
  0
VERTEX
  8
In
 10
13.9866969254888
 20
42.481912351735
 30
0.0
 42
0.0
  0
VERTEX
  8
In
 10
4.4616969254888
 20
52.0069123517353
 30
0.0
 42
0.0
  0
VERTEX
  8
In
 10
4.4616969254887
 20
159.956912351735
 30
0.0
 42
0.0
  0
VERTEX
  8
In
 10
7.6366969254887
 20
163.131912351735
 30
0.0
 42
0.0
  0
SEQEND
  0
POLYLINE
  8
In
 66
     1
 10
0.0
 20
0.0
 30
0.0
 70
     9
  0
VERTEX
  8
In
 10
113.379496925489
 20
157.90970027744
 30
0.0
 42
0.0
  0
VERTEX
  8
In
 10
113.379496925489
 20
155.912961376496
 30
0.0
 42
0.0
  0
VERTEX
  8
In
 10
104.478371440281
 20
147.011835891288
 30
0.0
 42
0.0
  0
VERTEX
  8
In
 10
98.7306601467287
 20
152.759547182977
 30
0.0
 42
0.0
  0
VERTEX
  8
In
 10
108.630155083341
 20
162.659042119588
 30
0.0
 42
0.0
  0
SEQEND
  0
POLYLINE
  8
In
 66
     1
 10
0.0
 20
0.0
 30
0.0
 70
     9
  0
VERTEX
  8
In
 10
76.5875369254888
 20
166.908892351736
 30
0.0
 42
0.0
  0
VERTEX
  8
In
 10
76.5875369254888
 20
167.02190817724
 30
0.0
 42
0.0
  0
VERTEX
  8
In
 10
68.8862569254872
 20
167.021908931898
 30
0.0
 42
0.0
  0
VERTEX
  8
In
 10
68.8862569254884
 20
166.908892351735
 30
0.0
 42
0.0
  0
VERTEX
  8
In
 10
68.8862569254887
 20
164.909912351736
 30
0.0
 42
0.0
  0
VERTEX
  8
In
 10
68.8862569254884
 20
166.908892351735
 30
0.0
 42
0.0
  0
VERTEX
  8
In
 10
68.8862569254887
 20
164.909912351736
 30
0.0
 42
0.0
  0
VERTEX
  8
In
 10
66.9710969254887
 20
164.909912351735
 30
0.0
 42
0.0
  0
VERTEX
  8
In
 10
66.9710969254887
 20
163.131912351735
 30
0.0
 42
0.0
  0
VERTEX
  8
In
 10
18.3794969254887
 20
163.131912351735
 30
0.0
 42
0.0
  0
VERTEX
  8
In
 10
18.3794969254887
 20
162.131912351735
 30
0.0
 42
0.0
  0
VERTEX
  8
In
 10
18.3794969254887
 20
143.408112351735
 30
0.0
 42
0.0
  0
VERTEX
  8
In
 10
51.1603769254887
 20
143.408112351735
 30
0.0
 42
0.0
  0
VERTEX
  8
In
 10
51.1603769254887
 20
145.408112351735
 30
0.0
 42
0.0
  0
VERTEX
  8
In
 10
91.3794969254888
 20
145.408112351735
 30
0.0
 42
0.0
  0
VERTEX
  8
In
 10
91.3794969254888
 20
158.255112351735
 30
0.0
 42
0.0
  0
VERTEX
  8
In
 10
79.3794969254888
 20
158.255112351735
 30
0.0
 42
0.0
  0
VERTEX
  8
In
 10
79.3794969254888
 20
163.131912351735
 30
0.0
 42
0.0
  0
VERTEX
  8
In
 10
78.4772969254877
 20
163.131912351735
 30
0.0
 42
0.0
  0
VERTEX
  8
In
 10
78.4772969254888
 20
164.909912351735
 30
0.0
 42
0.0
  0
VERTEX
  8
In
 10
76.5875369254887
 20
164.909912351736
 30
0.0
 42
0.0
  0
VERTEX
  8
In
 10
76.5875369254888
 20
166.908892351736
 30
0.0
 42
0.0
  0
VERTEX
  8
In
 10
76.5875369254887
 20
164.909912351736
 30
0.0
 42
0.0
  0
SEQEND
  0
POLYLINE
  8
In
 66
     1
 10
0.0
 20
0.0
 30
0.0
 70
     9
  0
VERTEX
  8
In
 10
120.879496925489
 20
165.408112351735
 30
0.0
 42
0.0
  0
VERTEX
  8
In
 10
120.322396925489
 20
165.408112351735
 30
0.0
 42
0.0
  0
VERTEX
  8
In
 10
117.608696925488
 20
165.408112351735
 30
0.0
 42
0.0
  0
VERTEX
  8
In
 10
117.608696925489
 20
164.909912351735
 30
0.0
 42
0.0
  0
VERTEX
  8
In
 10
115.332696925489
 20
164.909912351735
 30
0.0
 42
0.0
  0
VERTEX
  8
In
 10
115.332696925489
 20
163.131912351735
 30
0.0
 42
0.0
  0
VERTEX
  8
In
 10
114.612332710543
 20
163.131912351735
 30
0.0
 42
0.0
  0
VERTEX
  8
In
 10
114.613144966869
 20
154.94899944259
 30
0.0
 42
0.0
  0
VERTEX
  8
In
 10
117.608696925489
 20
154.950925929561
 30
0.0
 42
0.0
  0
VERTEX
  8
In
 10
117.608696925489
 20
151.908112351735
 30
0.0
 42
0.0
  0
VERTEX
  8
In
 10
130.379496925489
 20
151.908112351735
 30
0.0
 42
0.0
  0
VERTEX
  8
In
 10
130.379496925489
 20
153.908112351735
 30
0.0
 42
0.0
  0
VERTEX
  8
In
 10
133.375048884108
 20
153.906185864764
 30
0.0
 42
0.0
  0
VERTEX
  8
In
 10
133.375838925489
 20
161.865298773909
 30
0.0
 42
0.0
  0
VERTEX
  8
In
 10
133.378842057257
 20
163.131912351735
 30
0.0
 42
0.0
  0
VERTEX
  8
In
 10
132.503096925489
 20
163.131912351735
 30
0.0
 42
0.0
  0
VERTEX
  8
In
 10
132.503096925489
 20
164.909912351735
 30
0.0
 42
0.0
  0
VERTEX
  8
In
 10
130.379496925489
 20
164.909912351735
 30
0.0
 42
0.0
  0
VERTEX
  8
In
 10
130.379496925489
 20
165.408112351735
 30
0.0
 42
0.0
  0
VERTEX
  8
In
 10
127.665796925489
 20
165.408112351735
 30
0.0
 42
0.0
  0
VERTEX
  8
In
 10
126.879496925489
 20
165.408112351735
 30
0.0
 42
0.0
  0
VERTEX
  8
In
 10
126.879496925489
 20
166.908892351735
 30
0.0
 42
0.0
  0
VERTEX
  8
In
 10
126.879496925489
 20
167.021903249059
 30
0.0
 42
0.0
  0
VERTEX
  8
In
 10
120.879496925489
 20
167.021903837008
 30
0.0
 42
0.0
  0
VERTEX
  8
In
 10
120.879496925489
 20
166.908892351735
 30
0.0
 42
0.0
  0
SEQEND
  0
POLYLINE
  8
Out
 66
     1
 10
0.0
 20
0.0
 30
0.0
 70
     9
  0
VERTEX
  8
Out
 10
76.5875369254888
 20
167.02190817724
 30
0.0
 42
0.0
  0
VERTEX
  8
Out
 10
68.8862569254883
 20
167.021908931899
 30
0.0
 42
0.0
  0
VERTEX
  8
Out
 10
56.7978767248052
 20
167.021910116457
 30
0.0
 42
0.0
  0
VERTEX
  8
Out
 10
2.5716605467268
 20
167.021815658585
 30
0.0
 42
0.2914701154205
  0
VERTEX
  8
Out
 10
0.7590362531877
 20
165.867052160991
 30
0.0
 42
0.1095178087413
  0
VERTEX
  8
Out
 10
0.5716518371137
 20
165.021815658577
 30
0.0
 42
0.0
  0
VERTEX
  8
Out
 10
0.5716518371138
 20
40.5918156585781
 30
0.0
 42
0.4142135623731
  0
VERTEX
  8
Out
 10
2.5716518371142
 20
38.5918156585781
 30
0.0
 42
0.0
  0
VERTEX
  8
Out
 10
79.7044438427243
 20
38.591815658584
 30
0.0
 42
-0.1094975108592
  0
VERTEX
  8
Out
 10
84.7749898795539
 20
37.4679161954674
 30
0.0
 42
0.0
  0
VERTEX
  8
Out
 10
164.342968518292
 20
0.3725310292331
 30
0.0
 42
0.4141910192641
  0
VERTEX
  8
Out
 10
167.000677933776
 20
1.3399838301667
 30
0.0
 42
0.0
  0
VERTEX
  8
Out
 10
192.965064339613
 20
57.0212660363537
 30
0.0
 42
0.4142221777008
  0
VERTEX
  8
Out
 10
191.997623271092
 20
59.6791398284611
 30
0.0
 42
0.0
  0
VERTEX
  8
Out
 10
158.587388202824
 20
75.2572587386579
 30
0.0
 42
-0.2914822858544
  0
VERTEX
  8
Out
 10
151.658451837114
 20
86.1331179514729
 30
0.0
 42
0.0
  0
VERTEX
  8
Out
 10
151.658451837114
 20
165.021815658577
 30
0.0
 42
0.4141978553399
  0
VERTEX
  8
Out
 10
149.658559092041
 20
167.021815656943
 30
0.0
 42
0.0
  0
VERTEX
  8
Out
 10
149.658392234965
 20
167.021815658932
 30
0.0
 42
0.0
  0
VERTEX
  8
Out
 10
142.437132280874
 20
167.021901724544
 30
0.0
 42
0.0
  0
VERTEX
  8
Out
 10
126.879496925489
 20
167.021903249059
 30
0.0
 42
0.0
  0
VERTEX
  8
Out
 10
120.879496925489
 20
167.021903837008
 30
0.0
 42
0.0
  0
SEQEND
  0
POLYLINE
  8
Out
 66
     1
 10
0.0
 20
0.0
 30
0.0
 70
     9
  0
VERTEX
  8
Out
 10
117.608696925489
 20
151.908112351735
 30
0.0
 42
0.0
  0
VERTEX
  8
Out
 10
130.379496925489
 20
151.908112351735
 30
0.0
 42
0.0
  0
VERTEX
  8
Out
 10
130.379496925489
 20
153.908112351735
 30
0.0
 42
0.0
  0
VERTEX
  8
Out
 10
133.375048884108
 20
153.906185864764
 30
0.0
 42
0.0
  0
VERTEX
  8
Out
 10
133.375838925489
 20
161.865298773909
 30
0.0
 42
0.0
  0
VERTEX
  8
Out
 10
133.378837134188
 20
163.12983597794
 30
0.0
 42
0.0
  0
VERTEX
  8
Out
 10
132.503096925489
 20
163.131912351736
 30
0.0
 42
0.0
  0
VERTEX
  8
Out
 10
132.503096925489
 20
164.909912351735
 30
0.0
 42
0.0
  0
VERTEX
  8
Out
 10
130.379496925489
 20
164.909912351736
 30
0.0
 42
0.0
  0
VERTEX
  8
Out
 10
130.379496925489
 20
165.408112351735
 30
0.0
 42
0.0
  0
VERTEX
  8
Out
 10
127.665796925489
 20
165.408112351735
 30
0.0
 42
0.0
  0
VERTEX
  8
Out
 10
126.879496925489
 20
165.408112351736
 30
0.0
 42
0.0
  0
VERTEX
  8
Out
 10
126.879496925489
 20
166.908892351735
 30
0.0
 42
0.0
  0
VERTEX
  8
Out
 10
126.879496925489
 20
167.021903249059
 30
0.0
 42
0.0
  0
VERTEX
  8
Out
 10
120.879496936564
 20
167.021903837007
 30
0.0
 42
0.0
  0
VERTEX
  8
Out
 10
120.879496925489
 20
166.908892351735
 30
0.0
 42
0.0
  0
VERTEX
  8
Out
 10
120.879496925487
 20
165.408112351733
 30
0.0
 42
0.0
  0
VERTEX
  8
Out
 10
120.322396925489
 20
165.408112351735
 30
0.0
 42
0.0
  0
VERTEX
  8
Out
 10
117.608696925489
 20
165.408112351734
 30
0.0
 42
0.0
  0
VERTEX
  8
Out
 10
117.608696925487
 20
164.909912351735
 30
0.0
 42
0.0
  0
VERTEX
  8
Out
 10
115.332696925489
 20
164.909912351735
 30
0.0
 42
0.0
  0
VERTEX
  8
Out
 10
115.332696925489
 20
163.131912351735
 30
0.0
 42
0.0
  0
VERTEX
  8
Out
 10
114.612332717641
 20
163.131840846588
 30
0.0
 42
0.0
  0
VERTEX
  8
Out
 10
114.613144966869
 20
154.94899944259
 30
0.0
 42
0.0
  0
VERTEX
  8
Out
 10
117.608696925489
 20
154.950925929561
 30
0.0
 42
0.0
  0
SEQEND
  0
ENDSEC
  0
EOF
