  0
SECTION
  2
HEADER
  9
$ACADVER
  1
AC1009
  9
$EXTMAX
 10
193.640579223633
 20
167.791061401367
 30
0.0
  9
$EXTMIN
 10
1.0597838163376
 20
0.9544582366943
 30
0.0
  9
$INSUNITS
 70
     4
  9
$LUNITS
 70
     2
  9
$LUPREC
 70
     4
  9
$MEASUREMENT
 70
     1
  0
ENDSEC
  0
SECTION
  2
TABLES
  0
TABLE
  2
LAYER
 70
     1
  0
LAYER
  2
0
 70
     0
 62
     7
  6
Continuous
  0
LAYER
  2
Mounts
 70
     0
 62
    70
  6
Continuous
  0
ENDTAB
  0
TABLE
  2
APPID
 70
     1
  0
APPID
  2
ACAD
 70
     0
  0
ENDTAB
  0
ENDSEC
  0
SECTION
  2
ENTITIES
  0
POLYLINE
  8
0
 66
     1
 10
0.0
 20
0.0
 30
0.0
 70
     1
  0
VERTEX
  8
0
 10
46.4564367592775
 20
139.809250879889
 42
0.0
  0
VERTEX
  8
0
 10
46.4564367592774
 20
65.1332508798891
 42
0.4142135623731
  0
VERTEX
  8
0
 10
47.4724367592775
 20
64.1172508798891
 42
0.0
  0
VERTEX
  8
0
 10
60.0318369617375
 20
64.1172508798891
 42
-0.8025848516709
  0
VERTEX
  8
0
 10
60.4612171138975
 20
62.1804421677891
 42
0.0
  0
VERTEX
  8
0
 10
49.9993436232727
 20
57.3019904407864
 42
-0.4142135623731
  0
VERTEX
  8
0
 10
47.9740603254975
 20
58.0391332774491
 42
0.0
  0
VERTEX
  8
0
 10
40.996632824486
 20
73.0022748413193
 42
0.4142135623731
  0
VERTEX
  8
0
 10
39.6464439581575
 20
73.4937033969491
 42
0.0
  0
VERTEX
  8
0
 10
6.4973303411074
 20
58.0360178577576
 42
0.4142135623731
  0
VERTEX
  8
0
 10
6.0059017834091
 20
56.685828992199
 42
0.0
  0
VERTEX
  8
0
 10
29.5144652106891
 20
6.271552028219
 42
0.4142135623731
  0
VERTEX
  8
0
 10
30.8646540770175
 20
5.7801234725891
 42
0.0
  0
VERTEX
  8
0
 10
81.2789310376877
 20
29.2886869003407
 42
0.4142135623731
  0
VERTEX
  8
0
 10
81.7703595958576
 20
30.6388757641291
 42
0.0
  0
VERTEX
  8
0
 10
67.1701246479947
 20
61.9491806489939
 42
-0.5486187866272
  0
VERTEX
  8
0
 10
68.5513377154375
 20
64.1172508798891
 42
0.0
  0
VERTEX
  8
0
 10
83.0324367592775
 20
64.1172508798891
 42
-0.4142135623731
  0
VERTEX
  8
0
 10
84.5564367592776
 20
62.5932508798892
 42
0.0
  0
VERTEX
  8
0
 10
84.5564367592776
 20
47.3532508798891
 42
0.4142135623731
  0
VERTEX
  8
0
 10
85.5724367592777
 20
46.3372508798892
 42
0.0
  0
VERTEX
  8
0
 10
103.283793741878
 20
46.3372508798891
 42
0.3056146845809
  0
VERTEX
  8
0
 10
104.225650947486
 20
46.972250879888
 42
-0.3056146845809
  0
VERTEX
  8
0
 10
105.638436759278
 20
47.9247508798892
 42
0.0
  0
VERTEX
  8
0
 10
121.132436759278
 20
47.9247508798891
 42
-0.3056146845809
  0
VERTEX
  8
0
 10
122.545222571356
 20
46.9722508798898
 42
0.3056146845809
  0
VERTEX
  8
0
 10
123.487079779218
 20
46.3372508798892
 42
0.0
  0
VERTEX
  8
0
 10
140.182436759278
 20
46.3372508798892
 42
-0.4142135623731
  0
VERTEX
  8
0
 10
141.706436759278
 20
44.8132508798891
 42
0.0
  0
VERTEX
  8
0
 10
141.706436759278
 20
44.1782508798891
 42
0.4142135623731
  0
VERTEX
  8
0
 10
142.722436759278
 20
43.1622508798891
 42
0.0
  0
VERTEX
  8
0
 10
179.298436759278
 20
43.1622508798891
 42
0.4142135623731
  0
VERTEX
  8
0
 10
180.314436759278
 20
44.1782508798891
 42
0.0
  0
VERTEX
  8
0
 10
180.314436759278
 20
60.6882508798891
 42
-0.4142135623731
  0
VERTEX
  8
0
 10
181.838436759278
 20
62.2122508798891
 42
0.0
  0
VERTEX
  8
0
 10
188.750578033433
 20
62.2122508798891
 42
0.4142135623731
  0
VERTEX
  8
0
 10
189.750578033433
 20
63.2122508798891
 42
0.0
  0
VERTEX
  8
0
 10
189.750578033433
 20
137.920250879889
 42
0.4142135623731
  0
VERTEX
  8
0
 10
188.750578033433
 20
138.920250879889
 42
0.0
  0
VERTEX
  8
0
 10
143.738436759278
 20
138.920250879889
 42
-0.4142135623731
  0
VERTEX
  8
0
 10
142.214436759278
 20
140.444250879889
 42
0.0
  0
VERTEX
  8
0
 10
142.214436759278
 20
141.079250879889
 42
0.4142135623731
  0
VERTEX
  8
0
 10
141.198436759278
 20
142.095250879889
 42
0.0
  0
VERTEX
  8
0
 10
124.688436759278
 20
142.095250879889
 42
-0.3056146845809
  0
VERTEX
  8
0
 10
123.275650949739
 20
143.047750879888
 42
0.3056146845809
  0
VERTEX
  8
0
 10
122.333793741878
 20
143.682750879889
 42
0.0
  0
VERTEX
  8
0
 10
104.437079779218
 20
143.682750879889
 42
0.3056146845809
  0
VERTEX
  8
0
 10
103.49522257107
 20
143.04775087989
 42
-0.3056146845809
  0
VERTEX
  8
0
 10
102.082436759278
 20
142.095250879889
 42
0.0
  0
VERTEX
  8
0
 10
85.2321412854376
 20
142.095250879889
 42
0.2679491924311
  0
VERTEX
  8
0
 10
84.3522594746446
 20
141.587250879889
 42
-0.2679491924311
  0
VERTEX
  8
0
 10
83.0324367592775
 20
140.825250879889
 42
0.0
  0
VERTEX
  8
0
 10
47.4724367592775
 20
140.825250879889
 42
0.4141000373537
  0
SEQEND
  0
POLYLINE
  8
0
 66
     1
 10
0.0
 20
0.0
 30
0.0
 70
     1
  0
VERTEX
  8
0
 10
193.640578033433
 20
165.79105949787
 42
0.4142135623731
  0
VERTEX
  8
0
 10
191.640578033433
 20
167.79105949787
 42
0.0
  0
VERTEX
  8
0
 10
136.131132945058
 20
167.79105949787
 42
0.0
  0
VERTEX
  8
0
 10
136.130956973654
 20
167.79105949787
 42
0.0
  0
VERTEX
  8
0
 10
106.844978033433
 20
167.79105949787
 42
0.0
  0
VERTEX
  8
0
 10
87.7695780334334
 20
167.791059497871
 42
0.0
  0
VERTEX
  8
0
 10
52.6667780334329
 20
167.79105949787
 42
0.0
  0
VERTEX
  8
0
 10
44.5537780334323
 20
167.791059497871
 42
0.4142135623731
  0
VERTEX
  8
0
 10
42.5537780334327
 20
165.791059497871
 42
0.0
  0
VERTEX
  8
0
 10
42.5537780334326
 20
86.9023617907675
 42
-0.2914822858544
  0
VERTEX
  8
0
 10
35.6248416677233
 20
76.0265025779522
 42
0.0
  0
VERTEX
  8
0
 10
2.2146065994547
 20
60.4483836677553
 42
0.4142221305055
  0
VERTEX
  8
0
 10
1.2471653947389
 20
57.7905101677218
 42
0.0
  0
VERTEX
  8
0
 10
1.2471650542513
 20
57.7905108979062
 42
0.0
  0
VERTEX
  8
0
 10
27.2115519367708
 20
2.109227669461
 42
0.4141910192641
  0
VERTEX
  8
0
 10
29.8692613522551
 20
1.1417748685262
 42
0.0
  0
VERTEX
  8
0
 10
109.437239580335
 20
38.2371598433088
 42
-0.1094975108592
  0
VERTEX
  8
0
 10
114.507786027823
 20
39.3610594978783
 42
0.0
  0
VERTEX
  8
0
 10
191.640578033433
 20
39.3610594978724
 42
0.4142135623731
  0
VERTEX
  8
0
 10
193.640578033433
 20
41.3610594978722
 42
0.0
  0
SEQEND
  0
CIRCLE
  8
Mounts
 10
55.5037877841094
 20
131.44527788153
 30
0.0
 40
2.0
  0
CIRCLE
  8
Mounts
 10
174.811296919287
 20
129.309337820287
 30
0.0
 40
2.0
  0
CIRCLE
  8
Mounts
 10
170.234282502337
 20
53.025764204444
 30
0.0
 40
2.0
  0
CIRCLE
  8
Mounts
 10
64.6578166180105
 20
43.8717353705429
 30
0.0
 40
2.0
  0
CIRCLE
  8
Mounts
 10
56.1140563730361
 20
78.9621792338305
 30
0.0
 40
2.0
  0
CIRCLE
  8
Mounts
 10
26.2108955156258
 20
35.9382437144952
 30
0.0
 40
2.0
  0
ENDSEC
  0
EOF
